<svg id="Layer_1" data-name="Layer 1" xmlns="http://www.w3.org/2000/svg" viewBox="0 0 316.44 232.36">
  <title>burgermenu_1</title>
  <g>
    <path d="M158.22,0C79.21,0,13.51,31,0,72H316.44C302.93,31,237.23,0,158.22,0ZM59.15,31a4.33,4.33,0,1,1,4.33-4.33A4.33,4.33,0,0,1,59.15,31Zm30.43,5a4.33,4.33,0,1,1,4.33-4.33A4.33,4.33,0,0,1,89.58,36Zm21-17.46a4.34,4.34,0,1,1,4.33-4.33A4.33,4.33,0,0,1,110.59,18.52ZM134.34,31a4.33,4.33,0,1,1,4.33-4.33A4.33,4.33,0,0,1,134.34,31Zm23.88-16.79a4.34,4.34,0,1,1,4.33-4.34A4.33,4.33,0,0,1,158.22,14.19ZM181.41,31a4.33,4.33,0,1,1,4.33-4.33A4.33,4.33,0,0,1,181.41,31Zm30.08-12.46a4.34,4.34,0,1,1,4.33-4.33A4.33,4.33,0,0,1,211.49,18.52Zm15.15,21.13A4.34,4.34,0,1,1,231,35.32,4.33,4.33,0,0,1,226.64,39.65ZM259,31a4.33,4.33,0,1,1,4.33-4.33A4.33,4.33,0,0,1,259,31Z"/>
    <rect y="100.91" width="316.44" height="40.83" rx="12"/>
    <path d="M316.44,170.88c0,34-70.84,61.48-158.22,61.48S0,204.83,0,170.88H215.83a.41.41,0,0,0,0,.11v23A7.58,7.58,0,1,0,231,194V171a.41.41,0,0,0,0-.11h11.45v12.4a6.15,6.15,0,1,0,12.3,0v-12.4Z"/>
  </g>
</svg>
