<svg id="Layer_1" data-name="Layer 1" xmlns="http://www.w3.org/2000/svg" viewBox="0 0 424 424"><defs><style>.cls-1{fill:#d8f2e1;opacity:0.7;}.cls-2{fill:#fff;}</style></defs><title>logo1</title><circle class="cls-1" cx="212" cy="212" r="212"/><polygon points="167.99 108.61 167.61 108.99 167.61 108.61 167.99 108.61"/><rect x="232.02" y="114.75" width="12.86" height="108.06"/><path d="M354.88,145.3H80.08a11.23,11.23,0,0,1-10.94-13.83c10.79-45,72.31-79.56,146.57-79.56,76.51,0,139.49,36.64,147.41,83.68A8.35,8.35,0,0,1,354.88,145.3Z"/><circle cx="136.16" cy="318.26" r="10.48"/><rect x="102.62" y="318.26" width="63.94" height="1.05"/><rect x="103.67" y="323.5" width="63.94" height="1.05" transform="translate(459.67 188.39) rotate(90)"/><rect x="103.67" y="318.26" width="63.94" height="1.05" transform="translate(-185.69 189.28) rotate(-45)"/><rect x="102.62" y="317.21" width="63.94" height="1.05" transform="translate(264.1 -2.11) rotate(45)"/><path d="M296,282.57a37.22,37.22,0,1,0,37.22,37.22A37.21,37.21,0,0,0,296,282.57Zm-.12,64.19A27.1,27.1,0,1,1,323,319.67,27.09,27.09,0,0,1,295.9,346.76Z"/><path d="M136,282.57a37.22,37.22,0,1,0,37.22,37.22A37.21,37.21,0,0,0,136,282.57Zm-.12,64.19A27.1,27.1,0,1,1,163,319.67,27.09,27.09,0,0,1,135.9,346.76Z"/><circle cx="296.55" cy="318.26" r="10.48"/><rect x="263" y="318.26" width="63.94" height="1.05"/><rect x="264.05" y="323.5" width="63.94" height="1.05" transform="translate(620.05 28.01) rotate(90)"/><rect x="264.05" y="318.26" width="63.94" height="1.05" transform="translate(-138.71 302.69) rotate(-45)"/><rect x="263" y="317.21" width="63.94" height="1.05" transform="translate(311.07 -115.52) rotate(45)"/><path class="cls-2" d="M198,59c-3.49-7-64,3-100,75-2.24,4.47,15.44,2.56,17,0,6.14-10.09,14.35-29.48,30-47C170,59,200,63,198,59Z"/><path d="M325.48,213.47H107.29a17,17,0,0,0-17,17v52.14a17,17,0,0,0,14.35,16.74v.07h.46a17.16,17.16,0,0,0,2.16.16H325.48a17,17,0,0,0,2.16-.16H328v0a17,17,0,0,0,14.5-16.77V230.44A17,17,0,0,0,325.48,213.47Z"/><path class="cls-2" d="M158,261.17c-.39,1.58-1,2.54-1.84,2.88a2.07,2.07,0,0,1-1,.05,1.64,1.64,0,0,0-1,0l-7.2,3.13a1.81,1.81,0,0,0-.7.85c-.24.47-.48.74-.71.81q-1.06.4-4.52-.76c-2.3-.77-3.7-1.49-4.18-2.16a3.85,3.85,0,0,1-.34-2.53,11.84,11.84,0,0,0,.09-1.26V228.34a1.88,1.88,0,0,0-.38-.86,1,1,0,0,1-.3-.6c.07-.64.64-1.11,1.71-1.42.68-.16,2.15.09,4.42.76q3.84,1.16,3.89,2.72a2.61,2.61,0,0,1-.53,1.21,2.61,2.61,0,0,0-.54,1.22v27.89l5.06-2.27a6,6,0,0,1,1.65-.91c.46-.07,1.67.65,3.65,2.14S158.13,260.7,158,261.17Z"/><path class="cls-2" d="M184.31,229.85c.2,1.75-.19,2.86-1.16,3.33a7.36,7.36,0,0,0-.78.4q-2.82,4.5-7.44,15.79-4.34,10.69-4.52,12.86a4.54,4.54,0,0,0,.19,1.42,5.36,5.36,0,0,1,.19,1.66c-.19,2.29-.74,3.51-1.65,3.68a10.9,10.9,0,0,1-3.38-.75,16.71,16.71,0,0,1-3.62-1.47,3.25,3.25,0,0,1-1.66-2.42,3.34,3.34,0,0,1,.35-1.36c.45-1.31,1.41-4,2.86-8.07q-4-8.62-5.44-11.9a89.77,89.77,0,0,1-4-10.75,3.08,3.08,0,0,0-.56-.75,1.43,1.43,0,0,1-.46-.91c0-.51.63-1.26,1.89-2.27,2.7-2.15,4.54-3.16,5.55-3a2.09,2.09,0,0,1,1.41,1.06,3.31,3.31,0,0,1,.63,1.36,26.31,26.31,0,0,0,.29,3.08,53.2,53.2,0,0,0,4.67,13.57q2.73-6.91,3.07-7.62a58.88,58.88,0,0,1,4.18-8,19.33,19.33,0,0,1,.68-2.07,2.76,2.76,0,0,1,2.63-.95,10.09,10.09,0,0,1,3.57,1.76C183.42,228.56,184.25,229.35,184.31,229.85Z"/><path class="cls-2" d="M213.15,249.88a2.62,2.62,0,0,1-1.7,2.57,1.07,1.07,0,0,1-.68-.18,1.12,1.12,0,0,0-1.26-.07,87.91,87.91,0,0,1-3,10.08c-1.3,3.2-3,5.28-5.06,6.26a3.82,3.82,0,0,1-1.7.4,18.44,18.44,0,0,1-4.33-1.31c-.87-.24-2.25-.72-4.13-1.46q-2.82-1.41-4.38-6.51a38.18,38.18,0,0,1-1.41-11,45.5,45.5,0,0,1,2.24-14.83q2.43-7.12,6.42-8a4.45,4.45,0,0,1,.77,0,14.7,14.7,0,0,1,5.94,1.61,11.59,11.59,0,0,1,5.06,3.78,10.39,10.39,0,0,1,1.41,4.24c.29,1.95.47,3,.53,3.18q.15.85.39,2.07a2.67,2.67,0,0,1-.49,1.53,2.52,2.52,0,0,1-1,1.09c-.42.17-1.68-.08-3.79-.73A13.83,13.83,0,0,1,199.2,241c-.59-.4-.83-1.19-.73-2.37a1.25,1.25,0,0,1,.24-.63,1.3,1.3,0,0,0,.24-.68c0-2.39-.26-3.58-.78-3.58q-1.65-.06-2.91,5.75a56.63,56.63,0,0,0-1.17,11.9q0,9.58,2.58,11c.52.27,1.22-.65,2.11-2.77a19.92,19.92,0,0,0,1.58-6,15.12,15.12,0,0,0-3-1.57c-1.17-.5-1.8-.94-1.9-1.31a3.33,3.33,0,0,1,.49-2.14,3.93,3.93,0,0,1,1.43-1.79,4.88,4.88,0,0,1,2.12-.45,12.66,12.66,0,0,0,2.23-.11,17.21,17.21,0,0,0,2.68-.85,6.66,6.66,0,0,1,2.28-.61,2.92,2.92,0,0,1,.54,0,9.89,9.89,0,0,1,3.57,2.27Q213.21,249.18,213.15,249.88Z"/><path class="cls-2" d="M235.72,234.24a2.67,2.67,0,0,1-1.07-.33,1.74,1.74,0,0,0-1.12-.22l-5,1.41v26.53a8.8,8.8,0,0,0,.68,3.18,3.91,3.91,0,0,1-.1,1.91,2.93,2.93,0,0,1-.92,2,1.48,1.48,0,0,1-.49.05,21.35,21.35,0,0,1-4.47-.66c-2.14-.5-3.4-1-3.79-1.46a2.22,2.22,0,0,1,0-2.42,5.14,5.14,0,0,0,.63-1.92v-25l-3.46.9a3.05,3.05,0,0,0-.8.43,1.18,1.18,0,0,1-.95.28q-1.11-.3-3.06-3c-1.3-1.8-1.86-3-1.7-3.66a3.17,3.17,0,0,1,2.28-1.76,3,3,0,0,1,1.27,0,3.44,3.44,0,0,0,1.21,0L231.83,226a10.55,10.55,0,0,0,1.41-.61,2.5,2.5,0,0,1,1.41-.25,2.35,2.35,0,0,1,1.85,1.11,10.11,10.11,0,0,1,.73,2.27,14.77,14.77,0,0,1,.48,3.43,4.36,4.36,0,0,1-.26,1.69C237.27,234,236.69,234.21,235.72,234.24Z"/><path class="cls-2" d="M262.47,261.48a4.76,4.76,0,0,1-.85,1.84,3.33,3.33,0,0,1-1.24,1.18c-.1,0-.28,0-.54-.17a1.28,1.28,0,0,0-.63-.23.49.49,0,0,0-.2,0,18.93,18.93,0,0,0-3,1.21,28.22,28.22,0,0,0-6.62,4.39l-5.3-2.27c-2-.91-3-1.58-3-2V227.53c0-.23.38-.57,1.14-1a3.33,3.33,0,0,1,1.68-.6,9.78,9.78,0,0,1,2.33.78,7.85,7.85,0,0,0,2.87.73,8.17,8.17,0,0,0,3.8-1.36q2.13-1.31,2.67-1.11a11.76,11.76,0,0,1,3.48,2.65c1.54,1.49,2.37,2.56,2.5,3.2q.1.45-.9,1.56c-.66.74-1.21,1.11-1.63,1.11a1.51,1.51,0,0,1-.77-.15c-.17-.1-.28-.13-.35-.1a27.11,27.11,0,0,0-3.25,1,14.46,14.46,0,0,0-5.31,2.93v8.22a32.82,32.82,0,0,1,4.43-1.87c.52-.07,1.61.68,3.28,2.24s2.51,2.65,2.51,3.26a2.15,2.15,0,0,1-.68,1.31,3.26,3.26,0,0,1-1.32,1c-.32,0-.89,0-1.7.1q-1.84.34-6.52,3.23v5.29c1-.6,2.3-1.32,4-2.14a11.59,11.59,0,0,1,3.09-1.24c.45,0,1.59.73,3.43,2.2S262.53,261.07,262.47,261.48Z"/><path class="cls-2" d="M293.06,228.19a2.93,2.93,0,0,1-.2,1.06,8.21,8.21,0,0,0-.44,1.36V263.9c0-.1.08.52.25,1.86.19,1.55,0,2.56-.59,3s-1.89.61-3.94.4a17,17,0,0,1-4-.95c-2-.64-3.07-1.32-3.26-2a12.24,12.24,0,0,0-.15-2.17q-2.71-7.47-6.32-16.39v14.93a2.44,2.44,0,0,0,.34,1.06c.29.57.44.87.44.9a5,5,0,0,1,.24,1.52c0,1.34-.58,2-1.75,2a17,17,0,0,1-4.81-1c-1.95-.68-3-1.2-3.31-1.57a2,2,0,0,1,0-2.07,5.8,5.8,0,0,0,.58-1.56V230.26a4.59,4.59,0,0,0-.14-.91,1.91,1.91,0,0,1-.05-1,3.32,3.32,0,0,1,1.89-2.32,3.44,3.44,0,0,1,1.07-.1,16.17,16.17,0,0,1,3.9.5,7.1,7.1,0,0,1,3.59,1.72q1.36,1.51,3.55,9.23a107.63,107.63,0,0,0,4.19,12.81V230.41a4.86,4.86,0,0,0-.2-1.14,4.6,4.6,0,0,1-.19-1.13,1.47,1.47,0,0,1,.1-.56c.16-.57.77-1,1.84-1.26a6.9,6.9,0,0,1,2.43-.25,14.85,14.85,0,0,1,2.68.55C292.26,227.1,293,227.62,293.06,228.19Z"/><path class="cls-2" d="M177.27,289.08a3.57,3.57,0,0,1-.81,2.32,2.5,2.5,0,0,1-2,1,3.74,3.74,0,0,1-3.55-2.38q-1.23-.84-1.23-1.41a.55.55,0,0,1,.35-.48,2.59,2.59,0,0,1,1.23-.38q1.22,0,1.62,1.5l.41.82a.64.64,0,0,0,.57.41c.65,0,1-.48,1-1.43a2.49,2.49,0,0,0-.44-1.72,9.34,9.34,0,0,0-1.57-.78,3.78,3.78,0,0,1-1.78-1.63,4.55,4.55,0,0,1-.62-2.2,5.89,5.89,0,0,1,.89-3.26,2.75,2.75,0,0,1,2.36-1.53,2.53,2.53,0,0,1,2.39,1.36,4.72,4.72,0,0,1,.56,2.11,4.39,4.39,0,0,1,.18,1.17,1.75,1.75,0,0,1-.08.56,1,1,0,0,1-1,.63,1.41,1.41,0,0,1-1-.41,2,2,0,0,1-.61-1.24.76.76,0,0,1,.11-.54,1.63,1.63,0,0,0,.15-.31.13.13,0,0,0,0-.07.88.88,0,0,0,0-.17c0-.34-.2-.5-.58-.47s-.66.28-.87.76a3.33,3.33,0,0,0-.24,1.45,2.72,2.72,0,0,0,1.83,2.31,5.75,5.75,0,0,1,1.95,1.34A4.12,4.12,0,0,1,177.27,289.08Z"/><path class="cls-2" d="M185.24,280.17a.78.78,0,0,1-.77.36,4.48,4.48,0,0,0-.9.05l-1.41.61c0,.86,0,1.81,0,2.84q0,3.15.18,6.45a1.76,1.76,0,0,0,.17.62,1.45,1.45,0,0,1,.17.55.7.7,0,0,1-.14.41,1.23,1.23,0,0,1-1.08.51,2.23,2.23,0,0,1-1.19-.35,1.22,1.22,0,0,1-.65-.83.69.69,0,0,1,.25-.57.92.92,0,0,0,.31-.62q-.12-3.37-.12-5.91c0-1,0-1.84.05-2.45l-.46.17a1.29,1.29,0,0,1-.47.12.68.68,0,0,1-.48-.19,6.28,6.28,0,0,1-.65-.61,1,1,0,0,1-.27-.65.93.93,0,0,1,0-.27c0-.16.83-.48,2.39-1a26.68,26.68,0,0,0,2.72-.93,1.24,1.24,0,0,0,.4-.31.78.78,0,0,1,.49-.27,1.47,1.47,0,0,1,.95.49,1.72,1.72,0,0,1,.65,1.24A1.07,1.07,0,0,1,185.24,280.17Z"/><path class="cls-2" d="M195.68,290.78a1.37,1.37,0,0,1,0,.19,1,1,0,0,1-.58.86,2.28,2.28,0,0,1-1.19.35,1.1,1.1,0,0,1-.61-.16.81.81,0,0,1-.28-.4,1,1,0,0,0-.28-.4l-3.62-2.51.15,1.56a1.53,1.53,0,0,0,.25.49,1.25,1.25,0,0,1,.24.63.87.87,0,0,1-.46.7,1.12,1.12,0,0,1-.7.2,2,2,0,0,1-1.13-.34,1.28,1.28,0,0,1-.69-.86,1.49,1.49,0,0,1,0-.17.55.55,0,0,1,.22-.42c.15-.12.22-.23.22-.33l-.52-9.69a1.88,1.88,0,0,0-.18-.59,1.45,1.45,0,0,1-.16-.53c0-.3.18-.53.55-.72a2,2,0,0,1,.94-.23,1.53,1.53,0,0,1,.54.09.55.55,0,0,1,.31.29c.05.13.12.19.2.19a7.71,7.71,0,0,0,1-.37,5.55,5.55,0,0,1,2-.44,2.51,2.51,0,0,1,2,.91,1.05,1.05,0,0,1,.22.72,7.61,7.61,0,0,1-1.38,3.5,16,16,0,0,1-2.7,3.4l4.22,3.06.82.41A.93.93,0,0,1,195.68,290.78Zm-4.39-10.56c-.24,0-.62.24-1.15.72-.11.09-.51.48-1.21,1.17l0,3a15.81,15.81,0,0,0,1.83-2.57,5,5,0,0,0,.82-2C191.55,280.33,191.46,280.22,191.29,280.22Z"/><path class="cls-2" d="M202.79,280a1.44,1.44,0,0,1-1,.32,3.17,3.17,0,0,1-.58-.05c-.31.1-.6.21-.85.31a4.8,4.8,0,0,0-1.21.61,38.93,38.93,0,0,0,0,4,1.25,1.25,0,0,1,.49-.14.7.7,0,0,1,.67-.36,1.93,1.93,0,0,1,1.11.48,1.28,1.28,0,0,1,.63.93.69.69,0,0,1-.05.24,1,1,0,0,1-.61.65,1.92,1.92,0,0,1-.72,0,1.23,1.23,0,0,0-.6,0l-.92.44a11.31,11.31,0,0,0,.1,2,4.82,4.82,0,0,0,1.14-.41l.17-.22a.67.67,0,0,1,.59-.15,1.54,1.54,0,0,1,.95.54,1.5,1.5,0,0,1,.49,1,.75.75,0,0,1-.38.68,2.22,2.22,0,0,1-1.26.15l-1.54.8a3.46,3.46,0,0,0-.43.34.68.68,0,0,1-.44.22.44.44,0,0,1-.15,0,3,3,0,0,1-1.57-1.41.39.39,0,0,1-.05-.2s.06-.26.18-.68q-.18-4.95-.06-10.54a.59.59,0,0,1-.12-.34c0-.37.34-.61,1-.71a.91.91,0,0,1,.54.11l.41.23,2-.65a3,3,0,0,0,.38-.2.81.81,0,0,1,.49-.14l.31,0a1.22,1.22,0,0,1,.71.59,1.75,1.75,0,0,1,.36,1A.52.52,0,0,1,202.79,280Z"/><path class="cls-2" d="M209.84,280a1.44,1.44,0,0,1-1,.32,3.17,3.17,0,0,1-.58-.05c-.31.1-.6.21-.85.31a4.62,4.62,0,0,0-1.21.61,38.93,38.93,0,0,0,0,4,1.25,1.25,0,0,1,.49-.14.69.69,0,0,1,.67-.36,1.93,1.93,0,0,1,1.11.48,1.28,1.28,0,0,1,.63.93.69.69,0,0,1,0,.24,1,1,0,0,1-.61.65,1.92,1.92,0,0,1-.72,0,1.23,1.23,0,0,0-.6,0l-.92.44a11.31,11.31,0,0,0,.1,2,5,5,0,0,0,1.14-.41l.17-.22a.67.67,0,0,1,.59-.15,1.54,1.54,0,0,1,.95.54,1.5,1.5,0,0,1,.49,1,.75.75,0,0,1-.38.68,2.22,2.22,0,0,1-1.26.15l-1.54.8a2.82,2.82,0,0,0-.43.34.68.68,0,0,1-.44.22.44.44,0,0,1-.15,0,3,3,0,0,1-1.57-1.41.39.39,0,0,1,0-.2s.06-.26.18-.68q-.18-4.95-.06-10.54a.59.59,0,0,1-.12-.34c0-.37.33-.61,1-.71a.91.91,0,0,1,.54.11l.41.23,2-.65a3,3,0,0,0,.38-.2.81.81,0,0,1,.49-.14l.31,0a1.22,1.22,0,0,1,.71.59,1.73,1.73,0,0,1,.35,1A.54.54,0,0,1,209.84,280Z"/><path class="cls-2" d="M217.84,280.17a.78.78,0,0,1-.77.36,4.48,4.48,0,0,0-.9.05c-.4.18-.87.39-1.41.61,0,.86,0,1.81,0,2.84q0,3.15.18,6.45a1.76,1.76,0,0,0,.17.62,1.52,1.52,0,0,1,.18.55.65.65,0,0,1-.15.41,1.23,1.23,0,0,1-1.08.51,2.25,2.25,0,0,1-1.19-.35,1.25,1.25,0,0,1-.65-.83.69.69,0,0,1,.25-.57.92.92,0,0,0,.31-.62q-.12-3.37-.12-5.91c0-1,0-1.84,0-2.45l-.46.17a1.29,1.29,0,0,1-.47.12.68.68,0,0,1-.48-.19,6.28,6.28,0,0,1-.65-.61,1,1,0,0,1-.27-.65,1.47,1.47,0,0,1,0-.27c0-.16.83-.48,2.39-1a26.68,26.68,0,0,0,2.72-.93,1.14,1.14,0,0,0,.4-.31.78.78,0,0,1,.49-.27,1.47,1.47,0,0,1,.95.49,1.72,1.72,0,0,1,.65,1.24A1.07,1.07,0,0,1,217.84,280.17Z"/><path class="cls-2" d="M234.41,279.29a.81.81,0,0,1-.64.93s-.44,0-1.23.1a.31.31,0,0,0-.13,0c-.67.33-1.16.56-1.48.68a24,24,0,0,0,0,4.05c.14-.11.36-.26.65-.46s.48-.47.66-.46a1.75,1.75,0,0,1,1.09.55,1.54,1.54,0,0,1,.55,1.08,1,1,0,0,1-.1.41c-.12.25-.42.38-.9.41a1.89,1.89,0,0,0-1.1.27,1,1,0,0,0-.43.3l-.39.41a18.61,18.61,0,0,0,0,3.2,1.3,1.3,0,0,1,.08.42.93.93,0,0,1-.57.85,1,1,0,0,1-.51.12,1.66,1.66,0,0,1-1-.32,1.36,1.36,0,0,1-.59-.87.45.45,0,0,1,.08-.36l.22-.22q-.1-7.41,0-10.94c0-.12,0-.22,0-.31,0-.59.35-.88,1-.88l.4,0a1.2,1.2,0,0,1,.49.14,2.12,2.12,0,0,1,.23.23l1-.37.35-.23a1.16,1.16,0,0,1,.6-.13,1.7,1.7,0,0,1,1,.43A1.27,1.27,0,0,1,234.41,279.29Z"/><path class="cls-2" d="M242.88,284.62a12,12,0,0,1-.75,4.7q-.87,2.43-1.86,2.73a1.73,1.73,0,0,1-.77.1l-.77-.1q-3.37-.41-3.72-7.43a11.65,11.65,0,0,1,.59-4.08,5.1,5.1,0,0,1,1.33-2.5.66.66,0,0,1,.36-.11,1.88,1.88,0,0,1,.46.09,1.93,1.93,0,0,0,.47.09,5,5,0,0,0,.72-.09,4.92,4.92,0,0,1,.76-.09,1,1,0,0,1,.38.06C241.77,278.71,242.71,280.92,242.88,284.62Zm-2.21,0a19.09,19.09,0,0,0-.45-3.19c-.3-1.2-.76-1.8-1.36-1.8a1.13,1.13,0,0,0-.51.13c-.18.09-.42.68-.72,1.75a12.86,12.86,0,0,0-.45,3.11,12.32,12.32,0,0,0,.59,3.68c.39,1.29.77,1.93,1.13,1.93s.71-.57,1.13-1.73a10.16,10.16,0,0,0,.65-3.42C240.68,284.92,240.68,284.77,240.67,284.62Z"/><path class="cls-2" d="M252.09,284.62a12,12,0,0,1-.75,4.7c-.58,1.62-1.2,2.53-1.85,2.73a1.77,1.77,0,0,1-.78.1l-.77-.1q-3.37-.41-3.72-7.43a11.65,11.65,0,0,1,.59-4.08,5.1,5.1,0,0,1,1.33-2.5.66.66,0,0,1,.36-.11,1.88,1.88,0,0,1,.46.09,1.91,1.91,0,0,0,.48.09,5.07,5.07,0,0,0,.71-.09,4.92,4.92,0,0,1,.76-.09,1,1,0,0,1,.38.06C251,278.71,251.92,280.92,252.09,284.62Zm-2.21,0a20.45,20.45,0,0,0-.44-3.19c-.31-1.2-.76-1.8-1.36-1.8a1.14,1.14,0,0,0-.52.13c-.18.09-.42.68-.71,1.75a11.28,11.28,0,0,0,.13,6.79c.39,1.29.77,1.93,1.13,1.93s.71-.57,1.13-1.73a9.94,9.94,0,0,0,.66-3.42C249.9,284.92,249.89,284.77,249.88,284.62Z"/><path class="cls-2" d="M260.34,280.68a14.32,14.32,0,0,1-.76,4,28.64,28.64,0,0,1-2,5.22c-.88,1.72-1.69,2.57-2.42,2.57a1.52,1.52,0,0,1-1.07-.51,1.47,1.47,0,0,1-.52-1.05.75.75,0,0,1,.15-.46c-.18-4.89-.24-8.21-.2-10a2,2,0,0,1-.34-.87.87.87,0,0,1,.44-.72,1.36,1.36,0,0,1,.82-.28,1,1,0,0,1,.65.23A10.12,10.12,0,0,1,258,278a1.65,1.65,0,0,1,.74.18,3,3,0,0,1,1,1A3.09,3.09,0,0,1,260.34,280.68Zm-2.23-.51a.52.52,0,0,0-.43-.2,4.64,4.64,0,0,0-2,1.22c-.06.85-.1,1.79-.1,2.82,0,1.48.07,3,.2,4.56q.87-2.19,1.6-4.61a15.1,15.1,0,0,0,.79-3.47A.6.6,0,0,0,258.11,280.17Z"/></svg>
