<?xml version="1.0" encoding="utf-8"?>
<!-- Generator: Adobe Illustrator 24.0.3, SVG Export Plug-In . SVG Version: 6.00 Build 0)  -->
<svg version="1.1" id="Layer_1" xmlns="http://www.w3.org/2000/svg" xmlns:xlink="http://www.w3.org/1999/xlink" x="0px" y="0px"
	 viewBox="0 0 298.9 99.8" style="enable-background:new 0 0 298.9 99.8;" xml:space="preserve">
<style type="text/css">
	.st0{fill:#F2C2C2;}
	.st1{fill:#F5CECE;}
	.st2{fill:#EAD13F;}
	.st3{fill:#010200;}
	.st4{fill:#333333;}
	.st5{fill:#FFFFFF;}
	.st6{fill:#D8F2E1;}
	.st7{fill:#E8F7ED;}
	.st8{fill:#6564A5;}
	.st9{fill:#8483B7;}
	.st10{fill:#BF665E;}
	.st11{fill:#CC857E;}
</style>
<g>
	<path class="st0" d="M104,52.2c0.7,4.8,5.2,8.2,10.1,7.5c4.8-0.7,8.2-5.2,7.5-10.1c-0.4-2.6-1.9-5-4.2-6.3
		c-1.3-0.8-2.1-2.1-2.4-3.6l-0.3-2.2c-0.2-1-1.1-1.7-2.1-1.6l-3.8,0.6c-1,0.2-1.7,1.1-1.6,2.1l0.4,2.3c0.2,1.5-0.2,3-1.2,4.1
		C104.4,46.9,103.6,49.6,104,52.2z"/>
	<circle class="st1" cx="112.8" cy="51.3" r="6.4"/>
	<path class="st2" d="M108,53.6c0,0-0.1,0-0.2,0c-0.2,0-0.3-0.3-0.3-0.5l0.7-16.7c0-0.3,0.2-0.5,0.5-0.5c0.3,0,0.5,0.2,0.5,0.6l0,0
		l-0.6,14.8l0.4-0.6c0.1-0.1,0.3-0.2,0.4-0.2c0.2,0,0.3,0.1,0.4,0.2l0.6,0.7l0.7-0.9c0.2-0.2,0.5-0.2,0.7-0.1l0,0l0.6,0.5l0.6-0.9
		c0.1-0.1,0.3-0.2,0.4-0.2c0.2,0,0.3,0.1,0.4,0.2l0.3,0.4l0.6-0.7c0.1-0.1,0.2-0.2,0.4-0.2c0.2,0,0.3,0,0.4,0.2l0.6,0.6l0.2-0.4
		c0.1-0.1,0.2-0.2,0.3-0.3c0.1,0,0.3,0,0.4,0.1l0,0l-5.7-13.6c-0.1-0.3,0-0.6,0.3-0.7c0.3-0.1,0.6,0,0.7,0.3l6.5,15.6
		c0.1,0.2,0,0.5-0.3,0.7c-0.2,0.1-0.4,0-0.5-0.1l-1.2-1l-0.2,0.4c-0.1,0.1-0.2,0.2-0.3,0.3s-0.3,0-0.4-0.1l-0.7-0.7l-0.7,0.7
		c-0.1,0.1-0.3,0.2-0.4,0.2c-0.2,0-0.3-0.1-0.4-0.2l-0.2-0.3l-0.5,0.8c-0.1,0.1-0.2,0.2-0.4,0.2c-0.1,0-0.3,0-0.4-0.1l-0.6-0.6
		l-0.7,0.9c-0.1,0.1-0.3,0.2-0.4,0.2c-0.2,0-0.3-0.1-0.4-0.1l-0.6-0.7l-1,1.6C108.3,53.5,108.2,53.6,108,53.6z"/>
	<path class="st3" d="M109.3,35.7l2.4-0.3c1.4-0.2,2.8,0.8,3,2.3l0.3,2.1l-7.5,1.1l-0.3-2.1C106.9,37.3,107.9,35.9,109.3,35.7z"/>
	<path class="st4" d="M107.1,39.3l7.8-1.2c0.2-0.1,0.3,0.1,0.4,0.3l0,0l0,0c0.1,0.2-0.1,0.3-0.3,0.4l0,0l-7.8,1.2
		c-0.2,0.1-0.3-0.1-0.4-0.3l0,0l0,0C106.8,39.5,106.9,39.4,107.1,39.3L107.1,39.3z"/>
	<path class="st4" d="M106.9,38.2l7.8-1.2c0.2-0.1,0.4,0.1,0.4,0.3l0,0l0,0c0.1,0.2-0.1,0.4-0.3,0.4l0,0l-7.8,1.2
		c-0.2,0.1-0.4-0.1-0.4-0.3l0,0l0,0C106.6,38.5,106.7,38.3,106.9,38.2L106.9,38.2z"/>
	<path class="st4" d="M106.8,37.2l7.8-1.2c0.2-0.1,0.3,0.1,0.4,0.3l0,0l0,0c0.1,0.2-0.1,0.3-0.3,0.4l0,0l-7.8,1.2
		c-0.2,0.1-0.3-0.1-0.4-0.3l0,0l0,0C106.4,37.4,106.6,37.2,106.8,37.2L106.8,37.2z"/>
	<path class="st5" d="M111.2,59L111.2,59c-0.3,0-4.3-0.5-6.3-5.2c-0.1-0.2,0-0.6,0.3-0.7l0,0c0.2-0.1,0.5,0,0.7,0.3
		c1.8,4.2,5.4,4.6,5.4,4.6c0.3,0,0.4,0.3,0.4,0.6C111.6,58.8,111.4,59,111.2,59L111.2,59z"/>
	<circle class="st5" cx="105" cy="52.5" r="0.4"/>
</g>
<g>
	<path class="st6" d="M141.6,50.9c1,4.8,5.7,7.8,10.5,6.9c4.8-1,7.9-5.7,7-10.4c-0.5-2.6-2.2-4.9-4.6-6.1c-1.3-0.7-2.3-1.9-2.6-3.4
		l-0.4-2.2c-0.2-1-1.2-1.7-2.2-1.4l-3.8,0.8c-1,0.2-1.6,1.2-1.5,2.2l0.5,2.2c0.3,1.4-0.1,3-1,4.1C141.7,45.6,141.1,48.3,141.6,50.9z
		"/>
	<ellipse transform="matrix(0.9841 -0.1774 0.1774 0.9841 -6.3992 27.4683)" class="st7" cx="150.4" cy="49.5" rx="6.2" ry="6.4"/>
	<path class="st2" d="M145.8,52c0,0-0.1,0-0.1,0c-0.2-0.1-0.3-0.2-0.4-0.5L145,34.9c0-0.3,0.2-0.5,0.5-0.5c0.3,0,0.5,0.2,0.5,0.5
		l0.3,14.9l0.4-0.7c0.1-0.1,0.2-0.2,0.3-0.3c0.1,0,0.3,0,0.4,0.2l0.7,0.7l0.6-0.9c0.1-0.1,0.2-0.2,0.3-0.2c0.1,0,0.2,0,0.3,0.1
		l0.6,0.5l0.5-1c0.1-0.2,0.2-0.2,0.4-0.3c0.1,0,0.3,0,0.4,0.2l0.4,0.4l0.6-0.7c0.1-0.2,0.4-0.2,0.6-0.1l0.7,0.6l0.2-0.4
		c0.1-0.1,0.2-0.2,0.3-0.3s0.3,0,0.4,0.1l0.1,0.1L148,34.5c-0.1-0.2,0-0.5,0.2-0.6c0.2-0.1,0.5,0,0.6,0.2l7.3,15.1
		c0.1,0.2,0,0.5-0.2,0.6c-0.2,0.1-0.3,0.1-0.5-0.1l-1.2-1l-0.2,0.4c-0.1,0.1-0.2,0.2-0.3,0.3c-0.1,0-0.3,0-0.4-0.1l-0.8-0.6
		l-0.6,0.8c-0.1,0.1-0.2,0.2-0.3,0.2c-0.1,0-0.2-0.1-0.4-0.2l-0.2-0.3l-0.5,0.9c-0.1,0.1-0.2,0.2-0.3,0.3c-0.1,0-0.3,0-0.4-0.1
		l-0.7-0.6l-0.7,1c-0.1,0.2-0.4,0.3-0.6,0.1c0,0-0.1,0-0.1-0.1l-0.6-0.7l-0.9,1.7C146.2,51.9,146,52.1,145.8,52z"/>
	<path class="st3" d="M146.1,34l2-0.4c1.5-0.3,3,0.7,3.3,2.3l0,0l0.4,1.9l-7.5,1.6l-0.4-1.9C143.6,35.9,144.6,34.3,146.1,34
		C146.1,34,146.1,34,146.1,34z"/>
	<path class="st4" d="M144.1,37.9l7.5-1.5c0.2,0,0.4,0.1,0.4,0.3l0,0l0,0c0,0.2-0.1,0.4-0.3,0.4l-7.5,1.5c-0.2,0-0.3-0.1-0.4-0.3
		l0,0C143.8,38.1,143.9,38,144.1,37.9C144.1,37.9,144.1,37.9,144.1,37.9z"/>
	<path class="st4" d="M143.9,36.8l7.5-1.5c0.2,0,0.3,0.1,0.4,0.3l0,0c0,0.2-0.1,0.4-0.3,0.4l-7.5,1.5c-0.2,0-0.3-0.1-0.4-0.3l0,0
		C143.6,37,143.7,36.8,143.9,36.8L143.9,36.8z"/>
	<path class="st4" d="M143.6,35.7l7.5-1.5c0.2,0,0.3,0.1,0.4,0.3l0,0c0,0.2-0.1,0.4-0.3,0.4l-7.5,1.5c-0.2,0-0.3-0.1-0.4-0.3l0,0
		C143.3,36,143.4,35.8,143.6,35.7L143.6,35.7z"/>
	<path class="st5" d="M149.2,57.2L149.2,57.2c-0.2,0-4.1-0.3-6.4-4.9c-0.1-0.2,0-0.5,0.3-0.6c0.2-0.1,0.5,0,0.6,0.2
		c2,4.1,5.4,4.3,5.6,4.4c0.2,0,0.5,0.3,0.4,0.5C149.7,57,149.5,57.2,149.2,57.2z"/>
	<ellipse transform="matrix(0.9841 -0.1774 0.1774 0.9841 -6.8039 26.1518)" class="st5" cx="142.8" cy="51.1" rx="0.4" ry="0.4"/>
</g>
<title>lyger</title>
<path class="st4" d="M-10.8-266.4l0.2,0.1c2,0.6,3.1,2.7,2.5,4.7l0,0l-7.4-2.2l0,0C-14.9-265.9-12.8-267-10.8-266.4z"/>
<path class="st8" d="M-40.7-236.8c-3.2,10.7,2.9,21.9,13.5,25.1c10.6,3.2,21.9-2.8,25.1-13.5c1.7-5.8,0.8-12.1-2.6-17.1
	c-1.9-2.8-2.4-6.4-1.4-9.7l1.5-4.9c0.7-2.2-0.6-4.6-2.8-5.3l-8.5-2.4c-2.2-0.7-4.6,0.6-5.3,2.8l-1.5,5c-1,3.3-3.3,5.9-6.5,7.2
	C-34.7-247.2-38.9-242.6-40.7-236.8z"/>
<circle class="st9" cx="-21.7" cy="-230.1" r="14.5"/>
<path class="st2" d="M-33.7-230.1c-0.1,0-0.2-0.1-0.3-0.2c-0.3-0.3-0.4-0.8-0.2-1.2l17.5-33.6c0.3-0.5,0.9-0.7,1.3-0.4
	c0.5,0.2,0.7,0.8,0.5,1.3l0,0l-15.8,30.4l1.8-1.2c0.3-0.2,0.6-0.2,0.9-0.1c0.3,0.1,0.5,0.4,0.6,0.7l0.6,2.3l2.4-1.2
	c0.3-0.1,0.5-0.1,0.8,0c0.3,0.1,0.5,0.3,0.6,0.6l0.8,1.8l2.3-1.4c0.3-0.2,0.6-0.2,0.9-0.1c0.3,0.1,0.5,0.4,0.6,0.7l0.3,1.2l2.1-0.8
	c0.5-0.2,1.1,0,1.3,0.6l0,0l0.8,2l0.9-0.6c0.2-0.2,0.6-0.2,0.8-0.1c0.3,0.1,0.5,0.3,0.7,0.6l0.3,0.6l1.3-34.4c0-0.6,0.5-1,1-1
	s1,0.5,1,1l-1.6,38.5c0,0.6-0.5,1-1,1c-0.4,0-0.7-0.2-0.9-0.6l-1.5-3.5l-1,0.7c-0.3,0.2-0.6,0.2-0.9,0.1c-0.3-0.1-0.5-0.3-0.6-0.6
	l-0.9-2.2l-2.2,0.9c-0.3,0.1-0.6,0.1-0.8,0c-0.3-0.1-0.4-0.4-0.5-0.7l-0.2-1l-2.1,1.3c-0.2,0.2-0.6,0.2-0.8,0.1
	c-0.3-0.1-0.5-0.3-0.6-0.6l-0.8-1.9l-2.5,1.3c-0.3,0.1-0.6,0.1-0.9,0c-0.3-0.1-0.5-0.4-0.6-0.7l-0.6-2.1l-3.8,2.4
	C-33-230-33.4-229.9-33.7-230.1z"/>
<path class="st3" d="M-13.6-265.2l4.7,1.4c3.3,1,5.1,4.4,4.2,7.7l-1.2,4.2l-16.5-5l1.2-4.2C-20.3-264.4-16.9-266.2-13.6-265.2
	L-13.6-265.2z"/>
<path class="st4" d="M-21.8-260.2l17.1,5.1c0.4,0.1,0.7,0.5,0.6,1l0,0l0,0c-0.1,0.4-0.6,0.7-1,0.6l0,0l-17.1-5.2
	c-0.4-0.1-0.7-0.6-0.6-1l0,0l0,0C-22.7-260.1-22.3-260.4-21.8-260.2L-21.8-260.2z"/>
<path class="st4" d="M-21.1-262.7l17.1,5.2c0.4,0.1,0.7,0.5,0.6,1l0,0l0,0c-0.1,0.4-0.6,0.7-1,0.6l0,0l-17.1-5.2
	c-0.4-0.1-0.7-0.6-0.5-1l0,0C-21.9-262.6-21.5-262.8-21.1-262.7L-21.1-262.7z"/>
<path class="st4" d="M-20.4-265.1l17.1,5.2c0.4,0.1,0.7,0.6,0.6,1l0,0l0,0c-0.1,0.4-0.6,0.7-1,0.6l0,0l-17.1-5.2
	c-0.4-0.1-0.7-0.5-0.6-1l0,0l0,0C-21.2-265-20.8-265.2-20.4-265.1L-20.4-265.1z"/>
<path class="st5" d="M-32.3-216c-0.1,0-0.1-0.1-0.2-0.1c-0.3-0.2-8-5.1-7.6-16.7c0-0.6,0.5-1,1-1c0.6,0,1,0.5,1,1l0,0
	c-0.4,10.4,6.3,14.7,6.6,14.9c0.5,0.3,0.7,0.9,0.4,1.4C-31.3-216-31.8-215.8-32.3-216z"/>
<circle class="st5" cx="-38.9" cy="-235.2" r="0.9"/>
<path class="st4" d="M222.4-161.1h0.2c2,0.3,3.5,2.1,3.2,4.2l0,0l-7.7-0.9l0,0C218.5-160,220.4-161.4,222.4-161.1z"/>
<path class="st8" d="M198-126.9c-1.4,11,6.4,21.1,17.5,22.5c11,1.4,21.1-6.4,22.5-17.5c0.8-6-1.2-12-5.4-16.4
	c-2.3-2.5-3.5-5.9-3-9.3l0.6-5.1c0.3-2.3-1.4-4.4-3.7-4.7l-8.7-1.1c-2.3-0.3-4.4,1.4-4.7,3.7l-0.6,5.1c-0.4,3.4-2.3,6.4-5.2,8.2
	C202.1-138.2,198.7-132.9,198-126.9z"/>
<ellipse class="st9" cx="217.8" cy="-123.5" rx="14.5" ry="14.5"/>
<path class="st2" d="M206-121.5c-0.1,0-0.2-0.1-0.4-0.1c-0.4-0.2-0.5-0.7-0.4-1.1l11.6-36.1c0.1-0.5,0.7-0.9,1.2-0.7
	c0.5,0.1,0.9,0.7,0.7,1.2v0.1l-10.5,32.6l1.6-1.5c0.2-0.2,0.6-0.3,0.9-0.2s0.6,0.3,0.7,0.6l1,2.1l2.1-1.6c0.2-0.2,0.5-0.2,0.8-0.2
	c0.3,0.1,0.5,0.2,0.7,0.4l1,1.6l2-1.8c0.4-0.4,1-0.3,1.4,0.1c0.1,0.1,0.1,0.2,0.2,0.3l0.5,1.2l1.9-1.2c0.5-0.3,1.1-0.1,1.4,0.3
	l1.1,1.8l0.8-0.8c0.2-0.2,0.5-0.3,0.8-0.3s0.6,0.2,0.7,0.4l0.4,0.6l-4.3-33.8c-0.1-0.6,0.3-1.1,0.9-1.1s1.1,0.3,1.1,0.9l4.9,38.1
	c0.1,0.5-0.3,1.1-0.9,1.1c-0.4,0.1-0.8-0.1-1-0.4l-2.1-3.1l-0.8,0.8c-0.4,0.4-1,0.4-1.4,0c-0.1-0.1-0.1-0.1-0.1-0.2l-1.2-2.1
	l-2.1,1.3c-0.2,0.2-0.6,0.2-0.8,0.1c-0.3-0.1-0.5-0.3-0.6-0.6l-0.4-1l-1.8,1.6c-0.2,0.2-0.5,0.3-0.8,0.2c-0.3,0-0.6-0.2-0.7-0.4
	l-1.1-1.7l-2.3,1.7c-0.2,0.2-0.6,0.2-0.9,0.2c-0.3-0.1-0.5-0.3-0.6-0.6l-0.9-2l-3.4,3C206.6-121.5,206.3-121.4,206-121.5z"/>
<path class="st3" d="M219.9-159.5l4.9,0.6c3.4,0.4,5.8,3.5,5.4,6.9l-0.5,4.3l-17.1-2.1l0.5-4.3C213.3-157.5,216.4-159.9,219.9-159.5
	C219.8-159.5,219.8-159.5,219.9-159.5z"/>
<path class="st4" d="M212.6-153.2l17.7,2.2c0.4,0,0.7,0.4,0.7,0.9l0,0l0,0c0,0.4-0.4,0.7-0.9,0.7l0,0l-17.7-2.2
	c-0.4-0.1-0.7-0.4-0.7-0.9l0,0C211.8-152.9,212.1-153.2,212.6-153.2L212.6-153.2z"/>
<path class="st4" d="M212.9-155.7l17.7,2.2c0.4,0,0.8,0.4,0.7,0.9l0,0l0,0c-0.1,0.4-0.4,0.7-0.9,0.7l-17.7-2.2
	c-0.4-0.1-0.7-0.4-0.7-0.9l0,0C212.1-155.4,212.5-155.8,212.9-155.7L212.9-155.7z"/>
<path class="st4" d="M213.2-158.2l17.7,2.2c0.4,0.1,0.7,0.4,0.7,0.9l0,0c-0.1,0.4-0.4,0.8-0.9,0.7l-17.7-2.2
	c-0.4-0.1-0.7-0.4-0.7-0.9l0,0C212.4-157.9,212.8-158.3,213.2-158.2L213.2-158.2z"/>
<path class="st5" d="M209.7-107.9c-0.1,0-0.1,0-0.2-0.1c-0.4-0.1-8.8-3.6-10.3-15.2c-0.1-0.6,0.3-1.1,0.9-1.1
	c0.6-0.1,1.1,0.3,1.1,0.9c1.4,10.3,8.7,13.4,9,13.6c0.5,0.2,0.7,0.8,0.5,1.3C210.6-108,210.1-107.8,209.7-107.9L209.7-107.9z"/>
<circle class="st5" cx="200" cy="-125.6" r="0.9"/>
<path class="st4" d="M100.2-198.3h0.2c2,0.4,3.2,2.3,2.8,4.3l0,0l0,0l-7.4-1.6l0,0C96.4-197.5,98.3-198.7,100.2-198.3z"/>
<path class="st10" d="M73.7-167.2c-2.2,10.6,4.5,21,15.1,23.3s21-4.5,23.3-15.1c1.2-5.8-0.2-11.8-3.9-16.4c-2.1-2.6-2.9-6-2.2-9.3
	l1-4.8c0.5-2.2-1-4.4-3.2-4.9l-8.4-1.8c-2.2-0.5-4.4,1-4.9,3.2l-1.1,4.9c-0.7,3.2-2.8,6-5.7,7.5C78.6-177.8,74.9-172.9,73.7-167.2z"
	/>
<circle class="st11" cx="92.7" cy="-162.2" r="14.2"/>
<path class="st2" d="M81.1-161.2c-0.1,0-0.3-0.1-0.4-0.2c-0.4-0.3-0.5-0.8-0.3-1.2l14.2-34.1c0.2-0.5,0.8-0.8,1.3-0.5
	c0.5,0.2,0.8,0.8,0.5,1.3l-12.8,30.7l1.6-1.2c0.4-0.3,1.1-0.2,1.4,0.2c0.1,0.1,0.1,0.2,0.1,0.3l0.8,2.1l2.1-1.3
	c0.2-0.1,0.5-0.2,0.8-0.1c0.3,0.1,0.5,0.2,0.6,0.5l0.9,1.6l2.1-1.6c0.3-0.2,0.6-0.2,0.9-0.1c0.3,0.1,0.6,0.3,0.6,0.6l0.4,1.1l1.9-1
	c0.5-0.2,1.1-0.1,1.3,0.4l1,1.9l0.8-0.7c0.2-0.2,0.5-0.3,0.8-0.2s0.5,0.2,0.7,0.5l0.3,0.5l-1.4-33.1c0-0.6,0.4-1,1-1s1,0.4,1,1
	l1.5,37.3c0,0.6-0.4,1-1,1c-0.4,0-0.7-0.2-0.9-0.5l-1.7-3.1l-0.8,0.7c-0.2,0.2-0.5,0.3-0.8,0.2c-0.3-0.1-0.6-0.3-0.7-0.5l-1.1-2.1
	l-2.1,1c-0.3,0.1-0.6,0.1-0.8,0c-0.3-0.1-0.5-0.3-0.6-0.6l-0.3-0.9l-1.9,1.4c-0.2,0.2-0.5,0.2-0.8,0.2c-0.3-0.1-0.5-0.2-0.7-0.5
	l-0.9-1.7l-2.3,1.4c-0.3,0.2-0.6,0.2-0.9,0.1c-0.3-0.1-0.5-0.3-0.6-0.6l-0.7-2l-3.5,2.6C81.8-161.2,81.4-161.1,81.1-161.2z"/>
<path class="st3" d="M96.6-197.2l6.8,1.4c2.7,0.6,4.4,3.2,3.8,5.9l-1.1,5.2l-16.5-3.5l1.1-5.2C91.3-196,93.9-197.7,96.6-197.2z"/>
<path class="st4" d="M90.1-191.5l17,3.6c0.4,0.1,0.7,0.5,0.6,0.9l0,0c-0.1,0.4-0.5,0.7-0.9,0.6l-17-3.6c-0.4-0.1-0.7-0.5-0.6-0.9
	l0,0l0,0C89.3-191.3,89.6-191.5,90.1-191.5L90.1-191.5z"/>
<path class="st4" d="M90.6-193.9l17.1,3.6c0.4,0.1,0.7,0.5,0.6,0.9l0,0c-0.1,0.4-0.5,0.7-0.9,0.6l-17-3.6c-0.4-0.1-0.7-0.5-0.6-0.9
	l0,0C89.8-193.7,90.2-193.9,90.6-193.9z"/>
<path class="st4" d="M91.1-196.3l17,3.6c0.4,0.1,0.7,0.5,0.6,0.9l0,0c-0.1,0.4-0.5,0.7-0.9,0.6l-17-3.6c-0.4-0.1-0.7-0.5-0.6-0.9
	l0,0C90.2-196.1,90.6-196.4,91.1-196.3L91.1-196.3z"/>
<path class="st5" d="M83.5-147.7c-0.1,0-0.1,0-0.2-0.1c-0.3-0.2-8.2-4.3-8.7-15.6c0-0.6,0.4-1,1-1s1,0.4,1,1
	c0.5,10.1,7.6,13.8,7.6,13.9c0.5,0.2,0.7,0.8,0.4,1.3C84.4-147.8,84-147.5,83.5-147.7z"/>
<circle class="st5" cx="75.5" cy="-165.8" r="0.9"/>
<path class="st4" d="M345.1-150.2h0.2c2,0.1,3.6,1.7,3.5,3.7l0,0l0,0l-7.5-0.2l0,0C341.4-148.7,343.1-150.2,345.1-150.2z"/>
<path class="st10" d="M324.5-114.8c-0.3,10.8,8.2,19.9,19.1,20.2c10.8,0.3,19.9-8.2,20.2-19.1c0.2-5.9-2.3-11.6-6.8-15.4
	c-2.5-2.2-3.9-5.4-3.8-8.7l0.1-5c0.1-2.3-1.7-4.1-4-4.2l-8.5-0.2c-2.3,0-4.1,1.7-4.2,4l-0.1,5c-0.1,3.3-1.6,6.4-4.3,8.4
	C327.5-126.2,324.7-120.7,324.5-114.8z"/>
<circle class="st11" cx="344.1" cy="-113.3" r="14.2"/>
<path class="st2" d="M332.8-110.2c-0.1,0-0.3,0-0.4-0.1c-0.4-0.2-0.6-0.7-0.5-1.1l7.9-36.1c0.1-0.5,0.7-0.9,1.2-0.8
	c0.5,0.1,0.9,0.6,0.8,1.2l0,0l-7.1,32.5l1.4-1.5c0.2-0.2,0.5-0.3,0.9-0.3c0.3,0,0.6,0.2,0.8,0.5l1.1,2l1.9-1.7
	c0.2-0.2,0.5-0.3,0.8-0.2c0.3,0,0.5,0.2,0.7,0.4l1.1,1.5l1.8-1.9c0.2-0.2,0.5-0.4,0.9-0.3c0.3,0,0.6,0.2,0.8,0.5l0.5,1.1l1.7-1.3
	c0.4-0.3,1.1-0.2,1.4,0.2l1.3,1.6l0.7-0.8c0.2-0.2,0.5-0.4,0.8-0.4s0.6,0.1,0.8,0.4l0.4,0.4l-7.2-32.3c-0.1-0.5,0.2-1.1,0.8-1.2
	c0.5-0.1,1.1,0.2,1.2,0.8l0,0l8.2,36.4c0.1,0.5-0.2,1.1-0.8,1.2c-0.4,0.1-0.8-0.1-1-0.3l-2.3-2.8l-0.7,0.8c-0.2,0.2-0.5,0.4-0.8,0.4
	s-0.6-0.2-0.8-0.4l-1.4-1.9l-1.9,1.4c-0.2,0.2-0.5,0.2-0.8,0.2c-0.3-0.1-0.5-0.2-0.7-0.5l-0.4-0.9l-1.6,1.7
	c-0.2,0.2-0.5,0.3-0.8,0.3s-0.6-0.1-0.8-0.4l-1.2-1.5l-2,1.8c-0.2,0.2-0.5,0.3-0.8,0.2c-0.3,0-0.6-0.2-0.7-0.5l-1.1-1.9l-3,3.2
	C333.4-110.3,333.1-110.2,332.8-110.2z"/>
<path class="st3" d="M341.7-148.4l6.9,0.2c2.7,0.1,4.9,2.4,4.8,5.1l-0.1,5.3l-16.8-0.5l0.1-5.3C336.7-146.3,339-148.5,341.7-148.4z"
	/>
<path class="st4" d="M336.3-141.6l17.4,0.5c0.4,0,0.8,0.4,0.8,0.8l0,0c0,0.4-0.4,0.8-0.8,0.8l-17.4-0.5c-0.4,0-0.8-0.4-0.8-0.8l0,0
	C335.5-141.3,335.8-141.6,336.3-141.6L336.3-141.6z"/>
<path class="st4" d="M336.4-144.1l17.4,0.5c0.4,0,0.8,0.4,0.8,0.8l0,0c0,0.4-0.4,0.8-0.8,0.8l-17.4-0.5c-0.4,0-0.8-0.4-0.8-0.8l0,0
	C335.6-143.7,335.9-144.1,336.4-144.1z"/>
<path class="st4" d="M336.4-146.5l17.4,0.5c0.4,0,0.8,0.4,0.8,0.8l0,0c0,0.4-0.4,0.8-0.8,0.8l-17.4-0.5c-0.4,0-0.8-0.4-0.8-0.8l0,0
	C335.7-146.2,336-146.5,336.4-146.5L336.4-146.5z"/>
<path class="st5" d="M337.7-97.3c-0.1,0-0.1,0-0.2,0c-0.4-0.1-8.8-2.7-11.4-13.8c-0.1-0.5,0.2-1.1,0.7-1.2l0,0
	c0.5-0.1,1.1,0.2,1.2,0.8l0,0c2.3,9.9,9.9,12.3,10,12.3c0.5,0.2,0.8,0.7,0.7,1.2C338.6-97.5,338.1-97.3,337.7-97.3z"/>
<circle class="st5" cx="326.6" cy="-113.8" r="0.9"/>
<path class="st4" d="M376.4-222.1h0.2c1.9-0.3,3.6,1,3.9,2.9l0,0l-7.1,1.1l0,0C373.2-220,374.5-221.8,376.4-222.1z"/>
<path class="st6" d="M363.2-185.5c1.5,10.2,11,17.2,21.2,15.7c10.2-1.5,17.2-11,15.7-21.2c-0.8-5.6-4.1-10.4-8.9-13.3
	c-2.7-1.6-4.6-4.4-5-7.5l-0.7-4.7c-0.3-2.1-2.3-3.6-4.4-3.3l-8,1.2c-2.1,0.3-3.6,2.3-3.3,4.4l0.7,4.7c0.5,3.1-0.5,6.3-2.5,8.6
	C364.1-196.6,362.4-191,363.2-185.5z"/>
<circle class="st7" cx="381.8" cy="-187.5" r="13.4"/>
<path class="st2" d="M371.7-182.6c-0.1,0-0.2,0-0.3,0c-0.4-0.1-0.7-0.5-0.7-1l1.3-35c0-0.6,0.4-1,1-1s1,0.4,1,1l-1.1,31.3l1-1.5
	c0.2-0.3,0.5-0.4,0.8-0.5c0.3,0,0.6,0.1,0.8,0.4l1.3,1.6l1.4-1.8c0.2-0.2,0.4-0.4,0.7-0.4c0.3,0,0.6,0.1,0.8,0.2l1.3,1.1l1.3-2
	c0.3-0.5,0.9-0.6,1.4-0.3c0.1,0.1,0.2,0.1,0.3,0.2l0.7,0.9l1.3-1.4c0.4-0.4,1-0.4,1.4-0.1l1.4,1.3l0.5-0.8c0.3-0.5,0.9-0.6,1.4-0.4
	c0.1,0,0.1,0.1,0.2,0.1l0.2,0.2l-12.2-28.7c-0.2-0.5,0.1-1.1,0.6-1.3s1,0,1.3,0.5l13.8,32.7c0.2,0.4,0,0.9-0.3,1.2
	c-0.4,0.3-0.9,0.3-1.2-0.1l-2.5-2.1l-0.5,0.9c-0.2,0.3-0.4,0.4-0.7,0.5c-0.3,0-0.6,0-0.8-0.2l-1.6-1.4l-1.9,1.4
	c-0.2,0.2-0.5,0.3-0.8,0.3s-0.6-0.1-0.8-0.4l-0.5-0.7l-1.1,1.8c-0.3,0.5-0.9,0.6-1.4,0.3l-0.1-0.1l-1.4-1.2l-1.5,2
	c-0.2,0.2-0.5,0.4-0.8,0.4s-0.6-0.1-0.8-0.4l-1.3-1.5l-2.2,3.4C372.3-182.8,372-182.6,371.7-182.6z"/>
<path class="st3" d="M374.7-220l4.3-0.7c3.2-0.5,6.2,1.7,6.6,4.9l0.6,3.9l-15.8,2.4l-0.6-3.9C369.3-216.5,371.5-219.5,374.7-220
	L374.7-220z"/>
<path class="st4" d="M369.7-212.6l16.4-2.5c0.4-0.1,0.8,0.2,0.8,0.6l0,0l0,0c0.1,0.4-0.2,0.8-0.6,0.8l0,0l-16.3,2.6
	c-0.4,0.1-0.8-0.2-0.8-0.6l0,0C369.1-212.1,369.3-212.5,369.7-212.6L369.7-212.6z"/>
<path class="st4" d="M369.3-214.9l16.3-2.5c0.4-0.1,0.8,0.2,0.9,0.6l0,0c0.1,0.4-0.2,0.8-0.6,0.8l-16.3,2.5
	c-0.4,0.1-0.8-0.2-0.8-0.6l0,0l0,0C368.7-214.5,368.9-214.8,369.3-214.9z"/>
<path class="st4" d="M369-217.2l16.3-2.5c0.4-0.1,0.8,0.2,0.9,0.6l0,0c0.1,0.4-0.2,0.8-0.6,0.8l-16.4,2.5c-0.4,0.1-0.8-0.2-0.8-0.6
	l0,0l0,0C368.3-216.8,368.6-217.1,369-217.2z"/>
<path class="st5" d="M378.4-171.4h-0.1c-0.4,0-8.7-1.1-13-11c-0.2-0.5,0-1.1,0.5-1.3s1.1,0,1.3,0.5c0,0,0,0,0,0.1
	c3.8,8.8,11.1,9.7,11.4,9.8c0.6,0,1,0.5,0.9,1.1C379.3-171.6,378.9-171.4,378.4-171.4L378.4-171.4z"/>
<circle class="st5" cx="365.4" cy="-184.9" r="0.8"/>
<path class="st6" d="M123.6-172.8c0.3,10.3,8.8,18.4,19.1,18.2c10.3-0.3,18.4-8.8,18.2-19.1c-0.1-5.6-2.8-10.8-7.2-14.3
	c-2.5-1.9-4-4.9-4-8.1l-0.1-4.7c-0.1-2.2-1.8-3.9-4-3.8l-8.1,0.2c-2.2,0.1-3.8,1.8-3.8,4l0.1,4.8c0.1,3.1-1.2,6.1-3.6,8.2
	C125.9-183.8,123.5-178.4,123.6-172.8z"/>
<circle class="st7" cx="142.2" cy="-172.4" r="13.4"/>
<path class="st2" d="M131.6-168.9c-0.1,0-0.2,0-0.3-0.1c-0.4-0.2-0.6-0.6-0.6-1.1l5.6-34.6c0.1-0.6,0.6-0.9,1.2-0.8
	c0.6,0.1,0.9,0.6,0.8,1.2l-5.1,31l1.1-1.4c0.2-0.2,0.5-0.4,0.8-0.4c0.3,0,0.6,0.2,0.8,0.5l1.1,1.8l1.6-1.6c0.2-0.2,0.5-0.3,0.7-0.3
	c0.3,0,0.5,0.1,0.7,0.3l1.1,1.3l1.5-1.9c0.2-0.2,0.5-0.4,0.8-0.4c0.3,0,0.6,0.2,0.8,0.5l0.6,0.9l1.5-1.3c0.4-0.4,1-0.3,1.4,0.1
	l1.2,1.4l0.6-0.8c0.2-0.2,0.5-0.4,0.8-0.4c0.3,0,0.6,0.1,0.8,0.3l0.2,0.2l-8.2-29.8c-0.1-0.5,0.2-1.1,0.7-1.2
	c0.5-0.1,1.1,0.2,1.2,0.7l9.6,34.1c0.1,0.5-0.2,1.1-0.7,1.2c-0.4,0.1-0.7,0-1-0.3l-2.2-2.5l-0.6,0.8c-0.2,0.2-0.5,0.4-0.8,0.4
	c-0.3,0-0.6-0.1-0.8-0.4l-1.4-1.6l-1.6,1.4c-0.2,0.2-0.5,0.3-0.8,0.2c-0.3,0-0.5-0.2-0.7-0.5l-0.4-0.7l-1.4,1.7
	c-0.2,0.2-0.5,0.4-0.8,0.4c-0.3,0-0.6-0.1-0.8-0.3l-1.2-1.3l-1.8,1.8c-0.4,0.4-1,0.4-1.4,0c0,0-0.1-0.1-0.1-0.2l-1.1-1.7l-2.6,3.1
	C132.3-169,132-168.9,131.6-168.9z"/>
<path class="st3" d="M139.3-205.6l4.3-0.1c3.2-0.1,5.9,2.4,6,5.7l0,0l0.1,3.9l-16,0.4l-0.1-3.9C133.5-202.8,136.1-205.5,139.3-205.6
	L139.3-205.6z"/>
<path class="st4" d="M133.4-198.9l16.5-0.4c0.4,0,0.8,0.3,0.8,0.7l0,0l0,0c0,0.4-0.3,0.7-0.7,0.8l-16.5,0.4c-0.4,0-0.7-0.3-0.8-0.7
	l0,0C132.7-198.5,133-198.8,133.4-198.9L133.4-198.9z"/>
<path class="st4" d="M133.3-201.2l16.5-0.4c0.4,0,0.7,0.3,0.8,0.7l0,0c0,0.4-0.3,0.7-0.7,0.8l-16.5,0.4c-0.4,0-0.7-0.3-0.8-0.7l0,0
	C132.6-200.9,132.9-201.2,133.3-201.2z"/>
<path class="st4" d="M133.3-203.5l16.5-0.4c0.4,0,0.8,0.3,0.8,0.7l0,0l0,0c0,0.4-0.3,0.7-0.7,0.8l-16.6,0.3c-0.4,0-0.7-0.3-0.8-0.7
	l0,0C132.6-203.2,132.9-203.5,133.3-203.5z"/>
<path class="st5" d="M136.9-156.9h-0.1c-0.3-0.1-8.5-2.1-11.5-12.5c-0.1-0.5,0.2-1.1,0.8-1.2c0.5-0.1,1,0.2,1.2,0.6
	c2.6,9.2,9.8,11.1,10.1,11.1c0.5,0.1,0.9,0.7,0.7,1.2C137.8-157.2,137.4-156.9,136.9-156.9z"/>
<circle class="st5" cx="125.6" cy="-172" r="0.8"/>
<path class="st6" d="M503.1-149.5c3.4,9.7,14.1,14.8,23.8,11.3c9.7-3.4,14.8-14.1,11.3-23.8c-1.9-5.3-6-9.4-11.3-11.3
	c-3-1.1-5.3-3.4-6.3-6.4l-1.6-4.4c-0.7-2-3-3.1-5-2.4l-7.6,2.7c-2,0.7-3.1,3-2.4,5l1.6,4.5c1.1,2.9,0.8,6.2-0.9,8.9
	C501.8-160.6,501.2-154.7,503.1-149.5z"/>
<circle class="st7" cx="520.9" cy="-154.9" r="13.4"/>
<path class="st2" d="M511.9-148.2c-0.5,0.1-1.1-0.2-1.2-0.8l0,0l-5.4-34.6c-0.1-0.6,0.3-1.1,0.8-1.2c0.6-0.1,1.1,0.3,1.2,0.8l4.8,31
	l0.7-1.6c0.1-0.3,0.4-0.5,0.7-0.6c0.3-0.1,0.6,0,0.9,0.2l1.6,1.3l1.1-2.1c0.1-0.2,0.3-0.4,0.6-0.5c0.3-0.1,0.6,0,0.8,0.1l1.5,0.9
	l0.9-2.2c0.1-0.3,0.4-0.5,0.7-0.6c0.3-0.1,0.7,0,0.9,0.2l0.8,0.7l1-1.7c0.3-0.5,0.9-0.6,1.4-0.3l1.6,1l0.3-0.9
	c0.1-0.3,0.3-0.5,0.6-0.6c0.3-0.1,0.6-0.1,0.8,0.1l0.3,0.1l-17.4-25.9c-0.3-0.5-0.2-1.1,0.3-1.4c0.5-0.3,1.1-0.2,1.4,0.3l19.8,29.4
	c0.3,0.5,0.2,1.1-0.3,1.4c-0.3,0.2-0.7,0.2-1.1,0l-2.9-1.7l-0.3,0.9c-0.2,0.5-0.7,0.8-1.3,0.6c-0.1,0-0.1-0.1-0.2-0.1l-1.8-1.1
	l-1.1,1.8c-0.1,0.3-0.4,0.4-0.7,0.5c-0.3,0-0.6,0-0.8-0.2l-0.7-0.6l-0.8,2c-0.1,0.3-0.3,0.5-0.6,0.6c-0.3,0.1-0.6,0.1-0.8-0.1
	l-1.6-0.9l-1.1,2.2c-0.1,0.3-0.4,0.5-0.7,0.5c-0.3,0.1-0.6,0-0.8-0.2l-1.5-1.2l-1.5,3.8C512.5-148.5,512.2-148.3,511.9-148.2z"/>
<path class="st3" d="M507.8-185.5l4.1-1.4c3-1.1,6.4,0.5,7.4,3.5l0,0l1.3,3.7l-15,5.4l-1.3-3.7C503.2-181.1,504.7-184.4,507.8-185.5
	z"/>
<path class="st4" d="M504.3-177.3l15.6-5.5c0.4-0.1,0.8,0.1,1,0.4l0,0c0.1,0.4-0.1,0.8-0.4,0.9l-15.6,5.5c-0.4,0.1-0.8-0.1-1-0.4
	l0,0C503.7-176.7,503.9-177.1,504.3-177.3C504.2-177.3,504.2-177.3,504.3-177.3z"/>
<path class="st4" d="M503.4-179.5L519-185c0.4-0.2,0.8,0,1,0.4l0,0l0,0c0.1,0.4-0.1,0.8-0.4,0.9l0,0l-15.6,5.5c-0.4,0.2-0.8,0-1-0.4
	c0,0,0,0,0-0.1l0,0C502.9-178.9,503.1-179.3,503.4-179.5z"/>
<path class="st4" d="M502.7-181.7l15.6-5.5c0.4-0.2,0.8,0,1,0.4l0,0l0,0c0.1,0.4-0.1,0.8-0.4,0.9l0,0l-15.6,5.5
	c-0.4,0.1-0.8-0.1-0.9-0.4l0,0l0,0C502.1-181.1,502.3-181.5,502.7-181.7z"/>
<path class="st5" d="M520.6-138.5L520.6-138.5c-0.5,0-8.9,0.6-14.9-8.3c-0.3-0.5-0.2-1.1,0.3-1.4c0.5-0.3,1.1-0.2,1.4,0.3
	c5.4,7.9,12.7,7.4,13,7.4c0.6-0.1,1.1,0.3,1.1,0.9S521.1-138.6,520.6-138.5L520.6-138.5z"/>
<circle class="st5" cx="505.3" cy="-149.3" r="0.8"/>
<path class="st4" d="M-16.1-159.7L0-155.8c0.4,0.1,0.6,0.5,0.5,0.9l0,0c-0.1,0.4-0.5,0.6-0.9,0.6l-16.1-3.9
	c-0.4-0.1-0.7-0.5-0.6-0.9l0,0l0,0C-16.9-159.5-16.5-159.7-16.1-159.7z"/>
<g>
	<path class="st6" d="M1.5-115.6c-2.4,10,3.7,20.1,13.7,22.5s20.1-3.7,22.5-13.7c1.3-5.4,0.1-11.2-3.3-15.6
		c-1.9-2.5-2.6-5.8-1.8-8.9l1.1-4.6c0.5-2.1-0.8-4.2-2.9-4.7l-7.9-1.9c-2.1-0.5-4.2,0.8-4.7,2.9l-1.1,4.6c-0.7,3.1-2.8,5.6-5.6,7
		C6.5-125.6,2.8-121,1.5-115.6z"/>
	<circle class="st7" cx="19.4" cy="-110.4" r="13.4"/>
	<path class="st2" d="M8.2-109.7c-0.1,0-0.2-0.1-0.3-0.1c-0.3-0.3-0.5-0.8-0.3-1.2L22-142.9c0.2-0.5,0.8-0.7,1.3-0.5
		s0.7,0.8,0.5,1.3L11-113.6l1.4-1c0.5-0.3,1.1-0.2,1.4,0.2c0.1,0.1,0.1,0.2,0.1,0.3l0.6,2l2-1.2c0.2-0.1,0.5-0.2,0.8-0.1
		c0.3,0.1,0.5,0.3,0.6,0.5l0.8,1.5l2-1.4c0.3-0.2,0.6-0.2,0.9-0.1c0.3,0.1,0.5,0.4,0.6,0.7l0.3,1.1l1.8-0.8c0.5-0.2,1.1,0,1.3,0.5
		l0.8,1.7l0.7-0.6c0.2-0.2,0.5-0.3,0.8-0.2s0.5,0.3,0.7,0.5l0.1,0.3l-0.4-31.2c0-0.6,0.4-1,1-1s1,0.4,1,1l0.5,35.4c0,0.6-0.4,1-1,1
		c-0.4,0-0.7-0.2-0.9-0.5l-1.5-3l-0.8,0.6c-0.2,0.2-0.5,0.3-0.8,0.2s-0.5-0.3-0.7-0.6l-0.9-1.9l-1.9,0.9c-0.3,0.1-0.6,0.1-0.8,0
		c-0.3-0.1-0.5-0.3-0.6-0.6l-0.2-0.8l-1.8,1.2c-0.4,0.3-1.1,0.2-1.4-0.2l-0.1-0.1l-0.8-1.6l-2.2,1.2c-0.3,0.1-0.6,0.2-0.9,0.1
		c-0.3-0.1-0.5-0.3-0.6-0.6l-0.6-1.9L9-109.7C8.9-109.6,8.6-109.6,8.2-109.7z"/>
	<path class="st3" d="M25.2-143.2l4.2,1c3.1,0.8,5,3.9,4.3,7l-0.9,3.8l-15.5-3.7l0.9-3.8C18.9-142.1,22-144,25.2-143.2z"/>
	<path class="st4" d="M17.7-138.2l16.1,3.9c0.4,0.1,0.6,0.5,0.6,0.9l0,0c-0.1,0.4-0.5,0.6-0.9,0.6l-16.1-3.9
		c-0.4-0.1-0.6-0.5-0.6-0.9l0,0C16.9-138,17.3-138.3,17.7-138.2L17.7-138.2z"/>
	<path class="st4" d="M18.3-140.5l16.1,3.9c0.4,0.1,0.6,0.5,0.6,0.9l0,0l0,0c-0.1,0.4-0.5,0.6-0.9,0.6L18-139
		c-0.4-0.1-0.6-0.5-0.6-0.9l0,0C17.5-140.3,17.9-140.6,18.3-140.5z"/>
	<path class="st5" d="M10.2-96.8l-0.1-0.1c-0.3-0.2-7.7-4.3-7.9-15.1c0-0.6,0.4-1,1-1s1,0.4,1,1c0.2,9.6,6.6,13.2,6.8,13.4
		c0.5,0.3,0.6,0.9,0.3,1.4C11.2-96.8,10.7-96.6,10.2-96.8L10.2-96.8z"/>
</g>
<circle class="st5" cx="-31.6" cy="-131.1" r="0.8"/>
<path class="st4" d="M256-203.4h0.2c1.8-0.2,3.4,1,3.7,2.8l0,0l-6.7,0.9l0,0C253-201.4,254.2-203.1,256-203.4L256-203.4z"/>
<path class="st0" d="M243.1-169c1.3,9.6,10.2,16.3,19.9,15c9.6-1.3,16.3-10.2,15-19.9c-0.7-5.2-3.8-9.9-8.3-12.6
	c-2.5-1.6-4.2-4.2-4.6-7.1l-0.6-4.4c-0.3-2-2.1-3.4-4.2-3.1l-7.6,1.1c-2,0.3-3.4,2.1-3.1,4.1l0.6,4.5c0.4,2.9-0.5,5.9-2.5,8.1
	C244-179.5,242.4-174.2,243.1-169z"/>
<circle class="st1" cx="260.6" cy="-170.6" r="12.7"/>
<path class="st2" d="M251-166.1c-0.1,0-0.2,0-0.3-0.1c-0.4-0.1-0.7-0.5-0.7-1l1.7-33c0-0.6,0.4-1,1-1c0,0,0,0,0.1,0
	c0.5,0,0.9,0.5,0.9,1l-1.5,29.4l0.8-1.2c0.2-0.3,0.5-0.4,0.8-0.4s0.6,0.1,0.8,0.4l1.2,1.5l1.3-1.7c0.2-0.2,0.4-0.4,0.7-0.4
	c0.3,0,0.5,0.1,0.8,0.3l1.1,1l1.2-1.9c0.2-0.3,0.5-0.4,0.8-0.4s0.6,0.1,0.8,0.4l0.6,0.8l1.2-1.3c0.4-0.4,1-0.4,1.4,0l0,0l1.2,1.2
	l0.4-0.7c0.2-0.3,0.4-0.4,0.7-0.5c0.3,0,0.6,0,0.8,0.2l0,0l-11-27c-0.2-0.5,0-1.1,0.5-1.3s1.1,0,1.3,0.5l12.6,31
	c0.2,0.5,0,1.1-0.5,1.3c-0.4,0.1-0.8,0.1-1.1-0.2l-2.3-2.1l-0.4,0.8c-0.2,0.3-0.4,0.4-0.7,0.5c-0.3,0-0.6-0.1-0.8-0.3l-1.4-1.4
	l-1.4,1.4c-0.2,0.2-0.5,0.3-0.8,0.3s-0.6-0.2-0.8-0.4l-0.4-0.6l-1.1,1.6c-0.2,0.2-0.4,0.4-0.7,0.4c-0.3,0-0.6-0.1-0.8-0.2l-0.9-0.9
	l-1.5,1.8c-0.2,0.2-0.5,0.4-0.8,0.4s-0.6-0.2-0.7-0.4l-1.1-1.4l-2.1,3.1C251.7-166.2,251.4-166.1,251-166.1z"/>
<path class="st3" d="M254-201.4l4.7-0.6c2.8-0.4,5.4,1.6,5.8,4.4l0.5,4l-15,2.1l-0.5-4C249.1-198.4,251.1-201,254-201.4L254-201.4z"
	/>
<path class="st4" d="M249.5-194.4l15.5-2.1c0.4-0.1,0.7,0.2,0.8,0.6l0,0l0,0c0.1,0.4-0.2,0.7-0.6,0.8l0,0l-15.5,2
	c-0.4,0.1-0.7-0.2-0.8-0.6l0,0l0,0C248.9-194,249.1-194.4,249.5-194.4L249.5-194.4z"/>
<path class="st4" d="M249.2-196.6l15.5-2.1c0.4-0.1,0.7,0.2,0.8,0.6l0,0l0,0c0.1,0.4-0.2,0.7-0.6,0.8l0,0l-15.5,2.1
	c-0.4,0.1-0.7-0.2-0.8-0.6l0,0l0,0C248.6-196.3,248.8-196.6,249.2-196.6z"/>
<path class="st4" d="M248.9-198.8l15.5-2.1c0.4-0.1,0.7,0.2,0.8,0.6l0,0l0,0c0.1,0.4-0.2,0.7-0.5,0.8l0,0l-15.6,2
	c-0.4,0.1-0.7-0.2-0.8-0.6l0,0l0,0C248.3-198.4,248.5-198.8,248.9-198.8L248.9-198.8z"/>
<path class="st5" d="M257.2-155.4h-0.1c-0.3,0-8.3-1.1-12.2-10.6c-0.2-0.5,0-1.1,0.5-1.3c0.5-0.2,1.1,0,1.3,0.5
	c3.5,8.4,10.5,9.3,10.6,9.3c0.6,0,1,0.5,0.9,1.1C258.1-155.8,257.8-155.4,257.2-155.4L257.2-155.4z"/>
<circle class="st5" cx="245.1" cy="-168.4" r="0.8"/>
<path class="st4" d="M381.7-120.9h0.2c1.8-0.2,3.4,1,3.7,2.8l0,0l-6.7,0.9l0,0C378.7-119,379.9-120.7,381.7-120.9z"/>
<path class="st0" d="M368.8-86.6c1.3,9.6,10.2,16.3,19.8,15c9.6-1.3,16.3-10.2,15-19.8c-0.7-5.2-3.8-9.9-8.3-12.6
	c-2.5-1.6-4.2-4.2-4.6-7.1l-0.6-4.4c-0.3-2-2.1-3.4-4.1-3.1l-7.6,1.1c-2,0.3-3.4,2.1-3.1,4.1l0.6,4.5c0.4,2.9-0.5,5.9-2.5,8.1
	C369.7-97.1,368-91.8,368.8-86.6z"/>
<circle class="st1" cx="386.3" cy="-88.2" r="12.7"/>
<path class="st2" d="M376.7-83.6c-0.1,0-0.2,0-0.3,0c-0.4-0.1-0.7-0.6-0.7-1l1.7-33c0-0.6,0.5-1,1-0.9c0.6,0,1,0.5,1,1.1L377.9-88
	l0.8-1.2c0.2-0.3,0.5-0.4,0.8-0.4s0.6,0.1,0.8,0.4l1.2,1.5l1.3-1.7c0.2-0.2,0.4-0.4,0.7-0.4c0.3,0,0.5,0.1,0.8,0.2l1.1,1l1.2-1.9
	c0.2-0.3,0.5-0.4,0.8-0.5c0.3,0,0.6,0.1,0.8,0.4l0.6,0.8l1.2-1.4c0.2-0.2,0.4-0.3,0.7-0.3c0.3,0,0.5,0.1,0.7,0.3l1.2,1.2l0.4-0.7
	c0.2-0.3,0.4-0.4,0.7-0.5c0.3,0,0.6,0,0.8,0.2l0,0l-11-27c-0.2-0.5,0-1.1,0.6-1.3s1.1,0,1.3,0.6l12.6,31c0.2,0.5,0,1.1-0.6,1.3
	c-0.3,0.1-0.7,0.1-1-0.2l-2.3-2l-0.4,0.7c-0.2,0.3-0.4,0.4-0.7,0.5c-0.3,0-0.6-0.1-0.8-0.3l-1.4-1.4l-1.4,1.4
	c-0.2,0.2-0.5,0.3-0.8,0.3s-0.6-0.2-0.8-0.4l-0.4-0.6l-1.1,1.6c-0.3,0.5-0.9,0.6-1.4,0.3l-0.1-0.1l-1.2-1.1l-1.4,1.8
	c-0.2,0.2-0.5,0.4-0.8,0.4s-0.6-0.1-0.8-0.4l-1.1-1.4l-2.1,3.1C377.3-83.8,377-83.6,376.7-83.6z"/>
<path class="st3" d="M379.7-118.9l4.7-0.6c2.8-0.4,5.4,1.6,5.8,4.4l0,0l0.6,4l-15,2.1l-0.5-4C374.9-115.9,376.9-118.5,379.7-118.9z"
	/>
<path class="st4" d="M375.2-112l15.5-2.1c0.4-0.1,0.7,0.2,0.8,0.6l0,0l0,0c0.1,0.4-0.2,0.7-0.6,0.8l0,0l-15.5,2.1
	c-0.4,0.1-0.7-0.2-0.8-0.6l0,0l0,0C374.6-111.6,374.8-112,375.2-112L375.2-112z"/>
<path class="st4" d="M374.9-114.2l15.5-2.1c0.4-0.1,0.7,0.2,0.8,0.6l0,0l0,0c0.1,0.4-0.2,0.7-0.6,0.8l0,0l-15.4,2.2
	c-0.4,0.1-0.7-0.2-0.8-0.6l0,0l0,0C374.3-113.8,374.5-114.1,374.9-114.2L374.9-114.2z"/>
<path class="st4" d="M374.6-116.4l15.5-2.1c0.4-0.1,0.7,0.2,0.8,0.6l0,0l0,0c0.1,0.4-0.2,0.7-0.6,0.8l0,0l-15.5,2.1
	c-0.4,0.1-0.7-0.2-0.8-0.6l0,0l0,0C374-116,374.2-116.3,374.6-116.4z"/>
<path class="st5" d="M382.9-73h-0.1c-0.3,0-8.3-1.1-12.2-10.5c-0.2-0.5,0-1.1,0.5-1.3s1.1,0,1.3,0.5c3.5,8.4,10.5,9.3,10.6,9.3
	c0.6,0,1,0.5,0.9,1.1S383.5-72.9,382.9-73L382.9-73z"/>
<circle class="st5" cx="370.8" cy="-85.9" r="0.8"/>
<path class="st4" d="M34.8-225.7H35c1.8,0.2,3.1,1.8,2.8,3.6l0,0l-6.7-0.8l0,0C31.4-224.7,33-226,34.8-225.7z"/>
<path class="st0" d="M13.4-195.8c-1.2,9.6,5.7,18.4,15.3,19.6s18.4-5.7,19.6-15.3c0.6-5.2-1.1-10.5-4.8-14.3c-2-2.2-3-5.1-2.7-8.1
	l0.6-4.4c0.2-2-1.2-3.8-3.2-4.1l-7.6-0.9c-2-0.2-3.8,1.2-4.1,3.2l-0.5,4.5c-0.4,2.9-2,5.6-4.5,7.2C17.1-205.8,14.1-201.1,13.4-195.8
	z"/>
<circle class="st1" cx="30.8" cy="-192.9" r="12.7"/>
<path class="st2" d="M20.4-191c-0.1,0-0.2-0.1-0.3-0.1c-0.4-0.2-0.6-0.7-0.4-1.1l10.1-31.5c0.1-0.5,0.7-0.9,1.2-0.7
	c0.5,0.1,0.9,0.7,0.7,1.2v0.1l-9,28l1.1-1c0.2-0.2,0.6-0.3,0.9-0.2c0.3,0.1,0.6,0.3,0.7,0.6l0.7,1.6l1.8-1.2
	c0.2-0.2,0.5-0.2,0.8-0.2s0.5,0.2,0.7,0.4l0.8,1.3l1.6-1.5c0.2-0.2,0.6-0.3,0.9-0.2s0.6,0.3,0.7,0.6l0.4,0.9l1.5-1
	c0.5-0.3,1.1-0.2,1.4,0.3l0,0l0.9,1.5l0.6-0.6c0.2-0.2,0.5-0.3,0.8-0.3s0.6,0.2,0.7,0.4l0,0l-3.7-29c-0.1-0.6,0.3-1.1,0.9-1.1
	s1.1,0.3,1.1,0.9l4.2,33.2c0.1,0.5-0.3,1.1-0.8,1.1c-0.4,0.1-0.8-0.1-1-0.4l-1.7-2.6l-0.6,0.7c-0.4,0.4-1,0.4-1.4,0
	c-0.1-0.1-0.1-0.1-0.1-0.2l-1-1.7l-1.7,1c-0.5,0.3-1.1,0.1-1.4-0.3l-0.1-0.1l-0.3-0.7l-1.4,1.3c-0.2,0.2-0.5,0.3-0.8,0.2
	c-0.3,0-0.6-0.2-0.7-0.4l-0.9-1.4l-1.8,1.4c-0.2,0.2-0.6,0.2-0.8,0.2c-0.3-0.1-0.5-0.3-0.7-0.6l-0.9-1.5l-2.8,2.5
	C21-191,20.7-190.9,20.4-191z"/>
<path class="st3" d="M32.3-224.3l4.7,0.6c2.8,0.3,4.9,2.9,4.5,5.8l0,0l-0.5,4l-15-1.8l0.5-4C26.9-222.6,29.5-224.7,32.3-224.3
	L32.3-224.3z"/>
<path class="st4" d="M26.2-218.8l15.5,1.9c0.4,0,0.6,0.4,0.6,0.8l0,0l0,0c0,0.4-0.4,0.6-0.8,0.6l0,0L26-217.4
	c-0.4,0-0.7-0.4-0.6-0.8l0,0l0,0C25.5-218.6,25.8-218.8,26.2-218.8L26.2-218.8z"/>
<path class="st4" d="M26.5-221l15.5,1.9c0.4,0,0.6,0.4,0.6,0.7l0,0l0,0c0,0.4-0.4,0.6-0.7,0.6l0,0l-15.5-1.9c-0.4,0-0.6-0.4-0.6-0.7
	l0,0l0,0C25.7-220.8,26.1-221,26.5-221C26.4-221,26.5-221,26.5-221z"/>
<path class="st4" d="M26.7-223.2l15.5,1.9c0.4,0,0.7,0.4,0.6,0.8l0,0c0,0.4-0.4,0.7-0.8,0.6l0,0l-15.5-1.9c-0.4,0-0.6-0.4-0.6-0.7
	l0,0l0,0C26-223,26.4-223.2,26.7-223.2L26.7-223.2z"/>
<path class="st5" d="M23.6-179.1L23.6-179.1c-0.4-0.1-7.8-3.2-9.2-13.3c-0.1-0.6,0.3-1.1,0.9-1.1c0.6-0.1,1.1,0.3,1.1,0.9
	c1.2,9,7.8,11.7,7.8,11.7c0.5,0.2,0.8,0.7,0.6,1.3C24.7-179.2,24.2-178.9,23.6-179.1L23.6-179.1z"/>
<circle class="st5" cx="15.2" cy="-194.7" r="0.8"/>
<path class="st4" d="M109.4-114.1h0.2c1.8,0.2,3.1,1.8,2.9,3.6l0,0l-6.7-0.8l0,0C106-113.1,107.6-114.3,109.4-114.1z"/>
<g>
	<path class="st4" d="M464.6-258.4l0.2-0.1c1.7-0.6,3.6,0.3,4.2,2l0,0l-6.4,2.2l0,0C462-256,462.9-257.8,464.6-258.4z"/>
	<path class="st0" d="M458.5-222.2c3.2,9.2,13.2,14.1,22.4,10.9s14.1-13.2,10.9-22.4c-1.7-5-5.6-9-10.6-10.8c-2.8-1.1-5-3.3-5.9-6.1
		l-1.4-4.2c-0.7-1.9-2.8-2.9-4.7-2.2l-7.2,2.5c-1.9,0.7-2.9,2.8-2.3,4.7l1.5,4.3c1,2.8,0.6,5.9-0.9,8.4
		C457.5-232.7,456.8-227.2,458.5-222.2z"/>
	<circle class="st1" cx="475.4" cy="-227.1" r="12.7"/>
	<path class="st2" d="M466.9-220.9c-0.1,0-0.2,0-0.3,0c-0.4-0.1-0.8-0.4-0.9-0.8l-4.7-32.8c-0.1-0.6,0.3-1.1,0.9-1.1
		c0.6-0.1,1.1,0.3,1.1,0.9l4.2,29.1l0.6-1.4c0.1-0.3,0.4-0.5,0.7-0.6c0.3-0.1,0.6,0,0.9,0.2l1.5,1.2l1-1.9c0.1-0.2,0.4-0.4,0.6-0.5
		c0.3-0.1,0.6,0,0.8,0.1l1.3,0.8l0.8-2c0.1-0.3,0.4-0.5,0.7-0.6c0.3-0.1,0.7,0,0.9,0.2l0.7,0.6l1-1.5c0.1-0.2,0.4-0.4,0.6-0.4
		c0.3-0.1,0.5,0,0.8,0.1l1.5,0.9l0.3-0.8c0.1-0.3,0.3-0.5,0.6-0.6c0.3-0.1,0.6-0.1,0.8,0.1l0,0l-16.1-24.4c-0.3-0.5-0.2-1.1,0.3-1.4
		c0.5-0.3,1.1-0.2,1.4,0.3l0,0l18.3,28c0.3,0.4,0.2,0.9-0.1,1.2s-0.8,0.4-1.2,0.2l-2.7-1.6l-0.3,0.8c-0.2,0.5-0.7,0.8-1.3,0.6
		c-0.1,0-0.1-0.1-0.2-0.1l-1.7-1.1l-1,1.7c-0.2,0.3-0.4,0.4-0.7,0.5c-0.3,0-0.6,0-0.8-0.2l-0.5-0.5l-0.7,1.8
		c-0.2,0.5-0.8,0.8-1.3,0.6c-0.1,0-0.1,0-0.2-0.1l-1.4-0.9l-1.1,2.1c-0.1,0.3-0.4,0.5-0.7,0.5c-0.3,0.1-0.6,0-0.8-0.2l-1.4-1.2
		l-1.5,3.5C467.5-221.2,467.2-220.9,466.9-220.9z"/>
	<path class="st3" d="M463.1-256.1l4.5-1.5c2.7-0.9,5.6,0.5,6.6,3.2l1.3,3.8l-14.3,4.9l-1.3-3.8
		C458.9-252.2,460.4-255.2,463.1-256.1z"/>
	<path class="st4" d="M460-248.4l14.8-5.1c0.4-0.1,0.7,0.1,0.9,0.4l0,0l0,0c0.1,0.4-0.1,0.7-0.4,0.9l0,0l-14.8,5.1
		c-0.4,0.1-0.7-0.1-0.9-0.4l0,0l0,0C459.4-247.9,459.6-248.3,460-248.4C459.9-248.4,460-248.4,460-248.4z"/>
	<path class="st4" d="M459.3-250.5l14.8-5.1c0.4-0.1,0.7,0.1,0.9,0.4l0,0l0,0c0.1,0.4-0.1,0.8-0.4,0.9l0,0l-14.8,5.1
		c-0.4,0.1-0.7-0.1-0.9-0.4l0,0l0,0C458.7-250,458.9-250.4,459.3-250.5C459.2-250.5,459.2-250.5,459.3-250.5z"/>
	<path class="st4" d="M458.5-252.6l14.8-5.1c0.4-0.1,0.7,0.1,0.9,0.4l0,0l0,0c0.1,0.4-0.1,0.7-0.4,0.9l0,0l-14.8,5.1
		c-0.3,0.1-0.7,0-0.9-0.4l0,0l0,0C458-252.1,458.2-252.5,458.5-252.6L458.5-252.6z"/>
	<path class="st5" d="M475-211.6L475-211.6c-0.4,0-8.4,0.5-14.1-8c-0.3-0.5-0.2-1.1,0.3-1.4l0,0c0.5-0.3,1.1-0.2,1.4,0.3l0,0
		c5,7.5,12.1,7.1,12.2,7.1c0.6,0,1,0.4,1.1,0.9l0,0C475.8-212.1,475.5-211.7,475-211.6z"/>
</g>
<circle class="st5" cx="470.1" cy="-226.3" r="0.8"/>
<path d="M220.9-201.4c-19.3,0-39.1-0.8-59.2-2.4C36.3-213.9-61.8-252.2-62.8-252.6l1.5-3.7c1,0.4,98.6,38.6,223.5,48.5
	c73.3,5.8,141.4,1,202.6-14.5c76.3-19.3,142-55.3,195-106.9l2.8,2.9c-53.6,52.1-119.9,88.4-197,107.9
	C320.9-207.1,272.4-201.4,220.9-201.4z"/>
<path d="M348.9-151.5c-29.4,0.1-58.7-1.6-87.9-5.1c-71.8-8.6-136.7-28.2-192.9-58.2C-27.6-266-65.2-330.7-65.5-331.3l3.5-2
	c0.1,0.2,9.4,16.2,30.2,38.4c19.2,20.3,52.5,50.2,102.1,76.7c55.7,29.7,120.1,49.1,191.4,57.7c89.2,10.7,189.5,4.3,298.2-18.9
	l0.8,3.9C485.9-159.5,415-151.5,348.9-151.5z"/>
<path d="M235.1-107.8c-33.8-0.1-67.5-3.6-100.6-10.7c-113.6-24.1-190.3-81.2-191-81.8l2.4-3.2c0.8,0.6,76.8,57.2,189.6,81.1
	c66.2,14,131.8,14.1,195.2,0.4c79.2-17.1,155-56.1,225.3-115.9l2.6,3c-70.9,60.3-147.3,99.5-227.2,116.8
	C299.7-111.3,267.5-107.8,235.1-107.8z"/>
<path d="M99.3,37.8c-19.3,0-39.1-0.8-59.2-2.4C-85.3,25.3-183.4-13-184.4-13.4l1.5-3.7c1,0.4,98.6,38.6,223.5,48.5
	c73.3,5.8,141.4,1,202.6-14.5c76.3-19.3,142-55.3,195-106.9l2.8,2.9C387.4-35,321.1,1.3,244,20.8C199.3,32.1,150.8,37.8,99.3,37.8z"
	/>
<path d="M298.5,60.1c-29.4,1.7-58.7,1.6-88-0.3C138.3,55.1,72.4,39,14.7,12.1C-83.6-33.8-124.7-96.4-125-97l3.4-2.2
	c0.1,0.2,10.3,15.7,32.2,36.7c20.3,19.2,55.1,47.3,106.1,71C73.9,35.2,139.3,51.1,211,55.8c89.6,5.8,189.5-6,296.7-35.1l1,3.9
	C434.9,44.6,364.5,56.5,298.5,60.1z"/>
<path d="M117.6,71.4C83.8,71.3,50.1,67.8,17,60.7C-96.6,36.6-173.3-20.5-174-21.1l2.4-3.2c0.8,0.6,76.8,57.2,189.6,81.1
	c66.2,14,131.8,14.1,195.2,0.4c79.2-17.1,155-56.1,225.3-115.9l2.6,3C370.2,4.6,293.8,43.8,213.9,61.1
	C182.2,67.9,150,71.4,117.6,71.4z"/>
<g>
	<path class="st6" d="M79.2,85.1c0.4,4.9,4.7,8.5,9.6,8.1c4.9-0.4,8.5-4.7,8.1-9.5c-0.2-2.6-1.7-5.1-3.9-6.6
		c-1.2-0.8-2.1-2.2-2.1-3.7l-0.2-2.2c-0.1-1-1-1.8-2-1.7l-3.9,0.3c-1,0.1-1.8,1-1.7,2l0.2,2.3c0.1,1.5-0.4,2.9-1.5,4
		C79.9,79.8,78.9,82.5,79.2,85.1z"/>

		<ellipse transform="matrix(0.9981 -6.171753e-02 6.171753e-02 0.9981 -5.0624 5.5957)" class="st7" cx="88" cy="84.7" rx="6.2" ry="6.4"/>
	<path class="st2" d="M83.2,86.7c0,0-0.1,0-0.1,0c-0.2-0.1-0.3-0.3-0.3-0.5l1.6-16.6c0-0.3,0.3-0.4,0.5-0.4c0.3,0,0.4,0.3,0.4,0.5
		l-1.5,14.8l0.5-0.7c0.1-0.1,0.2-0.2,0.4-0.2s0.3,0.1,0.4,0.2l0.6,0.8l0.7-0.8c0.1-0.1,0.2-0.2,0.3-0.2c0.1,0,0.2,0,0.3,0.1l0.5,0.6
		l0.6-0.9c0.1-0.1,0.2-0.2,0.4-0.2c0.1,0,0.3,0.1,0.4,0.2l0.3,0.4l0.7-0.7c0.2-0.2,0.5-0.2,0.7,0l0.6,0.7l0.3-0.4
		c0.1-0.1,0.2-0.2,0.4-0.2s0.3,0,0.4,0.1l0.1,0.1l-4.8-14c-0.1-0.2,0.1-0.5,0.3-0.6c0.2-0.1,0.5,0.1,0.6,0.3l5.5,15.9
		c0.1,0.2-0.1,0.5-0.3,0.6c-0.2,0.1-0.3,0-0.5-0.1l-1.1-1.1l-0.3,0.4c-0.1,0.1-0.2,0.2-0.4,0.2c-0.1,0-0.3,0-0.4-0.2l-0.7-0.7
		l-0.7,0.7c-0.1,0.1-0.2,0.2-0.4,0.1c-0.1,0-0.2-0.1-0.3-0.2l-0.2-0.3L88,85.3c-0.1,0.1-0.2,0.2-0.4,0.2s-0.3,0-0.4-0.1l-0.6-0.6
		l-0.8,0.9c-0.2,0.2-0.5,0.2-0.7,0c0,0,0,0-0.1-0.1l-0.6-0.7l-1.1,1.5C83.5,86.6,83.4,86.7,83.2,86.7z"/>
	<path class="st3" d="M85.6,68.8l2-0.2c1.5-0.1,2.9,1.1,3,2.7l0,0l0.2,2L83.2,74l-0.2-2C82.9,70.4,84,69,85.6,68.8
		C85.5,68.8,85.5,68.8,85.6,68.8z"/>
	<path class="st4" d="M83.2,72.5l7.7-0.7c0.2,0,0.4,0.1,0.4,0.3l0,0l0,0c0,0.2-0.1,0.3-0.3,0.4l-7.7,0.7c-0.2,0-0.3-0.1-0.4-0.3l0,0
		C82.8,72.7,83,72.5,83.2,72.5C83.1,72.5,83.2,72.5,83.2,72.5z"/>
	<path class="st4" d="M83.1,71.4l7.7-0.7c0.2,0,0.3,0.1,0.4,0.3l0,0c0,0.2-0.1,0.3-0.3,0.4l-7.7,0.7c-0.2,0-0.3-0.1-0.4-0.3l0,0
		C82.8,71.6,82.9,71.4,83.1,71.4L83.1,71.4z"/>
	<path class="st4" d="M82.9,70.3l7.7-0.7c0.2,0,0.3,0.1,0.4,0.3l0,0c0,0.2-0.1,0.3-0.3,0.4L83,71c-0.2,0-0.3-0.1-0.4-0.3l0,0
		C82.6,70.5,82.7,70.3,82.9,70.3L82.9,70.3z"/>
	<path class="st5" d="M86,92.2L86,92.2c-0.2,0-4.1-0.7-5.8-5.6c-0.1-0.2,0.1-0.5,0.3-0.6c0.2-0.1,0.5,0.1,0.6,0.2
		c1.5,4.3,4.9,4.9,5,5c0.2,0,0.4,0.3,0.4,0.5C86.4,92.1,86.2,92.2,86,92.2z"/>

		<ellipse transform="matrix(0.9981 -6.171753e-02 6.171753e-02 0.9981 -5.1212 5.1218)" class="st5" cx="80.3" cy="85.5" rx="0.4" ry="0.4"/>
</g>
<g>
	<path class="st6" d="M183.5,81.6c1,4.8,5.7,7.8,10.5,6.9c4.8-1,7.9-5.7,7-10.4c-0.5-2.6-2.2-4.9-4.6-6.1c-1.3-0.7-2.3-1.9-2.6-3.4
		l-0.4-2.2c-0.2-1-1.2-1.7-2.2-1.4l-3.8,0.8c-1,0.2-1.6,1.2-1.5,2.2l0.5,2.2c0.3,1.4-0.1,3-1,4.1C183.6,76.3,183,79,183.5,81.6z"/>
	<ellipse transform="matrix(0.9841 -0.1774 0.1774 0.9841 -11.1841 35.3893)" class="st7" cx="192.3" cy="80.2" rx="6.2" ry="6.4"/>
	<path class="st2" d="M187.7,82.7c0,0-0.1,0-0.1,0c-0.2-0.1-0.3-0.2-0.4-0.5l-0.3-16.6c0-0.3,0.2-0.5,0.5-0.5c0.3,0,0.5,0.2,0.5,0.5
		l0.3,14.9l0.4-0.7c0.1-0.1,0.2-0.2,0.3-0.3s0.3,0,0.4,0.2l0.7,0.7l0.6-0.9c0.1-0.1,0.2-0.2,0.3-0.2c0.1,0,0.2,0,0.3,0.1l0.6,0.5
		l0.5-1c0.1-0.2,0.2-0.2,0.4-0.3c0.1,0,0.3,0,0.4,0.2l0.4,0.4l0.6-0.7c0.1-0.2,0.4-0.2,0.6-0.1l0.7,0.6l0.2-0.4
		c0.1-0.1,0.2-0.2,0.3-0.3s0.3,0,0.4,0.1l0.1,0.1l-6.4-13.3c-0.1-0.2,0-0.5,0.2-0.6c0.2-0.1,0.5,0,0.6,0.2L198,80
		c0.1,0.2,0,0.5-0.2,0.6c-0.2,0.1-0.3,0.1-0.5-0.1l-1.2-1l-0.2,0.4c-0.1,0.1-0.2,0.2-0.3,0.3c-0.1,0-0.3,0-0.4-0.1l-0.8-0.6
		l-0.6,0.8c-0.1,0.1-0.2,0.2-0.3,0.2c-0.1,0-0.2-0.1-0.4-0.2l-0.2-0.3l-0.5,0.9c-0.1,0.1-0.2,0.2-0.3,0.3s-0.3,0-0.4-0.1l-0.7-0.6
		l-0.7,1c-0.1,0.2-0.4,0.3-0.6,0.1c0,0-0.1,0-0.1-0.1l-0.6-0.7l-0.9,1.7C188.1,82.6,187.9,82.8,187.7,82.7z"/>
	<path class="st3" d="M188,64.7l2-0.4c1.5-0.3,3,0.7,3.3,2.3l0,0l0.4,1.9l-7.5,1.6l-0.4-1.9C185.5,66.6,186.5,65,188,64.7
		C188,64.7,188,64.7,188,64.7z"/>
	<path class="st4" d="M186.1,68.6l7.5-1.5c0.2,0,0.4,0.1,0.4,0.3l0,0l0,0c0,0.2-0.1,0.4-0.3,0.4l-7.5,1.5c-0.2,0-0.3-0.1-0.4-0.3
		l0,0C185.7,68.8,185.8,68.7,186.1,68.6C186,68.6,186.1,68.6,186.1,68.6z"/>
	<path class="st4" d="M185.8,67.5l7.5-1.5c0.2,0,0.3,0.1,0.4,0.3l0,0c0,0.2-0.1,0.4-0.3,0.4l-7.5,1.5c-0.2,0-0.3-0.1-0.4-0.3l0,0
		C185.5,67.8,185.6,67.6,185.8,67.5L185.8,67.5z"/>
	<path class="st4" d="M185.5,66.5l7.5-1.5c0.2,0,0.3,0.1,0.4,0.3l0,0c0,0.2-0.1,0.4-0.3,0.4l-7.5,1.5c-0.2,0-0.3-0.1-0.4-0.3l0,0
		C185.2,66.7,185.3,66.5,185.5,66.5L185.5,66.5z"/>
	<path class="st5" d="M191.1,87.9L191.1,87.9c-0.2,0-4.1-0.3-6.4-4.9c-0.1-0.2,0-0.5,0.3-0.6c0.2-0.1,0.5,0,0.6,0.2
		c2,4.1,5.4,4.3,5.6,4.4c0.2,0,0.5,0.3,0.4,0.5C191.6,87.7,191.4,87.9,191.1,87.9z"/>
	<ellipse transform="matrix(0.9841 -0.1774 0.1774 0.9841 -11.5888 34.0728)" class="st5" cx="184.7" cy="81.8" rx="0.4" ry="0.4"/>
</g>
<g>
	<path class="st6" d="M250.3,76c-0.2,4.9,3.8,8.9,8.6,9.1c4.9,0.2,9-3.7,9.1-8.6c0.1-2.7-1.1-5.2-3.1-7c-1.1-1-1.8-2.4-1.7-3.9
		l0.1-2.2c0-1-0.8-1.9-1.8-1.9l-3.9-0.1c-1.1,0-1.9,0.8-1.9,1.8l-0.1,2.3c0,1.5-0.7,2.9-1.9,3.8C251.6,70.8,250.3,73.3,250.3,76z"/>

		<ellipse transform="matrix(5.046533e-02 -0.9987 0.9987 5.046533e-02 169.583 331.5512)" class="st7" cx="259.2" cy="76.6" rx="6.4" ry="6.2"/>
	<path class="st2" d="M254.1,78c0,0-0.1,0-0.1-0.1c-0.2-0.1-0.3-0.3-0.3-0.5l3.4-16.3c0.1-0.3,0.3-0.4,0.6-0.4
		c0.3,0.1,0.4,0.3,0.3,0.6L255,76l0.5-0.6c0.1-0.1,0.2-0.2,0.4-0.2c0.1,0,0.3,0.1,0.4,0.3l0.5,0.9l0.8-0.7c0.1-0.1,0.2-0.1,0.3-0.1
		c0.1,0,0.2,0.1,0.3,0.2l0.5,0.6l0.7-0.9c0.1-0.1,0.2-0.2,0.4-0.2c0.1,0,0.3,0.1,0.4,0.3l0.3,0.4l0.7-0.6c0.2-0.2,0.5-0.1,0.6,0.1
		l0.5,0.7l0.3-0.4c0.1-0.1,0.2-0.2,0.4-0.2s0.3,0.1,0.4,0.2l0.1,0.1l-3.2-14.4c0-0.2,0.1-0.5,0.4-0.6c0.2,0,0.5,0.1,0.5,0.4
		l3.6,16.4c0,0.2-0.1,0.5-0.4,0.6c-0.2,0-0.3,0-0.5-0.2l-1-1.2l-0.3,0.4c-0.1,0.1-0.2,0.2-0.4,0.2s-0.3-0.1-0.4-0.2l-0.6-0.8
		l-0.8,0.6c-0.1,0.1-0.2,0.1-0.4,0.1c-0.1,0-0.2-0.1-0.3-0.3l-0.2-0.3l-0.6,0.7c-0.1,0.1-0.2,0.2-0.4,0.2s-0.3-0.1-0.4-0.2l-0.5-0.7
		l-0.9,0.8c-0.2,0.2-0.5,0.2-0.7,0c0,0,0,0,0-0.1l-0.5-0.8l-1.3,1.4C254.5,78,254.3,78.1,254.1,78z"/>
	<path class="st3" d="M258.5,60.5l2.1,0.1c1.5,0,2.7,1.4,2.7,3l0,0l-0.1,2l-7.6-0.2l0.1-2C255.7,61.8,256.9,60.5,258.5,60.5
		C258.5,60.5,258.5,60.5,258.5,60.5z"/>
	<path class="st4" d="M255.7,63.9l7.7,0.2c0.2,0,0.4,0.2,0.4,0.4l0,0l0,0c0,0.2-0.2,0.3-0.3,0.4l-7.7-0.2c-0.2,0-0.3-0.2-0.4-0.4
		l0,0C255.3,64,255.5,63.9,255.7,63.9C255.6,63.9,255.7,63.9,255.7,63.9z"/>
	<path class="st4" d="M255.7,62.7l7.7,0.2c0.2,0,0.3,0.2,0.4,0.4l0,0c0,0.2-0.2,0.3-0.3,0.4l-7.7-0.2c-0.2,0-0.3-0.2-0.4-0.4l0,0
		C255.4,62.9,255.5,62.7,255.7,62.7L255.7,62.7z"/>
	<path class="st4" d="M255.6,61.6l7.7,0.2c0.2,0,0.3,0.2,0.4,0.4l0,0c0,0.2-0.2,0.3-0.3,0.4l-7.7-0.2c-0.2,0-0.3-0.2-0.4-0.4l0,0
		C255.3,61.8,255.5,61.6,255.6,61.6L255.6,61.6z"/>
	<path class="st5" d="M256.3,83.8L256.3,83.8c-0.2-0.1-3.9-1.2-5.1-6.2c0-0.2,0.1-0.5,0.4-0.6c0.2,0,0.5,0.1,0.5,0.3
		c1,4.4,4.3,5.4,4.4,5.5c0.2,0.1,0.4,0.4,0.3,0.6C256.7,83.7,256.5,83.8,256.3,83.8z"/>

		<ellipse transform="matrix(5.046533e-02 -0.9987 0.9987 5.046533e-02 162.3947 323.6844)" class="st5" cx="251.4" cy="76.4" rx="0.4" ry="0.4"/>
</g>
<g>
	<path class="st6" d="M207.1,42.6c1,4.8,5.7,7.8,10.5,6.9c4.8-1,7.9-5.7,7-10.4c-0.5-2.6-2.2-4.9-4.6-6.1c-1.3-0.7-2.3-1.9-2.6-3.4
		l-0.4-2.2c-0.2-1-1.2-1.7-2.2-1.4l-3.8,0.8c-1,0.2-1.6,1.2-1.5,2.2l0.5,2.2c0.3,1.4-0.1,3-1,4.1C207.2,37.3,206.6,40,207.1,42.6z"
		/>
	<ellipse transform="matrix(0.9841 -0.1774 0.1774 0.9841 -3.8834 38.9572)" class="st7" cx="215.9" cy="41.2" rx="6.2" ry="6.4"/>
	<path class="st2" d="M211.3,43.7c0,0-0.1,0-0.1,0c-0.2-0.1-0.3-0.2-0.4-0.5l-0.3-16.6c0-0.3,0.2-0.5,0.5-0.5s0.5,0.2,0.5,0.5
		l0.3,14.9l0.4-0.7c0.1-0.1,0.2-0.2,0.3-0.3s0.3,0,0.4,0.2l0.7,0.7l0.6-0.9c0.1-0.1,0.2-0.2,0.3-0.2c0.1,0,0.2,0,0.3,0.1l0.6,0.5
		l0.5-1c0.1-0.2,0.2-0.2,0.4-0.3c0.1,0,0.3,0,0.4,0.2l0.4,0.4l0.6-0.7c0.1-0.2,0.4-0.2,0.6-0.1l0.7,0.6l0.2-0.4
		c0.1-0.1,0.2-0.2,0.3-0.3c0.1,0,0.3,0,0.4,0.1l0.1,0.1l-6.4-13.3c-0.1-0.2,0-0.5,0.2-0.6c0.2-0.1,0.5,0,0.6,0.2l7.3,15.1
		c0.1,0.2,0,0.5-0.2,0.6c-0.2,0.1-0.3,0.1-0.5-0.1l-1.2-1l-0.2,0.4c-0.1,0.1-0.2,0.2-0.3,0.3s-0.3,0-0.4-0.1l-0.8-0.6l-0.6,0.8
		c-0.1,0.1-0.2,0.2-0.3,0.2c-0.1,0-0.2-0.1-0.4-0.2l-0.2-0.3l-0.5,0.9c-0.1,0.1-0.2,0.2-0.3,0.3s-0.3,0-0.4-0.1l-0.7-0.6l-0.7,1
		c-0.1,0.2-0.4,0.3-0.6,0.1c0,0-0.1,0-0.1-0.1l-0.6-0.7l-0.9,1.7C211.7,43.6,211.5,43.7,211.3,43.7z"/>
	<path class="st3" d="M211.6,25.7l2-0.4c1.5-0.3,3,0.7,3.3,2.3l0,0l0.4,1.9l-7.5,1.6l-0.4-1.9C209.1,27.5,210.1,26,211.6,25.7
		C211.6,25.7,211.6,25.7,211.6,25.7z"/>
	<path class="st4" d="M209.7,29.6l7.5-1.5c0.2,0,0.4,0.1,0.4,0.3l0,0l0,0c0,0.2-0.1,0.4-0.3,0.4l-7.5,1.5c-0.2,0-0.3-0.1-0.4-0.3
		l0,0C209.3,29.8,209.4,29.6,209.7,29.6C209.6,29.6,209.7,29.6,209.7,29.6z"/>
	<path class="st4" d="M209.4,28.5l7.5-1.5c0.2,0,0.3,0.1,0.4,0.3l0,0c0,0.2-0.1,0.4-0.3,0.4l-7.5,1.5c-0.2,0-0.3-0.1-0.4-0.3l0,0
		C209.1,28.7,209.2,28.5,209.4,28.5L209.4,28.5z"/>
	<path class="st4" d="M209.1,27.4l7.5-1.5c0.2,0,0.3,0.1,0.4,0.3l0,0c0,0.2-0.1,0.4-0.3,0.4l-7.5,1.5c-0.2,0-0.3-0.1-0.4-0.3l0,0
		C208.8,27.7,208.9,27.4,209.1,27.4L209.1,27.4z"/>
	<path class="st5" d="M214.7,48.9L214.7,48.9c-0.2,0-4.1-0.3-6.4-4.9c-0.1-0.2,0-0.5,0.3-0.6c0.2-0.1,0.5,0,0.6,0.2
		c2,4.1,5.4,4.3,5.6,4.4c0.2,0,0.5,0.3,0.4,0.5C215.2,48.7,215,48.8,214.7,48.9z"/>
	<ellipse transform="matrix(0.9841 -0.1774 0.1774 0.9841 -4.2881 37.6407)" class="st5" cx="208.3" cy="42.8" rx="0.4" ry="0.4"/>
</g>
<g>
	<path class="st6" d="M62,52.3c0,4.9,4,8.8,8.8,8.9c4.9,0,8.9-3.9,8.9-8.8c0-2.7-1.2-5.2-3.3-6.9c-1.2-0.9-1.8-2.4-1.8-3.9l0-2.2
		c0-1-0.8-1.9-1.9-1.9l-3.9,0c-1.1,0-1.8,0.8-1.9,1.8l0,2.3c0,1.5-0.7,2.9-1.8,3.8C63.2,47.1,62,49.6,62,52.3z"/>

		<ellipse transform="matrix(2.682557e-02 -0.9996 0.9996 2.682557e-02 16.3323 122.1507)" class="st7" cx="70.9" cy="52.7" rx="6.4" ry="6.2"/>
	<path class="st2" d="M65.9,54.2c0,0-0.1,0-0.1-0.1c-0.2-0.1-0.3-0.3-0.3-0.5l3-16.3c0.1-0.3,0.3-0.4,0.6-0.4s0.4,0.3,0.4,0.6
		l-2.8,14.6l0.5-0.7c0.1-0.1,0.2-0.2,0.4-0.2c0.1,0,0.3,0.1,0.4,0.2l0.5,0.9l0.8-0.7c0.1-0.1,0.2-0.1,0.3-0.1c0.1,0,0.2,0.1,0.3,0.2
		l0.5,0.6l0.7-0.9c0.1-0.1,0.2-0.2,0.4-0.2c0.1,0,0.3,0.1,0.4,0.2l0.3,0.4l0.7-0.6c0.2-0.2,0.5-0.1,0.7,0.1l0.5,0.7l0.3-0.4
		c0.1-0.1,0.2-0.2,0.4-0.2c0.1,0,0.3,0.1,0.4,0.2l0.1,0.1l-3.6-14.3c0-0.2,0.1-0.5,0.3-0.6c0.2,0,0.5,0.1,0.5,0.3l4,16.3
		c0,0.2-0.1,0.5-0.3,0.6c-0.2,0-0.3,0-0.5-0.2l-1-1.2l-0.3,0.4c-0.1,0.1-0.2,0.2-0.4,0.2c-0.1,0-0.3-0.1-0.4-0.2l-0.6-0.8L72.3,53
		c-0.1,0.1-0.2,0.1-0.4,0.1c-0.1,0-0.2-0.1-0.3-0.2l-0.2-0.3l-0.6,0.7c-0.1,0.1-0.2,0.2-0.4,0.2c-0.1,0-0.3-0.1-0.4-0.2l-0.5-0.7
		l-0.9,0.8c-0.2,0.2-0.5,0.2-0.7,0c0,0,0,0,0-0.1l-0.5-0.8L66.3,54C66.3,54.2,66.1,54.3,65.9,54.2z"/>
	<path class="st3" d="M69.9,36.6l2.1,0c1.5,0,2.8,1.3,2.8,3l0,0l0,2l-7.6,0l0-2C67.1,37.9,68.3,36.6,69.9,36.6
		C69.8,36.6,69.8,36.6,69.9,36.6z"/>
	<path class="st4" d="M67.1,40.1l7.7,0c0.2,0,0.4,0.2,0.4,0.3l0,0l0,0c0,0.2-0.1,0.3-0.3,0.4l-7.7,0c-0.2,0-0.3-0.2-0.4-0.3l0,0
		C66.8,40.2,66.9,40,67.1,40.1C67.1,40.1,67.1,40.1,67.1,40.1z"/>
	<path class="st4" d="M67.1,38.9l7.7,0c0.2,0,0.3,0.2,0.4,0.3l0,0c0,0.2-0.1,0.3-0.3,0.4l-7.7,0c-0.2,0-0.3-0.2-0.4-0.3l0,0
		C66.8,39.1,66.9,38.9,67.1,38.9L67.1,38.9z"/>
	<path class="st4" d="M67,37.8l7.7,0c0.2,0,0.3,0.2,0.4,0.3l0,0c0,0.2-0.1,0.3-0.3,0.4l-7.7,0c-0.2,0-0.3-0.2-0.4-0.3l0,0
		C66.7,38,66.9,37.8,67,37.8L67,37.8z"/>
	<path class="st5" d="M68.2,60L68.2,60c-0.2-0.1-4-1.1-5.2-6.1c0-0.2,0.1-0.5,0.4-0.6c0.2,0,0.5,0.1,0.6,0.3C65,58,68.3,59,68.4,59
		c0.2,0.1,0.4,0.3,0.3,0.6C68.7,59.8,68.4,60,68.2,60z"/>

		<ellipse transform="matrix(2.682557e-02 -0.9996 0.9996 2.682557e-02 8.7771 114.4498)" class="st5" cx="63.2" cy="52.7" rx="0.4" ry="0.4"/>
</g>
<g>
	<path class="st6" d="M10.1,74.3C9,79,12.2,83.7,17,84.7c4.8,1,9.5-2.1,10.5-6.8c0.6-2.6-0.1-5.3-1.9-7.4c-1-1.1-1.3-2.7-1-4.2
		l0.5-2.2c0.2-1-0.4-2-1.5-2.2l-3.8-0.8c-1-0.2-2,0.4-2.2,1.4l-0.5,2.2c-0.3,1.4-1.2,2.7-2.6,3.4C12.3,69.4,10.6,71.6,10.1,74.3z"/>
	<ellipse transform="matrix(0.2262 -0.9741 0.9741 0.2262 -60.0179 77.3489)" class="st7" cx="18.7" cy="76.5" rx="6.4" ry="6.2"/>
	<path class="st2" d="M13.5,77c0,0-0.1,0-0.1-0.1c-0.2-0.1-0.2-0.3-0.2-0.6l6.3-15.4c0.1-0.3,0.4-0.4,0.6-0.2
		c0.3,0.1,0.3,0.4,0.2,0.6l-5.6,13.8l0.6-0.5c0.1-0.1,0.3-0.1,0.4-0.1s0.3,0.2,0.3,0.3l0.3,0.9l0.9-0.6c0.1-0.1,0.3-0.1,0.3-0.1
		c0.1,0,0.2,0.1,0.3,0.2l0.4,0.7l0.9-0.7c0.1-0.1,0.3-0.1,0.5-0.1c0.1,0,0.3,0.2,0.3,0.3l0.2,0.5l0.8-0.4c0.2-0.1,0.5,0,0.6,0.2
		l0.4,0.8l0.4-0.3c0.1-0.1,0.3-0.1,0.4-0.1s0.3,0.1,0.3,0.2l0.1,0.1l-0.6-14.8c0-0.2,0.2-0.5,0.4-0.5c0.2,0,0.5,0.2,0.5,0.5L24,78.5
		c0,0.2-0.2,0.5-0.4,0.5c-0.2,0-0.3-0.1-0.4-0.2l-0.7-1.4l-0.4,0.3c-0.1,0.1-0.3,0.1-0.4,0.1c-0.1,0-0.3-0.1-0.3-0.3l-0.5-0.9
		L20,77.1c-0.1,0.1-0.3,0.1-0.4,0c-0.1,0-0.2-0.1-0.3-0.3l-0.1-0.4L18.5,77c-0.1,0.1-0.3,0.1-0.4,0.1c-0.1,0-0.3-0.1-0.3-0.2
		l-0.4-0.8l-1,0.6c-0.2,0.1-0.5,0.1-0.6-0.1c0,0,0-0.1,0-0.1l-0.3-0.9l-1.5,1.2C13.8,77,13.6,77,13.5,77z"/>
	<path class="st3" d="M20.9,60.5l2,0.4c1.5,0.3,2.5,1.9,2.1,3.5l0,0l-0.4,1.9l-7.5-1.5l0.4-1.9C17.9,61.2,19.3,60.2,20.9,60.5
		C20.8,60.5,20.8,60.5,20.9,60.5z"/>
	<path class="st4" d="M17.5,63.3l7.5,1.6c0.2,0,0.3,0.2,0.3,0.4l0,0l0,0c0,0.2-0.2,0.3-0.4,0.3L17.4,64c-0.2,0-0.3-0.2-0.3-0.4l0,0
		C17.1,63.4,17.3,63.3,17.5,63.3C17.5,63.3,17.5,63.3,17.5,63.3z"/>
	<path class="st4" d="M17.7,62.2l7.5,1.6c0.2,0,0.3,0.2,0.3,0.4l0,0c0,0.2-0.2,0.3-0.4,0.3l-7.5-1.6c-0.2,0-0.3-0.2-0.3-0.4l0,0
		C17.4,62.3,17.6,62.2,17.7,62.2L17.7,62.2z"/>
	<path class="st4" d="M17.9,61.1l7.5,1.6c0.2,0,0.3,0.2,0.3,0.4l0,0c0,0.2-0.2,0.3-0.4,0.3l-7.5-1.6c-0.2,0-0.3-0.2-0.3-0.4l0,0
		C17.6,61.3,17.8,61.1,17.9,61.1L17.9,61.1z"/>
	<path class="st5" d="M14.6,83L14.6,83c-0.2-0.1-3.7-1.9-3.9-7c0-0.2,0.2-0.5,0.5-0.5c0.2,0,0.4,0.2,0.5,0.4
		c0.2,4.5,3.3,6.1,3.4,6.2c0.2,0.1,0.3,0.4,0.2,0.6C15,83,14.8,83.1,14.6,83z"/>
	<ellipse transform="matrix(0.2262 -0.9741 0.9741 0.2262 -64.4069 68.7888)" class="st5" cx="11.1" cy="74.9" rx="0.4" ry="0.4"/>
</g>
<g>
	<path class="st0" d="M42.1,80c-0.6,4.8,2.9,9.3,7.8,9.9c4.8,0.6,9.3-2.9,9.9-7.8c0.3-2.6-0.6-5.3-2.4-7.2c-1.1-1.1-1.5-2.6-1.4-4.1
		l0.3-2.2c0.1-1-0.6-2-1.6-2.1L50.8,66c-1-0.1-2,0.6-2.1,1.6l-0.3,2.3c-0.2,1.5-1,2.8-2.3,3.6C43.9,74.9,42.4,77.3,42.1,80z"/>
	<circle class="st1" cx="50.8" cy="81.4" r="6.4"/>
	<path class="st2" d="M45.6,82.4c-0.1,0-0.1-0.1-0.2-0.1c-0.2-0.1-0.3-0.4-0.2-0.6l5.1-15.9c0.1-0.3,0.4-0.4,0.7-0.4
		c0.3,0.1,0.4,0.4,0.3,0.7l0,0l-4.5,14.1l0.6-0.5c0.1-0.1,0.3-0.2,0.5-0.1c0.2,0.1,0.3,0.2,0.4,0.3l0.4,0.9l0.9-0.7
		c0.2-0.2,0.6-0.1,0.7,0.1l0,0l0.4,0.7l0.8-0.8c0.1-0.1,0.3-0.2,0.5-0.1c0.2,0.1,0.3,0.2,0.4,0.3l0.2,0.5l0.8-0.5
		c0.1-0.1,0.3-0.1,0.4-0.1c0.2,0.1,0.3,0.1,0.3,0.3l0.5,0.8l0.3-0.3c0.1-0.1,0.3-0.2,0.4-0.2c0.2,0,0.3,0.1,0.4,0.2l0,0l-1.9-14.6
		c-0.1-0.3,0.2-0.6,0.5-0.6s0.6,0.2,0.6,0.5l2.1,16.7c0.1,0.3-0.2,0.5-0.5,0.6c-0.2,0-0.4-0.1-0.5-0.2l-0.9-1.3l-0.3,0.3
		c-0.1,0.1-0.3,0.2-0.4,0.2c-0.2,0-0.3-0.1-0.4-0.3l-0.5-0.9L52.3,82c-0.1,0.1-0.3,0.1-0.4,0.1c-0.2-0.1-0.3-0.2-0.3-0.3l-0.2-0.4
		L50.8,82c-0.1,0.1-0.3,0.2-0.4,0.1c-0.2,0-0.3-0.1-0.4-0.3l-0.5-0.7l-1,0.7C48.5,82,48.3,82,48.2,82c-0.2-0.1-0.3-0.2-0.4-0.3
		l-0.4-0.8l-1.4,1.3C45.9,82.3,45.8,82.4,45.6,82.4z"/>
	<path class="st3" d="M51.6,65.4l2.4,0.3c1.4,0.2,2.5,1.5,2.3,3L56,70.8l-7.6-0.9l0.3-2.1C48.9,66.3,50.2,65.2,51.6,65.4z"/>
	<path class="st4" d="M48.5,68.4l7.8,1c0.2,0,0.3,0.2,0.3,0.4l0,0l0,0c0,0.2-0.2,0.3-0.4,0.3l0,0l-7.8-1c-0.2,0-0.3-0.2-0.3-0.4l0,0
		l0,0C48.2,68.5,48.3,68.4,48.5,68.4L48.5,68.4z"/>
	<path class="st4" d="M48.7,67.3l7.8,1c0.2,0,0.4,0.2,0.3,0.4l0,0l0,0c0,0.2-0.2,0.4-0.4,0.3l0,0l-7.8-1c-0.2,0-0.4-0.2-0.3-0.4l0,0
		l0,0C48.3,67.4,48.5,67.3,48.7,67.3L48.7,67.3z"/>
	<path class="st4" d="M48.8,66.2l7.8,1c0.2,0,0.3,0.2,0.3,0.4l0,0l0,0c0,0.2-0.2,0.3-0.4,0.3l0,0l-7.8-1c-0.2,0-0.3-0.2-0.3-0.4l0,0
		l0,0C48.4,66.3,48.6,66.1,48.8,66.2L48.8,66.2z"/>
	<path class="st5" d="M47.3,88.4h-0.1c-0.2-0.1-3.9-1.6-4.6-6.7c-0.1-0.3,0.2-0.6,0.5-0.6l0,0c0.3-0.1,0.5,0.2,0.6,0.5
		c0.6,4.5,3.9,5.9,3.9,5.9c0.3,0.1,0.4,0.4,0.3,0.7C47.7,88.4,47.5,88.5,47.3,88.4L47.3,88.4z"/>
	<circle class="st5" cx="43" cy="80.5" r="0.4"/>
</g>
<g>
	<path class="st0" d="M150.4,85.7c0.7,4.8,5.2,8.2,10.1,7.5c4.8-0.7,8.2-5.2,7.5-10.1c-0.4-2.6-1.9-5-4.2-6.3
		c-1.3-0.8-2.1-2.1-2.4-3.6l-0.3-2.2c-0.2-1-1.1-1.7-2.1-1.6l-3.8,0.6c-1,0.2-1.7,1.1-1.6,2.1l0.4,2.3c0.2,1.5-0.2,3-1.2,4.1
		C150.8,80.3,150,83,150.4,85.7z"/>
	<circle class="st1" cx="159.2" cy="84.7" r="6.4"/>
	<path class="st2" d="M154.4,87.1c0,0-0.1,0-0.2,0c-0.2,0-0.3-0.3-0.3-0.5l0.7-16.7c0-0.3,0.2-0.5,0.5-0.5c0.3,0,0.5,0.2,0.5,0.6
		l0,0L155,84.8l0.4-0.6c0.1-0.1,0.3-0.2,0.4-0.2c0.2,0,0.3,0.1,0.4,0.2l0.6,0.7l0.7-0.9c0.2-0.2,0.5-0.2,0.7-0.1l0,0l0.6,0.5
		l0.6-0.9c0.1-0.1,0.3-0.2,0.4-0.2c0.2,0,0.3,0.1,0.4,0.2l0.3,0.4l0.6-0.7c0.1-0.1,0.2-0.2,0.4-0.2c0.2,0,0.3,0,0.4,0.2l0.6,0.6
		l0.2-0.4c0.1-0.1,0.2-0.2,0.3-0.3s0.3,0,0.4,0.1l0,0l-5.7-13.6c-0.1-0.3,0-0.6,0.3-0.7c0.3-0.1,0.6,0,0.7,0.3l6.5,15.6
		c0.1,0.2,0,0.5-0.3,0.7c-0.2,0.1-0.4,0-0.5-0.1l-1.2-1l-0.2,0.4c-0.1,0.1-0.2,0.2-0.3,0.3c-0.1,0-0.3,0-0.4-0.1l-0.7-0.7l-0.7,0.7
		c-0.1,0.1-0.3,0.2-0.4,0.2c-0.2,0-0.3-0.1-0.4-0.2l-0.2-0.3l-0.5,0.8c-0.1,0.1-0.2,0.2-0.4,0.2c-0.1,0-0.3,0-0.4-0.1l-0.6-0.6
		l-0.7,0.9c-0.1,0.1-0.3,0.2-0.4,0.2c-0.2,0-0.3-0.1-0.4-0.1l-0.6-0.7l-1,1.6C154.8,86.9,154.6,87.1,154.4,87.1z"/>
	<path class="st3" d="M155.7,69.1l2.4-0.3c1.4-0.2,2.8,0.8,3,2.3l0.3,2.1l-7.5,1.1l-0.3-2.1C153.3,70.7,154.3,69.3,155.7,69.1z"/>
	<path class="st4" d="M153.5,72.8l7.8-1.2c0.2-0.1,0.3,0.1,0.4,0.3l0,0l0,0c0.1,0.2-0.1,0.3-0.3,0.4l0,0l-7.8,1.2
		c-0.2,0.1-0.3-0.1-0.4-0.3l0,0l0,0C153.2,73,153.3,72.8,153.5,72.8L153.5,72.8z"/>
	<path class="st4" d="M153.4,71.7l7.8-1.2c0.2-0.1,0.4,0.1,0.4,0.3l0,0l0,0c0.1,0.2-0.1,0.4-0.3,0.4l0,0l-7.8,1.2
		c-0.2,0.1-0.4-0.1-0.4-0.3l0,0l0,0C153.1,71.9,153.2,71.7,153.4,71.7L153.4,71.7z"/>
	<path class="st4" d="M153.2,70.6l7.8-1.2c0.2-0.1,0.3,0.1,0.4,0.3l0,0l0,0c0.1,0.2-0.1,0.3-0.3,0.4l0,0l-7.8,1.2
		c-0.2,0.1-0.3-0.1-0.4-0.3l0,0l0,0C152.9,70.8,153,70.6,153.2,70.6L153.2,70.6z"/>
	<path class="st5" d="M157.6,92.4L157.6,92.4c-0.3,0-4.3-0.5-6.3-5.2c-0.1-0.2,0-0.6,0.3-0.7l0,0c0.2-0.1,0.5,0,0.7,0.3
		c1.8,4.2,5.4,4.6,5.4,4.6c0.3,0,0.4,0.3,0.4,0.6C158.1,92.3,157.8,92.4,157.6,92.4L157.6,92.4z"/>
	<circle class="st5" cx="151.5" cy="86" r="0.4"/>
</g>
<g>
	<path class="st0" d="M180.9,45.8c0.7,4.8,5.2,8.2,10.1,7.5c4.8-0.7,8.2-5.2,7.5-10.1c-0.4-2.6-1.9-5-4.2-6.3
		c-1.3-0.8-2.1-2.1-2.4-3.6l-0.3-2.2c-0.2-1-1.1-1.7-2.1-1.6l-3.8,0.6c-1,0.2-1.7,1.1-1.6,2.1l0.4,2.3c0.2,1.5-0.2,3-1.2,4.1
		C181.3,40.5,180.4,43.2,180.9,45.8z"/>
	<circle class="st1" cx="189.7" cy="44.9" r="6.4"/>
	<path class="st2" d="M184.9,47.3c0,0-0.1,0-0.2,0c-0.2,0-0.3-0.3-0.3-0.5l0.7-16.7c0-0.3,0.2-0.5,0.5-0.5c0.3,0,0.5,0.2,0.5,0.6
		l0,0L185.4,45l0.4-0.6c0.1-0.1,0.3-0.2,0.4-0.2c0.2,0,0.3,0.1,0.4,0.2l0.6,0.7l0.7-0.9c0.2-0.2,0.5-0.2,0.7-0.1l0,0l0.6,0.5
		l0.6-0.9c0.1-0.1,0.3-0.2,0.4-0.2c0.2,0,0.3,0.1,0.4,0.2l0.3,0.4l0.6-0.7c0.1-0.1,0.2-0.2,0.4-0.2c0.2,0,0.3,0,0.4,0.2l0.6,0.6
		l0.2-0.4c0.1-0.1,0.2-0.2,0.3-0.3c0.1,0,0.3,0,0.4,0.1l0,0l-5.7-13.6c-0.1-0.3,0-0.6,0.3-0.7c0.3-0.1,0.6,0,0.7,0.3l6.5,15.6
		c0.1,0.2,0,0.5-0.3,0.7c-0.2,0.1-0.4,0-0.5-0.1l-1.2-1l-0.2,0.4c-0.1,0.1-0.2,0.2-0.3,0.3c-0.1,0-0.3,0-0.4-0.1l-0.7-0.7l-0.7,0.7
		c-0.1,0.1-0.3,0.2-0.4,0.2c-0.2,0-0.3-0.1-0.4-0.2l-0.2-0.3l-0.5,0.8c-0.1,0.1-0.2,0.2-0.4,0.2c-0.1,0-0.3,0-0.4-0.1l-0.6-0.6
		l-0.7,0.9c-0.1,0.1-0.3,0.2-0.4,0.2c-0.2,0-0.3-0.1-0.4-0.1l-0.6-0.7l-1,1.6C185.2,47.1,185.1,47.3,184.9,47.3z"/>
	<path class="st3" d="M186.2,29.3l2.4-0.3c1.4-0.2,2.8,0.8,3,2.3l0.3,2.1l-7.5,1.1l-0.3-2.1C183.7,30.9,184.7,29.5,186.2,29.3z"/>
	<path class="st4" d="M183.9,33l7.8-1.2c0.2-0.1,0.3,0.1,0.4,0.3l0,0l0,0c0.1,0.2-0.1,0.3-0.3,0.4l0,0l-7.8,1.2
		c-0.2,0.1-0.3-0.1-0.4-0.3l0,0l0,0C183.6,33.2,183.8,33,183.9,33L183.9,33z"/>
	<path class="st4" d="M183.8,31.9l7.8-1.2c0.2-0.1,0.4,0.1,0.4,0.3l0,0l0,0c0.1,0.2-0.1,0.4-0.3,0.4l0,0l-7.8,1.2
		c-0.2,0.1-0.4-0.1-0.4-0.3l0,0l0,0C183.5,32.1,183.6,31.9,183.8,31.9L183.8,31.9z"/>
	<path class="st4" d="M183.7,30.8l7.8-1.2c0.2-0.1,0.3,0.1,0.4,0.3l0,0l0,0c0.1,0.2-0.1,0.3-0.3,0.4l0,0l-7.8,1.2
		c-0.2,0.1-0.3-0.1-0.4-0.3l0,0l0,0C183.3,31,183.5,30.8,183.7,30.8L183.7,30.8z"/>
	<path class="st5" d="M188.1,52.6L188.1,52.6c-0.3,0-4.3-0.5-6.3-5.2c-0.1-0.2,0-0.6,0.3-0.7l0,0c0.2-0.1,0.5,0,0.7,0.3
		c1.8,4.2,5.4,4.6,5.4,4.6c0.3,0,0.4,0.3,0.4,0.6C188.5,52.5,188.3,52.6,188.1,52.6L188.1,52.6z"/>
	<circle class="st5" cx="181.9" cy="46.1" r="0.4"/>
</g>
<g>
	<path class="st10" d="M34.5,50.7c-0.1,4.9,3.8,8.9,8.8,9c4.9,0.1,8.9-3.8,9-8.8c0-2.6-1.1-5.2-3.2-6.9c-1.2-1-1.8-2.4-1.8-3.9
		l0.1-2.2c0-1-0.8-1.9-1.8-1.9l-3.9,0c-1,0-1.9,0.8-1.9,1.8l0,2.3c0,1.5-0.7,2.9-1.9,3.8C35.8,45.5,34.5,48.1,34.5,50.7z"/>
	<circle class="st11" cx="43.3" cy="51.3" r="6.4"/>
	<path class="st2" d="M38.2,52.8c-0.1,0-0.1,0-0.2,0c-0.2-0.1-0.3-0.3-0.3-0.5l3.4-16.3c0.1-0.3,0.3-0.4,0.6-0.4
		c0.3,0.1,0.4,0.3,0.4,0.6l0,0l-3,14.5l0.5-0.6c0.1-0.1,0.3-0.2,0.4-0.1c0.2,0,0.3,0.1,0.4,0.3L41,51l0.8-0.7c0.2-0.2,0.5-0.2,0.7,0
		l0,0l0.5,0.6l0.7-0.8c0.1-0.1,0.3-0.2,0.4-0.1c0.2,0,0.3,0.1,0.4,0.3l0.2,0.4l0.7-0.6c0.1-0.1,0.2-0.1,0.4-0.1
		c0.2,0,0.3,0.1,0.3,0.2l0.5,0.7l0.3-0.3c0.1-0.1,0.2-0.2,0.4-0.2c0.2,0,0.3,0.1,0.4,0.2l0,0l-3.4-14.3c-0.1-0.3,0.1-0.6,0.4-0.6
		c0.3,0,0.6,0.1,0.6,0.4l3.9,16.4c0.1,0.2-0.1,0.5-0.4,0.6c-0.2,0-0.4,0-0.5-0.2l-1-1.2L47,51.9C47,52,46.8,52,46.7,52.1
		c-0.2,0-0.3-0.1-0.4-0.2l-0.6-0.8l-0.8,0.6c-0.1,0.1-0.3,0.1-0.4,0.1c-0.2,0-0.3-0.1-0.3-0.3L44,51.1l-0.6,0.7
		C43.3,52,43.1,52,43,52c-0.2,0-0.3-0.1-0.4-0.2L42,51.1l-0.9,0.8c-0.1,0.1-0.3,0.1-0.4,0.1c-0.2,0-0.3-0.1-0.4-0.2l-0.4-0.8
		l-1.3,1.4C38.6,52.7,38.4,52.8,38.2,52.8z"/>
	<path class="st3" d="M42.4,35.3l2.4,0.1c1.4,0,2.6,1.2,2.6,2.7l0,2.1l-7.6-0.1l0-2.1C39.8,36.5,40.9,35.2,42.4,35.3z"/>
	<path class="st4" d="M39.6,38.5l7.9,0.1c0.2,0,0.3,0.2,0.3,0.3l0,0l0,0c0,0.2-0.2,0.3-0.3,0.3l0,0l-7.9-0.1c-0.2,0-0.3-0.2-0.3-0.3
		l0,0l0,0C39.3,38.7,39.4,38.6,39.6,38.5L39.6,38.5z"/>
	<path class="st4" d="M39.7,37.4l7.9,0.1c0.2,0,0.4,0.2,0.3,0.4l0,0l0,0c0,0.2-0.2,0.4-0.4,0.3l0,0l-7.9-0.1c-0.2,0-0.4-0.2-0.3-0.4
		l0,0l0,0C39.3,37.6,39.5,37.4,39.7,37.4L39.7,37.4z"/>
	<path class="st4" d="M39.7,36.3l7.9,0.1c0.2,0,0.3,0.2,0.3,0.3l0,0l0,0c0,0.2-0.2,0.3-0.4,0.3l0,0L39.7,37c-0.2,0-0.3-0.2-0.3-0.3
		l0,0l0,0C39.3,36.5,39.5,36.3,39.7,36.3L39.7,36.3z"/>
	<path class="st5" d="M40.5,58.6l-0.1,0c-0.2,0-4-1.2-5.3-6.2c-0.1-0.2,0.1-0.6,0.4-0.6l0,0c0.2-0.1,0.5,0.1,0.6,0.4
		c1.1,4.4,4.5,5.4,4.5,5.4c0.3,0.1,0.4,0.4,0.3,0.6C41,58.5,40.7,58.6,40.5,58.6L40.5,58.6z"/>
	<circle class="st5" cx="35.5" cy="51.2" r="0.4"/>
</g>
<g>
	<path class="st10" d="M222.7,73.1c-1.1,4.8,1.9,9.5,6.7,10.6c4.8,1.1,9.5-1.9,10.6-6.7c0.6-2.6,0-5.3-1.7-7.4
		c-0.9-1.2-1.2-2.7-0.9-4.2l0.5-2.2c0.2-1-0.4-2-1.4-2.2l-3.8-0.8c-1-0.2-2,0.4-2.2,1.4l-0.5,2.2c-0.3,1.4-1.3,2.7-2.6,3.4
		C225.1,68.3,223.3,70.5,222.7,73.1z"/>
	<circle class="st11" cx="231.3" cy="75.4" r="6.4"/>
	<path class="st2" d="M226,75.9c-0.1,0-0.1-0.1-0.1-0.1c-0.2-0.1-0.2-0.4-0.1-0.6l6.7-15.3c0.1-0.2,0.4-0.4,0.7-0.3
		c0.2,0.1,0.4,0.4,0.2,0.7l0,0l-5.9,13.6l0.6-0.4c0.1-0.1,0.3-0.1,0.5-0.1s0.3,0.2,0.3,0.3l0.3,0.9l0.9-0.6c0.2-0.1,0.6,0,0.7,0.2
		l0,0L231,75l0.9-0.7c0.1-0.1,0.3-0.1,0.5-0.1c0.1,0.1,0.3,0.2,0.3,0.3l0.2,0.5l0.8-0.4c0.1,0,0.3-0.1,0.4,0
		c0.1,0.1,0.2,0.1,0.3,0.3l0.4,0.8l0.3-0.3c0.1-0.1,0.3-0.1,0.4-0.1c0.2,0,0.3,0.1,0.3,0.2l0,0l-0.4-14.7c0-0.3,0.2-0.5,0.5-0.5
		c0.3,0,0.5,0.2,0.5,0.5l0.4,16.9c0,0.3-0.2,0.5-0.5,0.5c-0.2,0-0.3-0.1-0.4-0.2l-0.7-1.4l-0.3,0.3c-0.1,0.1-0.3,0.1-0.4,0.1
		c-0.2,0-0.3-0.1-0.3-0.3l-0.4-0.9l-0.9,0.4c-0.1,0.1-0.3,0.1-0.4,0c-0.1-0.1-0.2-0.2-0.3-0.3l-0.1-0.4l-0.8,0.6
		c-0.1,0.1-0.3,0.1-0.4,0.1c-0.2,0-0.3-0.1-0.3-0.3l-0.4-0.7l-1,0.6c-0.1,0.1-0.3,0.1-0.5,0.1c-0.1-0.1-0.2-0.2-0.3-0.3l-0.3-0.8
		l-1.5,1.1C226.3,75.8,226.1,75.9,226,75.9z"/>
	<path class="st3" d="M233.7,59.6l2.3,0.5c1.4,0.3,2.3,1.7,2,3.2l-0.5,2l-7.4-1.7l0.5-2C230.8,60.2,232.2,59.3,233.7,59.6z"/>
	<path class="st4" d="M230.3,62.2l7.7,1.7c0.2,0,0.3,0.2,0.3,0.4l0,0l0,0c0,0.2-0.2,0.3-0.4,0.3l0,0l-7.7-1.7
		c-0.2,0-0.3-0.2-0.3-0.4l0,0l0,0C229.9,62.3,230.1,62.2,230.3,62.2L230.3,62.2z"/>
	<path class="st4" d="M230.5,61.1l7.7,1.7c0.2,0,0.3,0.2,0.3,0.4l0,0l0,0c0,0.2-0.2,0.3-0.4,0.3l0,0l-7.7-1.7
		c-0.2,0-0.3-0.2-0.3-0.4l0,0l0,0C230.2,61.3,230.3,61.1,230.5,61.1L230.5,61.1z"/>
	<path class="st4" d="M230.8,60.1l7.7,1.7c0.2,0,0.3,0.2,0.3,0.4l0,0l0,0c0,0.2-0.2,0.3-0.4,0.3l0,0l-7.7-1.7
		c-0.2,0-0.3-0.2-0.3-0.4l0,0l0,0C230.4,60.2,230.6,60,230.8,60.1L230.8,60.1z"/>
	<path class="st5" d="M227,82l-0.1,0c-0.1-0.1-3.7-2-3.9-7.1c0-0.3,0.2-0.5,0.5-0.5l0,0c0.3,0,0.5,0.2,0.5,0.5
		c0.1,4.6,3.3,6.3,3.3,6.3c0.2,0.1,0.3,0.4,0.2,0.7C227.5,82,227.2,82.1,227,82L227,82z"/>
	<circle class="st5" cx="223.6" cy="73.7" r="0.4"/>
</g>
<g>
	<path class="st4" d="M124.8,69.1l0.1,0c0.8,0.1,1.5,0.8,1.5,1.6l0,0l-3.2-0.2l0,0C123.2,69.8,123.9,69.1,124.8,69.1z"/>
	<path class="st8" d="M115.6,84.2c-0.2,4.7,3.3,8.6,8,8.9c4.7,0.2,8.6-3.3,8.9-8c0.1-2.5-0.9-5-2.8-6.7c-1.1-1-1.7-2.4-1.5-3.8
		l0.1-2.1c0-1-0.7-1.8-1.7-1.8l-3.7-0.2c-1,0-1.8,0.7-1.8,1.7l-0.1,2.1c-0.1,1.4-0.7,2.7-1.9,3.6C117,79.3,115.8,81.7,115.6,84.2z"
		/>
	<ellipse class="st9" cx="124.1" cy="85" rx="6.1" ry="6.1"/>
	<path class="st2" d="M119.1,86.2c-0.2,0-0.4-0.2-0.3-0.5c0,0,0,0,0,0l3.7-15.4c0-0.2,0.3-0.4,0.5-0.3c0.2,0,0.4,0.3,0.3,0.5
		L120,84.4l0.6-0.7c0.1-0.1,0.2-0.1,0.4-0.1s0.2,0.1,0.3,0.2l0.5,0.9l0.8-0.7c0.1-0.1,0.2-0.1,0.3-0.1c0.1,0,0.2,0.1,0.3,0.2
		l0.5,0.6l0.8-0.8c0.1-0.1,0.2-0.1,0.4-0.1s0.2,0.1,0.3,0.2l0.3,0.5l0.8-0.6c0.2-0.1,0.4-0.1,0.6,0.1l0.5,0.7l0.3-0.3
		c0.2-0.2,0.4-0.2,0.6,0c0,0,0,0,0.1,0.1l0.2,0.2l-2.8-14c0-0.2,0.1-0.4,0.3-0.5s0.4,0.1,0.5,0.3l3.2,15.8c0.1,0.2-0.1,0.4-0.2,0.5
		s-0.4,0-0.5-0.1l-0.9-1.2l-0.3,0.4c-0.2,0.2-0.4,0.2-0.6,0c0,0,0,0-0.1-0.1l-0.6-0.8l-0.8,0.6c-0.2,0.1-0.4,0.1-0.6-0.1l0,0
		l-0.2-0.4l-0.7,0.7c-0.1,0.1-0.2,0.1-0.3,0.1c-0.1,0-0.2-0.1-0.3-0.2l-0.5-0.7l-0.9,0.7c-0.2,0.1-0.4,0.1-0.6-0.1c0,0,0,0,0,0
		l-0.5-0.8l-1.3,1.4C119.4,86.2,119.3,86.2,119.1,86.2z"/>
	<path class="st3" d="M123.8,69.9l2.1,0.1c1.4,0.1,2.6,1.3,2.4,2.7l-0.1,1.8l-7.2-0.3l0.1-1.8C121.1,71,122.3,69.8,123.8,69.9
		L123.8,69.9z"/>
	<path class="st4" d="M120.9,72.7l7.5,0.4c0.2,0,0.3,0.1,0.3,0.4l0,0l0,0c0,0.2-0.1,0.3-0.4,0.3l0,0l-7.5-0.4
		c-0.2,0-0.3-0.2-0.3-0.4l0,0C120.6,72.9,120.8,72.8,120.9,72.7L120.9,72.7z"/>
	<path class="st4" d="M121,71.7l7.5,0.4c0.2,0,0.3,0.2,0.3,0.4l0,0c0,0.2-0.2,0.3-0.4,0.3l-7.5-0.4c-0.2,0-0.3-0.1-0.3-0.4l0,0l0,0
		C120.7,71.9,120.8,71.7,121,71.7L121,71.7z"/>
	<path class="st4" d="M121.1,70.6l7.5,0.4c0.2,0,0.3,0.2,0.3,0.4l0,0c0,0.2-0.2,0.3-0.4,0.3l-7.5-0.4c-0.2,0-0.3-0.2-0.3-0.4l0,0
		C120.7,70.8,120.8,70.7,121.1,70.6C121,70.6,121.1,70.6,121.1,70.6z"/>
	<path class="st5" d="M121.1,91.8L121.1,91.8c-0.2-0.1-3.9-1.3-4.8-6.1c0-0.2,0.1-0.4,0.3-0.5s0.4,0.1,0.5,0.3
		c0.9,4.3,4,5.3,4.2,5.4c0.2,0,0.4,0.3,0.3,0.5C121.6,91.7,121.4,91.8,121.1,91.8L121.1,91.8z"/>
	<circle class="st5" cx="116.5" cy="84.7" r="0.4"/>
</g>
<g>
	<path class="st4" d="M236.9,20.9l0.1,0c0.8-0.2,1.7,0.3,1.9,1.2l0,0l-3.2,0.8l0,0C235.6,21.9,236.1,21.1,236.9,20.9z"/>
	<path class="st8" d="M232.3,37.9c1.1,4.6,5.6,7.3,10.2,6.3c4.6-1.1,7.3-5.6,6.3-10.2c-0.6-2.5-2.2-4.5-4.5-5.7
		c-1.3-0.6-2.2-1.8-2.5-3.2l-0.5-2.1c-0.2-0.9-1.2-1.5-2.1-1.3l-3.6,0.9c-0.9,0.2-1.5,1.2-1.3,2.1l0.5,2.1c0.3,1.4,0,2.8-0.8,4
		C232.3,32.8,231.8,35.4,232.3,37.9z"/>
	<ellipse class="st9" cx="240.7" cy="36.3" rx="6.1" ry="6.1"/>
	<path class="st2" d="M236.3,38.8c-0.2,0-0.4-0.1-0.5-0.4c0,0,0,0,0,0l-0.7-15.9c0-0.2,0.2-0.4,0.4-0.4c0.2,0,0.4,0.2,0.4,0.4
		l0.6,14.3l0.4-0.8c0.1-0.1,0.2-0.2,0.3-0.2c0.1,0,0.3,0,0.4,0.1l0.7,0.7l0.6-0.9c0.1-0.1,0.2-0.1,0.3-0.2c0.1,0,0.2,0,0.3,0.1
		l0.6,0.5l0.5-1c0.1-0.1,0.2-0.2,0.3-0.2c0.1,0,0.3,0,0.4,0.1l0.4,0.4l0.6-0.7c0.1-0.2,0.4-0.2,0.6-0.1l0.7,0.5l0.2-0.4
		c0.1-0.2,0.3-0.3,0.6-0.2c0,0,0,0,0.1,0l0.2,0.1L238,22.1c-0.1-0.2,0-0.5,0.2-0.6c0.2-0.1,0.5,0,0.6,0.2l7.5,14.3
		c0.1,0.2,0,0.4-0.1,0.5c-0.2,0.1-0.4,0.1-0.5,0l-1.2-0.9l-0.2,0.4c-0.1,0.2-0.3,0.3-0.6,0.2c0,0,0,0-0.1,0l-0.8-0.6l-0.6,0.8
		c-0.1,0.2-0.4,0.2-0.6,0.1l0,0l-0.3-0.3l-0.5,0.9c-0.1,0.1-0.1,0.2-0.3,0.2s-0.3,0-0.3-0.1l-0.7-0.5l-0.6,1
		c-0.1,0.2-0.4,0.3-0.6,0.1c0,0,0,0,0,0l-0.7-0.7l-0.9,1.7C236.5,38.7,236.4,38.8,236.3,38.8z"/>
	<path class="st3" d="M236.2,21.9l2-0.5c1.4-0.3,2.8,0.5,3.1,1.9l0.4,1.8l-7.1,1.7l-0.4-1.8C233.9,23.6,234.8,22.2,236.2,21.9
		L236.2,21.9z"/>
	<path class="st4" d="M234.2,25.4l7.3-1.7c0.2-0.1,0.3,0,0.4,0.2l0,0l0,0c0.1,0.2,0,0.3-0.2,0.4l0,0l-7.3,1.7
		c-0.2,0-0.3-0.1-0.4-0.2l0,0C234,25.6,234.1,25.5,234.2,25.4L234.2,25.4z"/>
	<path class="st4" d="M234,24.4l7.3-1.7c0.2-0.1,0.3,0.1,0.4,0.2l0,0c0,0.2-0.1,0.3-0.2,0.4l-7.3,1.7c-0.2,0.1-0.3,0-0.4-0.2l0,0
		l0,0C233.7,24.6,233.8,24.4,234,24.4L234,24.4z"/>
	<path class="st4" d="M233.8,23.3l7.3-1.7c0.2,0,0.3,0.1,0.4,0.2l0,0c0.1,0.2-0.1,0.3-0.2,0.4l-7.3,1.7c-0.2,0.1-0.3-0.1-0.4-0.2
		l0,0C233.5,23.6,233.6,23.4,233.8,23.3C233.7,23.3,233.8,23.3,233.8,23.3z"/>
	<path class="st5" d="M239.7,43.6L239.7,43.6c-0.3,0-4.1-0.1-6.3-4.5c-0.1-0.2,0-0.5,0.2-0.6c0.2-0.1,0.5,0,0.6,0.2
		c2,3.8,5.4,4,5.5,4c0.2,0,0.4,0.2,0.4,0.4S240,43.6,239.7,43.6L239.7,43.6z"/>
	<circle class="st5" cx="233.3" cy="38.1" r="0.4"/>
</g>
</svg>
