<?xml version="1.0" encoding="utf-8"?>
<!-- Generator: Adobe Illustrator 24.0.3, SVG Export Plug-In . SVG Version: 6.00 Build 0)  -->
<svg version="1.1" id="Layer_1" xmlns="http://www.w3.org/2000/svg" xmlns:xlink="http://www.w3.org/1999/xlink" x="0px" y="0px"
	 viewBox="0 0 496.9 240" style="enable-background:new 0 0 496.9 240;" xml:space="preserve">
<style type="text/css">
	.st0{fill:#333333;}
	.st1{fill:#6564A5;}
	.st2{fill:#8483B7;}
	.st3{fill:#EAD13F;}
	.st4{fill:#010200;}
	.st5{fill:#FFFFFF;}
	.st6{fill:#BF665E;}
	.st7{fill:#CC857E;}
	.st8{fill:#D8F2E1;}
	.st9{fill:#E8F7ED;}
	.st10{fill:#F2C2C2;}
	.st11{fill:#F5CECE;}
</style>
<title>lyger</title>
<path class="st0" d="M-10.8,12.7l0.2,0.1c2,0.6,3.1,2.7,2.5,4.7l0,0l-7.4-2.2l0,0C-14.9,13.2-12.8,12.1-10.8,12.7z"/>
<path class="st1" d="M-40.7,42.3c-3.2,10.7,2.9,21.9,13.5,25.1s21.9-2.8,25.1-13.5c1.7-5.8,0.8-12.1-2.6-17.1
	c-1.9-2.8-2.4-6.4-1.4-9.7l1.5-4.9c0.7-2.2-0.6-4.6-2.8-5.3l-8.5-2.4c-2.2-0.7-4.6,0.6-5.3,2.8l-1.5,5c-1,3.3-3.3,5.9-6.5,7.2
	C-34.7,31.9-38.9,36.5-40.7,42.3z"/>
<circle class="st2" cx="-21.7" cy="49" r="14.5"/>
<path class="st3" d="M-33.7,49c-0.1,0-0.2-0.1-0.3-0.2c-0.3-0.3-0.4-0.8-0.2-1.2L-16.7,14c0.3-0.5,0.9-0.7,1.3-0.4
	c0.5,0.2,0.7,0.8,0.5,1.3l0,0l-15.8,30.4l1.8-1.2c0.3-0.2,0.6-0.2,0.9-0.1c0.3,0.1,0.5,0.4,0.6,0.7l0.6,2.3l2.4-1.2
	c0.3-0.1,0.5-0.1,0.8,0s0.5,0.3,0.6,0.6l0.8,1.8l2.3-1.4c0.3-0.2,0.6-0.2,0.9-0.1c0.3,0.1,0.5,0.4,0.6,0.7l0.3,1.2l2.1-0.8
	c0.5-0.2,1.1,0,1.3,0.6l0,0l0.8,2l0.9-0.6c0.2-0.2,0.6-0.2,0.8-0.1c0.3,0.1,0.5,0.3,0.7,0.6l0.3,0.6l1.3-34.4c0-0.6,0.5-1,1-1
	s1,0.5,1,1L-9.5,55c0,0.6-0.5,1-1,1c-0.4,0-0.7-0.2-0.9-0.6l-1.5-3.5l-1,0.7c-0.3,0.2-0.6,0.2-0.9,0.1c-0.3-0.1-0.5-0.3-0.6-0.6
	l-0.9-2.2l-2.2,0.9c-0.3,0.1-0.6,0.1-0.8,0c-0.3-0.1-0.4-0.4-0.5-0.7l-0.2-1l-2.1,1.3c-0.2,0.2-0.6,0.2-0.8,0.1
	c-0.3-0.1-0.5-0.3-0.6-0.6l-0.8-1.9l-2.5,1.3c-0.3,0.1-0.6,0.1-0.9,0s-0.5-0.4-0.6-0.7l-0.6-2.1l-3.8,2.4
	C-33,49.1-33.4,49.2-33.7,49z"/>
<path class="st4" d="M-13.6,13.9l4.7,1.4c3.3,1,5.1,4.4,4.2,7.7l-1.2,4.2l-16.5-5l1.2-4.2C-20.3,14.7-16.9,12.9-13.6,13.9
	L-13.6,13.9z"/>
<path class="st0" d="M-21.8,18.9L-4.7,24c0.4,0.1,0.7,0.5,0.6,1l0,0l0,0c-0.1,0.4-0.6,0.7-1,0.6l0,0l-17.1-5.2
	c-0.4-0.1-0.7-0.6-0.6-1l0,0l0,0C-22.7,19-22.3,18.7-21.8,18.9L-21.8,18.9z"/>
<path class="st0" d="M-21.1,16.4L-4,21.6c0.4,0.1,0.7,0.5,0.6,1l0,0l0,0c-0.1,0.4-0.6,0.7-1,0.6l0,0L-21.5,18
	c-0.4-0.1-0.7-0.6-0.5-1l0,0C-21.9,16.5-21.5,16.3-21.1,16.4L-21.1,16.4z"/>
<path class="st0" d="M-20.4,14l17.1,5.2c0.4,0.1,0.7,0.6,0.6,1l0,0l0,0c-0.1,0.4-0.6,0.7-1,0.6l0,0l-17.1-5.2
	c-0.4-0.1-0.7-0.5-0.6-1l0,0l0,0C-21.2,14.1-20.8,13.9-20.4,14L-20.4,14z"/>
<path class="st5" d="M-32.3,63.1c-0.1,0-0.1-0.1-0.2-0.1c-0.3-0.2-8-5.1-7.6-16.7c0-0.6,0.5-1,1-1c0.6,0,1,0.5,1,1l0,0
	c-0.4,10.4,6.3,14.7,6.6,14.9c0.5,0.3,0.7,0.9,0.4,1.4C-31.3,63.1-31.8,63.3-32.3,63.1z"/>
<circle class="st5" cx="-38.9" cy="43.9" r="0.9"/>
<path class="st0" d="M222.4,118h0.2c2,0.3,3.5,2.1,3.2,4.2l0,0l-7.7-0.9l0,0C218.5,119.1,220.4,117.7,222.4,118z"/>
<path class="st1" d="M198,152.2c-1.4,11,6.4,21.1,17.5,22.5c11,1.4,21.1-6.4,22.5-17.5c0.8-6-1.2-12-5.4-16.4
	c-2.3-2.5-3.5-5.9-3-9.3l0.6-5.1c0.3-2.3-1.4-4.4-3.7-4.7l-8.7-1.1c-2.3-0.3-4.4,1.4-4.7,3.7l-0.6,5.1c-0.4,3.4-2.3,6.4-5.2,8.2
	C202.1,140.9,198.7,146.2,198,152.2z"/>
<ellipse class="st2" cx="217.8" cy="155.6" rx="14.5" ry="14.5"/>
<path class="st3" d="M206,157.6c-0.1,0-0.2-0.1-0.4-0.1c-0.4-0.2-0.5-0.7-0.4-1.1l11.6-36.1c0.1-0.5,0.7-0.9,1.2-0.7
	c0.5,0.1,0.9,0.7,0.7,1.2v0.1l-10.5,32.6l1.6-1.5c0.2-0.2,0.6-0.3,0.9-0.2s0.6,0.3,0.7,0.6l1,2.1l2.1-1.6c0.2-0.2,0.5-0.2,0.8-0.2
	c0.3,0.1,0.5,0.2,0.7,0.4l1,1.6l2-1.8c0.4-0.4,1-0.3,1.4,0.1c0.1,0.1,0.1,0.2,0.2,0.3l0.5,1.2l1.9-1.2c0.5-0.3,1.1-0.1,1.4,0.3
	l1.1,1.8l0.8-0.8c0.2-0.2,0.5-0.3,0.8-0.3s0.6,0.2,0.7,0.4l0.4,0.6l-4.3-33.8c-0.1-0.6,0.3-1.1,0.9-1.1s1.1,0.3,1.1,0.9l4.9,38.1
	c0.1,0.5-0.3,1.1-0.9,1.1c-0.4,0.1-0.8-0.1-1-0.4l-2.1-3.1l-0.8,0.8c-0.4,0.4-1,0.4-1.4,0c-0.1-0.1-0.1-0.1-0.1-0.2l-1.2-2.1
	l-2.1,1.3c-0.2,0.2-0.6,0.2-0.8,0.1c-0.3-0.1-0.5-0.3-0.6-0.6l-0.4-1l-1.8,1.6c-0.2,0.2-0.5,0.3-0.8,0.2c-0.3,0-0.6-0.2-0.7-0.4
	L215,155l-2.3,1.7c-0.2,0.2-0.6,0.2-0.9,0.2c-0.3-0.1-0.5-0.3-0.6-0.6l-0.9-2l-3.4,3C206.6,157.6,206.3,157.7,206,157.6z"/>
<path class="st4" d="M219.9,119.6l4.9,0.6c3.4,0.4,5.8,3.5,5.4,6.9l-0.5,4.3l-17.1-2.1l0.5-4.3C213.3,121.6,216.4,119.2,219.9,119.6
	C219.8,119.6,219.8,119.6,219.9,119.6z"/>
<path class="st0" d="M212.6,125.9l17.7,2.2c0.4,0,0.7,0.4,0.7,0.9l0,0l0,0c0,0.4-0.4,0.7-0.9,0.7l0,0l-17.7-2.2
	c-0.4-0.1-0.7-0.4-0.7-0.9l0,0C211.8,126.2,212.1,125.9,212.6,125.9L212.6,125.9z"/>
<path class="st0" d="M212.9,123.4l17.7,2.2c0.4,0,0.8,0.4,0.7,0.9l0,0l0,0c-0.1,0.4-0.4,0.7-0.9,0.7l-17.7-2.2
	c-0.4-0.1-0.7-0.4-0.7-0.9l0,0C212.1,123.7,212.5,123.3,212.9,123.4L212.9,123.4z"/>
<path class="st0" d="M213.2,120.9l17.7,2.2c0.4,0.1,0.7,0.4,0.7,0.9l0,0c-0.1,0.4-0.4,0.8-0.9,0.7l-17.7-2.2
	c-0.4-0.1-0.7-0.4-0.7-0.9l0,0C212.4,121.2,212.8,120.8,213.2,120.9L213.2,120.9z"/>
<path class="st5" d="M209.7,171.2c-0.1,0-0.1,0-0.2-0.1c-0.4-0.1-8.8-3.6-10.3-15.2c-0.1-0.6,0.3-1.1,0.9-1.1
	c0.6-0.1,1.1,0.3,1.1,0.9c1.4,10.3,8.7,13.4,9,13.6c0.5,0.2,0.7,0.8,0.5,1.3C210.6,171.1,210.1,171.3,209.7,171.2L209.7,171.2z"/>
<circle class="st5" cx="200" cy="153.5" r="0.9"/>
<path class="st0" d="M467,120.2h0.3c2-0.2,3.9,1.2,4.1,3.3l0,0l-7.7,0.9l0,0C463.5,122.3,465,120.5,467,120.2z"/>
<path class="st1" d="M451.2,159.2c1.3,11.1,11.2,19,22.3,17.8c11.1-1.3,19-11.2,17.8-22.3c-0.7-6-4-11.4-9.1-14.7
	c-2.9-1.9-4.8-4.9-5.1-8.3l-0.6-5.1c-0.3-2.3-2.4-4-4.7-3.7l-8.7,1c-2.3,0.3-4,2.4-3.7,4.7l0.6,5.1c0.4,3.4-0.7,6.7-3.1,9.2
	C452.6,147.2,450.6,153.2,451.2,159.2z"/>
<ellipse class="st2" cx="471.4" cy="157.8" rx="14.5" ry="14.5"/>
<path class="st3" d="M460.3,162.6c-0.6,0-1-0.4-1-1c0,0,0,0,0-0.1l2.8-37.8c0-0.6,0.5-1,1.1-0.9c0.6,0,1,0.5,0.9,1.1l-2.6,34.1
	l1.2-1.8c0.2-0.3,0.5-0.4,0.8-0.4s0.6,0.1,0.8,0.4l1.5,1.9l1.7-2c0.2-0.2,0.4-0.3,0.7-0.4c0.3,0,0.5,0.1,0.7,0.3l1.4,1.3l1.5-2.2
	c0.2-0.3,0.5-0.4,0.8-0.4s0.6,0.1,0.8,0.4l0.8,1l1.6-1.6c0.4-0.4,1-0.4,1.4,0l1.5,1.5l0.6-0.9c0.3-0.5,0.9-0.6,1.4-0.3
	c0.1,0,0.1,0.1,0.2,0.1l0.5,0.4l-12.1-31.9c-0.2-0.5,0.1-1.1,0.6-1.3c0.5-0.2,1.1,0.1,1.3,0.6l13.6,35.9c0.2,0.4,0,0.9-0.4,1.2
	s-0.9,0.2-1.2-0.1l-2.7-2.5l-0.6,1c-0.3,0.5-0.9,0.6-1.4,0.3c-0.1,0-0.1-0.1-0.2-0.1l-1.7-1.7l-1.7,1.7c-0.4,0.4-1,0.4-1.4,0
	l-0.1-0.1l-0.6-0.8l-1.4,2c-0.2,0.2-0.4,0.4-0.7,0.4s-0.6-0.1-0.8-0.3l-1.5-1.4l-1.8,2.1c-0.3,0.4-1,0.5-1.4,0.1
	c-0.1,0-0.1-0.1-0.1-0.1l-1.4-1.8l-2.6,3.7C460.9,162.4,460.6,162.6,460.3,162.6z"/>
<path class="st4" d="M464.9,122.4l4.9-0.6c3.4-0.4,6.5,2,6.8,5.4l0.5,4.3l-17.2,2l-0.5-4.3C459.1,125.9,461.5,122.8,464.9,122.4
	L464.9,122.4z"/>
<path class="st0" d="M459.3,130.2l17.8-2c0.4-0.1,0.8,0.2,0.9,0.7l0,0l0,0c0.1,0.4-0.2,0.8-0.7,0.9l0,0l-17.8,2
	c-0.4,0-0.8-0.3-0.9-0.7l0,0C458.6,130.7,458.9,130.3,459.3,130.2L459.3,130.2z"/>
<path class="st0" d="M459.1,127.7l17.8-2c0.4-0.1,0.8,0.3,0.9,0.7l0,0c0,0.4-0.3,0.8-0.7,0.9l-17.8,2c-0.4,0.1-0.8-0.2-0.9-0.7l0,0
	l0,0C458.3,128.2,458.6,127.8,459.1,127.7L459.1,127.7z"/>
<path class="st0" d="M458.8,125.2l17.8-2c0.4,0,0.8,0.3,0.9,0.7l0,0c0.1,0.4-0.3,0.8-0.7,0.9l-17.8,2c-0.4,0.1-0.8-0.3-0.9-0.7l0,0
	C458,125.7,458.3,125.3,458.8,125.2C458.7,125.2,458.8,125.2,458.8,125.2z"/>
<path class="st5" d="M467.1,175h-0.2c-0.4-0.1-9.4-1.5-13.5-12.4c-0.2-0.5,0.1-1.1,0.6-1.3s1.1,0.1,1.3,0.6c3.7,9.7,11.6,11,12,11.1
	c0.6,0,1,0.5,0.9,1.1S467.7,175,467.1,175L467.1,175z"/>
<circle class="st5" cx="453.5" cy="160" r="0.9"/>
<path class="st0" d="M100.2,80.8h0.2c2,0.4,3.2,2.3,2.8,4.3l0,0l0,0l-7.4-1.6l0,0C96.4,81.6,98.3,80.4,100.2,80.8z"/>
<path class="st6" d="M73.7,111.9c-2.2,10.6,4.5,21,15.1,23.3s21-4.5,23.3-15.1c1.2-5.8-0.2-11.8-3.9-16.4c-2.1-2.6-2.9-6-2.2-9.3
	l1-4.8c0.5-2.2-1-4.4-3.2-4.9l-8.4-1.8c-2.2-0.5-4.4,1-4.9,3.2L89.4,91c-0.7,3.2-2.8,6-5.7,7.5C78.6,101.3,74.9,106.2,73.7,111.9z"
	/>
<circle class="st7" cx="92.7" cy="116.9" r="14.2"/>
<path class="st3" d="M81.1,117.9c-0.1,0-0.3-0.1-0.4-0.2c-0.4-0.3-0.5-0.8-0.3-1.2l14.2-34.1c0.2-0.5,0.8-0.8,1.3-0.5
	c0.5,0.2,0.8,0.8,0.5,1.3l-12.8,30.7l1.6-1.2c0.4-0.3,1.1-0.2,1.4,0.2c0.1,0.1,0.1,0.2,0.1,0.3l0.8,2.1l2.1-1.3
	c0.2-0.1,0.5-0.2,0.8-0.1s0.5,0.2,0.6,0.5l0.9,1.6l2.1-1.6c0.3-0.2,0.6-0.2,0.9-0.1c0.3,0.1,0.6,0.3,0.6,0.6l0.4,1.1l1.9-1
	c0.5-0.2,1.1-0.1,1.3,0.4l1,1.9l0.8-0.7c0.2-0.2,0.5-0.3,0.8-0.2c0.3,0.1,0.5,0.2,0.7,0.5l0.3,0.5l-1.4-33.1c0-0.6,0.4-1,1-1
	s1,0.4,1,1l1.5,37.3c0,0.6-0.4,1-1,1c-0.4,0-0.7-0.2-0.9-0.5l-1.7-3.1l-0.8,0.7c-0.2,0.2-0.5,0.3-0.8,0.2c-0.3-0.1-0.6-0.3-0.7-0.5
	l-1.1-2.1l-2.1,1c-0.3,0.1-0.6,0.1-0.8,0c-0.3-0.1-0.5-0.3-0.6-0.6l-0.3-0.9l-1.9,1.4c-0.2,0.2-0.5,0.2-0.8,0.2
	c-0.3-0.1-0.5-0.2-0.7-0.5l-0.9-1.7l-2.3,1.4c-0.3,0.2-0.6,0.2-0.9,0.1c-0.3-0.1-0.5-0.3-0.6-0.6l-0.7-2l-3.5,2.6
	C81.8,117.9,81.4,118,81.1,117.9z"/>
<path class="st4" d="M96.6,81.9l6.8,1.4c2.7,0.6,4.4,3.2,3.8,5.9l-1.1,5.2l-16.5-3.5l1.1-5.2C91.3,83.1,93.9,81.4,96.6,81.9z"/>
<path class="st0" d="M90.1,87.6l17,3.6c0.4,0.1,0.7,0.5,0.6,0.9l0,0c-0.1,0.4-0.5,0.7-0.9,0.6l-17-3.6c-0.4-0.1-0.7-0.5-0.6-0.9l0,0
	l0,0C89.3,87.8,89.6,87.6,90.1,87.6L90.1,87.6z"/>
<path class="st0" d="M90.6,85.2l17.1,3.6c0.4,0.1,0.7,0.5,0.6,0.9l0,0c-0.1,0.4-0.5,0.7-0.9,0.6l-17-3.6c-0.4-0.1-0.7-0.5-0.6-0.9
	l0,0C89.8,85.4,90.2,85.2,90.6,85.2z"/>
<path class="st0" d="M91.1,82.8l17,3.6c0.4,0.1,0.7,0.5,0.6,0.9l0,0c-0.1,0.4-0.5,0.7-0.9,0.6l-17-3.6c-0.4-0.1-0.7-0.5-0.6-0.9l0,0
	C90.2,83,90.6,82.7,91.1,82.8L91.1,82.8z"/>
<path class="st5" d="M83.5,131.4c-0.1,0-0.1,0-0.2-0.1c-0.3-0.2-8.2-4.3-8.7-15.6c0-0.6,0.4-1,1-1s1,0.4,1,1
	c0.5,10.1,7.6,13.8,7.6,13.9c0.5,0.2,0.7,0.8,0.4,1.3C84.4,131.3,84,131.6,83.5,131.4z"/>
<circle class="st5" cx="75.5" cy="113.3" r="0.9"/>
<path class="st0" d="M345.1,128.9h0.2c2,0.1,3.6,1.7,3.5,3.7l0,0l0,0l-7.5-0.2l0,0C341.4,130.4,343.1,128.9,345.1,128.9z"/>
<path class="st6" d="M324.5,164.3c-0.3,10.8,8.2,19.9,19.1,20.2c10.8,0.3,19.9-8.2,20.2-19.1c0.2-5.9-2.3-11.6-6.8-15.4
	c-2.5-2.2-3.9-5.4-3.8-8.7l0.1-5c0.1-2.3-1.7-4.1-4-4.2l-8.5-0.2c-2.3,0-4.1,1.7-4.2,4l-0.1,5c-0.1,3.3-1.6,6.4-4.3,8.4
	C327.5,152.9,324.7,158.4,324.5,164.3z"/>
<circle class="st7" cx="344.1" cy="165.8" r="14.2"/>
<path class="st3" d="M332.8,168.9c-0.1,0-0.3,0-0.4-0.1c-0.4-0.2-0.6-0.7-0.5-1.1l7.9-36.1c0.1-0.5,0.7-0.9,1.2-0.8
	c0.5,0.1,0.9,0.6,0.8,1.2l0,0l-7.1,32.5l1.4-1.5c0.2-0.2,0.5-0.3,0.9-0.3c0.3,0,0.6,0.2,0.8,0.5l1.1,2l1.9-1.7
	c0.2-0.2,0.5-0.3,0.8-0.2c0.3,0,0.5,0.2,0.7,0.4l1.1,1.5l1.8-1.9c0.2-0.2,0.5-0.4,0.9-0.3c0.3,0,0.6,0.2,0.8,0.5l0.5,1.1l1.7-1.3
	c0.4-0.3,1.1-0.2,1.4,0.2l1.3,1.6l0.7-0.8c0.2-0.2,0.5-0.4,0.8-0.4s0.6,0.1,0.8,0.4l0.4,0.4l-7.2-32.3c-0.1-0.5,0.2-1.1,0.8-1.2
	c0.5-0.1,1.1,0.2,1.2,0.8l0,0l8.2,36.4c0.1,0.5-0.2,1.1-0.8,1.2c-0.4,0.1-0.8-0.1-1-0.3l-2.3-2.8l-0.7,0.8c-0.2,0.2-0.5,0.4-0.8,0.4
	s-0.6-0.2-0.8-0.4l-1.4-1.9l-1.9,1.4c-0.2,0.2-0.5,0.2-0.8,0.2c-0.3-0.1-0.5-0.2-0.7-0.5l-0.4-0.9l-1.6,1.7
	c-0.2,0.2-0.5,0.3-0.8,0.3s-0.6-0.1-0.8-0.4l-1.2-1.5l-2,1.8c-0.2,0.2-0.5,0.3-0.8,0.2c-0.3,0-0.6-0.2-0.7-0.5l-1.1-1.9l-3,3.2
	C333.4,168.8,333.1,168.9,332.8,168.9z"/>
<path class="st4" d="M341.7,130.7l6.9,0.2c2.7,0.1,4.9,2.4,4.8,5.1l-0.1,5.3l-16.8-0.5l0.1-5.3C336.7,132.8,339,130.6,341.7,130.7z"
	/>
<path class="st0" d="M336.3,137.5l17.4,0.5c0.4,0,0.8,0.4,0.8,0.8l0,0c0,0.4-0.4,0.8-0.8,0.8l-17.4-0.5c-0.4,0-0.8-0.4-0.8-0.8l0,0
	C335.5,137.8,335.8,137.5,336.3,137.5L336.3,137.5z"/>
<path class="st0" d="M336.4,135l17.4,0.5c0.4,0,0.8,0.4,0.8,0.8l0,0c0,0.4-0.4,0.8-0.8,0.8l-17.4-0.5c-0.4,0-0.8-0.4-0.8-0.8l0,0
	C335.6,135.4,335.9,135,336.4,135z"/>
<path class="st0" d="M336.4,132.6l17.4,0.5c0.4,0,0.8,0.4,0.8,0.8l0,0c0,0.4-0.4,0.8-0.8,0.8l-17.4-0.5c-0.4,0-0.8-0.4-0.8-0.8l0,0
	C335.7,132.9,336,132.6,336.4,132.6L336.4,132.6z"/>
<path class="st5" d="M337.7,181.8c-0.1,0-0.1,0-0.2,0c-0.4-0.1-8.8-2.7-11.4-13.8c-0.1-0.5,0.2-1.1,0.7-1.2l0,0
	c0.5-0.1,1.1,0.2,1.2,0.8l0,0c2.3,9.9,9.9,12.3,10,12.3c0.5,0.2,0.8,0.7,0.7,1.2C338.6,181.6,338.1,181.8,337.7,181.8z"/>
<circle class="st5" cx="326.6" cy="165.3" r="0.9"/>
<path class="st0" d="M376.4,57h0.2c1.9-0.3,3.6,1,3.9,2.9l0,0l-7.1,1.1l0,0C373.2,59.1,374.5,57.3,376.4,57z"/>
<path class="st8" d="M363.2,93.6c1.5,10.2,11,17.2,21.2,15.7c10.2-1.5,17.2-11,15.7-21.2c-0.8-5.6-4.1-10.4-8.9-13.3
	c-2.7-1.6-4.6-4.4-5-7.5l-0.7-4.7c-0.3-2.1-2.3-3.6-4.4-3.3l-8,1.2c-2.1,0.3-3.6,2.3-3.3,4.4l0.7,4.7c0.5,3.1-0.5,6.3-2.5,8.6
	C364.1,82.5,362.4,88.1,363.2,93.6z"/>
<circle class="st9" cx="381.8" cy="91.6" r="13.4"/>
<path class="st3" d="M371.7,96.5c-0.1,0-0.2,0-0.3,0c-0.4-0.1-0.7-0.5-0.7-1l1.3-35c0-0.6,0.4-1,1-1s1,0.4,1,1l-1.1,31.3l1-1.5
	c0.2-0.3,0.5-0.4,0.8-0.5c0.3,0,0.6,0.1,0.8,0.4l1.3,1.6l1.4-1.8c0.2-0.2,0.4-0.4,0.7-0.4c0.3,0,0.6,0.1,0.8,0.2l1.3,1.1l1.3-2
	c0.3-0.5,0.9-0.6,1.4-0.3c0.1,0.1,0.2,0.1,0.3,0.2l0.7,0.9l1.3-1.4c0.4-0.4,1-0.4,1.4-0.1l1.4,1.3l0.5-0.8c0.3-0.5,0.9-0.6,1.4-0.4
	c0.1,0,0.1,0.1,0.2,0.1l0.2,0.2l-12.2-28.7c-0.2-0.5,0.1-1.1,0.6-1.3s1,0,1.3,0.5l13.8,32.7c0.2,0.4,0,0.9-0.3,1.2
	c-0.4,0.3-0.9,0.3-1.2-0.1l-2.5-2.1l-0.5,0.9c-0.2,0.3-0.4,0.4-0.7,0.5c-0.3,0-0.6,0-0.8-0.2l-1.6-1.4l-1.9,1.4
	c-0.2,0.2-0.5,0.3-0.8,0.3s-0.6-0.1-0.8-0.4l-0.5-0.7l-1.1,1.8c-0.3,0.5-0.9,0.6-1.4,0.3l-0.1-0.1L379,92l-1.5,2
	c-0.2,0.2-0.5,0.4-0.8,0.4s-0.6-0.1-0.8-0.4l-1.3-1.5l-2.2,3.4C372.3,96.3,372,96.5,371.7,96.5z"/>
<path class="st4" d="M374.7,59.1l4.3-0.7c3.2-0.5,6.2,1.7,6.6,4.9l0.6,3.9l-15.8,2.4l-0.6-3.9C369.3,62.6,371.5,59.6,374.7,59.1
	L374.7,59.1z"/>
<path class="st0" d="M369.7,66.5l16.4-2.5c0.4-0.1,0.8,0.2,0.8,0.6l0,0l0,0c0.1,0.4-0.2,0.8-0.6,0.8l0,0L370,68
	c-0.4,0.1-0.8-0.2-0.8-0.6l0,0C369.1,67,369.3,66.6,369.7,66.5L369.7,66.5z"/>
<path class="st0" d="M369.3,64.2l16.3-2.5c0.4-0.1,0.8,0.2,0.9,0.6l0,0c0.1,0.4-0.2,0.8-0.6,0.8l-16.3,2.5c-0.4,0.1-0.8-0.2-0.8-0.6
	l0,0l0,0C368.7,64.6,368.9,64.3,369.3,64.2z"/>
<path class="st0" d="M369,61.9l16.3-2.5c0.4-0.1,0.8,0.2,0.9,0.6l0,0c0.1,0.4-0.2,0.8-0.6,0.8l-16.4,2.5c-0.4,0.1-0.8-0.2-0.8-0.6
	l0,0l0,0C368.3,62.3,368.6,62,369,61.9z"/>
<path class="st5" d="M378.4,107.7h-0.1c-0.4,0-8.7-1.1-13-11c-0.2-0.5,0-1.1,0.5-1.3c0.5-0.2,1.1,0,1.3,0.5c0,0,0,0,0,0.1
	c3.8,8.8,11.1,9.7,11.4,9.8c0.6,0,1,0.5,0.9,1.1S378.9,107.7,378.4,107.7L378.4,107.7z"/>
<circle class="st5" cx="365.4" cy="94.2" r="0.8"/>
<path class="st8" d="M123.6,106.3c0.3,10.3,8.8,18.4,19.1,18.2c10.3-0.3,18.4-8.8,18.2-19.1c-0.1-5.6-2.8-10.8-7.2-14.3
	c-2.5-1.9-4-4.9-4-8.1l-0.1-4.7c-0.1-2.2-1.8-3.9-4-3.8l-8.1,0.2c-2.2,0.1-3.8,1.8-3.8,4l0.1,4.8c0.1,3.1-1.2,6.1-3.6,8.2
	C125.9,95.3,123.5,100.7,123.6,106.3z"/>
<circle class="st9" cx="142.2" cy="106.7" r="13.4"/>
<path class="st3" d="M131.6,110.2c-0.1,0-0.2,0-0.3-0.1c-0.4-0.2-0.6-0.6-0.6-1.1l5.6-34.6c0.1-0.6,0.6-0.9,1.2-0.8
	c0.6,0.1,0.9,0.6,0.8,1.2l-5.1,31l1.1-1.4c0.2-0.2,0.5-0.4,0.8-0.4c0.3,0,0.6,0.2,0.8,0.5l1.1,1.8l1.6-1.6c0.2-0.2,0.5-0.3,0.7-0.3
	c0.3,0,0.5,0.1,0.7,0.3l1.1,1.3l1.5-1.9c0.2-0.2,0.5-0.4,0.8-0.4c0.3,0,0.6,0.2,0.8,0.5l0.6,0.9l1.5-1.3c0.4-0.4,1-0.3,1.4,0.1
	l1.2,1.4l0.6-0.8c0.2-0.2,0.5-0.4,0.8-0.4c0.3,0,0.6,0.1,0.8,0.3l0.2,0.2l-8.2-29.8c-0.1-0.5,0.2-1.1,0.7-1.2s1.1,0.2,1.2,0.7
	l9.6,34.1c0.1,0.5-0.2,1.1-0.7,1.2c-0.4,0.1-0.7,0-1-0.3l-2.2-2.5l-0.6,0.8c-0.2,0.2-0.5,0.4-0.8,0.4c-0.3,0-0.6-0.1-0.8-0.4
	l-1.4-1.6l-1.6,1.4c-0.2,0.2-0.5,0.3-0.8,0.2c-0.3,0-0.5-0.2-0.7-0.5l-0.4-0.7l-1.4,1.7c-0.2,0.2-0.5,0.4-0.8,0.4
	c-0.3,0-0.6-0.1-0.8-0.3l-1.2-1.3l-1.8,1.8c-0.4,0.4-1,0.4-1.4,0c0,0-0.1-0.1-0.1-0.2l-1.1-1.7l-2.6,3.1
	C132.3,110.1,132,110.2,131.6,110.2z"/>
<path class="st4" d="M139.3,73.5l4.3-0.1c3.2-0.1,5.9,2.4,6,5.7l0,0l0.1,3.9l-16,0.4l-0.1-3.9C133.5,76.3,136.1,73.6,139.3,73.5
	L139.3,73.5z"/>
<path class="st0" d="M133.4,80.2l16.5-0.4c0.4,0,0.8,0.3,0.8,0.7l0,0l0,0c0,0.4-0.3,0.7-0.7,0.8l-16.5,0.4c-0.4,0-0.7-0.3-0.8-0.7
	l0,0C132.7,80.6,133,80.3,133.4,80.2L133.4,80.2z"/>
<path class="st0" d="M133.3,77.9l16.5-0.4c0.4,0,0.7,0.3,0.8,0.7l0,0c0,0.4-0.3,0.7-0.7,0.8l-16.5,0.4c-0.4,0-0.7-0.3-0.8-0.7l0,0
	C132.6,78.2,132.9,77.9,133.3,77.9z"/>
<path class="st0" d="M133.3,75.6l16.5-0.4c0.4,0,0.8,0.3,0.8,0.7l0,0l0,0c0,0.4-0.3,0.7-0.7,0.8L133.3,77c-0.4,0-0.7-0.3-0.8-0.7
	l0,0C132.6,75.9,132.9,75.6,133.3,75.6z"/>
<path class="st5" d="M136.9,122.2h-0.1c-0.3-0.1-8.5-2.1-11.5-12.5c-0.1-0.5,0.2-1.1,0.8-1.2c0.5-0.1,1,0.2,1.2,0.6
	c2.6,9.2,9.8,11.1,10.1,11.1c0.5,0.1,0.9,0.7,0.7,1.2C137.8,121.9,137.4,122.2,136.9,122.2z"/>
<circle class="st5" cx="125.6" cy="107.1" r="0.8"/>
<path class="st8" d="M226.5,215.1c0.2,10.3,8.8,18.4,19,18.2c10.3-0.2,18.4-8.8,18.2-19c-0.1-5.6-2.8-10.9-7.3-14.3
	c-2.5-1.9-4-4.9-4-8.1l-0.1-4.7c-0.1-2.2-1.8-3.9-4-3.8l-8.1,0.2c-2.2,0.1-3.8,1.8-3.8,4l0.1,4.8c0.1,3.1-1.2,6.1-3.6,8.2
	C228.7,204.1,226.3,209.5,226.5,215.1z"/>
<circle class="st9" cx="245.1" cy="215.5" r="13.4"/>
<path class="st3" d="M234.5,219c-0.1,0-0.2,0-0.3-0.1c-0.4-0.2-0.6-0.6-0.6-1.1l5.6-34.6c0.1-0.6,0.6-0.9,1.2-0.8s0.9,0.6,0.8,1.2
	l-5.1,31l1.1-1.4c0.2-0.2,0.5-0.4,0.8-0.4s0.6,0.2,0.8,0.5l1.1,1.8l1.6-1.6c0.2-0.2,0.5-0.3,0.7-0.3c0.3,0,0.5,0.1,0.7,0.3l1.1,1.3
	l1.5-1.9c0.2-0.3,0.5-0.4,0.9-0.4c0.3,0,0.6,0.2,0.8,0.5l0.6,0.9l1.5-1.3c0.4-0.4,1-0.3,1.4,0.1l1.2,1.5l0.6-0.8
	c0.2-0.2,0.5-0.4,0.8-0.4s0.6,0.1,0.8,0.3l0.2,0.2l-8.5-30c-0.1-0.5,0.2-1.1,0.7-1.2c0.5-0.1,1.1,0.2,1.2,0.7l9.6,34.1
	c0.1,0.5-0.2,1.1-0.7,1.2c-0.4,0.1-0.7,0-1-0.3l-2.2-2.5l-0.6,0.8c-0.2,0.2-0.5,0.4-0.8,0.4s-0.6-0.1-0.8-0.4l-1.4-1.6l-1.6,1.4
	c-0.2,0.2-0.5,0.3-0.8,0.2c-0.3,0-0.5-0.2-0.7-0.5l-0.4-0.7l-1.3,1.6c-0.2,0.2-0.5,0.4-0.8,0.4s-0.6-0.1-0.8-0.3l-1.2-1.4l-1.8,1.8
	c-0.4,0.4-1,0.4-1.4,0c0,0-0.1-0.1-0.1-0.2l-1.1-1.6l-2.6,3.1C235.2,218.9,234.8,219.1,234.5,219z"/>
<path class="st4" d="M242.2,182.3l4.3-0.1c3.2-0.1,5.9,2.5,6,5.7l0,0l0.1,3.9l-16,0.4l-0.1-3.9C236.4,185.1,238.9,182.4,242.2,182.3
	C242.1,182.3,242.1,182.3,242.2,182.3z"/>
<path class="st0" d="M236.3,189.1l16.5-0.4c0.4,0,0.8,0.3,0.8,0.7l0,0l0,0c0,0.4-0.3,0.7-0.7,0.8l-16.5,0.4c-0.4,0-0.7-0.3-0.8-0.7
	l0,0C235.5,189.4,235.8,189.1,236.3,189.1C236.2,189.1,236.3,189.1,236.3,189.1z"/>
<path class="st0" d="M236.2,186.7l16.5-0.4c0.4,0,0.7,0.3,0.8,0.7l0,0c0,0.4-0.3,0.7-0.7,0.8l-16.5,0.4c-0.4,0-0.7-0.3-0.8-0.7l0,0
	C235.5,187.1,235.8,186.7,236.2,186.7L236.2,186.7z"/>
<path class="st0" d="M236.1,184.4l16.5-0.4c0.4,0,0.7,0.3,0.8,0.7l0,0c0,0.4-0.3,0.7-0.7,0.8l-16.5,0.4c-0.4,0-0.7-0.3-0.8-0.7l0,0
	C235.4,184.7,235.7,184.4,236.1,184.4z"/>
<path class="st5" d="M239.7,231h-0.1c-0.3-0.1-8.5-2.1-11.5-12.5c-0.1-0.5,0.2-1.1,0.8-1.2c0.5-0.1,1,0.2,1.2,0.6
	c2.6,9.2,9.8,11,10.1,11.1c0.5,0.1,0.9,0.7,0.7,1.2C240.7,230.7,240.2,231,239.7,231z"/>
<circle class="st5" cx="228.5" cy="216" r="0.8"/>
<path class="st8" d="M503.1,129.6c3.4,9.7,14.1,14.8,23.8,11.3c9.7-3.4,14.8-14.1,11.3-23.8c-1.9-5.3-6-9.4-11.3-11.3
	c-3-1.1-5.3-3.4-6.3-6.4L519,95c-0.7-2-3-3.1-5-2.4l-7.6,2.7c-2,0.7-3.1,3-2.4,5l1.6,4.5c1.1,2.9,0.8,6.2-0.9,8.9
	C501.8,118.5,501.2,124.4,503.1,129.6z"/>
<circle class="st9" cx="520.9" cy="124.2" r="13.4"/>
<path class="st3" d="M511.9,130.9c-0.5,0.1-1.1-0.2-1.2-0.8l0,0l-5.4-34.6c-0.1-0.6,0.3-1.1,0.8-1.2c0.6-0.1,1.1,0.3,1.2,0.8l4.8,31
	l0.7-1.6c0.1-0.3,0.4-0.5,0.7-0.6s0.6,0,0.9,0.2l1.6,1.3l1.1-2.1c0.1-0.2,0.3-0.4,0.6-0.5s0.6,0,0.8,0.1l1.5,0.9l0.9-2.2
	c0.1-0.3,0.4-0.5,0.7-0.6s0.7,0,0.9,0.2l0.8,0.7l1-1.7c0.3-0.5,0.9-0.6,1.4-0.3l1.6,1l0.3-0.9c0.1-0.3,0.3-0.5,0.6-0.6
	s0.6-0.1,0.8,0.1l0.3,0.1l-17.4-25.9c-0.3-0.5-0.2-1.1,0.3-1.4c0.5-0.3,1.1-0.2,1.4,0.3l19.8,29.4c0.3,0.5,0.2,1.1-0.3,1.4
	c-0.3,0.2-0.7,0.2-1.1,0l-2.9-1.7l-0.3,0.9c-0.2,0.5-0.7,0.8-1.3,0.6c-0.1,0-0.1-0.1-0.2-0.1l-1.8-1.1l-1.1,1.8
	c-0.1,0.3-0.4,0.4-0.7,0.5c-0.3,0-0.6,0-0.8-0.2l-0.7-0.6l-0.8,2c-0.1,0.3-0.3,0.5-0.6,0.6s-0.6,0.1-0.8-0.1l-1.6-0.9l-1.1,2.2
	c-0.1,0.3-0.4,0.5-0.7,0.5c-0.3,0.1-0.6,0-0.8-0.2l-1.5-1.2l-1.5,3.8C512.5,130.6,512.2,130.8,511.9,130.9z"/>
<path class="st4" d="M507.8,93.6l4.1-1.4c3-1.1,6.4,0.5,7.4,3.5l0,0l1.3,3.7l-15,5.4l-1.3-3.7C503.2,98,504.7,94.7,507.8,93.6z"/>
<path class="st0" d="M504.3,101.8l15.6-5.5c0.4-0.1,0.8,0.1,1,0.4l0,0c0.1,0.4-0.1,0.8-0.4,0.9l-15.6,5.5c-0.4,0.1-0.8-0.1-1-0.4
	l0,0C503.7,102.4,503.9,102,504.3,101.8C504.2,101.8,504.2,101.8,504.3,101.8z"/>
<path class="st0" d="M503.4,99.6l15.6-5.5c0.4-0.2,0.8,0,1,0.4l0,0l0,0c0.1,0.4-0.1,0.8-0.4,0.9l0,0l-15.6,5.5c-0.4,0.2-0.8,0-1-0.4
	c0,0,0,0,0-0.1l0,0C502.9,100.2,503.1,99.8,503.4,99.6z"/>
<path class="st0" d="M502.7,97.4l15.6-5.5c0.4-0.2,0.8,0,1,0.4l0,0l0,0c0.1,0.4-0.1,0.8-0.4,0.9l0,0l-15.6,5.5
	c-0.4,0.1-0.8-0.1-0.9-0.4l0,0l0,0C502.1,98,502.3,97.6,502.7,97.4z"/>
<path class="st5" d="M520.6,140.6L520.6,140.6c-0.5,0-8.9,0.6-14.9-8.3c-0.3-0.5-0.2-1.1,0.3-1.4c0.5-0.3,1.1-0.2,1.4,0.3
	c5.4,7.9,12.7,7.4,13,7.4c0.6-0.1,1.1,0.3,1.1,0.9S521.1,140.5,520.6,140.6L520.6,140.6z"/>
<circle class="st5" cx="505.3" cy="129.8" r="0.8"/>
<path class="st0" d="M-16.1,119.4L0,123.3c0.4,0.1,0.6,0.5,0.5,0.9l0,0c-0.1,0.4-0.5,0.6-0.9,0.6l-16.1-3.9
	c-0.4-0.1-0.7-0.5-0.6-0.9l0,0l0,0C-16.9,119.6-16.5,119.4-16.1,119.4z"/>
<g>
	<path class="st8" d="M1.5,163.5c-2.4,10,3.7,20.1,13.7,22.5s20.1-3.7,22.5-13.7c1.3-5.4,0.1-11.2-3.3-15.6
		c-1.9-2.5-2.6-5.8-1.8-8.9l1.1-4.6c0.5-2.1-0.8-4.2-2.9-4.7l-7.9-1.9c-2.1-0.5-4.2,0.8-4.7,2.9l-1.1,4.6c-0.7,3.1-2.8,5.6-5.6,7
		C6.5,153.5,2.8,158.1,1.5,163.5z"/>
	<circle class="st9" cx="19.4" cy="168.7" r="13.4"/>
	<path class="st3" d="M8.2,169.4c-0.1,0-0.2-0.1-0.3-0.1c-0.3-0.3-0.5-0.8-0.3-1.2L22,136.2c0.2-0.5,0.8-0.7,1.3-0.5
		s0.7,0.8,0.5,1.3L11,165.5l1.4-1c0.5-0.3,1.1-0.2,1.4,0.2c0.1,0.1,0.1,0.2,0.1,0.3l0.6,2l2-1.2c0.2-0.1,0.5-0.2,0.8-0.1
		c0.3,0.1,0.5,0.3,0.6,0.5l0.8,1.5l2-1.4c0.3-0.2,0.6-0.2,0.9-0.1c0.3,0.1,0.5,0.4,0.6,0.7l0.3,1.1l1.8-0.8c0.5-0.2,1.1,0,1.3,0.5
		l0.8,1.7l0.7-0.6c0.2-0.2,0.5-0.3,0.8-0.2s0.5,0.3,0.7,0.5l0.1,0.3l-0.4-31.2c0-0.6,0.4-1,1-1s1,0.4,1,1l0.5,35.4c0,0.6-0.4,1-1,1
		c-0.4,0-0.7-0.2-0.9-0.5l-1.5-3l-0.8,0.6c-0.2,0.2-0.5,0.3-0.8,0.2s-0.5-0.3-0.7-0.6l-0.9-1.9l-1.9,0.9c-0.3,0.1-0.6,0.1-0.8,0
		c-0.3-0.1-0.5-0.3-0.6-0.6l-0.2-0.8l-1.8,1.2c-0.4,0.3-1.1,0.2-1.4-0.2l-0.1-0.1l-0.8-1.6l-2.2,1.2c-0.3,0.1-0.6,0.2-0.9,0.1
		c-0.3-0.1-0.5-0.3-0.6-0.6l-0.6-1.9L9,169.4C8.9,169.5,8.6,169.5,8.2,169.4z"/>
	<path class="st4" d="M25.2,135.9l4.2,1c3.1,0.8,5,3.9,4.3,7l-0.9,3.8L17.3,144l0.9-3.8C18.9,137,22,135.1,25.2,135.9z"/>
	<path class="st0" d="M17.7,140.9l16.1,3.9c0.4,0.1,0.6,0.5,0.6,0.9l0,0c-0.1,0.4-0.5,0.6-0.9,0.6l-16.1-3.9
		c-0.4-0.1-0.6-0.5-0.6-0.9l0,0C16.9,141.1,17.3,140.8,17.7,140.9L17.7,140.9z"/>
	<path class="st0" d="M18.3,138.6l16.1,3.9c0.4,0.1,0.6,0.5,0.6,0.9l0,0l0,0c-0.1,0.4-0.5,0.6-0.9,0.6L18,140.1
		c-0.4-0.1-0.6-0.5-0.6-0.9l0,0C17.5,138.8,17.9,138.5,18.3,138.6z"/>
	<path class="st5" d="M10.2,182.3l-0.1-0.1c-0.3-0.2-7.7-4.3-7.9-15.1c0-0.6,0.4-1,1-1s1,0.4,1,1c0.2,9.6,6.6,13.2,6.8,13.4
		c0.5,0.3,0.6,0.9,0.3,1.4C11.2,182.3,10.7,182.5,10.2,182.3L10.2,182.3z"/>
</g>
<circle class="st5" cx="-31.6" cy="148" r="0.8"/>
<path class="st0" d="M256,75.7h0.2c1.8-0.2,3.4,1,3.7,2.8l0,0l-6.7,0.9l0,0C253,77.7,254.2,76,256,75.7L256,75.7z"/>
<path class="st10" d="M243.1,110.1c1.3,9.6,10.2,16.3,19.9,15c9.6-1.3,16.3-10.2,15-19.9c-0.7-5.2-3.8-9.9-8.3-12.6
	c-2.5-1.6-4.2-4.2-4.6-7.1l-0.6-4.4c-0.3-2-2.1-3.4-4.2-3.1l-7.6,1.1c-2,0.3-3.4,2.1-3.1,4.1l0.6,4.5c0.4,2.9-0.5,5.9-2.5,8.1
	C244,99.6,242.4,104.9,243.1,110.1z"/>
<circle class="st11" cx="260.6" cy="108.5" r="12.7"/>
<path class="st3" d="M251,113c-0.1,0-0.2,0-0.3-0.1c-0.4-0.1-0.7-0.5-0.7-1l1.7-33c0-0.6,0.4-1,1-1c0,0,0,0,0.1,0
	c0.5,0,0.9,0.5,0.9,1l-1.5,29.4l0.8-1.2c0.2-0.3,0.5-0.4,0.8-0.4s0.6,0.1,0.8,0.4l1.2,1.5l1.3-1.7c0.2-0.2,0.4-0.4,0.7-0.4
	c0.3,0,0.5,0.1,0.8,0.3l1.1,1l1.2-1.9c0.2-0.3,0.5-0.4,0.8-0.4s0.6,0.1,0.8,0.4l0.6,0.8l1.2-1.3c0.4-0.4,1-0.4,1.4,0l0,0l1.2,1.2
	l0.4-0.7c0.2-0.3,0.4-0.4,0.7-0.5c0.3,0,0.6,0,0.8,0.2l0,0l-11-27c-0.2-0.5,0-1.1,0.5-1.3c0.5-0.2,1.1,0,1.3,0.5l12.6,31
	c0.2,0.5,0,1.1-0.5,1.3c-0.4,0.1-0.8,0.1-1.1-0.2l-2.3-2.1l-0.4,0.8c-0.2,0.3-0.4,0.4-0.7,0.5c-0.3,0-0.6-0.1-0.8-0.3l-1.4-1.4
	l-1.4,1.4c-0.2,0.2-0.5,0.3-0.8,0.3s-0.6-0.2-0.8-0.4l-0.4-0.6l-1.1,1.6c-0.2,0.2-0.4,0.4-0.7,0.4c-0.3,0-0.6-0.1-0.8-0.2l-0.9-0.9
	l-1.5,1.8c-0.2,0.2-0.5,0.4-0.8,0.4s-0.6-0.2-0.7-0.4l-1.1-1.4l-2.1,3.1C251.7,112.9,251.4,113,251,113z"/>
<path class="st4" d="M254,77.7l4.7-0.6c2.8-0.4,5.4,1.6,5.8,4.4l0.5,4l-15,2.1l-0.5-4C249.1,80.7,251.1,78.1,254,77.7L254,77.7z"/>
<path class="st0" d="M249.5,84.7l15.5-2.1c0.4-0.1,0.7,0.2,0.8,0.6l0,0l0,0c0.1,0.4-0.2,0.7-0.6,0.8l0,0l-15.5,2
	c-0.4,0.1-0.7-0.2-0.8-0.6l0,0l0,0C248.9,85.1,249.1,84.7,249.5,84.7L249.5,84.7z"/>
<path class="st0" d="M249.2,82.5l15.5-2.1c0.4-0.1,0.7,0.2,0.8,0.6l0,0l0,0c0.1,0.4-0.2,0.7-0.6,0.8l0,0l-15.5,2.1
	c-0.4,0.1-0.7-0.2-0.8-0.6l0,0l0,0C248.6,82.8,248.8,82.5,249.2,82.5z"/>
<path class="st0" d="M248.9,80.3l15.5-2.1c0.4-0.1,0.7,0.2,0.8,0.6l0,0l0,0c0.1,0.4-0.2,0.7-0.5,0.8l0,0l-15.6,2
	c-0.4,0.1-0.7-0.2-0.8-0.6l0,0l0,0C248.3,80.7,248.5,80.3,248.9,80.3L248.9,80.3z"/>
<path class="st5" d="M257.2,123.7h-0.1c-0.3,0-8.3-1.1-12.2-10.6c-0.2-0.5,0-1.1,0.5-1.3c0.5-0.2,1.1,0,1.3,0.5
	c3.5,8.4,10.5,9.3,10.6,9.3c0.6,0,1,0.5,0.9,1.1S257.8,123.7,257.2,123.7L257.2,123.7z"/>
<circle class="st5" cx="245.1" cy="110.7" r="0.8"/>
<path class="st0" d="M381.7,158.2h0.2c1.8-0.2,3.4,1,3.7,2.8l0,0l-6.7,0.9l0,0C378.7,160.1,379.9,158.4,381.7,158.2z"/>
<path class="st10" d="M368.8,192.5c1.3,9.6,10.2,16.3,19.8,15c9.6-1.3,16.3-10.2,15-19.8c-0.7-5.2-3.8-9.9-8.3-12.6
	c-2.5-1.6-4.2-4.2-4.6-7.1l-0.6-4.4c-0.3-2-2.1-3.4-4.1-3.1l-7.6,1.1c-2,0.3-3.4,2.1-3.1,4.1l0.6,4.5c0.4,2.9-0.5,5.9-2.5,8.1
	C369.7,182,368,187.3,368.8,192.5z"/>
<circle class="st11" cx="386.3" cy="190.9" r="12.7"/>
<path class="st3" d="M376.7,195.5c-0.1,0-0.2,0-0.3,0c-0.4-0.1-0.7-0.6-0.7-1l1.7-33c0-0.6,0.5-1,1-0.9c0.6,0,1,0.5,1,1.1l-1.5,29.4
	l0.8-1.2c0.2-0.3,0.5-0.4,0.8-0.4s0.6,0.1,0.8,0.4l1.2,1.5l1.3-1.7c0.2-0.2,0.4-0.4,0.7-0.4c0.3,0,0.5,0.1,0.8,0.2l1.1,1l1.2-1.9
	c0.2-0.3,0.5-0.4,0.8-0.5c0.3,0,0.6,0.1,0.8,0.4l0.6,0.8l1.2-1.4c0.2-0.2,0.4-0.3,0.7-0.3c0.3,0,0.5,0.1,0.7,0.3l1.2,1.2l0.4-0.7
	c0.2-0.3,0.4-0.4,0.7-0.5c0.3,0,0.6,0,0.8,0.2l0,0l-11-27c-0.2-0.5,0-1.1,0.6-1.3s1.1,0,1.3,0.6l12.6,31c0.2,0.5,0,1.1-0.6,1.3
	c-0.3,0.1-0.7,0.1-1-0.2l-2.3-2l-0.4,0.7c-0.2,0.3-0.4,0.4-0.7,0.5c-0.3,0-0.6-0.1-0.8-0.3l-1.4-1.4l-1.4,1.4
	c-0.2,0.2-0.5,0.3-0.8,0.3s-0.6-0.2-0.8-0.4l-0.4-0.6l-1.1,1.6c-0.3,0.5-0.9,0.6-1.4,0.3l-0.1-0.1l-1.2-1.1l-1.4,1.8
	c-0.2,0.2-0.5,0.4-0.8,0.4s-0.6-0.1-0.8-0.4l-1.1-1.4l-2.1,3.1C377.3,195.3,377,195.5,376.7,195.5z"/>
<path class="st4" d="M379.7,160.2l4.7-0.6c2.8-0.4,5.4,1.6,5.8,4.4l0,0l0.6,4l-15,2.1l-0.5-4C374.9,163.2,376.9,160.6,379.7,160.2z"
	/>
<path class="st0" d="M375.2,167.1l15.5-2.1c0.4-0.1,0.7,0.2,0.8,0.6l0,0l0,0c0.1,0.4-0.2,0.7-0.6,0.8l0,0l-15.5,2.1
	c-0.4,0.1-0.7-0.2-0.8-0.6l0,0l0,0C374.6,167.5,374.8,167.1,375.2,167.1L375.2,167.1z"/>
<path class="st0" d="M374.9,164.9l15.5-2.1c0.4-0.1,0.7,0.2,0.8,0.6l0,0l0,0c0.1,0.4-0.2,0.7-0.6,0.8l0,0l-15.4,2.2
	c-0.4,0.1-0.7-0.2-0.8-0.6l0,0l0,0C374.3,165.3,374.5,165,374.9,164.9L374.9,164.9z"/>
<path class="st0" d="M374.6,162.7l15.5-2.1c0.4-0.1,0.7,0.2,0.8,0.6l0,0l0,0c0.1,0.4-0.2,0.7-0.6,0.8l0,0l-15.5,2.1
	c-0.4,0.1-0.7-0.2-0.8-0.6l0,0l0,0C374,163.1,374.2,162.8,374.6,162.7z"/>
<path class="st5" d="M382.9,206.1h-0.1c-0.3,0-8.3-1.1-12.2-10.5c-0.2-0.5,0-1.1,0.5-1.3s1.1,0,1.3,0.5c3.5,8.4,10.5,9.3,10.6,9.3
	c0.6,0,1,0.5,0.9,1.1S383.5,206.2,382.9,206.1L382.9,206.1z"/>
<circle class="st5" cx="370.8" cy="193.2" r="0.8"/>
<path class="st0" d="M34.8,53.4H35c1.8,0.2,3.1,1.8,2.8,3.6l0,0l-6.7-0.8l0,0C31.4,54.4,33,53.1,34.8,53.4z"/>
<path class="st10" d="M13.4,83.3c-1.2,9.6,5.7,18.4,15.3,19.6s18.4-5.7,19.6-15.3c0.6-5.2-1.1-10.5-4.8-14.3c-2-2.2-3-5.1-2.7-8.1
	l0.6-4.4c0.2-2-1.2-3.8-3.2-4.1l-7.6-0.9c-2-0.2-3.8,1.2-4.1,3.2L26,63.5c-0.4,2.9-2,5.6-4.5,7.2C17.1,73.3,14.1,78,13.4,83.3z"/>
<circle class="st11" cx="30.8" cy="86.2" r="12.7"/>
<path class="st3" d="M20.4,88.1c-0.1,0-0.2-0.1-0.3-0.1c-0.4-0.2-0.6-0.7-0.4-1.1l10.1-31.5c0.1-0.5,0.7-0.9,1.2-0.7
	c0.5,0.1,0.9,0.7,0.7,1.2V56l-9,28l1.1-1c0.2-0.2,0.6-0.3,0.9-0.2c0.3,0.1,0.6,0.3,0.7,0.6l0.7,1.6l1.8-1.2c0.2-0.2,0.5-0.2,0.8-0.2
	s0.5,0.2,0.7,0.4l0.8,1.3l1.6-1.5c0.2-0.2,0.6-0.3,0.9-0.2c0.3,0.1,0.6,0.3,0.7,0.6l0.4,0.9l1.5-1c0.5-0.3,1.1-0.2,1.4,0.3l0,0
	l0.9,1.5l0.6-0.6c0.2-0.2,0.5-0.3,0.8-0.3s0.6,0.2,0.7,0.4l0,0l-3.7-29c-0.1-0.6,0.3-1.1,0.9-1.1s1.1,0.3,1.1,0.9l4.2,33.2
	c0.1,0.5-0.3,1.1-0.8,1.1c-0.4,0.1-0.8-0.1-1-0.4l-1.7-2.6l-0.6,0.7c-0.4,0.4-1,0.4-1.4,0c-0.1-0.1-0.1-0.1-0.1-0.2l-1-1.7l-1.7,1
	c-0.5,0.3-1.1,0.1-1.4-0.3l-0.1-0.1l-0.3-0.7l-1.4,1.3c-0.2,0.2-0.5,0.3-0.8,0.2c-0.3,0-0.6-0.2-0.7-0.4l-0.9-1.4l-1.8,1.4
	c-0.2,0.2-0.6,0.2-0.8,0.2c-0.3-0.1-0.5-0.3-0.7-0.6l-0.9-1.5l-2.8,2.5C21,88.1,20.7,88.2,20.4,88.1z"/>
<path class="st4" d="M32.3,54.8l4.7,0.6c2.8,0.3,4.9,2.9,4.5,5.8l0,0l-0.5,4l-15-1.8l0.5-4C26.9,56.5,29.5,54.4,32.3,54.8L32.3,54.8
	z"/>
<path class="st0" d="M26.2,60.3l15.5,1.9c0.4,0,0.6,0.4,0.6,0.8l0,0l0,0c0,0.4-0.4,0.6-0.8,0.6l0,0L26,61.7c-0.4,0-0.7-0.4-0.6-0.8
	l0,0l0,0C25.5,60.5,25.8,60.3,26.2,60.3L26.2,60.3z"/>
<path class="st0" d="M26.5,58.1L42,60c0.4,0,0.6,0.4,0.6,0.7l0,0l0,0c0,0.4-0.4,0.6-0.7,0.6l0,0l-15.5-1.9c-0.4,0-0.6-0.4-0.6-0.7
	l0,0l0,0C25.7,58.3,26.1,58.1,26.5,58.1C26.4,58.1,26.5,58.1,26.5,58.1z"/>
<path class="st0" d="M26.7,55.9l15.5,1.9c0.4,0,0.7,0.4,0.6,0.8l0,0c0,0.4-0.4,0.7-0.8,0.6l0,0l-15.5-1.9c-0.4,0-0.6-0.4-0.6-0.7
	l0,0l0,0C26,56.1,26.4,55.9,26.7,55.9L26.7,55.9z"/>
<path class="st5" d="M23.6,100L23.6,100c-0.4-0.1-7.8-3.2-9.2-13.3c-0.1-0.6,0.3-1.1,0.9-1.1c0.6-0.1,1.1,0.3,1.1,0.9
	c1.2,9,7.8,11.7,7.8,11.7c0.5,0.2,0.8,0.7,0.6,1.3C24.7,99.9,24.2,100.2,23.6,100L23.6,100z"/>
<circle class="st5" cx="15.2" cy="84.4" r="0.8"/>
<path class="st0" d="M109.4,165h0.2c1.8,0.2,3.1,1.8,2.9,3.6l0,0l-6.7-0.8l0,0C106,166,107.6,164.8,109.4,165z"/>
<path class="st10" d="M88.1,194.9c-1.2,9.6,5.7,18.4,15.4,19.6c9.6,1.2,18.4-5.7,19.6-15.4c0.6-5.2-1.1-10.5-4.8-14.3
	c-2.1-2.2-3-5.1-2.7-8.1l0.6-4.4c0.2-2-1.2-3.9-3.2-4.1l-7.6-0.9c-2-0.2-3.9,1.2-4.1,3.2l-0.5,4.5c-0.4,2.9-2,5.6-4.5,7.2
	C91.7,184.9,88.7,189.6,88.1,194.9z"/>
<circle class="st11" cx="105.4" cy="197.8" r="12.7"/>
<path class="st3" d="M95,199.7c-0.1,0-0.2-0.1-0.3-0.1c-0.4-0.2-0.5-0.7-0.4-1.1l10.1-31.5c0.2-0.5,0.7-0.8,1.3-0.7
	c0.5,0.2,0.8,0.7,0.6,1.3l0,0l-9,28l1.1-1c0.2-0.2,0.6-0.3,0.9-0.2c0.3,0.1,0.6,0.3,0.7,0.6l0.8,1.7l1.7-1.3
	c0.4-0.3,1.1-0.2,1.4,0.2l0,0l0.8,1.3l1.6-1.5c0.2-0.2,0.6-0.3,0.9-0.2c0.3,0.1,0.6,0.3,0.7,0.6l0.4,0.9l1.5-1
	c0.2-0.1,0.5-0.2,0.8-0.1c0.3,0.1,0.5,0.2,0.6,0.5l0.9,1.5l0.6-0.6c0.2-0.2,0.5-0.3,0.8-0.3s0.6,0.2,0.7,0.4l0,0l-3.7-29
	c-0.1-0.6,0.3-1.1,0.9-1.1s1.1,0.3,1.1,0.9l4.2,33.2c0.1,0.5-0.3,1-0.9,1.1c-0.4,0-0.7-0.1-0.9-0.4l-1.7-2.6l-0.6,0.6
	c-0.2,0.2-0.5,0.3-0.8,0.3s-0.6-0.2-0.7-0.5l-1-1.7l-1.7,1c-0.2,0.2-0.6,0.2-0.8,0.1c-0.3-0.1-0.5-0.3-0.6-0.6l-0.3-0.7l-1.4,1.3
	c-0.2,0.2-0.5,0.3-0.8,0.2c-0.3,0-0.6-0.2-0.7-0.5l-0.9-1.4l-1.9,1.4c-0.2,0.2-0.6,0.2-0.9,0.2c-0.3-0.1-0.5-0.3-0.7-0.5l-0.7-1.6
	l-2.8,2.5C95.7,199.6,95.4,199.8,95,199.7z"/>
<path class="st4" d="M107,166.4l4.7,0.6c2.8,0.3,4.9,2.9,4.5,5.8l-0.5,4l-15-1.8l0.5-4C101.5,168.1,104.1,166,107,166.4z"/>
<path class="st0" d="M100.8,171.9l15.5,1.9c0.4,0,0.6,0.4,0.6,0.7l0,0l0,0c0,0.4-0.4,0.6-0.7,0.6l0,0l-15.5-1.9
	c-0.4,0-0.6-0.4-0.6-0.7l0,0l0,0C100.1,172.1,100.4,171.9,100.8,171.9L100.8,171.9z"/>
<path class="st0" d="M101.1,169.7l15.5,1.9c0.4,0,0.7,0.4,0.6,0.8l0,0l0,0c0,0.4-0.4,0.7-0.8,0.6l0,0l-15.5-1.9
	c-0.4,0-0.7-0.4-0.6-0.8l0,0l0,0C100.4,170,100.7,169.7,101.1,169.7L101.1,169.7z"/>
<path class="st0" d="M101.4,167.6l15.5,1.9c0.4,0,0.6,0.4,0.6,0.7l0,0l0,0c0,0.4-0.4,0.6-0.8,0.6l0,0l-15.5-1.9
	c-0.4,0-0.6-0.4-0.6-0.7l0,0l0,0C100.6,167.8,101,167.5,101.4,167.6L101.4,167.6z"/>
<path class="st5" d="M98.3,211.6h-0.2c-0.3-0.1-7.7-3.2-9.1-13.3c-0.1-0.5,0.3-1.1,0.9-1.1l0,0c0.5-0.1,1,0.3,1.1,0.9
	c1.2,9,7.8,11.7,7.8,11.7c0.5,0.2,0.7,0.8,0.5,1.3C99.2,211.6,98.7,211.8,98.3,211.6L98.3,211.6z"/>
<circle class="st5" cx="89.9" cy="196" r="0.8"/>
<g>
	<path class="st0" d="M464.6,20.8l0.2-0.1c1.7-0.6,3.6,0.3,4.2,2l0,0l-6.4,2.2l0,0C462,23.2,462.9,21.4,464.6,20.8z"/>
	<path class="st10" d="M458.5,57c3.2,9.2,13.2,14.1,22.4,10.9s14.1-13.2,10.9-22.4c-1.7-5-5.6-9-10.6-10.8c-2.8-1.1-5-3.3-5.9-6.1
		l-1.4-4.2c-0.7-1.9-2.8-2.9-4.7-2.2l-7.2,2.5c-1.9,0.7-2.9,2.8-2.3,4.7l1.5,4.3c1,2.8,0.6,5.9-0.9,8.4
		C457.5,46.5,456.8,52,458.5,57z"/>
	<circle class="st11" cx="475.4" cy="52.1" r="12.7"/>
	<path class="st3" d="M466.9,58.3c-0.1,0-0.2,0-0.3,0c-0.4-0.1-0.8-0.4-0.9-0.8L461,24.7c-0.1-0.6,0.3-1.1,0.9-1.1
		c0.6-0.1,1.1,0.3,1.1,0.9l4.2,29.1l0.6-1.4c0.1-0.3,0.4-0.5,0.7-0.6s0.6,0,0.9,0.2l1.5,1.2l1-1.9c0.1-0.2,0.4-0.4,0.6-0.5
		c0.3-0.1,0.6,0,0.8,0.1l1.3,0.8l0.8-2c0.1-0.3,0.4-0.5,0.7-0.6s0.7,0,0.9,0.2l0.7,0.6l1-1.5c0.1-0.2,0.4-0.4,0.6-0.4
		c0.3-0.1,0.5,0,0.8,0.1l1.5,0.9l0.3-0.8c0.1-0.3,0.3-0.5,0.6-0.6s0.6-0.1,0.8,0.1l0,0l-16.1-24.4c-0.3-0.5-0.2-1.1,0.3-1.4
		s1.1-0.2,1.4,0.3l0,0l18.3,28c0.3,0.4,0.2,0.9-0.1,1.2s-0.8,0.4-1.2,0.2l-2.7-1.6l-0.3,0.8c-0.2,0.5-0.7,0.8-1.3,0.6
		c-0.1,0-0.1-0.1-0.2-0.1l-1.7-1.1l-1,1.7c-0.2,0.3-0.4,0.4-0.7,0.5c-0.3,0-0.6,0-0.8-0.2l-0.5-0.5l-0.7,1.8
		c-0.2,0.5-0.8,0.8-1.3,0.6c-0.1,0-0.1,0-0.2-0.1l-1.4-0.9L472,55c-0.1,0.3-0.4,0.5-0.7,0.5c-0.3,0.1-0.6,0-0.8-0.2l-1.4-1.2
		l-1.5,3.5C467.5,58,467.2,58.3,466.9,58.3z"/>
	<path class="st4" d="M463.1,23.1l4.5-1.5c2.7-0.9,5.6,0.5,6.6,3.2l1.3,3.8l-14.3,4.9l-1.3-3.8C458.9,27,460.4,24,463.1,23.1z"/>
	<path class="st0" d="M460,30.8l14.8-5.1c0.4-0.1,0.7,0.1,0.9,0.4l0,0l0,0c0.1,0.4-0.1,0.7-0.4,0.9l0,0l-14.8,5.1
		c-0.4,0.1-0.7-0.1-0.9-0.4l0,0l0,0C459.4,31.3,459.6,30.9,460,30.8C459.9,30.8,460,30.8,460,30.8z"/>
	<path class="st0" d="M459.3,28.7l14.8-5.1c0.4-0.1,0.7,0.1,0.9,0.4l0,0l0,0c0.1,0.4-0.1,0.8-0.4,0.9l0,0L459.8,30
		c-0.4,0.1-0.7-0.1-0.9-0.4l0,0l0,0C458.7,29.2,458.9,28.8,459.3,28.7C459.2,28.7,459.2,28.7,459.3,28.7z"/>
	<path class="st0" d="M458.5,26.6l14.8-5.1c0.4-0.1,0.7,0.1,0.9,0.4l0,0l0,0c0.1,0.4-0.1,0.7-0.4,0.9l0,0L459,27.9
		c-0.3,0.1-0.7,0-0.9-0.4l0,0l0,0C458,27.1,458.2,26.7,458.5,26.6L458.5,26.6z"/>
	<path class="st5" d="M475,67.6L475,67.6c-0.4,0-8.4,0.5-14.1-8c-0.3-0.5-0.2-1.1,0.3-1.4l0,0c0.5-0.3,1.1-0.2,1.4,0.3l0,0
		c5,7.5,12.1,7.1,12.2,7.1c0.6,0,1,0.4,1.1,0.9l0,0C475.8,67.1,475.5,67.5,475,67.6z"/>
</g>
<circle class="st5" cx="470.1" cy="52.8" r="0.8"/>
<path d="M220.9,77.7c-19.3,0-39.1-0.8-59.2-2.4C36.3,65.2-61.8,26.9-62.8,26.5l1.5-3.7c1,0.4,98.6,38.6,223.5,48.5
	c73.3,5.8,141.4,1,202.6-14.5c76.3-19.3,142-55.3,195-106.9l2.8,2.9C509,4.9,442.7,41.2,365.6,60.7C320.9,72,272.4,77.7,220.9,77.7z
	"/>
<path d="M348.9,131c-29.4,0.1-58.7-1.6-87.9-5.1c-71.8-8.6-136.7-28.2-192.9-58.2C-27.6,16.5-65.2-48.2-65.5-48.8l3.5-2
	c0.1,0.2,9.4,16.2,30.2,38.4C-12.6,7.9,20.7,37.8,70.3,64.3C126,94,190.4,113.4,261.7,122c89.2,10.7,189.5,4.3,298.2-18.9l0.8,3.9
	C485.9,123,415,131,348.9,131z"/>
<path d="M235.1,183.4c-33.8-0.1-67.5-3.6-100.6-10.7C20.9,148.6-55.8,91.5-56.5,90.9l2.4-3.2c0.8,0.6,76.8,57.2,189.6,81.1
	c66.2,14,131.8,14.1,195.2,0.4c79.2-17.1,155-56.1,225.3-115.9l2.6,3c-70.9,60.3-147.3,99.5-227.2,116.8
	C299.7,179.9,267.5,183.4,235.1,183.4z"/>
</svg>
