<svg id="Layer_1" data-name="Layer 1" xmlns="http://www.w3.org/2000/svg" viewBox="0 0 596.69 307.72"><defs><style>.cls-1{fill:#333;}.cls-2{fill:#6564a5;}.cls-3{fill:#8483b7;}.cls-4{fill:#ead13f;}.cls-5{fill:#010200;}.cls-6{fill:#fff;}.cls-7{fill:#bf665e;}.cls-8{fill:#cc857e;}.cls-9{fill:#d8f2e1;}.cls-10{fill:#e8f7ed;}.cls-11{fill:#f2c2c2;}.cls-12{fill:#f5cece;}</style></defs><title>lyger</title><path class="cls-1" d="M39.07,73.87l.25.07a3.74,3.74,0,0,1,2.5,4.65h0l-7.43-2.23h0A3.81,3.81,0,0,1,39.07,73.87Z"/><path class="cls-2" d="M9.22,103.52a20.15,20.15,0,1,0,36-5.47,11.31,11.31,0,0,1-1.41-9.66l1.47-4.89a4.24,4.24,0,0,0-2.82-5.26L34,75.72a4.24,4.24,0,0,0-5.26,2.83l-1.49,5a11.21,11.21,0,0,1-6.46,7.21A20,20,0,0,0,9.22,103.52Z"/><circle class="cls-3" cx="28.24" cy="110.19" r="14.54"/><path class="cls-4" d="M16.23,110.22a1.22,1.22,0,0,1-.32-.2,1,1,0,0,1-.21-1.2L33.2,75.19a1,1,0,0,1,1.34-.42A1,1,0,0,1,35,76.11l-15.8,30.38L21,105.32a1,1,0,0,1,.9-.08,1,1,0,0,1,.59.67l.61,2.29L25.48,107a1,1,0,0,1,.79,0,1.11,1.11,0,0,1,.58.55l.76,1.77,2.28-1.44a1,1,0,0,1,.91-.08,1,1,0,0,1,.6.7l.28,1.25,2.09-.83a1,1,0,0,1,1.3.56l.8,2,.91-.64a1,1,0,0,1,.84-.14,1,1,0,0,1,.65.56l.27.61L40,77.74a1,1,0,0,1,2,.09l-1.62,38.33a1,1,0,0,1-1.92.37l-1.51-3.4-1,.66a1,1,0,0,1-.86.14,1,1,0,0,1-.64-.59l-.89-2.22-2.25.89a1,1,0,0,1-.84,0,1,1,0,0,1-.51-.66l-.23-1-2.08,1.32a1,1,0,0,1-.83.11,1,1,0,0,1-.62-.56l-.8-1.88-2.49,1.26a1,1,0,0,1-.86,0,1,1,0,0,1-.56-.66L21,107.74l-3.83,2.39A1,1,0,0,1,16.23,110.22Z"/><path class="cls-5" d="M36.3,75.07,41,76.49a6.19,6.19,0,0,1,4.15,7.69l-1.24,4.17-16.55-5,1.24-4.17A6.15,6.15,0,0,1,36.3,75.07Z"/><path class="cls-1" d="M28.09,80.06,45.2,85.21a.79.79,0,0,1,.55,1h0a.8.8,0,0,1-1,.55L27.65,81.6a.8.8,0,0,1-.55-1h0A.77.77,0,0,1,28.09,80.06Z"/><path class="cls-1" d="M28.82,77.62l17.12,5.15a.79.79,0,0,1,.55,1h0a.8.8,0,0,1-1,.55L28.38,79.16a.81.81,0,0,1-.54-1h0A.79.79,0,0,1,28.82,77.62Z"/><path class="cls-1" d="M29.53,75.2l17.12,5.15a.8.8,0,0,1,.55,1h0a.8.8,0,0,1-1,.55L29.09,76.73a.78.78,0,0,1-.54-1h0A.77.77,0,0,1,29.53,75.2Z"/><path class="cls-6" d="M17.59,124.27a1.29,1.29,0,0,1-.16-.09c-.33-.2-8-5.05-7.58-16.67a1,1,0,0,1,2,.07c-.4,10.41,6.34,14.72,6.63,14.9a1,1,0,0,1-.89,1.79Z"/><circle class="cls-6" cx="11.01" cy="105.1" r="0.87"/><path class="cls-1" d="M272.3,179.15l.25,0a3.74,3.74,0,0,1,3.25,4.17h0l-7.69-.95h0A3.81,3.81,0,0,1,272.3,179.15Z"/><path class="cls-2" d="M247.86,213.4A20.15,20.15,0,1,0,282.43,202a11.32,11.32,0,0,1-3-9.28l.63-5.07a4.24,4.24,0,0,0-3.67-4.71l-8.72-1.06a4.24,4.24,0,0,0-4.71,3.67l-.63,5.14a11.29,11.29,0,0,1-5.16,8.2A20,20,0,0,0,247.86,213.4Z"/><circle class="cls-3" cx="267.73" cy="216.78" r="14.54"/><path class="cls-4" d="M255.9,218.82a1,1,0,0,1-.35-.14,1,1,0,0,1-.41-1.14l11.59-36.09a1,1,0,1,1,1.9.61l-10.46,32.59,1.64-1.46a1,1,0,0,1,.87-.23,1,1,0,0,1,.71.56l1,2.15,2.11-1.55a1,1,0,0,1,.77-.18,1.07,1.07,0,0,1,.66.44l1,1.62,2-1.81a1,1,0,0,1,1.59.36l.49,1.19,1.93-1.17a1,1,0,0,1,1.37.33l1.12,1.82.79-.78a1,1,0,0,1,.8-.29,1,1,0,0,1,.73.44l.37.56-4.31-33.83a1,1,0,0,1,2-.25l4.85,38.06a1,1,0,0,1-1.83.68l-2.06-3.1L276,219a1,1,0,0,1-1.56-.18l-1.25-2.05-2.07,1.26a1,1,0,0,1-.83.1,1,1,0,0,1-.61-.57l-.4-1-1.83,1.65a1,1,0,0,1-.8.25,1,1,0,0,1-.71-.45l-1.1-1.71L262.56,218a1,1,0,0,1-.85.17,1,1,0,0,1-.65-.56l-.93-2-3.37,3A1,1,0,0,1,255.9,218.82Z"/><path class="cls-5" d="M269.77,180.81l4.88.6A6.18,6.18,0,0,1,280,188.3l-.52,4.32-17.15-2.11.52-4.32A6.15,6.15,0,0,1,269.77,180.81Z"/><path class="cls-1" d="M262.51,187.11l17.74,2.19a.79.79,0,0,1,.7.88h0a.79.79,0,0,1-.88.7l-17.74-2.19a.8.8,0,0,1-.7-.88h0A.77.77,0,0,1,262.51,187.11Z"/><path class="cls-1" d="M262.83,184.58l17.73,2.19a.79.79,0,0,1,.71.88h0a.8.8,0,0,1-.88.7l-17.74-2.19a.8.8,0,0,1-.7-.88h0A.78.78,0,0,1,262.83,184.58Z"/><path class="cls-1" d="M263.12,182.07l17.74,2.19a.8.8,0,0,1,.7.88h0a.81.81,0,0,1-.88.71l-17.74-2.19a.8.8,0,0,1-.7-.88h0A.78.78,0,0,1,263.12,182.07Z"/><path class="cls-6" d="M259.6,232.44a.48.48,0,0,1-.17-.05c-.36-.14-8.76-3.64-10.28-15.16a1,1,0,1,1,2-.26c1.36,10.32,8.73,13.44,9,13.57a1,1,0,0,1-.57,1.9Z"/><circle class="cls-6" cx="249.89" cy="214.66" r="0.87"/><path class="cls-1" d="M516.91,181.4l.26,0a3.74,3.74,0,0,1,4.13,3.29h0l-7.71.88h0A3.82,3.82,0,0,1,516.91,181.4Z"/><path class="cls-2" d="M501.15,220.42a20.16,20.16,0,1,0,30.94-19.22,11.32,11.32,0,0,1-5.11-8.32l-.56-5.07a4.25,4.25,0,0,0-4.68-3.72l-8.72,1a4.24,4.24,0,0,0-3.72,4.67l.58,5.14a11.22,11.22,0,0,1-3.1,9.18A20,20,0,0,0,501.15,220.42Z"/><circle class="cls-3" cx="521.26" cy="219.05" r="14.54"/><path class="cls-4" d="M510.24,223.81a1,1,0,0,1-1-1.07L512,184.93a1,1,0,0,1,2,.15l-2.56,34.14,1.25-1.8a1,1,0,0,1,.8-.43,1,1,0,0,1,.81.38l1.46,1.86,1.69-2a1,1,0,0,1,.71-.36,1.07,1.07,0,0,1,.74.28l1.39,1.33,1.53-2.23a1,1,0,0,1,.81-.43,1,1,0,0,1,.82.41l.76,1,1.6-1.59a1,1,0,0,1,1.41,0l1.51,1.51.59-.95a1,1,0,0,1,1.53-.2l.49.45-12.1-31.88a1,1,0,1,1,1.87-.71l13.61,35.87a1,1,0,0,1-.38,1.19,1,1,0,0,1-1.23-.1l-2.73-2.53-.61,1a1,1,0,0,1-1.56.18l-1.7-1.69-1.71,1.71a1,1,0,0,1-1.52-.12l-.61-.84-1.39,2a1,1,0,0,1-.72.43,1.07,1.07,0,0,1-.8-.27l-1.47-1.41-1.8,2.13a1,1,0,0,1-1.55,0l-1.38-1.76L511,223.38A1,1,0,0,1,510.24,223.81Z"/><path class="cls-5" d="M514.84,183.6l4.88-.55a6.19,6.19,0,0,1,6.85,5.44l.5,4.32-17.17,2-.5-4.32A6.16,6.16,0,0,1,514.84,183.6Z"/><path class="cls-1" d="M509.25,191.42l17.76-2a.79.79,0,0,1,.89.69h0a.79.79,0,0,1-.69.89l-17.76,2a.81.81,0,0,1-.89-.69h0A.78.78,0,0,1,509.25,191.42Z"/><path class="cls-1" d="M509,188.89l17.76-2a.8.8,0,0,1,.89.69h0a.81.81,0,0,1-.69.89l-17.76,2a.79.79,0,0,1-.89-.69h0A.78.78,0,0,1,509,188.89Z"/><path class="cls-1" d="M508.67,186.39l17.76-2a.81.81,0,0,1,.89.69h0a.8.8,0,0,1-.69.89l-17.76,2a.8.8,0,0,1-.89-.69h0A.77.77,0,0,1,508.67,186.39Z"/><path class="cls-6" d="M517,236.19h-.18c-.38-.06-9.37-1.49-13.54-12.35a1,1,0,1,1,1.87-.71c3.73,9.72,11.62,11,12,11.08a1,1,0,0,1-.11,2Z"/><circle class="cls-6" cx="503.42" cy="221.16" r="0.87"/><path class="cls-1" d="M150.13,142l.24,0a3.63,3.63,0,0,1,2.8,4.31h0l-7.38-1.55h0A3.69,3.69,0,0,1,150.13,142Z"/><path class="cls-7" d="M123.58,173.14a19.63,19.63,0,1,0,34.49-8.26,11.12,11.12,0,0,1-2.16-9.26l1-4.84a4.12,4.12,0,0,0-3.17-4.85l-8.36-1.76a4.12,4.12,0,0,0-4.85,3.17l-1.05,4.91a10.9,10.9,0,0,1-5.69,7.51A19.56,19.56,0,0,0,123.58,173.14Z"/><circle class="cls-8" cx="142.57" cy="178.07" r="14.16"/><path class="cls-4" d="M131,179.11a1.27,1.27,0,0,1-.37-.18,1,1,0,0,1-.31-1.18l14.2-34.07a1,1,0,0,1,1.85.77l-12.79,30.68,1.63-1.22a1,1,0,0,1,1.54.47l.76,2.13,2.14-1.32a1,1,0,0,1,.78-.11,1,1,0,0,1,.63.49l.87,1.65,2.09-1.58a1,1,0,0,1,.9-.15,1,1,0,0,1,.65.65l.36,1.14,1.9-1a1,1,0,0,1,1.34.44l1,1.85.81-.67a1,1,0,0,1,.82-.22,1,1,0,0,1,.69.5l.27.48-1.37-33.06a1,1,0,0,1,2-.09l1.54,37.31a1,1,0,0,1-1.87.53l-1.73-3.14-.83.7a1,1,0,0,1-.84.21,1,1,0,0,1-.69-.53l-1.07-2.08-2.07,1a1,1,0,0,1-.84,0,1,1,0,0,1-.57-.62l-.28-.92-1.89,1.43a1,1,0,0,1-.82.18.93.93,0,0,1-.67-.51l-.92-1.74-2.29,1.42a1,1,0,0,1-.86.09,1,1,0,0,1-.61-.61l-.71-2-3.48,2.61A1,1,0,0,1,131,179.11Z"/><path class="cls-5" d="M146.49,143.1l6.77,1.44a5,5,0,0,1,3.83,5.87L156,155.59l-16.48-3.47,1.1-5.18A5,5,0,0,1,146.49,143.1Z"/><path class="cls-1" d="M140,148.83l17,3.58a.78.78,0,0,1,.6.92h0a.78.78,0,0,1-.92.6l-17-3.56a.77.77,0,0,1-.59-.92h0A.75.75,0,0,1,140,148.83Z"/><path class="cls-1" d="M140.47,146.43,157.52,150a.78.78,0,0,1,.59.92h0a.78.78,0,0,1-.92.6l-17-3.58a.78.78,0,0,1-.59-.92h0A.77.77,0,0,1,140.47,146.43Z"/><path class="cls-1" d="M141,144l17,3.58a.78.78,0,0,1,.59.92h0a.78.78,0,0,1-.92.6l-17-3.58a.78.78,0,0,1-.6-.92h0A.75.75,0,0,1,141,144Z"/><path class="cls-6" d="M133.42,192.64a.8.8,0,0,1-.2-.07c-.34-.17-8.22-4.27-8.73-15.58a1,1,0,1,1,2-.09c.46,10.15,7.56,13.84,7.63,13.88a1,1,0,0,1,.44,1.34A1,1,0,0,1,133.42,192.64Z"/><circle class="cls-6" cx="125.45" cy="174.52" r="0.85"/><path class="cls-1" d="M395,190.1h.25a3.62,3.62,0,0,1,3.52,3.74h0l-7.54-.22h0A3.68,3.68,0,0,1,395,190.1Z"/><path class="cls-7" d="M374.41,225.52a19.63,19.63,0,1,0,32.46-14.28,11.08,11.08,0,0,1-3.77-8.72l.14-5a4.12,4.12,0,0,0-4-4.21l-8.54-.24a4.13,4.13,0,0,0-4.21,4l-.15,5a11,11,0,0,1-4.26,8.41A19.51,19.51,0,0,0,374.41,225.52Z"/><circle class="cls-8" cx="393.97" cy="226.99" r="14.16"/><path class="cls-4" d="M382.74,230.07a1,1,0,0,1-.4-.11,1,1,0,0,1-.51-1.1l7.9-36.05a1,1,0,0,1,1.19-.76,1,1,0,0,1,.77,1.19l-7.12,32.46,1.38-1.49a1,1,0,0,1,.85-.31,1,1,0,0,1,.76.49l1.12,2,1.87-1.68a.93.93,0,0,1,.75-.25,1,1,0,0,1,.71.37l1.14,1.47,1.78-1.93a1,1,0,0,1,.87-.31,1,1,0,0,1,.75.53l.55,1.06,1.71-1.29a1,1,0,0,1,1.39.19l1.27,1.65.67-.8a1,1,0,0,1,.77-.36,1.07,1.07,0,0,1,.77.37l.35.43-7.24-32.3a1,1,0,0,1,.76-1.19,1,1,0,0,1,1.2.76l8.16,36.43a1,1,0,0,1-1.75.85l-2.26-2.77-.7.83a1,1,0,0,1-.79.36,1,1,0,0,1-.77-.4l-1.42-1.85-1.85,1.4a1,1,0,0,1-.82.17,1,1,0,0,1-.67-.51l-.44-.85-1.61,1.74a1,1,0,0,1-.77.32.9.9,0,0,1-.75-.38l-1.22-1.54-2,1.8a1,1,0,0,1-.82.24,1,1,0,0,1-.71-.49l-1.07-1.86-2.95,3.19A1,1,0,0,1,382.74,230.07Z"/><path class="cls-5" d="M391.59,191.88l6.92.21a5,5,0,0,1,4.82,5.09l-.15,5.3L386.35,202l.15-5.29A5,5,0,0,1,391.59,191.88Z"/><path class="cls-1" d="M386.21,198.68l17.41.48a.79.79,0,0,1,.75.8h0a.78.78,0,0,1-.8.75l-17.41-.46a.79.79,0,0,1-.75-.8h0A.75.75,0,0,1,386.21,198.68Z"/><path class="cls-1" d="M386.27,196.23l17.41.48a.79.79,0,0,1,.75.8h0a.78.78,0,0,1-.8.75l-17.41-.48a.79.79,0,0,1-.75-.8h0A.78.78,0,0,1,386.27,196.23Z"/><path class="cls-1" d="M386.33,193.76l17.41.48a.79.79,0,0,1,.75.8h0a.79.79,0,0,1-.8.75l-17.38-.48a.78.78,0,0,1-.75-.8h0A.74.74,0,0,1,386.33,193.76Z"/><path class="cls-6" d="M387.57,243a.78.78,0,0,1-.22,0c-.36-.11-8.84-2.74-11.36-13.78a1,1,0,0,1,.75-1.2,1,1,0,0,1,1.2.76c2.26,9.91,9.9,12.28,10,12.3a1,1,0,0,1,.67,1.24A1,1,0,0,1,387.57,243Z"/><circle class="cls-6" cx="376.49" cy="226.54" r="0.85"/><path class="cls-1" d="M426.34,118.19l.23,0a3.46,3.46,0,0,1,3.93,2.9h0l-7.08,1.08h0A3.53,3.53,0,0,1,426.34,118.19Z"/><path class="cls-9" d="M413.14,154.77A18.63,18.63,0,1,0,441.05,136a10.45,10.45,0,0,1-5-7.51l-.7-4.66a3.91,3.91,0,0,0-4.44-3.27l-8,1.22a3.92,3.92,0,0,0-3.27,4.45l.72,4.73a10.41,10.41,0,0,1-2.55,8.58A18.48,18.48,0,0,0,413.14,154.77Z"/><circle class="cls-10" cx="431.67" cy="152.81" r="13.44"/><path class="cls-4" d="M421.58,157.67a1,1,0,0,1-.3,0,1,1,0,0,1-.7-1l1.28-35a1,1,0,0,1,1-1,1,1,0,0,1,1,1L422.71,153l1-1.48a1,1,0,0,1,.77-.46,1.06,1.06,0,0,1,.84.35l1.34,1.6,1.44-1.84a1,1,0,0,1,.69-.38,1,1,0,0,1,.76.25l1.26,1.12,1.29-2a1,1,0,0,1,1.63-.09l.68.86,1.33-1.44a1,1,0,0,1,1.41-.06l1.41,1.28.46-.82a1,1,0,0,1,1.52-.26l.23.19L428.56,121.1a1,1,0,0,1,1.84-.78L444.22,153a1,1,0,0,1-.33,1.2,1,1,0,0,1-1.24-.05L440.11,152l-.49.85a1,1,0,0,1-.71.49,1,1,0,0,1-.83-.25l-1.59-1.45L435,153.16a.91.91,0,0,1-.77.32,1,1,0,0,1-.75-.38l-.53-.67-1.15,1.83a1,1,0,0,1-1.51.22l-1.35-1.2-1.54,2a1,1,0,0,1-.77.39,1,1,0,0,1-.78-.36l-1.27-1.5-2.19,3.43A1,1,0,0,1,421.58,157.67Z"/><path class="cls-5" d="M424.61,120.27l4.26-.65a5.84,5.84,0,0,1,6.64,4.9l.59,3.86-15.79,2.41-.59-3.86A5.83,5.83,0,0,1,424.61,120.27Z"/><path class="cls-1" d="M419.62,127.71,436,125.24a.72.72,0,0,1,.84.6h0a.73.73,0,0,1-.6.85l-16.34,2.48a.74.74,0,0,1-.84-.61h0A.71.71,0,0,1,419.62,127.71Z"/><path class="cls-1" d="M419.24,125.39l16.33-2.48a.74.74,0,0,1,.85.61h0a.74.74,0,0,1-.61.85l-16.33,2.47a.72.72,0,0,1-.84-.6h0A.74.74,0,0,1,419.24,125.39Z"/><path class="cls-1" d="M418.9,123.08l16.33-2.48a.75.75,0,0,1,.85.61h0a.75.75,0,0,1-.61.85l-16.35,2.48a.73.73,0,0,1-.85-.61h0A.76.76,0,0,1,418.9,123.08Z"/><path class="cls-6" d="M428.27,168.87h-.11c-.35,0-8.74-1.06-13-11a1,1,0,1,1,1.84-.78c3.77,8.8,11.07,9.74,11.37,9.77a1,1,0,0,1-.11,2Z"/><circle class="cls-6" cx="415.26" cy="155.38" r="0.8"/><path class="cls-9" d="M173.51,167.47a18.63,18.63,0,1,0,30.05-15.17,10.44,10.44,0,0,1-4-8.08l-.11-4.71a3.92,3.92,0,0,0-4-3.81l-8.11.21a3.93,3.93,0,0,0-3.81,4l.12,4.78a10.42,10.42,0,0,1-3.59,8.2A18.46,18.46,0,0,0,173.51,167.47Z"/><circle class="cls-10" cx="192.14" cy="167.85" r="13.44"/><path class="cls-4" d="M181.52,171.4a1,1,0,0,1-.29-.08,1,1,0,0,1-.57-1.07l5.65-34.57a1,1,0,0,1,2,.32L183.23,167l1.12-1.35a1,1,0,0,1,.83-.36,1,1,0,0,1,.78.46l1.14,1.75,1.65-1.64a1,1,0,0,1,.74-.29,1,1,0,0,1,.72.34l1.11,1.27,1.53-1.86a1,1,0,0,1,.84-.36,1,1,0,0,1,.79.48l.56.94,1.51-1.26a1,1,0,0,1,1.4.11l1.24,1.45.56-.75a1,1,0,0,1,.76-.4,1,1,0,0,1,.78.33l.2.22L193,136a1,1,0,1,1,1.93-.54l9.61,34.13a1,1,0,0,1-1.7.94l-2.25-2.48-.58.78a1,1,0,0,1-.77.4,1,1,0,0,1-.8-.35l-1.39-1.64-1.65,1.38a1,1,0,0,1-.8.22,1,1,0,0,1-.7-.47l-.44-.73-1.37,1.67a1,1,0,0,1-.76.36,1,1,0,0,1-.77-.34L189.4,168l-1.77,1.76a1,1,0,0,1-1.54-.17L185,167.92l-2.61,3.13A1,1,0,0,1,181.52,171.4Z"/><path class="cls-5" d="M189.22,134.67l4.31-.1a5.83,5.83,0,0,1,6,5.69l.1,3.9-16,.41-.09-3.9A5.82,5.82,0,0,1,189.22,134.67Z"/><path class="cls-1" d="M183.33,141.44l16.51-.41a.74.74,0,0,1,.77.71h0a.75.75,0,0,1-.71.76l-16.52.41a.74.74,0,0,1-.76-.71h0A.71.71,0,0,1,183.33,141.44Z"/><path class="cls-1" d="M183.25,139.08l16.51-.41a.75.75,0,0,1,.77.71h0a.75.75,0,0,1-.71.77l-16.51.41a.75.75,0,0,1-.77-.71h0A.75.75,0,0,1,183.25,139.08Z"/><path class="cls-1" d="M183.2,136.75l16.51-.41a.74.74,0,0,1,.77.71h0a.74.74,0,0,1-.71.76l-16.54.42a.74.74,0,0,1-.76-.71h0A.76.76,0,0,1,183.2,136.75Z"/><path class="cls-6" d="M186.76,183.35l-.11,0c-.34-.08-8.54-2.14-11.51-12.52a1,1,0,0,1,1.92-.55c2.64,9.21,9.76,11.05,10.06,11.13a1,1,0,0,1,.74,1.2A1,1,0,0,1,186.76,183.35Z"/><circle class="cls-6" cx="175.54" cy="168.34" r="0.8"/><path class="cls-9" d="M276.35,276.28a18.63,18.63,0,1,0,30-15.17,10.44,10.44,0,0,1-4-8.08l-.11-4.71a3.92,3.92,0,0,0-4-3.81l-8.11.21a3.93,3.93,0,0,0-3.81,4l.12,4.78a10.42,10.42,0,0,1-3.59,8.2A18.46,18.46,0,0,0,276.35,276.28Z"/><circle class="cls-10" cx="294.98" cy="276.66" r="13.44"/><path class="cls-4" d="M284.36,280.21a1,1,0,0,1-.29-.08,1,1,0,0,1-.57-1.07l5.65-34.57a1,1,0,0,1,2,.32l-5.06,30.95,1.12-1.35a1,1,0,0,1,.83-.36,1,1,0,0,1,.78.46l1.14,1.75,1.65-1.64a1,1,0,0,1,.74-.29,1,1,0,0,1,.72.34l1.11,1.27,1.53-1.86a1,1,0,0,1,.85-.36,1,1,0,0,1,.78.48l.56.94,1.51-1.26a1,1,0,0,1,1.4.11l1.24,1.45.56-.75a1,1,0,0,1,.76-.4,1,1,0,0,1,.78.33l.2.22-8.46-30a1,1,0,1,1,1.93-.54l9.61,34.13a1,1,0,0,1-1.7.94l-2.25-2.48-.58.78a1,1,0,0,1-.77.4,1,1,0,0,1-.8-.35l-1.39-1.64-1.65,1.38a.93.93,0,0,1-.8.22,1,1,0,0,1-.7-.47l-.44-.73L295,278.12a1,1,0,0,1-.76.36,1,1,0,0,1-.77-.34l-1.19-1.35-1.77,1.76a1,1,0,0,1-1.54-.17l-1.07-1.64-2.61,3.12A1,1,0,0,1,284.36,280.21Z"/><path class="cls-5" d="M292.06,243.49l4.31-.11a5.84,5.84,0,0,1,6,5.69l.1,3.9-16,.41-.09-3.9A5.82,5.82,0,0,1,292.06,243.49Z"/><path class="cls-1" d="M286.17,250.25l16.51-.41a.74.74,0,0,1,.77.71h0a.75.75,0,0,1-.71.76l-16.52.41a.74.74,0,0,1-.76-.71h0A.71.71,0,0,1,286.17,250.25Z"/><path class="cls-1" d="M286.09,247.9l16.51-.42a.75.75,0,0,1,.77.71h0a.75.75,0,0,1-.71.77l-16.51.41a.75.75,0,0,1-.77-.71h0A.73.73,0,0,1,286.09,247.9Z"/><path class="cls-1" d="M286,245.56l16.51-.41a.75.75,0,0,1,.77.71h0a.74.74,0,0,1-.71.76l-16.54.42a.74.74,0,0,1-.76-.71h0A.76.76,0,0,1,286,245.56Z"/><path class="cls-6" d="M289.6,292.16l-.11,0c-.34-.08-8.54-2.14-11.51-12.52a1,1,0,0,1,1.92-.55c2.64,9.21,9.76,11.05,10.06,11.13a1,1,0,0,1,.74,1.2A1,1,0,0,1,289.6,292.16Z"/><circle class="cls-6" cx="278.38" cy="277.15" r="0.8"/><path class="cls-9" d="M553,190.84a18.63,18.63,0,1,0,23.81-23.79,10.43,10.43,0,0,1-6.34-6.42l-1.57-4.44a3.93,3.93,0,0,0-5-2.37l-7.64,2.73a3.92,3.92,0,0,0-2.37,5l1.6,4.5a10.38,10.38,0,0,1-.86,8.91A18.49,18.49,0,0,0,553,190.84Z"/><circle class="cls-10" cx="570.76" cy="185.39" r="13.44"/><path class="cls-4" d="M561.78,192.08a1,1,0,0,1-1.18-.83l-5.4-34.61a1,1,0,0,1,2-.31l4.84,31,.65-1.64a1,1,0,0,1,.68-.59,1,1,0,0,1,.88.18l1.63,1.32,1.06-2.08a1,1,0,0,1,.61-.51,1,1,0,0,1,.79.1l1.45.86.87-2.24a1,1,0,0,1,.69-.61,1,1,0,0,1,.9.22l.83.71,1-1.67a1,1,0,0,1,1.37-.32l1.62,1,.3-.9a1,1,0,0,1,.59-.61,1,1,0,0,1,.85.07l.26.14-17.4-25.89a1,1,0,0,1,1.66-1.12l19.78,29.44a1,1,0,0,1-1.33,1.43l-2.9-1.66-.32.92a1,1,0,0,1-1.47.53l-1.84-1.12-1.13,1.82a.9.9,0,0,1-.7.46,1,1,0,0,1-.8-.23l-.65-.55-.78,2a1,1,0,0,1-.61.58,1,1,0,0,1-.83-.09l-1.56-.91-1.13,2.22a1,1,0,0,1-.68.53,1.06,1.06,0,0,1-.84-.2L564,187.68l-1.5,3.79A1,1,0,0,1,561.78,192.08Z"/><path class="cls-5" d="M557.65,154.78l4.06-1.44a5.83,5.83,0,0,1,7.45,3.54l1.3,3.68-15,5.37-1.31-3.68A5.84,5.84,0,0,1,557.65,154.78Z"/><path class="cls-1" d="M554.16,163l15.56-5.54a.75.75,0,0,1,.95.44h0a.75.75,0,0,1-.44.95l-15.56,5.54a.75.75,0,0,1-.95-.44h0A.72.72,0,0,1,554.16,163Z"/><path class="cls-1" d="M553.35,160.83l15.56-5.54a.75.75,0,0,1,1,.44h0a.73.73,0,0,1-.44.94l-15.56,5.54a.74.74,0,0,1-1-.43h0A.75.75,0,0,1,553.35,160.83Z"/><path class="cls-1" d="M552.57,158.63l15.56-5.54a.75.75,0,0,1,1,.44h0a.73.73,0,0,1-.43.94L553.06,160a.73.73,0,0,1-.94-.43h0A.75.75,0,0,1,552.57,158.63Z"/><path class="cls-6" d="M570.49,201.8h-.11c-.36,0-8.79.63-14.85-8.3a1,1,0,0,1,1.66-1.12c5.38,7.92,12.72,7.45,13,7.43a1,1,0,0,1,.28,2Z"/><circle class="cls-6" cx="555.15" cy="191.04" r="0.8"/><path class="cls-9" d="M16.53,207.82a18.63,18.63,0,1,0,32.94-6.9,10.48,10.48,0,0,1-1.8-8.85l1.11-4.58a3.92,3.92,0,0,0-2.88-4.71L38,180.89a3.93,3.93,0,0,0-4.71,2.88l-1.12,4.65a10.4,10.4,0,0,1-5.59,7A18.47,18.47,0,0,0,16.53,207.82Z"/><circle class="cls-10" cx="34.43" cy="212.99" r="13.44"/><path class="cls-4" d="M23.25,213.68a.76.76,0,0,1-.26-.15,1,1,0,0,1-.27-1.18l14.39-31.94a1,1,0,0,1,1.32-.5,1,1,0,0,1,.5,1.32l-12.88,28.6,1.43-1a1,1,0,0,1,1.53.51l.65,2,2-1.16a1,1,0,0,1,.79-.09,1,1,0,0,1,.6.51l.75,1.52,2-1.4a1,1,0,0,1,.91-.13,1,1,0,0,1,.63.66l.31,1.06,1.78-.84a1,1,0,0,1,1.32.48l.82,1.71.74-.58a1,1,0,0,1,.83-.19,1.05,1.05,0,0,1,.68.52l.13.27-.42-31.2a1,1,0,0,1,1-1,1,1,0,0,1,1,1L46,217.89a1,1,0,0,1-1.89.46l-1.53-3-.77.6a1,1,0,0,1-.84.19,1,1,0,0,1-.68-.55l-.93-1.94-1.94.9a.9.9,0,0,1-.83,0A1,1,0,0,1,36,214l-.24-.82L34,214.4a1,1,0,0,1-1.48-.37l-.8-1.62-2.16,1.25a1,1,0,0,1-.86.06,1,1,0,0,1-.59-.62l-.61-1.87-3.32,2.35A1,1,0,0,1,23.25,213.68Z"/><path class="cls-5" d="M40.17,180.19l4.19,1a5.83,5.83,0,0,1,4.3,7l-.91,3.8-15.53-3.73.91-3.8A5.83,5.83,0,0,1,40.17,180.19Z"/><path class="cls-1" d="M32.73,185.2l16.06,3.87a.74.74,0,0,1,.56.88h0a.75.75,0,0,1-.88.56l-16.06-3.87a.74.74,0,0,1-.56-.88h0A.71.71,0,0,1,32.73,185.2Z"/><path class="cls-1" d="M33.27,182.91l16.06,3.87a.73.73,0,0,1,.55.88h0a.74.74,0,0,1-.88.55l-16.06-3.86a.76.76,0,0,1-.56-.89h0A.74.74,0,0,1,33.27,182.91Z"/><path class="cls-1" d="M33.82,180.64l16.06,3.87a.74.74,0,0,1,.55.88h0a.75.75,0,0,1-.88.56l-16.08-3.87a.74.74,0,0,1-.56-.89h0A.77.77,0,0,1,33.82,180.64Z"/><path class="cls-6" d="M25.23,226.58l-.1-.05c-.31-.17-7.7-4.27-7.89-15.06a1,1,0,1,1,2,0c.17,9.58,6.57,13.2,6.84,13.35a1,1,0,0,1-.85,1.8Z"/><circle class="cls-6" cx="18.27" cy="209.19" r="0.8"/><path class="cls-1" d="M305.91,136.94l.22,0a3.28,3.28,0,0,1,3.69,2.78h0l-6.69.93h0A3.26,3.26,0,0,1,305.91,136.94Z"/><path class="cls-11" d="M293,171.31a17.59,17.59,0,1,0,26.56-17.46,10,10,0,0,1-4.65-7.14l-.59-4.41a3.69,3.69,0,0,0-4.16-3.14l-7.59,1.05a3.7,3.7,0,0,0-3.14,4.15l.63,4.47a10,10,0,0,1-2.51,8.09A17.54,17.54,0,0,0,293,171.31Z"/><circle class="cls-12" cx="310.49" cy="169.71" r="12.69"/><path class="cls-4" d="M300.91,174.21a1.06,1.06,0,0,1-.31-.05,1,1,0,0,1-.69-1l1.66-33a1,1,0,0,1,1.05-1,1,1,0,0,1,.94,1l-1.47,29.4.81-1.23a1,1,0,0,1,.79-.44,1,1,0,0,1,.82.36l1.21,1.48,1.32-1.67a1,1,0,0,1,.71-.38,1,1,0,0,1,.75.26l1.14,1,1.19-1.86a1,1,0,0,1,.81-.45.94.94,0,0,1,.83.39l.59.77,1.23-1.31a1,1,0,0,1,1.42,0l1.25,1.19.41-.71a1,1,0,0,1,.71-.48,1,1,0,0,1,.82.24l0,0-11-27a1,1,0,1,1,1.86-.76l12.62,31a1,1,0,0,1-1.59,1.13l-2.31-2.05-.43.75a1,1,0,0,1-.73.48,1,1,0,0,1-.83-.26l-1.44-1.37-1.35,1.44a1,1,0,0,1-.78.31,1,1,0,0,1-.75-.39l-.44-.58-1.06,1.65a1,1,0,0,1-.71.45,1,1,0,0,1-.8-.25L308,170.19,306.51,172a1,1,0,0,1-.78.38A1,1,0,0,1,305,172l-1.13-1.39-2.08,3.14A1,1,0,0,1,300.91,174.21Z"/><path class="cls-5" d="M303.92,138.92l4.67-.65a5.18,5.18,0,0,1,5.84,4.42l.55,4-15,2.08-.55-4A5.2,5.2,0,0,1,303.92,138.92Z"/><path class="cls-1" d="M299.41,145.85l15.46-2.15a.68.68,0,0,1,.78.59h0a.68.68,0,0,1-.59.78l-15.46,2.15a.69.69,0,0,1-.78-.59h0A.68.68,0,0,1,299.41,145.85Z"/><path class="cls-1" d="M299.11,143.65l15.46-2.15a.68.68,0,0,1,.78.6h0a.68.68,0,0,1-.59.78L299.3,145a.69.69,0,0,1-.78-.6h0A.69.69,0,0,1,299.11,143.65Z"/><path class="cls-1" d="M298.82,141.46l15.45-2.15a.68.68,0,0,1,.78.59h0a.67.67,0,0,1-.59.78L299,142.83a.69.69,0,0,1-.79-.59h0A.69.69,0,0,1,298.82,141.46Z"/><path class="cls-6" d="M307.11,184.88H307c-.34,0-8.27-1.12-12.19-10.55a1,1,0,1,1,1.85-.77c3.47,8.37,10.51,9.33,10.59,9.34a1,1,0,0,1-.13,2Z"/><circle class="cls-6" cx="294.98" cy="171.93" r="0.76"/><path class="cls-1" d="M431.6,219.37l.22,0a3.28,3.28,0,0,1,3.69,2.78h0l-6.69.93h0A3.28,3.28,0,0,1,431.6,219.37Z"/><path class="cls-11" d="M418.67,253.74a17.59,17.59,0,1,0,26.55-17.45,10.06,10.06,0,0,1-4.64-7.15l-.6-4.41a3.68,3.68,0,0,0-4.15-3.13l-7.59,1.05a3.69,3.69,0,0,0-3.14,4.15l.63,4.47a10,10,0,0,1-2.51,8.08A17.51,17.51,0,0,0,418.67,253.74Z"/><circle class="cls-12" cx="436.18" cy="252.14" r="12.69"/><path class="cls-4" d="M426.6,256.65a1.19,1.19,0,0,1-.32,0,1,1,0,0,1-.68-1l1.66-33a1,1,0,1,1,2,.1l-1.47,29.4.81-1.23a1,1,0,0,1,.79-.45,1,1,0,0,1,.82.37l1.2,1.48,1.33-1.68a1,1,0,0,1,.71-.37,1,1,0,0,1,.75.25l1.14,1,1.19-1.85a1,1,0,0,1,.8-.46,1,1,0,0,1,.84.39l.59.77L440,249a1,1,0,0,1,.7-.31,1,1,0,0,1,.72.27l1.25,1.19.41-.7a1,1,0,0,1,.71-.48,1,1,0,0,1,.82.23l0,0-11-27a1,1,0,0,1,1.86-.75l12.61,31a1,1,0,0,1-1.59,1.12l-2.3-2-.44.74a1,1,0,0,1-.72.49,1,1,0,0,1-.83-.27l-1.44-1.37-1.35,1.44a1,1,0,0,1-.78.32,1,1,0,0,1-.75-.4l-.44-.57-1.06,1.65a1,1,0,0,1-1.51.2l-1.23-1.12-1.43,1.81a1,1,0,0,1-.78.38.89.89,0,0,1-.78-.37l-1.13-1.38-2.08,3.14A1,1,0,0,1,426.6,256.65Z"/><path class="cls-5" d="M429.61,221.36l4.67-.65a5.16,5.16,0,0,1,5.83,4.41l.56,4-14.95,2.07-.55-4A5.2,5.2,0,0,1,429.61,221.36Z"/><path class="cls-1" d="M425.1,228.28l15.46-2.15a.69.69,0,0,1,.78.59h0a.69.69,0,0,1-.59.79l-15.46,2.14a.68.68,0,0,1-.78-.59h0A.68.68,0,0,1,425.1,228.28Z"/><path class="cls-1" d="M424.8,226.09l15.46-2.15a.68.68,0,0,1,.78.59h0a.68.68,0,0,1-.59.78L425,227.46a.68.68,0,0,1-.78-.59h0A.68.68,0,0,1,424.8,226.09Z"/><path class="cls-1" d="M424.5,223.9,440,221.75a.68.68,0,0,1,.78.59h0a.68.68,0,0,1-.59.78l-15.46,2.15a.69.69,0,0,1-.78-.59h0A.68.68,0,0,1,424.5,223.9Z"/><path class="cls-6" d="M432.8,267.32h-.12c-.34,0-8.27-1.13-12.19-10.55a1,1,0,1,1,1.85-.77c3.47,8.36,10.51,9.32,10.58,9.33a1,1,0,0,1-.12,2Z"/><circle class="cls-6" cx="420.66" cy="254.36" r="0.76"/><path class="cls-1" d="M84.66,114.56l.22,0a3.28,3.28,0,0,1,2.85,3.64h0l-6.7-.82h0A3.26,3.26,0,0,1,84.66,114.56Z"/><path class="cls-11" d="M63.35,144.46a17.58,17.58,0,1,0,30.14-10.05,10,10,0,0,1-2.65-8.1l.55-4.42a3.69,3.69,0,0,0-3.21-4.09l-7.61-.94a3.68,3.68,0,0,0-4.09,3.21l-.54,4.49a10,10,0,0,1-4.51,7.16A17.56,17.56,0,0,0,63.35,144.46Z"/><circle class="cls-12" cx="80.68" cy="147.41" r="12.69"/><path class="cls-4" d="M70.27,149.31a1.08,1.08,0,0,1-.29-.13,1,1,0,0,1-.41-1.15l10.08-31.51a1,1,0,1,1,1.9.61l-9,28,1.1-1a1,1,0,0,1,.87-.23,1,1,0,0,1,.7.57l.79,1.74L77.76,145a1,1,0,0,1,.78-.18,1,1,0,0,1,.66.44l.84,1.29,1.62-1.48a1,1,0,0,1,.9-.24.93.93,0,0,1,.7.6l.37.89,1.53-1a1,1,0,0,1,1.38.32l.91,1.48.58-.58a1,1,0,0,1,.8-.28,1,1,0,0,1,.73.44l0,0-3.7-29a1,1,0,1,1,2-.25l4.25,33.19a1,1,0,0,1-1.83.69l-1.71-2.57-.6.61a1,1,0,0,1-1.56-.19l-1-1.69-1.67,1a1,1,0,0,1-1.45-.47l-.28-.66-1.45,1.32a1,1,0,0,1-.8.25,1,1,0,0,1-.71-.45l-.9-1.39-1.85,1.38a1,1,0,0,1-.85.17.91.91,0,0,1-.66-.56L74,146.58l-2.81,2.51A1,1,0,0,1,70.27,149.31Z"/><path class="cls-5" d="M82.22,116l4.69.57a5.17,5.17,0,0,1,4.51,5.76l-.49,4-15-1.83.49-4A5.19,5.19,0,0,1,82.22,116Z"/><path class="cls-1" d="M76.1,121.51l15.49,1.88a.69.69,0,0,1,.6.78h0a.69.69,0,0,1-.77.6l-15.49-1.89a.69.69,0,0,1-.61-.77h0A.68.68,0,0,1,76.1,121.51Z"/><path class="cls-1" d="M76.37,119.31l15.49,1.89a.67.67,0,0,1,.6.77h0a.67.67,0,0,1-.77.6L76.2,120.68a.67.67,0,0,1-.6-.77h0A.67.67,0,0,1,76.37,119.31Z"/><path class="cls-1" d="M76.64,117.11,92.13,119a.7.7,0,0,1,.61.77h0a.7.7,0,0,1-.78.61l-15.49-1.89a.68.68,0,0,1-.6-.77h0A.69.69,0,0,1,76.64,117.11Z"/><path class="cls-6" d="M73.53,161.21l-.12,0c-.31-.13-7.71-3.21-9.07-13.32a1,1,0,1,1,2-.27c1.21,9,7.77,11.71,7.84,11.73a1,1,0,0,1-.63,1.9Z"/><circle class="cls-6" cx="65.12" cy="145.58" r="0.76"/><path class="cls-1" d="M159.29,226.19l.23,0a3.28,3.28,0,0,1,2.85,3.63h0l-6.71-.82h0A3.28,3.28,0,0,1,159.29,226.19Z"/><path class="cls-11" d="M138,256.1A17.59,17.59,0,1,0,168.13,246a10,10,0,0,1-2.66-8.1l.55-4.41a3.68,3.68,0,0,0-3.2-4.1l-7.61-.93a3.69,3.69,0,0,0-4.1,3.21l-.54,4.48a9.92,9.92,0,0,1-4.5,7.17A17.53,17.53,0,0,0,138,256.1Z"/><circle class="cls-12" cx="155.32" cy="259.04" r="12.69"/><path class="cls-4" d="M144.9,260.94a1.08,1.08,0,0,1-.29-.13,1,1,0,0,1-.41-1.14l10.08-31.52a1,1,0,0,1,1.91.61l-9,28,1.1-1a1,1,0,0,1,.88-.23,1,1,0,0,1,.7.56l.78,1.74,1.72-1.28a1,1,0,0,1,1.43.26l.84,1.3,1.63-1.49a1,1,0,0,1,.89-.23,1,1,0,0,1,.71.59l.37.89,1.53-.95a1,1,0,0,1,.75-.12,1,1,0,0,1,.63.45l.9,1.47.58-.57a1,1,0,0,1,.81-.29,1,1,0,0,1,.73.44l0,0-3.71-29a1,1,0,1,1,2-.25l4.25,33.2a1,1,0,0,1-1.82.68l-1.71-2.57-.61.61a1,1,0,0,1-.82.28,1,1,0,0,1-.74-.46l-1-1.7-1.68,1a1,1,0,0,1-.83.11,1,1,0,0,1-.62-.57l-.28-.67-1.45,1.32a1,1,0,0,1-.8.25,1,1,0,0,1-.71-.45l-.9-1.38-1.85,1.38a1,1,0,0,1-.85.16,1,1,0,0,1-.66-.55l-.73-1.63-2.82,2.5A1,1,0,0,1,144.9,260.94Z"/><path class="cls-5" d="M156.86,227.6l4.68.57a5.18,5.18,0,0,1,4.51,5.77l-.49,4-15-1.83.48-4A5.21,5.21,0,0,1,156.86,227.6Z"/><path class="cls-1" d="M150.73,233.14,166.22,235a.67.67,0,0,1,.6.77h0a.67.67,0,0,1-.77.6l-15.49-1.89a.67.67,0,0,1-.6-.77h0A.67.67,0,0,1,150.73,233.14Z"/><path class="cls-1" d="M151,230.94l15.49,1.89a.69.69,0,0,1,.61.77h0a.7.7,0,0,1-.78.61l-15.48-1.89a.69.69,0,0,1-.61-.77h0A.69.69,0,0,1,151,230.94Z"/><path class="cls-1" d="M151.28,228.75l15.49,1.88a.68.68,0,0,1,.6.78h0a.69.69,0,0,1-.77.6l-15.49-1.89a.68.68,0,0,1-.6-.77h0A.67.67,0,0,1,151.28,228.75Z"/><path class="cls-6" d="M148.16,272.84l-.12,0c-.31-.12-7.7-3.21-9.07-13.32a1,1,0,0,1,.86-1.13,1,1,0,0,1,1.12.86c1.22,9,7.77,11.71,7.84,11.74a1,1,0,0,1-.63,1.89Z"/><circle class="cls-6" cx="139.75" cy="257.21" r="0.76"/><path class="cls-1" d="M524,77.58l.21-.07a3.27,3.27,0,0,1,4.15,2h0L522,81.73h0A3.27,3.27,0,0,1,524,77.58Z"/><path class="cls-11" d="M517.94,113.79a17.59,17.59,0,1,0,22.71-22.23,10,10,0,0,1-5.93-6.12l-1.43-4.21A3.7,3.7,0,0,0,528.61,79l-7.25,2.49a3.7,3.7,0,0,0-2.28,4.68l1.48,4.26a10,10,0,0,1-.92,8.42A17.56,17.56,0,0,0,517.94,113.79Z"/><circle class="cls-12" cx="534.82" cy="108.86" r="12.69"/><path class="cls-4" d="M526.28,115.12a1.06,1.06,0,0,1-.31,0,1,1,0,0,1-.87-.85l-4.72-32.75a1,1,0,1,1,2-.28l4.2,29.13.56-1.36a1,1,0,0,1,.69-.59,1,1,0,0,1,.88.2l1.46,1.22,1-1.9a1,1,0,0,1,.62-.5,1,1,0,0,1,.79.11l1.32.79.81-2a1,1,0,0,1,.7-.61.93.93,0,0,1,.89.23l.73.64,1-1.52a1,1,0,0,1,.62-.45,1,1,0,0,1,.76.13l1.46.93.27-.77a1,1,0,0,1,.6-.61,1,1,0,0,1,.85.08h0L526.54,80a1,1,0,0,1,.28-1.38,1,1,0,0,1,1.39.28l18.34,28a1,1,0,0,1-.11,1.24,1,1,0,0,1-1.23.17l-2.66-1.56-.28.81a1,1,0,0,1-1.48.52L539.11,107l-1.05,1.67a1,1,0,0,1-.71.46,1,1,0,0,1-.8-.24l-.55-.48-.72,1.82a1,1,0,0,1-1.45.49l-1.41-.86-1.06,2.05a1,1,0,0,1-.69.52.91.91,0,0,1-.84-.21L528.45,111,527,114.52A1,1,0,0,1,526.28,115.12Z"/><path class="cls-5" d="M522.46,79.91l4.46-1.54a5.18,5.18,0,0,1,6.57,3.22l1.31,3.8L520.53,90.3l-1.31-3.81A5.21,5.21,0,0,1,522.46,79.91Z"/><path class="cls-1" d="M519.37,87.57l14.75-5.08a.68.68,0,0,1,.88.43h0a.68.68,0,0,1-.43.88l-14.75,5.08a.68.68,0,0,1-.88-.43h0A.67.67,0,0,1,519.37,87.57Z"/><path class="cls-1" d="M518.65,85.48l14.76-5.08a.68.68,0,0,1,.88.43h0a.69.69,0,0,1-.43.88L519.1,86.79a.68.68,0,0,1-.88-.43h0A.68.68,0,0,1,518.65,85.48Z"/><path class="cls-1" d="M517.94,83.38l14.75-5.08a.68.68,0,0,1,.88.43h0a.68.68,0,0,1-.43.88l-14.75,5.08a.67.67,0,0,1-.88-.43h0A.67.67,0,0,1,517.94,83.38Z"/><path class="cls-6" d="M534.42,124.4h-.12c-.34,0-8.33.49-14-8a1,1,0,0,1,.27-1.39,1,1,0,0,1,1.39.28c5,7.54,12.11,7.13,12.18,7.13a1,1,0,0,1,1.07.93A1,1,0,0,1,534.42,124.4Z"/><circle class="cls-6" cx="520.02" cy="114.02" r="0.76"/><path d="M270.82,138.86q-29,0-59.22-2.41C86.16,126.44-11.95,88.06-12.93,87.67L-11.45,84c1,.38,98.61,38.56,223.48,48.51,73.26,5.84,141.43,1,202.6-14.5C491,98.66,556.66,62.7,609.74,11.08L612.53,14c-53.61,52.13-119.88,88.43-197,107.91C370.77,133.18,322.27,138.86,270.82,138.86Z"/><path d="M398.82,192.23a735.45,735.45,0,0,1-87.92-5.09c-71.83-8.64-136.71-28.23-192.85-58.25C22.34,77.71-15.28,13-15.65,12.35l3.48-2c.09.16,9.36,16.24,30.22,38.37,19.26,20.42,52.6,50.31,102.14,76.76,55.7,29.73,120.09,49.14,191.4,57.7,89.19,10.69,189.52,4.33,298.18-18.92l.84,3.92C535.8,184.2,464.9,192.23,398.82,192.23Z"/><path d="M285,244.56a484.71,484.71,0,0,1-100.61-10.72C70.81,209.77-5.86,152.66-6.62,152.09l2.41-3.19c.75.57,76.83,57.2,189.57,81.06,66.16,14,131.82,14.13,195.17.41,79.2-17.15,155-56.14,225.33-115.9l2.59,3C537.59,177.73,461.16,217,381.28,234.31A455.14,455.14,0,0,1,285,244.56Z"/></svg>
