<?xml version="1.0" encoding="utf-8"?>
<!-- Generator: Adobe Illustrator 24.0.3, SVG Export Plug-In . SVG Version: 6.00 Build 0)  -->
<svg version="1.1" id="Layer_1" xmlns="http://www.w3.org/2000/svg" xmlns:xlink="http://www.w3.org/1999/xlink" x="0px" y="0px"
	 viewBox="0 0 596.7 240" style="enable-background:new 0 0 596.7 240;" xml:space="preserve">
<style type="text/css">
	.st0{fill:#333333;}
	.st1{fill:#6564A5;}
	.st2{fill:#8483B7;}
	.st3{fill:#EAD13F;}
	.st4{fill:#010200;}
	.st5{fill:#FFFFFF;}
	.st6{fill:#BF665E;}
	.st7{fill:#CC857E;}
	.st8{fill:#D8F2E1;}
	.st9{fill:#E8F7ED;}
	.st10{fill:#F2C2C2;}
	.st11{fill:#F5CECE;}
</style>
<title>lyger</title>
<path class="st0" d="M39.1,12.7l0.2,0.1c2,0.6,3.1,2.7,2.5,4.7l0,0l-7.4-2.2l0,0C35,13.2,37.1,12.1,39.1,12.7z"/>
<path class="st1" d="M9.2,42.3C6,53,12.1,64.2,22.7,67.4s21.9-2.8,25.1-13.5c1.7-5.8,0.8-12.1-2.6-17.1c-1.9-2.8-2.4-6.4-1.4-9.7
	l1.5-4.9c0.7-2.2-0.6-4.6-2.8-5.3L34,14.5c-2.2-0.7-4.6,0.6-5.3,2.8l-1.5,5c-1,3.3-3.3,5.9-6.5,7.2C15.2,31.9,11,36.5,9.2,42.3z"/>
<circle class="st2" cx="28.2" cy="49" r="14.5"/>
<path class="st3" d="M16.2,49c-0.1,0-0.2-0.1-0.3-0.2c-0.3-0.3-0.4-0.8-0.2-1.2L33.2,14c0.3-0.5,0.9-0.7,1.3-0.4
	c0.5,0.2,0.7,0.8,0.5,1.3c0,0,0,0,0,0L19.2,45.3l1.8-1.2c0.3-0.2,0.6-0.2,0.9-0.1c0.3,0.1,0.5,0.4,0.6,0.7l0.6,2.3l2.4-1.2
	c0.3-0.1,0.5-0.1,0.8,0c0.3,0.1,0.5,0.3,0.6,0.6l0.8,1.8l2.3-1.4c0.3-0.2,0.6-0.2,0.9-0.1c0.3,0.1,0.5,0.4,0.6,0.7l0.3,1.2l2.1-0.8
	c0.5-0.2,1.1,0,1.3,0.6c0,0,0,0,0,0l0.8,2l0.9-0.6c0.2-0.2,0.6-0.2,0.8-0.1c0.3,0.1,0.5,0.3,0.7,0.6l0.3,0.6L40,16.5
	c0-0.6,0.5-1,1-1s1,0.5,1,1L40.4,55c0,0.6-0.5,1-1,1c-0.4,0-0.7-0.2-0.9-0.6L37,51.9l-1,0.7c-0.3,0.2-0.6,0.2-0.9,0.1
	c-0.3-0.1-0.5-0.3-0.6-0.6l-0.9-2.2l-2.2,0.9c-0.3,0.1-0.6,0.1-0.8,0c-0.3-0.1-0.4-0.4-0.5-0.7l-0.2-1l-2.1,1.3
	c-0.2,0.2-0.6,0.2-0.8,0.1c-0.3-0.1-0.5-0.3-0.6-0.6l-0.8-1.9l-2.5,1.3c-0.3,0.1-0.6,0.1-0.9,0c-0.3-0.1-0.5-0.4-0.6-0.7L21,46.5
	l-3.8,2.4C16.9,49.1,16.5,49.2,16.2,49z"/>
<path class="st4" d="M36.3,13.9l4.7,1.4c3.3,1,5.1,4.4,4.2,7.7l-1.2,4.2l-16.5-5l1.2-4.2C29.6,14.7,33,12.9,36.3,13.9
	C36.3,13.9,36.3,13.9,36.3,13.9z"/>
<path class="st0" d="M28.1,18.9L45.2,24c0.4,0.1,0.7,0.5,0.6,1c0,0,0,0,0,0l0,0c-0.1,0.4-0.6,0.7-1,0.6c0,0,0,0,0,0l-17.1-5.2
	c-0.4-0.1-0.7-0.6-0.6-1c0,0,0,0,0,0l0,0C27.2,19,27.6,18.7,28.1,18.9C28.1,18.9,28.1,18.9,28.1,18.9z"/>
<path class="st0" d="M28.8,16.4l17.1,5.2c0.4,0.1,0.7,0.5,0.6,1c0,0,0,0,0,0l0,0c-0.1,0.4-0.6,0.7-1,0.6c0,0,0,0,0,0L28.4,18
	c-0.4-0.1-0.7-0.6-0.5-1l0,0C28,16.5,28.4,16.3,28.8,16.4C28.8,16.4,28.8,16.4,28.8,16.4z"/>
<path class="st0" d="M29.5,14l17.1,5.2c0.4,0.1,0.7,0.6,0.6,1c0,0,0,0,0,0l0,0c-0.1,0.4-0.6,0.7-1,0.6c0,0,0,0,0,0l-17.1-5.2
	c-0.4-0.1-0.7-0.5-0.6-1c0,0,0,0,0,0l0,0C28.7,14.1,29.1,13.9,29.5,14C29.5,14,29.5,14,29.5,14z"/>
<path class="st5" d="M17.6,63.1c-0.1,0-0.1-0.1-0.2-0.1c-0.3-0.2-8-5.1-7.6-16.7c0-0.6,0.5-1,1-1c0.6,0,1,0.5,1,1l0,0
	c-0.4,10.4,6.3,14.7,6.6,14.9c0.5,0.3,0.7,0.9,0.4,1.4C18.6,63.1,18.1,63.3,17.6,63.1z"/>
<circle class="st5" cx="11" cy="43.9" r="0.9"/>
<path class="st0" d="M272.3,118h0.2c2,0.3,3.5,2.1,3.2,4.2l0,0l-7.7-0.9l0,0C268.4,119.1,270.3,117.7,272.3,118z"/>
<path class="st1" d="M247.9,152.2c-1.4,11,6.4,21.1,17.5,22.5c11,1.4,21.1-6.4,22.5-17.5c0.8-6-1.2-12-5.4-16.4
	c-2.3-2.5-3.5-5.9-3-9.3l0.6-5.1c0.3-2.3-1.4-4.4-3.7-4.7l-8.7-1.1c-2.3-0.3-4.4,1.4-4.7,3.7l-0.6,5.1c-0.4,3.4-2.3,6.4-5.2,8.2
	C252,140.9,248.6,146.2,247.9,152.2z"/>
<ellipse transform="matrix(0.1602 -0.9871 0.9871 0.1602 71.2686 394.9359)" class="st2" cx="267.7" cy="155.6" rx="14.5" ry="14.5"/>
<path class="st3" d="M255.9,157.6c-0.1,0-0.2-0.1-0.4-0.1c-0.4-0.2-0.5-0.7-0.4-1.1l11.6-36.1c0.1-0.5,0.7-0.9,1.2-0.7
	c0.5,0.1,0.9,0.7,0.7,1.2c0,0,0,0.1,0,0.1l-10.5,32.6l1.6-1.5c0.2-0.2,0.6-0.3,0.9-0.2c0.3,0.1,0.6,0.3,0.7,0.6l1,2.1l2.1-1.6
	c0.2-0.2,0.5-0.2,0.8-0.2c0.3,0.1,0.5,0.2,0.7,0.4l1,1.6l2-1.8c0.4-0.4,1-0.3,1.4,0.1c0.1,0.1,0.1,0.2,0.2,0.3l0.5,1.2l1.9-1.2
	c0.5-0.3,1.1-0.1,1.4,0.3l1.1,1.8l0.8-0.8c0.2-0.2,0.5-0.3,0.8-0.3c0.3,0,0.6,0.2,0.7,0.4l0.4,0.6l-4.3-33.8
	c-0.1-0.6,0.3-1.1,0.9-1.1s1.1,0.3,1.1,0.9l4.9,38.1c0.1,0.5-0.3,1.1-0.9,1.1c-0.4,0.1-0.8-0.1-1-0.4l-2.1-3.1l-0.8,0.8
	c-0.4,0.4-1,0.4-1.4,0c-0.1-0.1-0.1-0.1-0.1-0.2l-1.2-2.1l-2.1,1.3c-0.2,0.2-0.6,0.2-0.8,0.1c-0.3-0.1-0.5-0.3-0.6-0.6l-0.4-1
	l-1.8,1.6c-0.2,0.2-0.5,0.3-0.8,0.2c-0.3,0-0.6-0.2-0.7-0.4l-1.1-1.7l-2.3,1.7c-0.2,0.2-0.6,0.2-0.9,0.2c-0.3-0.1-0.5-0.3-0.6-0.6
	l-0.9-2l-3.4,3C256.5,157.6,256.2,157.7,255.9,157.6z"/>
<path class="st4" d="M269.8,119.6l4.9,0.6c3.4,0.4,5.8,3.5,5.4,6.9l-0.5,4.3l-17.1-2.1l0.5-4.3C263.2,121.6,266.3,119.2,269.8,119.6
	C269.7,119.6,269.7,119.6,269.8,119.6z"/>
<path class="st0" d="M262.5,125.9l17.7,2.2c0.4,0,0.7,0.4,0.7,0.9c0,0,0,0,0,0l0,0c0,0.4-0.4,0.7-0.9,0.7c0,0,0,0,0,0l-17.7-2.2
	c-0.4-0.1-0.7-0.4-0.7-0.9l0,0C261.7,126.2,262,125.9,262.5,125.9C262.5,125.9,262.5,125.9,262.5,125.9z"/>
<path class="st0" d="M262.8,123.4l17.7,2.2c0.4,0,0.8,0.4,0.7,0.9c0,0,0,0,0,0l0,0c-0.1,0.4-0.4,0.7-0.9,0.7l-17.7-2.2
	c-0.4-0.1-0.7-0.4-0.7-0.9l0,0C262,123.7,262.4,123.3,262.8,123.4C262.8,123.4,262.8,123.4,262.8,123.4z"/>
<path class="st0" d="M263.1,120.9l17.7,2.2c0.4,0.1,0.7,0.4,0.7,0.9l0,0c-0.1,0.4-0.4,0.8-0.9,0.7l-17.7-2.2
	c-0.4-0.1-0.7-0.4-0.7-0.9l0,0C262.3,121.2,262.7,120.8,263.1,120.9C263.1,120.9,263.1,120.9,263.1,120.9z"/>
<path class="st5" d="M259.6,171.2c-0.1,0-0.1,0-0.2-0.1c-0.4-0.1-8.8-3.6-10.3-15.2c-0.1-0.6,0.3-1.1,0.9-1.1
	c0.6-0.1,1.1,0.3,1.1,0.9c1.4,10.3,8.7,13.4,9,13.6c0.5,0.2,0.7,0.8,0.5,1.3C260.5,171.1,260,171.3,259.6,171.2L259.6,171.2z"/>
<circle class="st5" cx="249.9" cy="153.5" r="0.9"/>
<path class="st0" d="M516.9,120.2h0.3c2-0.2,3.9,1.2,4.1,3.3l0,0l-7.7,0.9l0,0C513.4,122.3,514.9,120.5,516.9,120.2z"/>
<path class="st1" d="M501.1,159.2c1.3,11.1,11.2,19,22.3,17.8c11.1-1.3,19-11.2,17.8-22.3c-0.7-6-4-11.4-9.1-14.7
	c-2.9-1.9-4.8-4.9-5.1-8.3l-0.6-5.1c-0.3-2.3-2.4-4-4.7-3.7l-8.7,1c-2.3,0.3-4,2.4-3.7,4.7l0.6,5.1c0.4,3.4-0.7,6.7-3.1,9.2
	C502.5,147.2,500.5,153.2,501.1,159.2z"/>
<ellipse transform="matrix(0.3827 -0.9239 0.9239 0.3827 175.9436 579.0279)" class="st2" cx="521.3" cy="157.9" rx="14.5" ry="14.5"/>
<path class="st3" d="M510.2,162.6c-0.6,0-1-0.4-1-1c0,0,0,0,0-0.1l2.8-37.8c0-0.6,0.5-1,1.1-0.9c0.6,0,1,0.5,0.9,1.1l-2.6,34.1
	l1.2-1.8c0.2-0.3,0.5-0.4,0.8-0.4c0.3,0,0.6,0.1,0.8,0.4l1.5,1.9l1.7-2c0.2-0.2,0.4-0.3,0.7-0.4c0.3,0,0.5,0.1,0.7,0.3l1.4,1.3
	l1.5-2.2c0.2-0.3,0.5-0.4,0.8-0.4c0.3,0,0.6,0.1,0.8,0.4l0.8,1l1.6-1.6c0.4-0.4,1-0.4,1.4,0l1.5,1.5l0.6-0.9
	c0.3-0.5,0.9-0.6,1.4-0.3c0.1,0,0.1,0.1,0.2,0.1l0.5,0.4l-12.1-31.9c-0.2-0.5,0.1-1.1,0.6-1.3c0.5-0.2,1.1,0.1,1.3,0.6l13.6,35.9
	c0.2,0.4,0,0.9-0.4,1.2c-0.4,0.3-0.9,0.2-1.2-0.1l-2.7-2.5l-0.6,1c-0.3,0.5-0.9,0.6-1.4,0.3c-0.1,0-0.1-0.1-0.2-0.1l-1.7-1.7
	l-1.7,1.7c-0.4,0.4-1,0.4-1.4,0c0,0-0.1-0.1-0.1-0.1l-0.6-0.8l-1.4,2c-0.2,0.2-0.4,0.4-0.7,0.4c-0.3,0-0.6-0.1-0.8-0.3l-1.5-1.4
	l-1.8,2.1c-0.3,0.4-1,0.5-1.4,0.1c-0.1,0-0.1-0.1-0.1-0.1l-1.4-1.8l-2.6,3.7C510.8,162.4,510.5,162.6,510.2,162.6z"/>
<path class="st4" d="M514.8,122.4l4.9-0.6c3.4-0.4,6.5,2,6.8,5.4l0.5,4.3l-17.2,2l-0.5-4.3C509,125.9,511.4,122.8,514.8,122.4
	C514.8,122.4,514.8,122.4,514.8,122.4z"/>
<path class="st0" d="M509.2,130.2l17.8-2c0.4-0.1,0.8,0.2,0.9,0.7c0,0,0,0,0,0l0,0c0.1,0.4-0.2,0.8-0.7,0.9c0,0,0,0,0,0l-17.8,2
	c-0.4,0-0.8-0.3-0.9-0.7l0,0C508.5,130.7,508.8,130.3,509.2,130.2C509.2,130.2,509.2,130.2,509.2,130.2z"/>
<path class="st0" d="M509,127.7l17.8-2c0.4-0.1,0.8,0.3,0.9,0.7l0,0c0,0.4-0.3,0.8-0.7,0.9l-17.8,2c-0.4,0.1-0.8-0.2-0.9-0.7
	c0,0,0,0,0,0l0,0C508.2,128.2,508.5,127.8,509,127.7C509,127.7,509,127.7,509,127.7z"/>
<path class="st0" d="M508.7,125.2l17.8-2c0.4,0,0.8,0.3,0.9,0.7l0,0c0.1,0.4-0.3,0.8-0.7,0.9l-17.8,2c-0.4,0.1-0.8-0.3-0.9-0.7l0,0
	C507.9,125.7,508.2,125.3,508.7,125.2C508.6,125.2,508.7,125.2,508.7,125.2z"/>
<path class="st5" d="M517,175h-0.2c-0.4-0.1-9.4-1.5-13.5-12.4c-0.2-0.5,0.1-1.1,0.6-1.3c0.5-0.2,1.1,0.1,1.3,0.6
	c3.7,9.7,11.6,11,12,11.1c0.6,0,1,0.5,0.9,1.1S517.6,175,517,175L517,175z"/>
<circle class="st5" cx="503.4" cy="160" r="0.9"/>
<path class="st0" d="M150.1,80.8h0.2c2,0.4,3.2,2.3,2.8,4.3c0,0,0,0,0,0l0,0l-7.4-1.6l0,0C146.3,81.6,148.2,80.4,150.1,80.8z"/>
<path class="st6" d="M123.6,111.9c-2.2,10.6,4.5,21,15.1,23.3s21-4.5,23.3-15.1c1.2-5.8-0.2-11.8-3.9-16.4c-2.1-2.6-2.9-6-2.2-9.3
	l1-4.8c0.5-2.2-1-4.4-3.2-4.9l-8.4-1.8c-2.2-0.5-4.4,1-4.9,3.2l-1.1,4.9c-0.7,3.2-2.8,6-5.7,7.5
	C128.5,101.3,124.8,106.2,123.6,111.9z"/>
<circle class="st7" cx="142.6" cy="116.9" r="14.2"/>
<path class="st3" d="M131,117.9c-0.1,0-0.3-0.1-0.4-0.2c-0.4-0.3-0.5-0.8-0.3-1.2l14.2-34.1c0.2-0.5,0.8-0.8,1.3-0.5
	c0.5,0.2,0.8,0.8,0.5,1.3l-12.8,30.7l1.6-1.2c0.4-0.3,1.1-0.2,1.4,0.2c0.1,0.1,0.1,0.2,0.1,0.3l0.8,2.1l2.1-1.3
	c0.2-0.1,0.5-0.2,0.8-0.1c0.3,0.1,0.5,0.2,0.6,0.5l0.9,1.6l2.1-1.6c0.3-0.2,0.6-0.2,0.9-0.1c0.3,0.1,0.6,0.3,0.6,0.6l0.4,1.1l1.9-1
	c0.5-0.2,1.1-0.1,1.3,0.4l1,1.9l0.8-0.7c0.2-0.2,0.5-0.3,0.8-0.2c0.3,0.1,0.5,0.2,0.7,0.5l0.3,0.5l-1.4-33.1c0-0.6,0.4-1,1-1
	s1,0.4,1,1l1.5,37.3c0,0.6-0.4,1-1,1c-0.4,0-0.7-0.2-0.9-0.5l-1.7-3.1l-0.8,0.7c-0.2,0.2-0.5,0.3-0.8,0.2c-0.3-0.1-0.6-0.3-0.7-0.5
	l-1.1-2.1l-2.1,1c-0.3,0.1-0.6,0.1-0.8,0c-0.3-0.1-0.5-0.3-0.6-0.6l-0.3-0.9l-1.9,1.4c-0.2,0.2-0.5,0.2-0.8,0.2
	c-0.3-0.1-0.5-0.2-0.7-0.5l-0.9-1.7l-2.3,1.4c-0.3,0.2-0.6,0.2-0.9,0.1c-0.3-0.1-0.5-0.3-0.6-0.6l-0.7-2l-3.5,2.6
	C131.7,117.9,131.3,118,131,117.9z"/>
<path class="st4" d="M146.5,81.9l6.8,1.4c2.7,0.6,4.4,3.2,3.8,5.9l-1.1,5.2l-16.5-3.5l1.1-5.2C141.2,83.1,143.8,81.4,146.5,81.9z"/>
<path class="st0" d="M140,87.6l17,3.6c0.4,0.1,0.7,0.5,0.6,0.9l0,0c-0.1,0.4-0.5,0.7-0.9,0.6l-17-3.6c-0.4-0.1-0.7-0.5-0.6-0.9
	c0,0,0,0,0,0l0,0C139.2,87.8,139.5,87.6,140,87.6C140,87.6,140,87.6,140,87.6z"/>
<path class="st0" d="M140.5,85.2l17.1,3.6c0.4,0.1,0.7,0.5,0.6,0.9l0,0c-0.1,0.4-0.5,0.7-0.9,0.6l-17-3.6c-0.4-0.1-0.7-0.5-0.6-0.9
	l0,0C139.7,85.4,140.1,85.2,140.5,85.2z"/>
<path class="st0" d="M141,82.8l17,3.6c0.4,0.1,0.7,0.5,0.6,0.9l0,0c-0.1,0.4-0.5,0.7-0.9,0.6l-17-3.6c-0.4-0.1-0.7-0.5-0.6-0.9l0,0
	C140.1,83,140.5,82.7,141,82.8C141,82.8,141,82.8,141,82.8z"/>
<path class="st5" d="M133.4,131.4c-0.1,0-0.1,0-0.2-0.1c-0.3-0.2-8.2-4.3-8.7-15.6c0-0.6,0.4-1,1-1s1,0.4,1,1
	c0.5,10.1,7.6,13.8,7.6,13.9c0.5,0.2,0.7,0.8,0.4,1.3C134.3,131.3,133.9,131.6,133.4,131.4z"/>
<circle class="st5" cx="125.4" cy="113.3" r="0.9"/>
<path class="st0" d="M395,128.9h0.2c2,0.1,3.6,1.7,3.5,3.7c0,0,0,0,0,0l0,0l-7.5-0.2l0,0C391.3,130.4,393,128.9,395,128.9z"/>
<path class="st6" d="M374.4,164.3c-0.3,10.8,8.2,19.9,19.1,20.2c10.8,0.3,19.9-8.2,20.2-19.1c0.2-5.9-2.3-11.6-6.8-15.4
	c-2.5-2.2-3.9-5.4-3.8-8.7l0.1-5c0.1-2.3-1.7-4.1-4-4.2l-8.5-0.2c-2.3,0-4.1,1.7-4.2,4l-0.1,5c-0.1,3.3-1.6,6.4-4.3,8.4
	C377.4,152.9,374.6,158.4,374.4,164.3z"/>
<circle class="st7" cx="394" cy="165.8" r="14.2"/>
<path class="st3" d="M382.7,168.9c-0.1,0-0.3,0-0.4-0.1c-0.4-0.2-0.6-0.7-0.5-1.1l7.9-36.1c0.1-0.5,0.7-0.9,1.2-0.8
	c0.5,0.1,0.9,0.6,0.8,1.2c0,0,0,0,0,0l-7.1,32.5l1.4-1.5c0.2-0.2,0.5-0.3,0.9-0.3c0.3,0,0.6,0.2,0.8,0.5l1.1,2l1.9-1.7
	c0.2-0.2,0.5-0.3,0.8-0.2c0.3,0,0.5,0.2,0.7,0.4l1.1,1.5l1.8-1.9c0.2-0.2,0.5-0.4,0.9-0.3c0.3,0,0.6,0.2,0.8,0.5l0.5,1.1l1.7-1.3
	c0.4-0.3,1.1-0.2,1.4,0.2l1.3,1.6l0.7-0.8c0.2-0.2,0.5-0.4,0.8-0.4c0.3,0,0.6,0.1,0.8,0.4l0.4,0.4l-7.2-32.3
	c-0.1-0.5,0.2-1.1,0.8-1.2c0.5-0.1,1.1,0.2,1.2,0.8c0,0,0,0,0,0l8.2,36.4c0.1,0.5-0.2,1.1-0.8,1.2c-0.4,0.1-0.8-0.1-1-0.3l-2.3-2.8
	l-0.7,0.8c-0.2,0.2-0.5,0.4-0.8,0.4c-0.3,0-0.6-0.2-0.8-0.4l-1.4-1.9l-1.9,1.4c-0.2,0.2-0.5,0.2-0.8,0.2c-0.3-0.1-0.5-0.2-0.7-0.5
	l-0.4-0.9l-1.6,1.7c-0.2,0.2-0.5,0.3-0.8,0.3c-0.3,0-0.6-0.1-0.8-0.4l-1.2-1.5l-2,1.8c-0.2,0.2-0.5,0.3-0.8,0.2
	c-0.3,0-0.6-0.2-0.7-0.5l-1.1-1.9l-3,3.2C383.3,168.8,383,168.9,382.7,168.9z"/>
<path class="st4" d="M391.6,130.7l6.9,0.2c2.7,0.1,4.9,2.4,4.8,5.1l-0.1,5.3l-16.8-0.5l0.1-5.3C386.6,132.8,388.9,130.6,391.6,130.7
	z"/>
<path class="st0" d="M386.2,137.5l17.4,0.5c0.4,0,0.8,0.4,0.8,0.8l0,0c0,0.4-0.4,0.8-0.8,0.8l-17.4-0.5c-0.4,0-0.8-0.4-0.8-0.8l0,0
	C385.4,137.8,385.7,137.5,386.2,137.5C386.2,137.5,386.2,137.5,386.2,137.5z"/>
<path class="st0" d="M386.3,135l17.4,0.5c0.4,0,0.8,0.4,0.8,0.8l0,0c0,0.4-0.4,0.8-0.8,0.8l-17.4-0.5c-0.4,0-0.8-0.4-0.8-0.8l0,0
	C385.5,135.4,385.8,135,386.3,135z"/>
<path class="st0" d="M386.3,132.6l17.4,0.5c0.4,0,0.8,0.4,0.8,0.8l0,0c0,0.4-0.4,0.8-0.8,0.8l-17.4-0.5c-0.4,0-0.8-0.4-0.8-0.8l0,0
	C385.6,132.9,385.9,132.6,386.3,132.6C386.3,132.6,386.3,132.6,386.3,132.6z"/>
<path class="st5" d="M387.6,181.8c-0.1,0-0.1,0-0.2,0c-0.4-0.1-8.8-2.7-11.4-13.8c-0.1-0.5,0.2-1.1,0.7-1.2c0,0,0,0,0,0
	c0.5-0.1,1.1,0.2,1.2,0.8c0,0,0,0,0,0c2.3,9.9,9.9,12.3,10,12.3c0.5,0.2,0.8,0.7,0.7,1.2C388.5,181.6,388,181.8,387.6,181.8z"/>
<circle class="st5" cx="376.5" cy="165.3" r="0.9"/>
<path class="st0" d="M426.3,57h0.2c1.9-0.3,3.6,1,3.9,2.9l0,0l-7.1,1.1l0,0C423.1,59.1,424.4,57.3,426.3,57z"/>
<path class="st8" d="M413.1,93.6c1.5,10.2,11,17.2,21.2,15.7c10.2-1.5,17.2-11,15.7-21.2c-0.8-5.6-4.1-10.4-8.9-13.3
	c-2.7-1.6-4.6-4.4-5-7.5l-0.7-4.7c-0.3-2.1-2.3-3.6-4.4-3.3l-8,1.2c-2.1,0.3-3.6,2.3-3.3,4.4l0.7,4.7c0.5,3.1-0.5,6.3-2.5,8.6
	C414,82.5,412.3,88.1,413.1,93.6z"/>
<circle class="st9" cx="431.7" cy="91.6" r="13.4"/>
<path class="st3" d="M421.6,96.5c-0.1,0-0.2,0-0.3,0c-0.4-0.1-0.7-0.5-0.7-1l1.3-35c0-0.6,0.4-1,1-1s1,0.4,1,1l-1.1,31.3l1-1.5
	c0.2-0.3,0.5-0.4,0.8-0.5c0.3,0,0.6,0.1,0.8,0.4l1.3,1.6l1.4-1.8c0.2-0.2,0.4-0.4,0.7-0.4c0.3,0,0.6,0.1,0.8,0.2l1.3,1.1l1.3-2
	c0.3-0.5,0.9-0.6,1.4-0.3c0.1,0.1,0.2,0.1,0.3,0.2l0.7,0.9l1.3-1.4c0.4-0.4,1-0.4,1.4-0.1l1.4,1.3l0.5-0.8c0.3-0.5,0.9-0.6,1.4-0.4
	c0.1,0,0.1,0.1,0.2,0.1l0.2,0.2l-12.2-28.7c-0.2-0.5,0.1-1.1,0.6-1.3c0.5-0.2,1,0,1.3,0.5l13.8,32.7c0.2,0.4,0,0.9-0.3,1.2
	c-0.4,0.3-0.9,0.3-1.2-0.1l-2.5-2.1l-0.5,0.9c-0.2,0.3-0.4,0.4-0.7,0.5c-0.3,0-0.6,0-0.8-0.2l-1.6-1.4L435,92
	c-0.2,0.2-0.5,0.3-0.8,0.3c-0.3,0-0.6-0.1-0.8-0.4l-0.5-0.7l-1.1,1.8c-0.3,0.5-0.9,0.6-1.4,0.3c0,0-0.1-0.1-0.1-0.1l-1.4-1.2l-1.5,2
	c-0.2,0.2-0.5,0.4-0.8,0.4c-0.3,0-0.6-0.1-0.8-0.4l-1.3-1.5l-2.2,3.4C422.2,96.3,421.9,96.5,421.6,96.5z"/>
<path class="st4" d="M424.6,59.1l4.3-0.7c3.2-0.5,6.2,1.7,6.6,4.9l0.6,3.9l-15.8,2.4l-0.6-3.9C419.2,62.6,421.4,59.6,424.6,59.1
	C424.6,59.1,424.6,59.1,424.6,59.1z"/>
<path class="st0" d="M419.6,66.5L436,64c0.4-0.1,0.8,0.2,0.8,0.6c0,0,0,0,0,0l0,0c0.1,0.4-0.2,0.8-0.6,0.8c0,0,0,0,0,0L419.9,68
	c-0.4,0.1-0.8-0.2-0.8-0.6l0,0C419,67,419.2,66.6,419.6,66.5C419.6,66.5,419.6,66.5,419.6,66.5z"/>
<path class="st0" d="M419.2,64.2l16.3-2.5c0.4-0.1,0.8,0.2,0.9,0.6l0,0c0.1,0.4-0.2,0.8-0.6,0.8l-16.3,2.5c-0.4,0.1-0.8-0.2-0.8-0.6
	c0,0,0,0,0,0l0,0C418.6,64.6,418.8,64.3,419.2,64.2z"/>
<path class="st0" d="M418.9,61.9l16.3-2.5c0.4-0.1,0.8,0.2,0.9,0.6l0,0c0.1,0.4-0.2,0.8-0.6,0.8l-16.4,2.5c-0.4,0.1-0.8-0.2-0.8-0.6
	c0,0,0,0,0,0l0,0C418.2,62.3,418.5,62,418.9,61.9z"/>
<path class="st5" d="M428.3,107.7h-0.1c-0.4,0-8.7-1.1-13-11c-0.2-0.5,0-1.1,0.5-1.3c0.5-0.2,1.1,0,1.3,0.5c0,0,0,0,0,0.1
	c3.8,8.8,11.1,9.7,11.4,9.8c0.6,0,1,0.5,0.9,1.1S428.8,107.7,428.3,107.7L428.3,107.7z"/>
<circle class="st5" cx="415.3" cy="94.2" r="0.8"/>
<path class="st8" d="M173.5,106.3c0.3,10.3,8.8,18.4,19.1,18.2c10.3-0.3,18.4-8.8,18.2-19.1c-0.1-5.6-2.8-10.8-7.2-14.3
	c-2.5-1.9-4-4.9-4-8.1l-0.1-4.7c-0.1-2.2-1.8-3.9-4-3.8l-8.1,0.2c-2.2,0.1-3.8,1.8-3.8,4l0.1,4.8c0.1,3.1-1.2,6.1-3.6,8.2
	C175.8,95.3,173.4,100.7,173.5,106.3z"/>
<circle class="st9" cx="192.1" cy="106.7" r="13.4"/>
<path class="st3" d="M181.5,110.2c-0.1,0-0.2,0-0.3-0.1c-0.4-0.2-0.6-0.6-0.6-1.1l5.6-34.6c0.1-0.6,0.6-0.9,1.2-0.8s0.9,0.6,0.8,1.2
	l-5.1,31l1.1-1.4c0.2-0.2,0.5-0.4,0.8-0.4c0.3,0,0.6,0.2,0.8,0.5l1.1,1.8l1.6-1.6c0.2-0.2,0.5-0.3,0.7-0.3c0.3,0,0.5,0.1,0.7,0.3
	l1.1,1.3l1.5-1.9c0.2-0.2,0.5-0.4,0.8-0.4c0.3,0,0.6,0.2,0.8,0.5l0.6,0.9l1.5-1.3c0.4-0.4,1-0.3,1.4,0.1l1.2,1.4l0.6-0.8
	c0.2-0.2,0.5-0.4,0.8-0.4c0.3,0,0.6,0.1,0.8,0.3l0.2,0.2L193,74.8c-0.1-0.5,0.2-1.1,0.7-1.2c0.5-0.1,1.1,0.2,1.2,0.7l9.6,34.1
	c0.1,0.5-0.2,1.1-0.7,1.2c-0.4,0.1-0.7,0-1-0.3l-2.2-2.5l-0.6,0.8c-0.2,0.2-0.5,0.4-0.8,0.4c-0.3,0-0.6-0.1-0.8-0.4L197,106
	l-1.6,1.4c-0.2,0.2-0.5,0.3-0.8,0.2c-0.3,0-0.5-0.2-0.7-0.5l-0.4-0.7l-1.4,1.7c-0.2,0.2-0.5,0.4-0.8,0.4c-0.3,0-0.6-0.1-0.8-0.3
	l-1.2-1.3l-1.8,1.8c-0.4,0.4-1,0.4-1.4,0c0,0-0.1-0.1-0.1-0.2l-1.1-1.7l-2.6,3.1C182.2,110.1,181.9,110.2,181.5,110.2z"/>
<path class="st4" d="M189.2,73.5l4.3-0.1c3.2-0.1,5.9,2.4,6,5.7c0,0,0,0,0,0l0.1,3.9l-16,0.4l-0.1-3.9
	C183.4,76.3,186,73.6,189.2,73.5C189.2,73.5,189.2,73.5,189.2,73.5z"/>
<path class="st0" d="M183.3,80.2l16.5-0.4c0.4,0,0.8,0.3,0.8,0.7c0,0,0,0,0,0l0,0c0,0.4-0.3,0.7-0.7,0.8l-16.5,0.4
	c-0.4,0-0.7-0.3-0.8-0.7l0,0C182.6,80.6,182.9,80.3,183.3,80.2C183.3,80.2,183.3,80.2,183.3,80.2z"/>
<path class="st0" d="M183.2,77.9l16.5-0.4c0.4,0,0.7,0.3,0.8,0.7l0,0c0,0.4-0.3,0.7-0.7,0.8l-16.5,0.4c-0.4,0-0.7-0.3-0.8-0.7l0,0
	C182.5,78.2,182.8,77.9,183.2,77.9z"/>
<path class="st0" d="M183.2,75.6l16.5-0.4c0.4,0,0.8,0.3,0.8,0.7c0,0,0,0,0,0l0,0c0,0.4-0.3,0.7-0.7,0.8L183.2,77
	c-0.4,0-0.7-0.3-0.8-0.7l0,0C182.5,75.9,182.8,75.6,183.2,75.6z"/>
<path class="st5" d="M186.8,122.2h-0.1c-0.3-0.1-8.5-2.1-11.5-12.5c-0.1-0.5,0.2-1.1,0.8-1.2c0.5-0.1,1,0.2,1.2,0.6
	c2.6,9.2,9.8,11.1,10.1,11.1c0.5,0.1,0.9,0.7,0.7,1.2C187.7,121.9,187.3,122.2,186.8,122.2z"/>
<circle class="st5" cx="175.5" cy="107.1" r="0.8"/>
<path class="st5" d="M570.5,140.6h-0.1c-0.4,0-8.8,0.6-14.8-8.3c-0.3-0.5-0.2-1.1,0.3-1.4c0.5-0.3,1.1-0.2,1.4,0.3
	c5.4,7.9,12.7,7.4,13,7.4c0.6-0.1,1.1,0.3,1.1,0.9S571,140.5,570.5,140.6L570.5,140.6z"/>
<circle class="st5" cx="555.2" cy="129.8" r="0.8"/>
<path class="st0" d="M305.9,75.7h0.2c1.8-0.2,3.4,1,3.7,2.8l0,0l-6.7,0.9l0,0C302.9,77.7,304.1,76,305.9,75.7
	C305.9,75.7,305.9,75.7,305.9,75.7z"/>
<path class="st10" d="M293,110.1c1.3,9.6,10.2,16.3,19.9,15c9.6-1.3,16.3-10.2,15-19.9c-0.7-5.2-3.8-9.9-8.3-12.6
	c-2.5-1.6-4.2-4.2-4.6-7.1l-0.6-4.4c-0.3-2-2.1-3.4-4.2-3.1l-7.6,1.1c-2,0.3-3.4,2.1-3.1,4.1l0.6,4.5c0.4,2.9-0.5,5.9-2.5,8.1
	C293.9,99.6,292.3,104.9,293,110.1z"/>
<circle class="st11" cx="310.5" cy="108.5" r="12.7"/>
<path class="st3" d="M300.9,113c-0.1,0-0.2,0-0.3-0.1c-0.4-0.1-0.7-0.5-0.7-1l1.7-33c0-0.6,0.4-1,1-1c0,0,0,0,0.1,0
	c0.5,0,0.9,0.5,0.9,1l-1.5,29.4l0.8-1.2c0.2-0.3,0.5-0.4,0.8-0.4c0.3,0,0.6,0.1,0.8,0.4l1.2,1.5l1.3-1.7c0.2-0.2,0.4-0.4,0.7-0.4
	c0.3,0,0.5,0.1,0.8,0.3l1.1,1l1.2-1.9c0.2-0.3,0.5-0.4,0.8-0.4c0.3,0,0.6,0.1,0.8,0.4l0.6,0.8l1.2-1.3c0.4-0.4,1-0.4,1.4,0
	c0,0,0,0,0,0l1.2,1.2l0.4-0.7c0.2-0.3,0.4-0.4,0.7-0.5c0.3,0,0.6,0,0.8,0.2l0,0l-11-27c-0.2-0.5,0-1.1,0.5-1.3
	c0.5-0.2,1.1,0,1.3,0.5l12.6,31c0.2,0.5,0,1.1-0.5,1.3c-0.4,0.1-0.8,0.1-1.1-0.2l-2.3-2.1l-0.4,0.8c-0.2,0.3-0.4,0.4-0.7,0.5
	c-0.3,0-0.6-0.1-0.8-0.3l-1.4-1.4l-1.4,1.4c-0.2,0.2-0.5,0.3-0.8,0.3c-0.3,0-0.6-0.2-0.8-0.4l-0.4-0.6l-1.1,1.6
	c-0.2,0.2-0.4,0.4-0.7,0.4c-0.3,0-0.6-0.1-0.8-0.2L308,109l-1.5,1.8c-0.2,0.2-0.5,0.4-0.8,0.4c-0.3,0-0.6-0.2-0.7-0.4l-1.1-1.4
	l-2.1,3.1C301.6,112.9,301.3,113,300.9,113z"/>
<path class="st4" d="M303.9,77.7l4.7-0.6c2.8-0.4,5.4,1.6,5.8,4.4l0.5,4l-15,2.1l-0.5-4C299,80.7,301,78.1,303.9,77.7
	C303.9,77.7,303.9,77.7,303.9,77.7z"/>
<path class="st0" d="M299.4,84.7l15.5-2.1c0.4-0.1,0.7,0.2,0.8,0.6c0,0,0,0,0,0l0,0c0.1,0.4-0.2,0.7-0.6,0.8c0,0,0,0,0,0L299.6,86
	c-0.4,0.1-0.7-0.2-0.8-0.6c0,0,0,0,0,0l0,0C298.8,85.1,299,84.7,299.4,84.7C299.4,84.7,299.4,84.7,299.4,84.7z"/>
<path class="st0" d="M299.1,82.5l15.5-2.1c0.4-0.1,0.7,0.2,0.8,0.6c0,0,0,0,0,0l0,0c0.1,0.4-0.2,0.7-0.6,0.8c0,0,0,0,0,0l-15.5,2.1
	c-0.4,0.1-0.7-0.2-0.8-0.6c0,0,0,0,0,0l0,0C298.5,82.8,298.7,82.5,299.1,82.5z"/>
<path class="st0" d="M298.8,80.3l15.5-2.1c0.4-0.1,0.7,0.2,0.8,0.6c0,0,0,0,0,0l0,0c0.1,0.4-0.2,0.7-0.5,0.8c0,0,0,0,0,0L299,81.6
	c-0.4,0.1-0.7-0.2-0.8-0.6c0,0,0,0,0,0l0,0C298.2,80.7,298.4,80.3,298.8,80.3C298.8,80.3,298.8,80.3,298.8,80.3z"/>
<path class="st5" d="M307.1,123.7H307c-0.3,0-8.3-1.1-12.2-10.6c-0.2-0.5,0-1.1,0.5-1.3c0.5-0.2,1.1,0,1.3,0.5
	c3.5,8.4,10.5,9.3,10.6,9.3c0.6,0,1,0.5,0.9,1.1S307.7,123.7,307.1,123.7L307.1,123.7z"/>
<circle class="st5" cx="295" cy="110.7" r="0.8"/>
<circle class="st5" cx="420.7" cy="193.2" r="0.8"/>
<path class="st0" d="M84.7,53.4h0.2c1.8,0.2,3.1,1.8,2.8,3.6l0,0L81,56.2l0,0C81.3,54.4,82.9,53.1,84.7,53.4z"/>
<path class="st10" d="M63.3,83.3c-1.2,9.6,5.7,18.4,15.3,19.6c9.6,1.2,18.4-5.7,19.6-15.3c0.6-5.2-1.1-10.5-4.8-14.3
	c-2-2.2-3-5.1-2.7-8.1l0.6-4.4c0.2-2-1.2-3.8-3.2-4.1l-7.6-0.9c-2-0.2-3.8,1.2-4.1,3.2l-0.5,4.5c-0.4,2.9-2,5.6-4.5,7.2
	C67,73.3,64,78,63.3,83.3z"/>
<circle class="st11" cx="80.7" cy="86.2" r="12.7"/>
<path class="st3" d="M70.3,88.1c-0.1,0-0.2-0.1-0.3-0.1c-0.4-0.2-0.6-0.7-0.4-1.1l10.1-31.5c0.1-0.5,0.7-0.9,1.2-0.7
	c0.5,0.1,0.9,0.7,0.7,1.2c0,0,0,0.1,0,0.1l-9,28l1.1-1c0.2-0.2,0.6-0.3,0.9-0.2c0.3,0.1,0.6,0.3,0.7,0.6L76,85l1.8-1.2
	c0.2-0.2,0.5-0.2,0.8-0.2c0.3,0,0.5,0.2,0.7,0.4l0.8,1.3l1.6-1.5c0.2-0.2,0.6-0.3,0.9-0.2c0.3,0.1,0.6,0.3,0.7,0.6l0.4,0.9l1.5-1
	c0.5-0.3,1.1-0.2,1.4,0.3c0,0,0,0,0,0l0.9,1.5l0.6-0.6c0.2-0.2,0.5-0.3,0.8-0.3c0.3,0,0.6,0.2,0.7,0.4l0,0l-3.7-29
	c-0.1-0.6,0.3-1.1,0.9-1.1s1.1,0.3,1.1,0.9l4.2,33.2c0.1,0.5-0.3,1.1-0.8,1.1c-0.4,0.1-0.8-0.1-1-0.4l-1.7-2.6L88,88.2
	c-0.4,0.4-1,0.4-1.4,0c-0.1-0.1-0.1-0.1-0.1-0.2l-1-1.7l-1.7,1c-0.5,0.3-1.1,0.1-1.4-0.3c0,0-0.1-0.1-0.1-0.1L82,86.2l-1.4,1.3
	c-0.2,0.2-0.5,0.3-0.8,0.2c-0.3,0-0.6-0.2-0.7-0.4l-0.9-1.4l-1.8,1.4c-0.2,0.2-0.6,0.2-0.8,0.2c-0.3-0.1-0.5-0.3-0.7-0.6L74,85.4
	l-2.8,2.5C70.9,88.1,70.6,88.2,70.3,88.1z"/>
<path class="st4" d="M82.2,54.8l4.7,0.6c2.8,0.3,4.9,2.9,4.5,5.8c0,0,0,0,0,0l-0.5,4l-15-1.8l0.5-4C76.8,56.5,79.4,54.4,82.2,54.8
	C82.2,54.8,82.2,54.8,82.2,54.8z"/>
<path class="st0" d="M76.1,60.3l15.5,1.9c0.4,0,0.6,0.4,0.6,0.8c0,0,0,0,0,0l0,0c0,0.4-0.4,0.6-0.8,0.6c0,0,0,0,0,0l-15.5-1.9
	c-0.4,0-0.7-0.4-0.6-0.8c0,0,0,0,0,0l0,0C75.4,60.5,75.7,60.3,76.1,60.3C76.1,60.3,76.1,60.3,76.1,60.3z"/>
<path class="st0" d="M76.4,58.1L91.9,60c0.4,0,0.6,0.4,0.6,0.7c0,0,0,0,0,0l0,0c0,0.4-0.4,0.6-0.7,0.6c0,0,0,0,0,0l-15.5-1.9
	c-0.4,0-0.6-0.4-0.6-0.7c0,0,0,0,0,0l0,0C75.6,58.3,76,58.1,76.4,58.1C76.3,58.1,76.4,58.1,76.4,58.1z"/>
<path class="st0" d="M76.6,55.9l15.5,1.9c0.4,0,0.7,0.4,0.6,0.8l0,0c0,0.4-0.4,0.7-0.8,0.6c0,0,0,0,0,0l-15.5-1.9
	c-0.4,0-0.6-0.4-0.6-0.7c0,0,0,0,0,0l0,0C75.9,56.1,76.3,55.9,76.6,55.9C76.6,55.9,76.6,55.9,76.6,55.9z"/>
<path class="st5" d="M73.5,100h-0.1c-0.3-0.1-7.7-3.2-9.1-13.3c-0.1-0.6,0.3-1.1,0.9-1.1c0.6-0.1,1.1,0.3,1.1,0.9
	c1.2,9,7.8,11.7,7.8,11.7c0.5,0.2,0.8,0.7,0.6,1.3C74.6,99.9,74.1,100.2,73.5,100L73.5,100z"/>
<circle class="st5" cx="65.1" cy="84.4" r="0.8"/>
<path class="st0" d="M524,16.4l0.2-0.1c1.7-0.6,3.6,0.3,4.2,2l0,0l-6.4,2.2l0,0C521.4,18.8,522.3,17,524,16.4z"/>
<path class="st10" d="M517.9,52.6c3.2,9.2,13.2,14.1,22.4,10.9c9.2-3.2,14.1-13.2,10.9-22.4c-1.7-5-5.6-9-10.6-10.8
	c-2.8-1.1-5-3.3-5.9-6.1l-1.4-4.2c-0.7-1.9-2.8-2.9-4.7-2.2l-7.2,2.5c-1.9,0.7-2.9,2.8-2.3,4.7l1.5,4.3c1,2.8,0.6,5.9-0.9,8.4
	C516.9,42.1,516.2,47.6,517.9,52.6z"/>
<circle class="st11" cx="534.8" cy="47.7" r="12.7"/>
<path class="st3" d="M526.3,53.9c-0.1,0-0.2,0-0.3,0c-0.4-0.1-0.8-0.4-0.9-0.8l-4.7-32.8c-0.1-0.6,0.3-1.1,0.9-1.1
	c0.6-0.1,1.1,0.3,1.1,0.9l4.2,29.1l0.6-1.4c0.1-0.3,0.4-0.5,0.7-0.6c0.3-0.1,0.6,0,0.9,0.2l1.5,1.2l1-1.9c0.1-0.2,0.4-0.4,0.6-0.5
	c0.3-0.1,0.6,0,0.8,0.1l1.3,0.8l0.8-2c0.1-0.3,0.4-0.5,0.7-0.6c0.3-0.1,0.7,0,0.9,0.2l0.7,0.6l1-1.5c0.1-0.2,0.4-0.4,0.6-0.4
	c0.3-0.1,0.5,0,0.8,0.1l1.5,0.9l0.3-0.8c0.1-0.3,0.3-0.5,0.6-0.6c0.3-0.1,0.6-0.1,0.8,0.1l0,0l-16.1-24.4c-0.3-0.5-0.2-1.1,0.3-1.4
	c0.5-0.3,1.1-0.2,1.4,0.3c0,0,0,0,0,0l18.3,28c0.3,0.4,0.2,0.9-0.1,1.2c-0.3,0.3-0.8,0.4-1.2,0.2l-2.7-1.6l-0.3,0.8
	c-0.2,0.5-0.7,0.8-1.3,0.6c-0.1,0-0.1-0.1-0.2-0.1l-1.7-1.1l-1,1.7c-0.2,0.3-0.4,0.4-0.7,0.5c-0.3,0-0.6,0-0.8-0.2l-0.5-0.5
	l-0.7,1.8c-0.2,0.5-0.8,0.8-1.3,0.6c-0.1,0-0.1,0-0.2-0.1l-1.4-0.9l-1.1,2.1c-0.1,0.3-0.4,0.5-0.7,0.5c-0.3,0.1-0.6,0-0.8-0.2
	l-1.4-1.2l-1.5,3.5C526.9,53.6,526.6,53.9,526.3,53.9z"/>
<path class="st4" d="M522.5,18.7l4.5-1.5c2.7-0.9,5.6,0.5,6.6,3.2l1.3,3.8l-14.3,4.9l-1.3-3.8C518.3,22.6,519.8,19.6,522.5,18.7z"/>
<path class="st0" d="M519.4,26.4l14.8-5.1c0.4-0.1,0.7,0.1,0.9,0.4c0,0,0,0,0,0l0,0c0.1,0.4-0.1,0.7-0.4,0.9c0,0,0,0,0,0l-14.8,5.1
	c-0.4,0.1-0.7-0.1-0.9-0.4c0,0,0,0,0,0l0,0C518.8,26.9,519,26.5,519.4,26.4C519.3,26.4,519.4,26.4,519.4,26.4z"/>
<path class="st0" d="M518.7,24.3l14.8-5.1c0.4-0.1,0.7,0.1,0.9,0.4c0,0,0,0,0,0l0,0c0.1,0.4-0.1,0.8-0.4,0.9c0,0,0,0,0,0l-14.8,5.1
	c-0.4,0.1-0.7-0.1-0.9-0.4c0,0,0,0,0,0l0,0C518.1,24.8,518.3,24.4,518.7,24.3C518.6,24.3,518.6,24.3,518.7,24.3z"/>
<path class="st0" d="M517.9,22.2l14.8-5.1c0.4-0.1,0.7,0.1,0.9,0.4c0,0,0,0,0,0l0,0c0.1,0.4-0.1,0.7-0.4,0.9c0,0,0,0,0,0l-14.8,5.1
	c-0.3,0.1-0.7,0-0.9-0.4c0,0,0,0,0,0l0,0C517.4,22.7,517.6,22.3,517.9,22.2C517.9,22.2,517.9,22.2,517.9,22.2z"/>
<path class="st5" d="M534.4,63.2h-0.1c-0.3,0-8.3,0.5-14-8c-0.3-0.5-0.2-1.1,0.3-1.4c0,0,0,0,0,0c0.5-0.3,1.1-0.2,1.4,0.3
	c0,0,0,0,0,0c5,7.5,12.1,7.1,12.2,7.1c0.6,0,1,0.4,1.1,0.9c0,0,0,0,0,0C535.2,62.7,534.9,63.1,534.4,63.2z"/>
<circle class="st5" cx="520" cy="52.8" r="0.8"/>
<path d="M270.8,77.7c-19.3,0-39.1-0.8-59.2-2.4C86.2,65.2-11.9,26.9-12.9,26.5l1.5-3.7c1,0.4,98.6,38.6,223.5,48.5
	c73.3,5.8,141.4,1,202.6-14.5C491,37.5,556.7,1.5,609.7-50.1l2.8,2.9c-53.6,52.1-119.9,88.4-197,107.9
	C370.8,72,322.3,77.7,270.8,77.7z"/>
<path d="M398.8,131c-29.4,0.1-58.7-1.6-87.9-5.1c-71.8-8.6-136.7-28.2-192.9-58.2C22.3,16.5-15.3-48.2-15.6-48.8l3.5-2
	c0.1,0.2,9.4,16.2,30.2,38.4C37.3,7.9,70.6,37.8,120.2,64.3C175.9,94,240.3,113.4,311.6,122c89.2,10.7,189.5,4.3,298.2-18.9l0.8,3.9
	C535.8,123,464.9,131,398.8,131z"/>
</svg>
