<svg id="Layer_1" data-name="Layer 1" xmlns="http://www.w3.org/2000/svg" width="298.87" height="65.02" viewBox="0 0 298.87 65.02"><defs><style>.cls-1{fill:#f2c2c2;}.cls-2{fill:#f5cece;}.cls-3{fill:#ead13f;}.cls-4{fill:#010200;}.cls-5{fill:#333;}.cls-6{fill:#fff;}.cls-7{fill:#d8f2e1;}.cls-8{fill:#e8f7ed;}.cls-9{fill:#bf665e;}.cls-10{fill:#cc857e;}.cls-11{fill:#6564a5;}.cls-12{fill:#8483b7;}</style></defs><title>lygter_onerow</title><path class="cls-1" d="M94,51.92a8.88,8.88,0,1,0,13.31-9,5.09,5.09,0,0,1-2.4-3.57l-.3-2.22a1.86,1.86,0,0,0-2.1-1.56l-3.81.58a1.86,1.86,0,0,0-1.56,2.1l.36,2.26a5.16,5.16,0,0,1-1.22,4.1A8.49,8.49,0,0,0,94,51.92Z"/><circle class="cls-2" cx="102.75" cy="51.01" r="6.4"/><path class="cls-3" d="M98,53.33s-.11,0-.16,0a.48.48,0,0,1-.34-.48l.68-16.65a.59.59,0,0,1,.54-.52.5.5,0,0,1,.46.56h0L98.52,51l.4-.63a.47.47,0,0,1,.41-.22.52.52,0,0,1,.42.2l.62.71.65-.85a.55.55,0,0,1,.71-.1h0l.56.53.57-.94a.47.47,0,0,1,.41-.22.5.5,0,0,1,.42.2l.32.38.59-.69a.57.57,0,0,1,.38-.15.38.38,0,0,1,.36.16L106,50l.21-.38a.58.58,0,0,1,.34-.25.45.45,0,0,1,.4.1h0l-5.69-13.58a.46.46,0,0,1,.29-.66.49.49,0,0,1,.66.29l6.49,15.56a.5.5,0,0,1-.29.65.47.47,0,0,1-.49-.07l-1.18-1-.21.37a.58.58,0,0,1-.34.25.39.39,0,0,1-.41-.15l-.72-.69-.69.71a.38.38,0,0,1-.37.16.45.45,0,0,1-.37-.21l-.24-.3-.51.82a.39.39,0,0,1-.36.2.37.37,0,0,1-.41-.15l-.62-.56-.74.94a.68.68,0,0,1-.41.22.88.88,0,0,1-.4-.15l-.56-.69-1,1.59A.42.42,0,0,1,98,53.33Z"/><path class="cls-4" d="M99.27,35.41l2.37-.34a2.65,2.65,0,0,1,3,2.3l.31,2.06L97.4,40.55l-.31-2.07A2.6,2.6,0,0,1,99.27,35.41Z"/><path class="cls-5" d="M97,39.05l7.78-1.15a.33.33,0,0,1,.39.25h0a.34.34,0,0,1-.26.39h0L97.17,39.7a.34.34,0,0,1-.39-.26h0c0-.2.07-.33.26-.39Z"/><path class="cls-5" d="M96.89,37.94l7.78-1.15a.32.32,0,0,1,.4.3h0a.32.32,0,0,1-.31.4h0L97,38.65a.33.33,0,0,1-.4-.31h0a.46.46,0,0,1,.31-.4Z"/><path class="cls-5" d="M96.76,36.88l7.78-1.15a.32.32,0,0,1,.38.26h0c.06.19-.11.34-.31.39h0l-7.78,1.16a.33.33,0,0,1-.38-.26h0a.32.32,0,0,1,.31-.4Z"/><path class="cls-6" d="M101.15,58.67l-.1,0a8.27,8.27,0,0,1-6.2-5.24.48.48,0,0,1,.29-.65h0a.5.5,0,0,1,.66.29,7.26,7.26,0,0,0,5.35,4.63.51.51,0,0,1,.42.57.35.35,0,0,1-.42.38Z"/><circle class="cls-6" cx="94.98" cy="52.22" r="0.4"/><path class="cls-7" d="M137.57,51.31A8.9,8.9,0,0,0,155,47.78a8.74,8.74,0,0,0-4.64-6.06,4.8,4.8,0,0,1-2.56-3.44l-.45-2.19a1.82,1.82,0,0,0-2.2-1.43l-3.79.78a1.85,1.85,0,0,0-1.45,2.19l.45,2.23a5,5,0,0,1-1,4.14A8.57,8.57,0,0,0,137.57,51.31Z"/><ellipse class="cls-8" cx="146.36" cy="49.92" rx="6.24" ry="6.36" transform="translate(-6.53 26.76) rotate(-10.22)"/><path class="cls-3" d="M141.8,52.43a.16.16,0,0,1-.15,0,.55.55,0,0,1-.37-.46l-.35-16.63a.48.48,0,1,1,.95,0l.28,14.9.38-.74a.57.57,0,0,1,.34-.25.47.47,0,0,1,.41.16l.65.75.6-.88a.47.47,0,0,1,.3-.19.39.39,0,0,1,.34.08l.62.52.52-1a.49.49,0,0,1,.38-.26.5.5,0,0,1,.41.17l.35.37.58-.73a.45.45,0,0,1,.65-.07l.67.6.21-.42a.57.57,0,0,1,.34-.25.49.49,0,0,1,.39.07l.11.08L144,34.92a.5.5,0,0,1,.22-.62.47.47,0,0,1,.61.23l7.27,15.13a.49.49,0,0,1-.22.62.43.43,0,0,1-.48-.06l-1.22-1-.21.42a.52.52,0,0,1-.33.25.39.39,0,0,1-.4-.12l-.78-.63-.61.79a.36.36,0,0,1-.35.16.41.41,0,0,1-.36-.18l-.25-.29-.46.85a.52.52,0,0,1-.33.25.48.48,0,0,1-.39-.07l-.67-.56-.67,1a.45.45,0,0,1-.64.12.18.18,0,0,1-.07-.09l-.64-.65-.93,1.66A.24.24,0,0,1,141.8,52.43Z"/><path class="cls-4" d="M142.07,34.38l2-.42a2.89,2.89,0,0,1,3.33,2.33h0l.4,1.93-7.47,1.55-.4-1.93a2.88,2.88,0,0,1,2.14-3.46Z"/><path class="cls-5" d="M140.1,38.32l7.53-1.55a.36.36,0,0,1,.43.26h0a.4.4,0,0,1-.26.43L140.27,39a.39.39,0,0,1-.42-.26h0a.29.29,0,0,1,.25-.43Z"/><path class="cls-5" d="M139.85,37.2l7.53-1.54a.39.39,0,0,1,.43.26h0a.41.41,0,0,1-.26.43L140,37.9a.41.41,0,0,1-.43-.26h0a.38.38,0,0,1,.25-.44Z"/><path class="cls-5" d="M139.55,36.14l7.52-1.55a.39.39,0,0,1,.43.26h0a.41.41,0,0,1-.26.43l-7.52,1.55a.4.4,0,0,1-.43-.26h0a.36.36,0,0,1,.26-.43Z"/><path class="cls-6" d="M145.19,57.61h-.05a8.13,8.13,0,0,1-6.32-4.89.48.48,0,0,1,.27-.63.53.53,0,0,1,.6.18,7.13,7.13,0,0,0,5.56,4.35.45.45,0,0,1,.42.5A.61.61,0,0,1,145.19,57.61Z"/><ellipse class="cls-6" cx="138.79" cy="51.53" rx="0.37" ry="0.38" transform="translate(-6.94 25.44) rotate(-10.22)"/><path d="M99.29,37.78c-19.3,0-39.1-.8-59.2-2.4-125.4-10.1-223.5-48.4-224.5-48.8l1.5-3.7c1,.4,98.6,38.6,223.5,48.5,73.3,5.8,141.4,1,202.6-14.5,76.3-19.3,142-55.3,195-106.9l2.8,2.9C387.39-35,321.09,1.28,244,20.78,199.29,32.08,150.79,37.78,99.29,37.78Z"/><path class="cls-7" d="M207.12,42.59a8.9,8.9,0,0,0,17.44-3.53A8.7,8.7,0,0,0,219.92,33a4.82,4.82,0,0,1-2.56-3.45l-.45-2.18a1.83,1.83,0,0,0-2.2-1.44l-3.79.78a1.85,1.85,0,0,0-1.45,2.19l.45,2.23a5,5,0,0,1-1,4.14A8.59,8.59,0,0,0,207.12,42.59Z"/><ellipse class="cls-8" cx="215.91" cy="41.19" rx="6.24" ry="6.36" transform="translate(-3.88 38.96) rotate(-10.22)"/><path class="cls-3" d="M211.35,43.7a.16.16,0,0,1-.15,0,.55.55,0,0,1-.37-.46l-.35-16.62a.46.46,0,0,1,.49-.48.46.46,0,0,1,.46.5l.28,14.9.38-.75a.57.57,0,0,1,.34-.25.49.49,0,0,1,.41.17l.65.75.6-.88a.49.49,0,0,1,.3-.2.46.46,0,0,1,.34.08l.62.52.52-1a.45.45,0,0,1,.38-.26.47.47,0,0,1,.41.16l.35.37.58-.73a.45.45,0,0,1,.65-.07l.67.61.21-.43a.57.57,0,0,1,.34-.25.53.53,0,0,1,.39.07l.11.08-6.43-13.31a.5.5,0,0,1,.22-.62.47.47,0,0,1,.61.23l7.27,15.13a.49.49,0,0,1-.22.62.43.43,0,0,1-.48-.06l-1.22-1-.21.42a.57.57,0,0,1-.33.26.42.42,0,0,1-.4-.13l-.78-.63-.61.79a.36.36,0,0,1-.35.16.39.39,0,0,1-.36-.18l-.25-.29-.46.85a.57.57,0,0,1-.33.26.53.53,0,0,1-.39-.08l-.67-.55-.67,1a.44.44,0,0,1-.64.11s-.06,0-.07-.08l-.64-.66-.93,1.66A.24.24,0,0,1,211.35,43.7Z"/><path class="cls-4" d="M211.62,25.65l2-.41A2.88,2.88,0,0,1,217,27.56h0l.4,1.93-7.47,1.56-.4-1.93a2.88,2.88,0,0,1,2.14-3.47Z"/><path class="cls-5" d="M209.65,29.59,217.18,28a.37.37,0,0,1,.43.26h0a.4.4,0,0,1-.26.43l-7.53,1.55a.38.38,0,0,1-.42-.26h0a.29.29,0,0,1,.25-.43Z"/><path class="cls-5" d="M209.4,28.48l7.53-1.55a.39.39,0,0,1,.43.26h0a.4.4,0,0,1-.26.43l-7.52,1.55a.4.4,0,0,1-.43-.26h0a.36.36,0,0,1,.25-.43Z"/><path class="cls-5" d="M209.1,27.41l7.52-1.55a.4.4,0,0,1,.43.26h0a.4.4,0,0,1-.26.43l-7.52,1.55a.4.4,0,0,1-.43-.26h0a.36.36,0,0,1,.26-.43Z"/><path class="cls-6" d="M214.74,48.88h-.05c-.14,0-4.07-.28-6.32-4.89a.48.48,0,0,1,.27-.63.54.54,0,0,1,.6.18,7.16,7.16,0,0,0,5.56,4.36.44.44,0,0,1,.42.5A.6.6,0,0,1,214.74,48.88Z"/><ellipse class="cls-6" cx="208.34" cy="42.8" rx="0.37" ry="0.38" transform="translate(-4.29 37.64) rotate(-10.22)"/><path class="cls-7" d="M56.21,51.39a8.9,8.9,0,0,0,17.79.1,8.71,8.71,0,0,0-3.31-6.88,4.82,4.82,0,0,1-1.81-3.89V38.48A1.83,1.83,0,0,0,67,36.63H63.15a1.86,1.86,0,0,0-1.86,1.85l0,2.28a4.93,4.93,0,0,1-1.82,3.84A8.56,8.56,0,0,0,56.21,51.39Z"/><ellipse class="cls-8" cx="65.09" cy="51.82" rx="6.36" ry="6.24" transform="translate(11.54 115.5) rotate(-88.46)"/><path class="cls-3" d="M60.11,53.35A.22.22,0,0,1,60,53.3a.55.55,0,0,1-.26-.53l3-16.35a.44.44,0,0,1,.56-.36.45.45,0,0,1,.36.58L60.91,51.28l.53-.65a.62.62,0,0,1,.38-.18.46.46,0,0,1,.37.25l.49.86.76-.73a.5.5,0,0,1,.33-.14.46.46,0,0,1,.32.15l.5.63.72-.88a.46.46,0,0,1,.42-.18.49.49,0,0,1,.37.25l.27.43.71-.59a.45.45,0,0,1,.65.06l.54.73.29-.37a.53.53,0,0,1,.38-.18.5.5,0,0,1,.37.15l.09.1L65.82,36.65a.51.51,0,0,1,.34-.57.48.48,0,0,1,.55.35l4,16.3a.49.49,0,0,1-.34.56.45.45,0,0,1-.46-.15l-1-1.22-.29.37a.49.49,0,0,1-.37.18.41.41,0,0,1-.37-.2l-.63-.77-.76.64a.38.38,0,0,1-.38.09c-.14,0-.23-.1-.32-.25l-.18-.34-.62.75a.62.62,0,0,1-.38.18.55.55,0,0,1-.37-.16l-.54-.67-.86.83a.45.45,0,0,1-.65,0,.13.13,0,0,1,0-.1l-.5-.77-1.25,1.44A.25.25,0,0,1,60.11,53.35Z"/><path class="cls-4" d="M64.06,35.73h2a2.89,2.89,0,0,1,2.78,3h0v2H61.25v-2a2.87,2.87,0,0,1,2.8-3Z"/><path class="cls-5" d="M61.33,39.18l7.69,0a.37.37,0,0,1,.36.34h0a.4.4,0,0,1-.34.37H61.36a.41.41,0,0,1-.37-.35h0c0-.23.11-.37.34-.37Z"/><path class="cls-5" d="M61.31,38l7.69,0a.39.39,0,0,1,.36.34h0a.39.39,0,0,1-.33.37H61.34a.4.4,0,0,1-.36-.35h0a.36.36,0,0,1,.33-.37Z"/><path class="cls-5" d="M61.23,36.93l7.68,0a.4.4,0,0,1,.37.34h0a.4.4,0,0,1-.34.37H61.26a.41.41,0,0,1-.37-.34h0a.38.38,0,0,1,.34-.38Z"/><path class="cls-6" d="M62.38,59.11h-.05c-.14-.05-3.93-1.1-5.19-6.07a.48.48,0,0,1,.39-.56.54.54,0,0,1,.55.3,7.12,7.12,0,0,0,4.56,5.39.46.46,0,0,1,.31.58A.62.62,0,0,1,62.38,59.11Z"/><ellipse class="cls-6" cx="57.36" cy="51.85" rx="0.38" ry="0.37" transform="translate(3.99 107.8) rotate(-88.46)"/><path class="cls-1" d="M249.08,33.84a8.88,8.88,0,1,0,13.31-9,5.09,5.09,0,0,1-2.4-3.58l-.3-2.21a1.86,1.86,0,0,0-2.1-1.56l-3.82.58a1.87,1.87,0,0,0-1.56,2.1l.36,2.25a5.1,5.1,0,0,1-1.22,4.1A8.5,8.5,0,0,0,249.08,33.84Z"/><circle class="cls-2" cx="257.87" cy="32.93" r="6.4"/><path class="cls-3" d="M253.07,35.25s-.11,0-.16,0a.48.48,0,0,1-.34-.48l.68-16.65a.58.58,0,0,1,.54-.52.5.5,0,0,1,.46.55h0L253.64,33l.4-.64a.48.48,0,0,1,.41-.21.51.51,0,0,1,.42.19l.61.72.66-.86a.54.54,0,0,1,.7-.09h0l.56.53.58-1a.48.48,0,0,1,.41-.21.51.51,0,0,1,.42.19l.32.39.59-.69a.52.52,0,0,1,.38-.16.37.37,0,0,1,.35.17l.64.6.21-.37a.6.6,0,0,1,.35-.25.42.42,0,0,1,.39.1h0l-5.68-13.59a.45.45,0,0,1,.29-.65.48.48,0,0,1,.65.29L263.8,33a.51.51,0,0,1-.29.65.49.49,0,0,1-.49-.07l-1.18-1-.21.37a.55.55,0,0,1-.35.26.39.39,0,0,1-.41-.15l-.71-.69-.69.71a.41.41,0,0,1-.38.16.48.48,0,0,1-.37-.21l-.24-.3-.5.82a.51.51,0,0,1-.77,0l-.63-.56-.73.94c-.07.12-.27.17-.41.21A.84.84,0,0,1,255,34l-.55-.69-1,1.59A.41.41,0,0,1,253.07,35.25Z"/><path class="cls-4" d="M254.39,17.32l2.37-.33a2.64,2.64,0,0,1,3,2.3l.31,2.06-7.53,1.11-.31-2.06A2.61,2.61,0,0,1,254.39,17.32Z"/><path class="cls-5" d="M252.16,21l7.78-1.16a.34.34,0,0,1,.38.26h0a.33.33,0,0,1-.25.39h0l-7.79,1.15a.32.32,0,0,1-.38-.26h0c-.06-.19.06-.33.26-.38Z"/><path class="cls-5" d="M252,19.86l7.78-1.16a.33.33,0,0,1,.4.31h0a.32.32,0,0,1-.31.4h0l-7.78,1.16a.33.33,0,0,1-.4-.31h0a.43.43,0,0,1,.31-.4Z"/><path class="cls-5" d="M251.87,18.8l7.78-1.16a.34.34,0,0,1,.39.26h0c0,.2-.11.35-.31.4h0L252,19.46a.35.35,0,0,1-.39-.26h0a.33.33,0,0,1,.31-.4Z"/><path class="cls-6" d="M256.27,40.58l-.1,0a8.24,8.24,0,0,1-6.2-5.24.47.47,0,0,1,.29-.65h0a.49.49,0,0,1,.65.29,7.27,7.27,0,0,0,5.36,4.63.51.51,0,0,1,.42.57.34.34,0,0,1-.42.37Z"/><circle class="cls-6" cx="250.1" cy="34.13" r="0.4"/><path class="cls-9" d="M19.17,47.8a8.88,8.88,0,1,0,14.58-6.69A5.11,5.11,0,0,1,32,37.2L32,35a1.87,1.87,0,0,0-1.83-1.88l-3.85,0a1.87,1.87,0,0,0-1.88,1.82v2.28A5.13,5.13,0,0,1,22.59,41,8.48,8.48,0,0,0,19.17,47.8Z"/><circle class="cls-10" cx="27.99" cy="48.32" r="6.4"/><path class="cls-3" d="M22.88,49.83c-.05,0-.1,0-.15,0a.48.48,0,0,1-.26-.53l3.36-16.33a.57.57,0,0,1,.61-.42.51.51,0,0,1,.38.62h0l-3,14.51.49-.56a.5.5,0,0,1,.44-.15.56.56,0,0,1,.39.27l.49.8.78-.74a.53.53,0,0,1,.71,0h0l.47.6.72-.83a.48.48,0,0,1,.44-.15.54.54,0,0,1,.39.26l.25.43.69-.58a.52.52,0,0,1,.4-.09.4.4,0,0,1,.33.21l.53.71.27-.34a.56.56,0,0,1,.38-.19.42.42,0,0,1,.37.16h0L29,33.17a.45.45,0,0,1,.39-.6.48.48,0,0,1,.6.39l3.89,16.4a.5.5,0,0,1-.39.6.48.48,0,0,1-.47-.15L32,48.6l-.26.33a.56.56,0,0,1-.39.19.37.37,0,0,1-.38-.21l-.59-.8-.8.6a.39.39,0,0,1-.39.09.42.42,0,0,1-.33-.27l-.19-.33-.63.72a.41.41,0,0,1-.39.15.39.39,0,0,1-.38-.22l-.53-.65-.87.81a.65.65,0,0,1-.44.14.83.83,0,0,1-.38-.21l-.44-.76-1.27,1.4A.4.4,0,0,1,22.88,49.83Z"/><path class="cls-4" d="M27.09,32.35l2.38.06a2.65,2.65,0,0,1,2.58,2.75l0,2.08-7.61-.12,0-2.08A2.62,2.62,0,0,1,27.09,32.35Z"/><path class="cls-5" d="M24.29,35.59l7.87.12a.34.34,0,0,1,.34.32h0a.32.32,0,0,1-.32.33h0l-7.87-.11a.34.34,0,0,1-.34-.32h0c0-.2.12-.32.32-.34Z"/><path class="cls-5" d="M24.32,34.47l7.87.12a.32.32,0,0,1,.34.37h0a.31.31,0,0,1-.36.34h0l-7.87-.11a.32.32,0,0,1-.34-.37h0a.44.44,0,0,1,.36-.35Z"/><path class="cls-5" d="M24.36,33.41l7.87.11a.34.34,0,0,1,.34.32h0c0,.2-.17.32-.37.34h0l-7.87-.11a.34.34,0,0,1-.34-.32h0a.32.32,0,0,1,.37-.34Z"/><path class="cls-6" d="M25.18,55.61h-.1a8.23,8.23,0,0,1-5.28-6.17.48.48,0,0,1,.4-.6h0a.5.5,0,0,1,.59.39,7.27,7.27,0,0,0,4.54,5.44.5.5,0,0,1,.32.63.34.34,0,0,1-.47.3Z"/><circle class="cls-6" cx="20.13" cy="48.25" r="0.4"/><path class="cls-5" d="M177.44,31.44h.13a1.55,1.55,0,0,1,1.87,1.17h0l-3.16.76h0A1.64,1.64,0,0,1,177.44,31.44Z"/><path class="cls-11" d="M172.82,48.46a8.45,8.45,0,1,0,11.93-9.54,4.63,4.63,0,0,1-2.53-3.2l-.51-2.09a1.78,1.78,0,0,0-2.14-1.3l-3.56.85a1.78,1.78,0,0,0-1.31,2.14l.51,2.09a4.74,4.74,0,0,1-.83,4A8.42,8.42,0,0,0,172.82,48.46Z"/><circle class="cls-12" cx="181.17" cy="46.87" r="6.07"/><path class="cls-3" d="M176.78,49.41a.39.39,0,0,1-.47-.36v0l-.72-15.86a.42.42,0,1,1,.84,0L177,47.44l.41-.81a.38.38,0,0,1,.32-.2.38.38,0,0,1,.35.12l.72.72.61-.92a.71.71,0,0,1,.27-.2.36.36,0,0,1,.3.09l.65.47.51-1a.42.42,0,0,1,.67-.08l.38.38.59-.75a.4.4,0,0,1,.58-.07l.7.55.2-.4a.41.41,0,0,1,.57-.2s0,0,.09,0l.23.14-6.63-12.66a.44.44,0,0,1,.18-.57.45.45,0,0,1,.58.18l7.45,14.26a.43.43,0,0,1-.11.52.38.38,0,0,1-.5,0l-1.25-.9-.2.44a.41.41,0,0,1-.57.2s0,0-.09,0l-.79-.62-.62.79a.41.41,0,0,1-.58.07L182,47l-.29-.3-.48.9c-.08.09-.15.19-.27.2a.46.46,0,0,1-.35-.08l-.7-.51-.64,1a.4.4,0,0,1-.58.11,0,0,0,0,1,0,0l-.68-.68-.89,1.67A.5.5,0,0,1,176.78,49.41Z"/><path class="cls-4" d="M176.68,32.46l2-.49a2.54,2.54,0,0,1,3.1,1.91l.42,1.76-7.05,1.69-.43-1.76a2.65,2.65,0,0,1,2-3.11Z"/><path class="cls-5" d="M174.74,36l7.3-1.72a.32.32,0,0,1,.41.24h0a.32.32,0,0,1-.24.41h0l-7.31,1.72a.41.41,0,0,1-.41-.24h0a.4.4,0,0,1,.25-.41Z"/><path class="cls-5" d="M174.53,35l7.31-1.72c.16-.06.34.08.41.24h0a.4.4,0,0,1-.25.41l-7.3,1.72a.31.31,0,0,1-.41-.24h0a.32.32,0,0,1,.24-.41Z"/><path class="cls-5" d="M174.28,33.93l7.31-1.72a.42.42,0,0,1,.41.25h0c.06.16-.09.35-.25.41l-7.3,1.72a.36.36,0,0,1-.41-.25h0a.33.33,0,0,1,.24-.41Z"/><path class="cls-6" d="M180.22,54.23h-.08a7.73,7.73,0,0,1-6.23-4.48.43.43,0,0,1,.18-.57.44.44,0,0,1,.57.18,7,7,0,0,0,5.55,4,.38.38,0,0,1,.43.41.43.43,0,0,1-.42.43Z"/><circle class="cls-6" cx="173.82" cy="48.67" r="0.38"/></svg>
