<svg id="Layer_1" data-name="Layer 1" xmlns="http://www.w3.org/2000/svg" width="298.87" height="65.02" viewBox="0 0 298.87 65.02"><defs><style>.cls-1{fill:#f2c2c2;}.cls-2{fill:#f5cece;}.cls-3{fill:#ead13f;}.cls-4{fill:#010200;}.cls-5{fill:#333;}.cls-6{fill:#fff;}.cls-7{fill:#d8f2e1;}.cls-8{fill:#e8f7ed;}.cls-9{fill:#bf665e;}.cls-10{fill:#cc857e;}.cls-11{fill:#6564a5;}.cls-12{fill:#8483b7;}</style></defs><title>lygter_onrow_2</title><path class="cls-1" d="M142.18,36.31a8.88,8.88,0,1,0,13.31-9,5.12,5.12,0,0,1-2.4-3.57l-.3-2.22a1.85,1.85,0,0,0-2.1-1.56l-3.81.58a1.86,1.86,0,0,0-1.56,2.1l.36,2.26a5.15,5.15,0,0,1-1.22,4.1A8.49,8.49,0,0,0,142.18,36.31Z"/><circle class="cls-2" cx="150.93" cy="35.4" r="6.4"/><path class="cls-3" d="M146.18,37.72H146a.48.48,0,0,1-.34-.48l.68-16.65a.6.6,0,0,1,.54-.52.49.49,0,0,1,.46.53v0h0l-.66,14.76.4-.63a.47.47,0,0,1,.41-.22.49.49,0,0,1,.42.2l.62.71.65-.85a.54.54,0,0,1,.71-.1h0l.56.53.57-.94a.47.47,0,0,1,.41-.22.49.49,0,0,1,.42.2l.32.38.59-.69a.55.55,0,0,1,.38-.15.37.37,0,0,1,.36.16l.66.62.21-.38a.53.53,0,0,1,.34-.25.42.42,0,0,1,.4.1h0l-5.69-13.58a.46.46,0,0,1,.19-.62l.1,0a.49.49,0,0,1,.65.25s0,0,0,0l6.49,15.56a.49.49,0,0,1-.28.64h0a.49.49,0,0,1-.49-.07l-1.18-1-.21.37a.61.61,0,0,1-.34.25.39.39,0,0,1-.41-.15l-.72-.69-.69.71a.38.38,0,0,1-.37.16.49.49,0,0,1-.37-.21l-.24-.3-.51.82a.4.4,0,0,1-.36.2.39.39,0,0,1-.41-.15l-.62-.56-.74.94a.69.69,0,0,1-.41.22,1,1,0,0,1-.4-.15l-.56-.69-1,1.59A.42.42,0,0,1,146.18,37.72Z"/><path class="cls-4" d="M147.45,19.8l2.37-.34a2.65,2.65,0,0,1,3,2.25v.05l.31,2.06-7.55,1.12-.31-2.07a2.6,2.6,0,0,1,2.06-3.05Z"/><path class="cls-5" d="M145.18,23.44,153,22.29a.32.32,0,0,1,.39.25h0a.34.34,0,0,1-.26.39h0l-7.74,1.16a.35.35,0,0,1-.39-.26h0a.35.35,0,0,1,.26-.39Z"/><path class="cls-5" d="M145.07,22.33l7.78-1.15a.32.32,0,0,1,.39.23.15.15,0,0,1,0,.07h0a.32.32,0,0,1-.23.39h-.08L145.18,23a.33.33,0,0,1-.39-.26.43.43,0,0,1,0-.05h0a.47.47,0,0,1,.31-.4Z"/><path class="cls-5" d="M144.94,21.27l7.78-1.15a.31.31,0,0,1,.38.25h0c.06.19-.11.34-.31.39h0L145,21.93a.34.34,0,0,1-.38-.26h0a.32.32,0,0,1,.23-.39Z"/><path class="cls-6" d="M149.33,43.06h-.1a8.29,8.29,0,0,1-6.2-5.24.5.5,0,0,1,.25-.64h0a.5.5,0,0,1,.66.27v0a7.28,7.28,0,0,0,5.35,4.63.5.5,0,0,1,.42.57.35.35,0,0,1-.31.38h-.11Z"/><circle class="cls-6" cx="143.16" cy="36.61" r="0.4"/><path class="cls-7" d="M185.75,35.7a8.9,8.9,0,0,0,17.43-3.53,8.69,8.69,0,0,0-4.64-6.06A4.84,4.84,0,0,1,196,22.67l-.45-2.19A1.82,1.82,0,0,0,193.4,19l-.07,0-3.79.78A1.84,1.84,0,0,0,188.09,22v0l.45,2.23a5,5,0,0,1-1,4.14A8.58,8.58,0,0,0,185.75,35.7Z"/><ellipse class="cls-8" cx="194.55" cy="34.31" rx="6.24" ry="6.36" transform="translate(-3 35.06) rotate(-10.22)"/><path class="cls-3" d="M190,36.82a.19.19,0,0,1-.15,0,.57.57,0,0,1-.37-.46l-.35-16.63a.48.48,0,1,1,.95-.14.33.33,0,0,1,0,.14l.28,14.9.38-.74a.53.53,0,0,1,.34-.25.45.45,0,0,1,.41.16l.65.75.6-.88a.46.46,0,0,1,.3-.19.38.38,0,0,1,.34.08l.62.52.52-1a.49.49,0,0,1,.38-.26.49.49,0,0,1,.41.17l.35.37.58-.73a.45.45,0,0,1,.63-.09l0,0,.67.6.21-.42a.53.53,0,0,1,.34-.25.45.45,0,0,1,.39.07l.11.08-6.41-13.33a.5.5,0,0,1,.22-.62.47.47,0,0,1,.61.23l7.27,15.13a.49.49,0,0,1-.22.62.45.45,0,0,1-.48-.06l-1.22-1-.21.42a.56.56,0,0,1-.33.25.4.4,0,0,1-.4-.12l-.78-.63-.61.79a.36.36,0,0,1-.35.16.43.43,0,0,1-.36-.18l-.25-.29-.46.85a.56.56,0,0,1-.33.25.5.5,0,0,1-.39-.07l-.67-.56-.67,1a.45.45,0,0,1-.62.13h0a.31.31,0,0,1-.07-.09l-.64-.65-.93,1.66a.23.23,0,0,1-.16.29A.2.2,0,0,1,190,36.82Z"/><path class="cls-4" d="M190.25,18.77l2-.42a2.88,2.88,0,0,1,3.33,2.33h0l.4,1.93-7.47,1.55-.4-1.93A2.88,2.88,0,0,1,190.25,18.77Z"/><path class="cls-5" d="M188.28,22.71l7.53-1.55a.36.36,0,0,1,.43.26h0a.4.4,0,0,1-.26.43l-7.53,1.54a.4.4,0,0,1-.42-.26h0a.31.31,0,0,1,.12-.4.28.28,0,0,1,.13,0Z"/><path class="cls-5" d="M188,21.59l7.53-1.54a.39.39,0,0,1,.43.26h0a.41.41,0,0,1-.26.43l-7.55,1.55a.42.42,0,0,1-.43-.26h0a.38.38,0,0,1,.25-.44Z"/><path class="cls-5" d="M187.73,20.53,195.25,19a.39.39,0,0,1,.43.26h0a.41.41,0,0,1-.26.43l-7.52,1.55a.42.42,0,0,1-.43-.26h0A.36.36,0,0,1,187.73,20.53Z"/><path class="cls-6" d="M193.37,42h-.05A8.14,8.14,0,0,1,187,37.11a.49.49,0,0,1,.26-.63h0a.52.52,0,0,1,.6.18A7.15,7.15,0,0,0,193.43,41a.44.44,0,0,1,.42.47v0A.61.61,0,0,1,193.37,42Z"/><ellipse class="cls-6" cx="186.97" cy="35.91" rx="0.37" ry="0.38" transform="translate(-3.41 33.74) rotate(-10.22)"/><path d="M147.47,22.17c-19.3,0-39.1-.8-59.2-2.4-125.4-10.1-223.5-48.4-224.5-48.8l1.5-3.7c1,.4,98.6,38.6,223.5,48.5,73.3,5.8,141.4,1,202.6-14.5,76.3-19.3,142-55.3,195-106.9l2.8,2.9c-53.6,52.12-119.9,88.4-197,107.9C247.47,16.47,199,22.17,147.47,22.17Z"/><path class="cls-7" d="M255.3,27a8.9,8.9,0,0,0,17.44-3.53,8.67,8.67,0,0,0-4.64-6.06,4.87,4.87,0,0,1-2.56-3.45l-.45-2.18A1.83,1.83,0,0,0,263,10.3l-.06,0-3.79.78a1.84,1.84,0,0,0-1.45,2.17v0l.45,2.23a5,5,0,0,1-1,4.14A8.6,8.6,0,0,0,255.3,27Z"/><ellipse class="cls-8" cx="264.1" cy="25.57" rx="6.24" ry="6.36" transform="matrix(0.98, -0.18, 0.18, 0.98, -0.35, 47.26)"/><path class="cls-3" d="M259.53,28.09a.19.19,0,0,1-.15,0,.57.57,0,0,1-.37-.46L258.66,11a.46.46,0,0,1,.44-.48h0a.45.45,0,0,1,.46.46v0l.28,14.9.38-.75a.53.53,0,0,1,.34-.25.49.49,0,0,1,.41.17l.65.75.6-.88a.44.44,0,0,1,.3-.2.46.46,0,0,1,.34.08l.62.52.52-1a.48.48,0,0,1,.79-.1l.35.37.58-.73a.45.45,0,0,1,.63-.09l0,0,.67.61.21-.43a.53.53,0,0,1,.34-.25.48.48,0,0,1,.39.07l.11.08-6.43-13.31a.5.5,0,0,1,.22-.62.47.47,0,0,1,.61.23l7.27,15.13a.49.49,0,0,1-.22.62.45.45,0,0,1-.48-.06l-1.22-1-.21.42a.57.57,0,0,1-.33.26.43.43,0,0,1-.4-.13l-.78-.63-.61.79a.36.36,0,0,1-.35.16.4.4,0,0,1-.36-.18l-.25-.29-.46.85a.57.57,0,0,1-.33.26.6.6,0,0,1-.39-.08l-.67-.55-.67,1a.45.45,0,0,1-.61.13l0,0s-.06,0-.07-.08l-.64-.66-.93,1.66a.24.24,0,0,1-.2.27Z"/><path class="cls-4" d="M259.8,10l2-.41a2.89,2.89,0,0,1,3.38,2.28v0h0l.4,1.93-7.47,1.56-.4-1.93A2.88,2.88,0,0,1,259.85,10h-.05Z"/><path class="cls-5" d="M257.83,14l7.53-1.59a.36.36,0,0,1,.43.26h0a.4.4,0,0,1-.26.43L258,14.63a.38.38,0,0,1-.42-.26h0a.31.31,0,0,1,.12-.4.28.28,0,0,1,.13,0Z"/><path class="cls-5" d="M257.58,12.87l7.53-1.55a.39.39,0,0,1,.43.26h0a.4.4,0,0,1-.26.43l-7.52,1.55a.42.42,0,0,1-.43-.26h0A.37.37,0,0,1,257.58,12.87Z"/><path class="cls-5" d="M257.28,11.8l7.52-1.55a.39.39,0,0,1,.43.26h0a.4.4,0,0,1-.26.43l-7.52,1.55a.42.42,0,0,1-.43-.26h0A.36.36,0,0,1,257.28,11.8Z"/><path class="cls-6" d="M262.92,33.27h-.05c-.14,0-4.07-.28-6.32-4.89a.49.49,0,0,1,.26-.63h0a.53.53,0,0,1,.6.18A7.18,7.18,0,0,0,263,32.29a.44.44,0,0,1,.43.45s0,0,0,0A.6.6,0,0,1,262.92,33.27Z"/><ellipse class="cls-6" cx="256.52" cy="27.18" rx="0.37" ry="0.38" transform="translate(-0.75 45.95) rotate(-10.22)"/><path class="cls-7" d="M104.39,35.78a8.9,8.9,0,0,0,17.79.1A8.67,8.67,0,0,0,118.87,29a4.81,4.81,0,0,1-1.81-3.89V22.87A1.83,1.83,0,0,0,115.25,21h-3.92a1.86,1.86,0,0,0-1.86,1.85v2.28A4.9,4.9,0,0,1,107.65,29,8.54,8.54,0,0,0,104.39,35.78Z"/><ellipse class="cls-8" cx="113.27" cy="36.21" rx="6.36" ry="6.24" transform="translate(74.03 148.47) rotate(-88.46)"/><path class="cls-3" d="M108.29,37.74l-.11-.05a.56.56,0,0,1-.26-.53l3-16.35a.45.45,0,0,1,.5-.38l.06,0a.45.45,0,0,1,.38.51s0,.05,0,.07l-2.75,14.64.53-.65a.57.57,0,0,1,.38-.18.45.45,0,0,1,.37.25l.49.86.76-.73a.47.47,0,0,1,.33-.14.44.44,0,0,1,.32.15l.5.63.72-.88a.46.46,0,0,1,.42-.18.47.47,0,0,1,.37.25l.27.43.71-.59a.45.45,0,0,1,.64,0v0l.54.73.29-.37a.53.53,0,0,1,.38-.18.46.46,0,0,1,.37.15l.09.1L114,21a.51.51,0,0,1,.34-.57.47.47,0,0,1,.55.35l4,16.3a.49.49,0,0,1-.34.56.47.47,0,0,1-.46-.15l-1-1.22-.29.37a.51.51,0,0,1-.37.18.43.43,0,0,1-.37-.2l-.63-.77-.76.64a.4.4,0,0,1-.38.09c-.14,0-.23-.1-.32-.25l-.18-.34-.62.75a.65.65,0,0,1-.38.18.57.57,0,0,1-.37-.16l-.54-.67L111,37a.44.44,0,0,1-.63,0h0a.17.17,0,0,1,0-.1l-.5-.77-1.25,1.44a.25.25,0,0,1-.27.22Z"/><path class="cls-4" d="M112.24,20.12h2a2.88,2.88,0,0,1,2.78,3h0v2h-7.59v-2a2.87,2.87,0,0,1,2.74-3h.07Z"/><path class="cls-5" d="M109.51,23.57h7.69a.36.36,0,0,1,.36.34h0a.39.39,0,0,1-.34.37h-7.68a.41.41,0,0,1-.37-.35h0c0-.23.11-.37.34-.37Z"/><path class="cls-5" d="M109.49,22.39h7.69a.38.38,0,0,1,.36.34h0a.38.38,0,0,1-.33.37h-7.69a.42.42,0,0,1-.36-.35h0a.36.36,0,0,1,.33-.37Z"/><path class="cls-5" d="M109.41,21.32h7.68a.39.39,0,0,1,.37.34h0a.39.39,0,0,1-.34.37h-7.68a.42.42,0,0,1-.37-.34h0a.38.38,0,0,1,.34-.38Z"/><path class="cls-6" d="M110.56,43.5h0c-.14,0-3.93-1.1-5.19-6.07a.48.48,0,0,1,.39-.56h0a.53.53,0,0,1,.55.3,7.15,7.15,0,0,0,4.56,5.39.46.46,0,0,1,.32.57h0A.62.62,0,0,1,110.56,43.5Z"/><ellipse class="cls-6" cx="105.55" cy="36.24" rx="0.38" ry="0.37" transform="translate(66.48 140.77) rotate(-88.46)"/><path class="cls-1" d="M29.42,28.18a8.88,8.88,0,1,0,15.37-4.65,5.1,5.1,0,0,1-1.23-4.13l.37-2.2a1.87,1.87,0,0,0-1.55-2.12l-3.82-.57a1.87,1.87,0,0,0-2.11,1.54l-.32,2.26a5.08,5.08,0,0,1-2.38,3.55A8.52,8.52,0,0,0,29.42,28.18Z"/><circle class="cls-2" cx="38.08" cy="29.92" r="6.4"/><path class="cls-3" d="M32.84,30.74l-.15,0a.48.48,0,0,1-.19-.56L38,14.41a.59.59,0,0,1,.67-.34.51.51,0,0,1,.28.65h0L34,28.75l.57-.49a.49.49,0,0,1,.45-.08.5.5,0,0,1,.35.3l.37.87.89-.63a.53.53,0,0,1,.69.12h0l.38.67.85-.79a.49.49,0,0,1,.45-.08.52.52,0,0,1,.35.31l.19.46.77-.48a.53.53,0,0,1,.41-.05.38.38,0,0,1,.28.27l.44.76.31-.29a.56.56,0,0,1,.41-.14.43.43,0,0,1,.34.21h0L41.08,15a.45.45,0,0,1,.35-.53h.12a.47.47,0,0,1,.53.42v0l1.68,16.76a.51.51,0,0,1-.47.54.47.47,0,0,1-.45-.21L42,30.75,41.7,31a.53.53,0,0,1-.41.15.39.39,0,0,1-.35-.26l-.48-.87-.87.48a.43.43,0,0,1-.41,0,.47.47,0,0,1-.29-.31l-.14-.36-.72.64a.5.5,0,0,1-.7-.16.43.43,0,0,1,0-.07l-.43-.72-1,.69a.73.73,0,0,1-.45.08.84.84,0,0,1-.38-.26l-.32-.82L33.3,30.52A.41.41,0,0,1,32.84,30.74Z"/><path class="cls-4" d="M39.38,14l2.36.39a2.65,2.65,0,0,1,2.2,3l0,.07-.31,2.05-7.52-1.16.31-2.06A2.62,2.62,0,0,1,39.28,14Z"/><path class="cls-5" d="M36.16,16.83,43.93,18a.35.35,0,0,1,.29.36h0a.32.32,0,0,1-.35.3h0l-7.79-1.2a.32.32,0,0,1-.28-.35h0C35.8,16.92,36,16.82,36.16,16.83Z"/><path class="cls-5" d="M36.34,15.69l7.78,1.2a.33.33,0,0,1,.3.35s0,0,0,.06h0a.32.32,0,0,1-.34.31l-.08,0h0L36.22,16.4a.33.33,0,0,1-.3-.36.13.13,0,0,1,0-.06h0A.44.44,0,0,1,36.34,15.69Z"/><path class="cls-5" d="M36.53,14.64l7.78,1.2a.33.33,0,0,1,.29.36h0a.39.39,0,0,1-.41.29h0l-7.73-1.18a.34.34,0,0,1-.29-.36h0a.32.32,0,0,1,.35-.3h.06Z"/><path class="cls-6" d="M34.29,36.75l-.09,0a8.25,8.25,0,0,1-4.38-6.84.48.48,0,0,1,.4-.53s.05,0,.07,0h0a.49.49,0,0,1,.54.44v0a7.24,7.24,0,0,0,3.75,6,.51.51,0,0,1,.23.67.33.33,0,0,1-.4.27.25.25,0,0,1-.11,0Z"/><circle class="cls-6" cx="298.28" cy="18.52" r="0.4"/><path class="cls-9" d="M67.35,32.19A8.88,8.88,0,1,0,81.93,25.5a5.15,5.15,0,0,1-1.75-3.91v-2.2a1.87,1.87,0,0,0-1.83-1.88H74.5a1.87,1.87,0,0,0-1.88,1.82v2.28a5.15,5.15,0,0,1-1.85,3.78A8.48,8.48,0,0,0,67.35,32.19Z"/><circle class="cls-10" cx="76.17" cy="32.71" r="6.4"/><path class="cls-3" d="M71.06,34.22h-.15a.49.49,0,0,1-.26-.53L74,17.36a.57.57,0,0,1,.61-.42.49.49,0,0,1,.38.61h0L72,32.07l.49-.56a.49.49,0,0,1,.44-.15.5.5,0,0,1,.39.27l.49.8.78-.74a.53.53,0,0,1,.71,0h0l.47.6.72-.83a.46.46,0,0,1,.44-.15.52.52,0,0,1,.39.26l.25.43.69-.58a.48.48,0,0,1,.4-.09.36.36,0,0,1,.33.21l.53.71.27-.34a.58.58,0,0,1,.38-.19.38.38,0,0,1,.37.16h0L77.18,17.56a.46.46,0,0,1,.28-.58l.11,0a.48.48,0,0,1,.59.33.13.13,0,0,1,0,.06l3.89,16.4a.49.49,0,0,1-.38.59h0a.49.49,0,0,1-.47-.15l-1-1.21-.26.33a.58.58,0,0,1-.39.19.38.38,0,0,1-.38-.21l-.59-.8-.8.6a.39.39,0,0,1-.39.09.45.45,0,0,1-.33-.27l-.19-.33-.63.72a.43.43,0,0,1-.39.15.4.4,0,0,1-.38-.22l-.53-.65-.87.81a.63.63,0,0,1-.44.14,1,1,0,0,1-.38-.21l-.44-.76L71.52,34A.41.41,0,0,1,71.06,34.22Z"/><path class="cls-4" d="M75.27,16.74l2.38.06a2.63,2.63,0,0,1,2.58,2.71v2.12l-7.61-.12V19.43a2.62,2.62,0,0,1,2.55-2.69Z"/><path class="cls-5" d="M72.47,20l7.87.12a.34.34,0,0,1,.34.32h0a.32.32,0,0,1-.31.33h0l-7.87-.11a.34.34,0,0,1-.34-.32h0A.32.32,0,0,1,72.47,20Z"/><path class="cls-5" d="M72.5,18.86l7.87.12a.32.32,0,0,1,.35.29.22.22,0,0,1,0,.08h0a.3.3,0,0,1-.27.34h-.09l-7.87-.11a.32.32,0,0,1-.34-.3v-.07h0A.45.45,0,0,1,72.5,18.86Z"/><path class="cls-5" d="M72.54,17.8l7.87.11a.34.34,0,0,1,.34.32h0a.36.36,0,0,1-.37.34h0l-7.87-.11a.34.34,0,0,1-.34-.32h0a.33.33,0,0,1,.3-.35Z"/><path class="cls-6" d="M73.36,40h-.1A8.24,8.24,0,0,1,68,33.83a.49.49,0,0,1,.34-.59h.06a.49.49,0,0,1,.59.39h0a7.29,7.29,0,0,0,4.54,5.44.49.49,0,0,1,.32.63.34.34,0,0,1-.35.32l-.12,0Z"/><circle class="cls-6" cx="68.31" cy="32.64" r="0.4"/><path class="cls-5" d="M225.62,15.83h.13A1.54,1.54,0,0,1,227.62,17v0h0l-3.16.76h0A1.65,1.65,0,0,1,225.62,15.83Z"/><path class="cls-11" d="M221,32.85a8.45,8.45,0,1,0,11.93-9.54,4.66,4.66,0,0,1-2.53-3.2L229.89,18a1.77,1.77,0,0,0-2.14-1.3l-3.56.85a1.78,1.78,0,0,0-1.31,2.14l.51,2.09a4.73,4.73,0,0,1-.83,4A8.44,8.44,0,0,0,221,32.85Z"/><circle class="cls-12" cx="229.35" cy="31.26" r="6.07"/><path class="cls-3" d="M225,33.8a.39.39,0,0,1-.46-.3s0,0,0-.06h0l-.72-15.86a.42.42,0,0,1,.42-.42.41.41,0,0,1,.42.41h0l.57,14.25.41-.81a.38.38,0,0,1,.32-.2.36.36,0,0,1,.35.12l.72.72.61-.92a.73.73,0,0,1,.27-.2.33.33,0,0,1,.3.09l.65.47.51-1a.43.43,0,0,1,.58-.16L230,30l.38.38.59-.75a.4.4,0,0,1,.56-.09l0,0,.7.55.2-.4a.41.41,0,0,1,.54-.22l0,0h.09l.23.14L226.7,17a.44.44,0,0,1,.18-.57.45.45,0,0,1,.58.18l7.45,14.26a.43.43,0,0,1-.11.52.39.39,0,0,1-.5,0l-1.25-.9-.2.44a.41.41,0,0,1-.54.21h-.12l-.79-.62-.62.79a.4.4,0,0,1-.57.07h0l-.29-.3-.48.9c-.08.09-.15.19-.27.2a.48.48,0,0,1-.35-.08l-.7-.51-.64,1a.41.41,0,0,1-.55.13l0,0h0l-.68-.68-.89,1.67A.51.51,0,0,1,225,33.8Z"/><path class="cls-4" d="M224.86,16.85l2-.49A2.54,2.54,0,0,1,230,18.2s0,0,0,.07l.42,1.76-7,1.69L222.9,20a2.65,2.65,0,0,1,2-3.11Z"/><path class="cls-5" d="M222.92,20.39l7.3-1.72a.31.31,0,0,1,.4.21v0h0a.31.31,0,0,1-.21.4h0L223.08,21a.42.42,0,0,1-.41-.24h0A.41.41,0,0,1,222.92,20.39Z"/><path class="cls-5" d="M222.71,19.39,230,17.67c.16-.06.34.08.41.24h0a.4.4,0,0,1-.25.41L222.88,20a.31.31,0,0,1-.39-.19s0,0,0-.05h0a.32.32,0,0,1,.21-.4Z"/><path class="cls-5" d="M222.46,18.32l7.31-1.72a.42.42,0,0,1,.41.25h0c.06.16-.09.35-.25.41L222.63,19a.37.37,0,0,1-.41-.25h0a.34.34,0,0,1,.23-.41Z"/><path class="cls-6" d="M228.4,38.62h-.08a7.75,7.75,0,0,1-6.23-4.48.42.42,0,1,1,.75-.39,7,7,0,0,0,5.55,4,.38.38,0,0,1,.43.32.27.27,0,0,1,0,.09.43.43,0,0,1-.42.43Z"/><circle class="cls-6" cx="222" cy="33.06" r="0.38"/></svg>
