<?xml version="1.0" encoding="utf-8"?>
<!-- Generator: Adobe Illustrator 24.0.3, SVG Export Plug-In . SVG Version: 6.00 Build 0)  -->
<svg version="1.1" id="Layer_1" xmlns="http://www.w3.org/2000/svg" xmlns:xlink="http://www.w3.org/1999/xlink" x="0px" y="0px"
	 viewBox="0 0 764 313" style="enable-background:new 0 0 764 313;" xml:space="preserve">
<style type="text/css">
	.st0{fill:#333333;}
	.st1{fill:#D8F2E1;}
	.st2{fill:#E8F7ED;}
	.st3{fill:none;stroke:#EAD13F;stroke-width:10;stroke-linecap:round;stroke-linejoin:round;stroke-miterlimit:10;}
	.st4{fill:#010200;}
	.st5{fill:none;stroke:#FFFFFF;stroke-width:15;stroke-linecap:round;stroke-miterlimit:10;}
	.st6{fill:#FFFFFF;}
	.st7{fill:#F2C2C2;}
	.st8{fill:#F5CECE;}
	.st9{fill:#6564A5;}
	.st10{fill:#8483B7;}
	.st11{fill:#BF665E;}
	.st12{fill:#CC857E;}
	.st13{fill:none;stroke:#EAD13F;stroke-width:5;stroke-linecap:round;stroke-linejoin:round;stroke-miterlimit:10;}
	.st14{fill:none;stroke:#FFFFFF;stroke-width:7;stroke-linecap:round;stroke-miterlimit:10;}
</style>
<g>
	<path class="st0" d="M22.8-848l23,2.5c9.6,1,16.5,9.7,15.4,19.2l-1.1,10.5L2.5-822l1.1-10.5C4.7-842.1,13.3-849,22.8-848z"/>
	<path class="st1" d="M-146.2-587.8c-9,82.2,49.9,156.3,131.8,166.3c83.8,10.2,160.3-51,168.6-135.1c4.6-46.3-12.3-89.9-42.7-120.7
		c-17.9-18.3-26.4-43.8-23.6-69.3l4.1-37.9c1.9-17.3-10.7-32.9-28-34.8l-65.5-7.1c-17.3-1.9-32.9,10.7-34.8,28l-4.2,38.5
		c-2.8,25.3-16.6,48.1-37.9,61.9C-115-674.2-141.1-634.7-146.2-587.8z"/>
	<circle class="st2" cx="2.9" cy="-564.4" r="109"/>
	<polyline class="st3" points="52.7,-820.5 92.9,-536 72,-566.5 59.6,-553.7 45.8,-575.3 24.2,-561.6 17,-578.5 -4.3,-558.7
		-17.2,-578.2 -40.3,-560.6 -51.7,-585 -84.1,-555.3 -1.1,-826.9 	"/>
	<path class="st4" d="M6.7-835.1l52.2,5.7C80-827.1,95.3-808.1,93-787l-4.4,40.3l-128.7-14l4.4-40.3
		C-33.5-822.2-14.5-837.4,6.7-835.1z"/>
	<g>
		<path class="st0" d="M-39.3-786.3l133.2,14.5c3.3,0.4,5.7,3.3,5.3,6.6l0,0c-0.4,3.3-3.3,5.7-6.6,5.3l-133.2-14.5
			c-3.3-0.4-5.7-3.3-5.3-6.6h0C-45.5-784.3-42.6-786.7-39.3-786.3z"/>
		<path class="st0" d="M-37.2-805.2L96-790.7c3.3,0.4,5.7,3.3,5.3,6.6l0,0c-0.4,3.3-3.3,5.7-6.6,5.3l-133.2-14.5
			c-3.3-0.4-5.7-3.3-5.3-6.6l0,0C-43.5-803.2-40.5-805.6-37.2-805.2z"/>
		<path class="st0" d="M-35.2-824.1l133.2,14.5c3.3,0.4,5.7,3.3,5.3,6.6l0,0c-0.4,3.3-3.3,5.7-6.6,5.3l-133.2-14.5
			c-3.3-0.4-5.7-3.3-5.3-6.6v0C-41.4-822.1-38.4-824.5-35.2-824.1z"/>
	</g>
	<path class="st5" d="M-55-453.6c0,0-61.8-23.8-73.9-106.6"/>
	<circle class="st6" cx="-130.9" cy="-578.5" r="6.5"/>
	<g>
		<path class="st0" d="M319.6-816.5l23.1-0.8c9.6-0.3,17.7,7.2,18,16.9l0.3,10.6l-58,1.9l-0.3-10.6
			C302.4-808.2,310-816.2,319.6-816.5z"/>
		<path class="st7" d="M188.9-535.1c2.7,82.7,71.4,147.7,153.9,146c84.4-1.7,151.5-73.1,147.9-157.5c-2-46.5-24.9-87.2-59.2-113.5
			c-20.3-15.5-32.3-39.7-33.1-65.3l-1.2-38.1c-0.6-17.4-15.2-31.1-32.6-30.5l-65.8,2.1c-17.4,0.6-31.1,15.2-30.5,32.6l1.3,38.7
			c0.8,25.4-9.6,50-28.8,66.7C207.6-625.1,187.3-582.3,188.9-535.1z"/>
		<circle class="st8" cx="339.8" cy="-533" r="109"/>
		<polyline class="st3" points="353,-793.6 432.8,-517.6 407.9,-544.8 397.4,-530.4 380.8,-549.9 361.3,-533.2 351.8,-548.9
			333.5,-526.3 317.9,-543.8 297.6,-523.1 282.8,-545.7 254.9,-511.8 298.8,-792.3 		"/>
		<path class="st4" d="M305.4-801.6l52.5-1.7c21.3-0.7,39,16,39.7,37.2l1.3,40.5l-129.4,4.2l-1.3-40.5
			C267.5-783.1,284.1-800.9,305.4-801.6z"/>
		<g>
			<path class="st0" d="M266.8-746.8l133.9-4.4c3.3-0.1,6.1,2.5,6.2,5.8l0,0c0.1,3.3-2.5,6.1-5.8,6.2l-133.9,4.4
				c-3.3,0.1-6.1-2.5-6.2-5.8l0,0C260.9-743.9,263.5-746.7,266.8-746.8z"/>
			<path class="st0" d="M266.2-765.8l133.9-4.4c3.3-0.1,6.1,2.5,6.2,5.8v0c0.1,3.3-2.5,6.1-5.8,6.2l-133.9,4.4
				c-3.3,0.1-6.1-2.5-6.2-5.8l0,0C260.2-762.9,262.9-765.6,266.2-765.8z"/>
			<path class="st0" d="M265.5-784.7l133.9-4.4c3.3-0.1,6.1,2.5,6.2,5.8l0,0c0.1,3.3-2.5,6.1-5.8,6.2l-133.9,4.4
				c-3.3,0.1-6.1-2.5-6.2-5.8l0,0C259.6-781.8,262.2-784.6,265.5-784.7z"/>
		</g>
		<path class="st5" d="M298.1-415.1c0,0-64.5-14.9-88.1-95.2"/>
		<circle class="st6" cx="205.4" cy="-528.1" r="6.5"/>
	</g>
	<g>
		<path class="st0" d="M684.8-787l23,2.5c9.6,1,16.5,9.7,15.4,19.2l-1.1,10.5l-57.7-6.3l1.1-10.5C666.7-781.1,675.3-788,684.8-787z"
			/>
		<path class="st9" d="M515.8-526.8c-9,82.2,49.9,156.3,131.8,166.3c83.8,10.2,160.3-51,168.6-135.1c4.6-46.3-12.3-89.9-42.7-120.7
			c-17.9-18.3-26.4-43.8-23.6-69.3l4.1-37.9c1.9-17.3-10.7-32.9-28-34.8l-65.5-7.1c-17.3-1.9-32.9,10.7-34.8,28l-4.2,38.5
			c-2.8,25.3-16.6,48.1-37.9,61.9C547-613.2,520.9-573.7,515.8-526.8z"/>
		<circle class="st10" cx="664.9" cy="-503.4" r="109"/>
		<polyline class="st3" points="714.7,-759.5 754.9,-475 734,-505.5 721.6,-492.7 707.8,-514.3 686.2,-500.6 679,-517.5
			657.7,-497.7 644.8,-517.2 621.7,-499.6 610.3,-524 577.9,-494.3 660.9,-765.9 		"/>
		<path class="st4" d="M668.7-774.1l52.2,5.7c21.1,2.3,36.4,21.3,34.1,42.4l-4.4,40.3l-128.7-14l4.4-40.3
			C628.5-761.2,647.5-776.4,668.7-774.1z"/>
		<g>
			<path class="st0" d="M622.7-725.3l133.2,14.5c3.3,0.4,5.7,3.3,5.3,6.6l0,0c-0.4,3.3-3.3,5.7-6.6,5.3l-133.2-14.5
				c-3.3-0.4-5.7-3.3-5.3-6.6l0,0C616.5-723.3,619.4-725.7,622.7-725.3z"/>
			<path class="st0" d="M624.8-744.2L758-729.7c3.3,0.4,5.7,3.3,5.3,6.6l0,0c-0.4,3.3-3.3,5.7-6.6,5.3l-133.2-14.5
				c-3.3-0.4-5.7-3.3-5.3-6.6l0,0C618.5-742.2,621.5-744.6,624.8-744.2z"/>
			<path class="st0" d="M626.8-763.1l133.2,14.5c3.3,0.4,5.7,3.3,5.3,6.6l0,0c-0.4,3.3-3.3,5.7-6.6,5.3l-133.2-14.5
				c-3.3-0.4-5.7-3.3-5.3-6.6v0C620.6-761.1,623.6-763.5,626.8-763.1z"/>
		</g>
		<path class="st5" d="M607-392.6c0,0-61.8-23.8-73.9-106.6"/>
		<circle class="st6" cx="531.1" cy="-517.5" r="6.5"/>
	</g>
	<g>
		<path class="st0" d="M981.3-832.8l23.1-1.5c9.6-0.6,17.9,6.6,18.6,16.2l0.7,10.5l-57.9,3.9l-0.7-10.5
			C964.4-823.8,971.7-832.1,981.3-832.8z"/>
		<path class="st11" d="M860.3-547.1c5.5,82.5,76.4,145.2,158.7,140.7c84.3-4.5,149-78.2,142.5-162.4
			c-3.6-46.4-27.8-86.3-63.1-111.4c-20.9-14.8-33.6-38.5-35.3-64.1l-2.5-38.1c-1.2-17.3-16.3-30.6-33.6-29.4l-65.7,4.4
			c-17.3,1.2-30.6,16.3-29.4,33.6l2.6,38.6c1.7,25.4-7.9,50.3-26.5,67.6C875.9-637.7,857.1-594.2,860.3-547.1z"/>
		<circle class="st12" cx="1011.2" cy="-550.1" r="109"/>
		<polyline class="st3" points="1015.5,-811 1104.7,-537.8 1078.9,-564.2 1068.8,-549.5 1051.5,-568.4 1032.7,-551.1 1022.6,-566.4
			1005.1,-543.2 988.9,-560.2 969.3,-538.8 953.8,-560.8 927.1,-526 961.4,-807.9 		"/>
		<path class="st4" d="M967.6-817.3l52.4-3.5c21.2-1.4,39.6,14.6,41,35.8l2.7,40.4l-129.2,8.6l-2.7-40.4
			C930.4-797.6,946.4-815.9,967.6-817.3z"/>
		<g>
			<path class="st0" d="M930.9-761.3l133.7-8.9c3.3-0.2,6.2,2.3,6.4,5.6l0,0c0.2,3.3-2.3,6.2-5.6,6.4l-133.7,8.9
				c-3.3,0.2-6.2-2.3-6.4-5.6l0,0C925.1-758.2,927.6-761,930.9-761.3z"/>
			<path class="st0" d="M929.7-780.2l133.7-8.9c3.3-0.2,6.2,2.3,6.4,5.6l0,0c0.2,3.3-2.3,6.2-5.6,6.4l-133.7,8.9
				c-3.3,0.2-6.2-2.3-6.4-5.6l0,0C923.8-777.1,926.4-780,929.7-780.2z"/>
			<path class="st0" d="M928.4-799.2l133.7-8.9c3.3-0.2,6.2,2.3,6.4,5.6l0,0c0.2,3.3-2.3,6.2-5.6,6.4l-133.7,8.9
				c-3.3,0.2-6.2-2.3-6.4-5.6l0,0C922.6-796.1,925.1-799,928.4-799.2z"/>
		</g>
		<path class="st5" d="M973.5-430.9c0,0-65-12.7-91.3-92.1"/>
		<circle class="st6" cx="877" cy="-540.7" r="6.5"/>
	</g>
	<g>
		<g>
			<path d="M-203.8-874.3c15.5,35.1,55.8,47.9,91.4,48.5c50.2,0.8,97.4-24.3,147.8-20.4c44.6,3.5,82.1,31.7,122.2,48.6
				c19.4,8.1,39.9,13.9,61.1,13.3c21.8-0.7,42.8-7.4,63.3-14.6c20.5-7.2,41.1-15.6,62.7-18.6c22-3.1,41.6,1.7,60,13.9
				c16.2,10.8,31.8,25.4,51.8,28.5c11,1.7,21.4-1,31.4-5.2c12.4-5.2,24.4-11,37.1-15.4c24.2-8.6,49.9-14.1,75.7-13.1
				c26.9,1.1,50.6,11.7,75.3,21.4c43.4,17.1,90.6,20.1,135.6,7.4c21.9-6.2,42.8-15.9,61.4-29c9.7-6.8,19.1-14.8,30.2-19.3
				c12.9-5.2,25.6-2,38.7,0.4c41.4,7.5,84.8-4.2,117.6-30.5c8.2-6.6,15.6-14.1,22.1-22.4c3.5-4.5-2.8-10.9-6.4-6.4
				c-26.6,33.8-68.9,53.7-111.9,52.5c-11.7-0.3-22.7-3.1-34.2-4.8c-11.3-1.7-21.7-0.6-32.1,4.1c-10.4,4.7-19.2,12-28.5,18.5
				c-9,6.3-18.6,11.9-28.5,16.6c-41.8,19.8-90.7,24.5-135.5,12.8c-24-6.3-45.9-18.4-69.8-25.1c-23.8-6.7-48.7-6.7-72.9-2.5
				c-24.5,4.3-47.8,13-70.4,23.3c-11.2,5.1-22.7,10-35.2,7.5c-9.9-2-18.7-7.3-27-13c-16.9-11.5-32.6-24.7-53.3-28.7
				c-19.4-3.8-39.3-0.3-58,5.2c-41.1,12.1-81.4,34.3-125.5,25c-41.7-8.8-76.7-35.7-116.3-50.2c-21.9-8.1-44.6-11.1-67.9-8.9
				c-25.5,2.4-50.1,9.5-75.1,14.7c-37.2,7.8-83.9,10.3-114.2-17.4c-6.6-6-11.5-13.2-15.1-21.3C-198.4-884.2-206.1-879.6-203.8-874.3
				L-203.8-874.3z"/>
		</g>
	</g>
</g>
<path class="st0" d="M147.6,48.9l1,0.1c8,0.9,13.8,8.1,12.9,16.1v0l-30.1-3.3v0C132.4,53.9,139.6,48.1,147.6,48.9z"/>
<path class="st1" d="M54,184c-4.7,42.9,26,81.5,68.7,86.7c43.7,5.3,83.6-26.6,87.9-70.4c2.4-24.1-6.4-46.8-22.2-62.9
	c-9.4-9.5-13.8-22.8-12.3-36.1l2.2-19.8c1-9-5.6-17.2-14.6-18.2l-34.1-3.7c-9-1-17.2,5.6-18.2,14.6l-2.2,20.1
	c-1.4,13.2-8.6,25.1-19.7,32.3C70.3,138.9,56.7,159.5,54,184z"/>
<circle class="st2" cx="131.8" cy="196.1" r="56.8"/>
<polyline class="st13" points="157.7,62.6 178.7,211 167.8,195.1 161.3,201.7 154.1,190.5 142.9,197.6 139.1,188.8 128,199.1
	121.3,189 109.3,198.1 103.3,185.4 86.4,200.9 129.6,59.3 "/>
<path class="st4" d="M138.3,55.5l18.1,2c13.5,1.5,23.3,13.6,21.8,27.2l-1.8,16.4l-67.1-7.3l1.8-16.4C112.6,63.8,124.7,54,138.3,55.5
	z"/>
<g>
	<path class="st0" d="M109.8,80.5l69.4,7.6c1.7,0.2,3,1.7,2.8,3.4l0,0c-0.2,1.7-1.7,3-3.4,2.8l-69.4-7.6c-1.7-0.2-3-1.7-2.8-3.4l0,0
		C106.5,81.5,108.1,80.3,109.8,80.5z"/>
	<path class="st0" d="M110.8,70.6l69.4,7.6c1.7,0.2,3,1.7,2.8,3.4v0c-0.2,1.7-1.7,3-3.4,2.8l-69.4-7.6c-1.7-0.2-3-1.7-2.8-3.4v0
		C107.6,71.7,109.1,70.4,110.8,70.6z"/>
	<path class="st0" d="M111.9,60.8l69.4,7.6c1.7,0.2,3,1.7,2.8,3.4v0c-0.2,1.7-1.7,3-3.4,2.8L111.2,67c-1.7-0.2-3-1.7-2.8-3.4v0
		C108.7,61.8,110.2,60.6,111.9,60.8z"/>
</g>
<path class="st14" d="M101.6,253.9c0,0-32.2-12.4-38.5-55.6"/>
<circle class="st6" cx="62" cy="188.8" r="3.4"/>
<g>
	<path class="st0" d="M302.4,64.5l1,0c8.1-0.3,14.8,6.1,15.1,14.1v0l-30.2,1v0C288,71.6,294.3,64.8,302.4,64.5z"/>
	<path class="st7" d="M228.7,211.4c1.4,43.1,37.2,77,80.2,76.1c44-0.9,79-38.1,77.1-82.1c-1-24.2-13-45.5-30.9-59.2
		c-10.6-8.1-16.8-20.7-17.3-34l-0.6-19.9c-0.3-9-7.9-16.2-17-15.9l-34.3,1.1c-9,0.3-16.2,7.9-15.9,17l0.7,20.2
		c0.4,13.2-5,26-15,34.8C238.5,164.5,227.9,186.8,228.7,211.4z"/>
	<circle class="st8" cx="307.4" cy="212.5" r="56.8"/>
	<polyline class="st13" points="314.3,76.7 355.9,220.6 342.9,206.4 337.4,213.9 328.7,203.7 318.6,212.4 313.6,204.2 304.1,216
		296,206.9 285.4,217.7 277.7,205.9 263.1,223.6 286,77.3 	"/>
	<path class="st4" d="M292.6,72.4l21.1-0.7c12.8-0.4,23.5,9.6,23.9,22.4l0.6,18l-67.5,2.2l-0.6-18C269.7,83.6,279.8,72.8,292.6,72.4
		z"/>
	<g>
		<path class="st0" d="M269.3,101.1l69.8-2.3c1.7-0.1,3.2,1.3,3.2,3v0c0.1,1.7-1.3,3.2-3,3.2l-69.8,2.3c-1.7,0.1-3.2-1.3-3.2-3v0
			C266.2,102.6,267.6,101.1,269.3,101.1z"/>
		<path class="st0" d="M269,91.2l69.8-2.3c1.7-0.1,3.2,1.3,3.2,3v0c0.1,1.7-1.3,3.2-3,3.2l-69.8,2.3c-1.7,0.1-3.2-1.3-3.2-3v0
			C265.9,92.7,267.3,91.2,269,91.2z"/>
		<path class="st0" d="M268.7,81.3l69.8-2.3c1.7-0.1,3.2,1.3,3.2,3v0c0.1,1.7-1.3,3.2-3,3.2l-69.8,2.3c-1.7,0.1-3.2-1.3-3.2-3v0
			C265.6,82.8,267,81.3,268.7,81.3z"/>
	</g>
	<path class="st14" d="M285.7,274c0,0-33.6-7.8-46-49.6"/>
	<circle class="st6" cx="237.3" cy="215.1" r="3.4"/>
</g>
<path class="st0" d="M492.7,80.7l1,0.1c8,0.9,13.8,8.1,12.9,16.1v0l-30.1-3.3v0C477.5,85.7,484.7,79.9,492.7,80.7z"/>
<path class="st9" d="M399.1,215.8c-4.7,42.9,26,81.5,68.7,86.7c43.7,5.3,83.6-26.6,87.9-70.4c2.4-24.1-6.4-46.8-22.2-62.9
	c-9.4-9.5-13.8-22.8-12.3-36.1l2.2-19.8c1-9-5.6-17.2-14.6-18.2l-34.1-3.7c-9-1-17.2,5.6-18.2,14.6l-2.2,20.1
	c-1.4,13.2-8.6,25.1-19.7,32.3C415.4,170.7,401.8,191.3,399.1,215.8z"/>
<circle class="st10" cx="476.9" cy="227.9" r="56.8"/>
<polyline class="st13" points="502.8,94.4 523.8,242.8 512.9,226.9 506.4,233.5 499.3,222.3 488,229.4 484.2,220.6 473.1,230.9
	466.4,220.8 454.4,229.9 448.4,217.2 431.5,232.7 474.8,91.1 "/>
<path class="st4" d="M482.9,87.3l19.1,2.1c13.3,1.4,22.8,13.4,21.4,26.6l-1.8,16.9l-67.1-7.3l1.8-16.9
	C457.7,95.4,469.6,85.8,482.9,87.3z"/>
<g>
	<path class="st0" d="M454.9,112.3l69.4,7.6c1.7,0.2,3,1.7,2.8,3.4v0c-0.2,1.7-1.7,3-3.4,2.8l-69.4-7.6c-1.7-0.2-3-1.7-2.8-3.4v0
		C451.6,113.3,453.2,112.1,454.9,112.3z"/>
	<path class="st0" d="M456,102.4l69.4,7.6c1.7,0.2,3,1.7,2.8,3.4l0,0c-0.2,1.7-1.7,3-3.4,2.8l-69.4-7.6c-1.7-0.2-3-1.7-2.8-3.4v0
		C452.7,103.5,454.3,102.2,456,102.4z"/>
	<path class="st0" d="M457,92.6l69.4,7.6c1.7,0.2,3,1.7,2.8,3.4v0c-0.2,1.7-1.7,3-3.4,2.8l-69.4-7.6c-1.7-0.2-3-1.7-2.8-3.4l0,0
		C453.8,93.6,455.3,92.4,457,92.6z"/>
</g>
<path class="st14" d="M446.7,285.7c0,0-32.2-12.4-38.5-55.6"/>
<circle class="st6" cx="407.1" cy="220.6" r="3.4"/>
<g>
	<path class="st0" d="M647.3,55.9l1-0.1c8-0.5,15,5.5,15.5,13.6v0l-30.2,2v0C633.2,63.4,639.3,56.4,647.3,55.9z"/>
	<path class="st11" d="M578.7,205.2c2.9,43,39.8,75.7,82.8,73.4c44-2.4,77.7-40.8,74.3-84.7c-1.9-24.2-14.5-45-32.9-58.1
		c-10.9-7.7-17.5-20.1-18.4-33.4l-1.3-19.8c-0.6-9-8.5-15.9-17.5-15.3l-34.2,2.3c-9,0.6-15.9,8.5-15.3,17.5l1.3,20.1
		c0.9,13.2-4.1,26.2-13.8,35.2C586.9,158,577.1,180.6,578.7,205.2z"/>
	<circle class="st12" cx="657.4" cy="203.6" r="56.8"/>
	<polyline class="st13" points="659.7,67.6 706.2,210 692.7,196.3 687.5,203.9 678.4,194.1 668.6,203.1 663.4,195.1 654.2,207.2
		645.8,198.4 635.6,209.5 627.5,198 613.6,216.2 631.4,69.2 	"/>
	<path class="st4" d="M634.5,64.3l27.7-1.8c11-0.7,20.4,7.6,21.2,18.5l1.4,21.2l-67.4,4.5L616,85.5C615.3,74.5,623.6,65,634.5,64.3z
		"/>
	<g>
		<path class="st0" d="M615.6,93.5l69.7-4.7c1.7-0.1,3.2,1.2,3.3,2.9v0c0.1,1.7-1.2,3.2-2.9,3.3L616,99.8c-1.7,0.1-3.2-1.2-3.3-2.9
			v0C612.5,95.1,613.8,93.6,615.6,93.5z"/>
		<path class="st0" d="M614.9,83.7l69.7-4.7c1.7-0.1,3.2,1.2,3.3,2.9v0c0.1,1.7-1.2,3.2-2.9,3.3l-69.7,4.7c-1.7,0.1-3.2-1.2-3.3-2.9
			v0C611.9,85.3,613.2,83.8,614.9,83.7z"/>
		<path class="st0" d="M614.2,73.8l69.7-4.7c1.7-0.1,3.2,1.2,3.3,2.9v0c0.1,1.7-1.2,3.2-2.9,3.3L614.7,80c-1.7,0.1-3.2-1.2-3.3-2.9
			v0C611.2,75.4,612.5,73.9,614.2,73.8z"/>
	</g>
	<path class="st14" d="M637.8,265.8c0,0-33.9-6.6-47.6-48"/>
	<circle class="st6" cx="587.4" cy="208.5" r="3.4"/>
</g>
<g>
	<g>
		<path d="M22.1,35.7c8.4,19,30.2,26,49.5,26.3c26.2,0.4,50.8-12.7,77.1-10.6c23,1.8,42.5,16.6,63.2,25.3c10.3,4.3,21.2,7.3,32.4,7
			c11.6-0.4,22.7-3.9,33.6-7.7c10.6-3.7,21.2-8.1,32.4-9.7c11-1.5,20.7,0.9,29.9,7c8.6,5.8,16.9,13.4,27.5,15.1
			c6.3,1,12.2-0.5,18.1-2.9c6.3-2.7,12.4-5.6,18.8-7.8c12.5-4.4,25.6-7.3,38.9-6.7c13.8,0.6,26,6.1,38.7,11.1
			c22.9,9,48,10.6,71.8,3.9c11.6-3.3,22.7-8.4,32.5-15.3c4.9-3.4,9.6-7.5,15.2-9.8c6.3-2.6,12.6-1,19,0.2
			c22.4,4.1,45.7-2.2,63.4-16.5c4.3-3.4,8.1-7.3,11.5-11.7c1.5-1.9,1.8-4.5,0-6.4c-1.5-1.6-4.9-1.9-6.4,0
			c-13.5,17.2-34.9,27.3-56.8,26.7c-5.9-0.2-11.5-1.6-17.3-2.4c-6.5-1-12.4-0.4-18.4,2.4c-5.4,2.5-10,6.3-14.8,9.7
			c-4.7,3.3-9.7,6.2-14.9,8.6c-21.3,10.1-46.2,12.4-69,6.5c-12.5-3.3-23.9-9.6-36.4-13.1c-12.8-3.6-26.1-3.6-39.1-1.3
			c-12.9,2.3-25.3,6.9-37.2,12.3c-5.3,2.4-10.8,4.8-16.7,3.7c-5-1-9.4-3.7-13.6-6.5c-9-6.1-17.3-13-28.3-15.2
			c-10.5-2-21.2-0.3-31.4,2.7c-21,6.2-41.8,17.8-64.3,13c-21.7-4.6-40-18.6-60.6-26.2c-11.6-4.3-23.7-5.9-36-4.7
			c-13.5,1.3-26.5,5-39.7,7.7c-18.6,3.9-42.3,5.4-57.4-8.5c-3.3-3-5.7-6.6-7.6-10.7C27.6,25.8,19.8,30.4,22.1,35.7L22.1,35.7z"/>
	</g>
</g>
</svg>
