<svg id="Layer_1" data-name="Layer 1" xmlns="http://www.w3.org/2000/svg" width="298.87" height="99.76" viewBox="0 0 298.87 99.76"><defs><style>.cls-1{fill:#f2c2c2;}.cls-2{fill:#f5cece;}.cls-3{fill:#ead13f;}.cls-4{fill:#010200;}.cls-5{fill:#333;}.cls-6{fill:#fff;}.cls-7{fill:#d8f2e1;}.cls-8{fill:#e8f7ed;}.cls-9{fill:#bf665e;}.cls-10{fill:#cc857e;}.cls-11{fill:#6564a5;}.cls-12{fill:#8483b7;}</style></defs><title>lygter_4</title><path class="cls-1" d="M104,52.22a8.88,8.88,0,1,0,13.31-9,5.08,5.08,0,0,1-2.4-3.57l-.3-2.22a1.87,1.87,0,0,0-2.1-1.56l-3.81.58a1.87,1.87,0,0,0-1.56,2.11l.36,2.25a5.15,5.15,0,0,1-1.22,4.1A8.5,8.5,0,0,0,104,52.22Z"/><circle class="cls-2" cx="112.79" cy="51.31" r="6.4"/><path class="cls-3" d="M108,53.62s-.11,0-.15,0a.48.48,0,0,1-.35-.48l.68-16.65a.58.58,0,0,1,.54-.51.51.51,0,0,1,.47.55h0l-.62,14.8.4-.63a.49.49,0,0,1,.41-.22.55.55,0,0,1,.42.2l.62.72.65-.86a.54.54,0,0,1,.71-.09h0l.56.52.58-.94a.47.47,0,0,1,.41-.22.56.56,0,0,1,.42.2l.31.38.6-.68a.49.49,0,0,1,.37-.16.4.4,0,0,1,.36.16l.64.61.21-.37a.55.55,0,0,1,.35-.26.44.44,0,0,1,.39.1h0L111.28,36.2a.46.46,0,0,1,.29-.66.49.49,0,0,1,.66.29l6.49,15.56a.5.5,0,0,1-.78.58l-1.17-1-.21.37a.64.64,0,0,1-.35.25.37.37,0,0,1-.41-.15l-.71-.69-.7.72a.39.39,0,0,1-.37.15.46.46,0,0,1-.37-.21l-.24-.3-.51.82a.4.4,0,0,1-.36.21.39.39,0,0,1-.41-.15l-.62-.56-.74.93c-.07.13-.26.18-.41.22a.92.92,0,0,1-.4-.15l-.56-.68-1,1.59A.41.41,0,0,1,108,53.62Z"/><path class="cls-4" d="M109.32,35.7l2.36-.33a2.65,2.65,0,0,1,3,2.29l.31,2.07-7.54,1.11-.31-2.07A2.61,2.61,0,0,1,109.32,35.7Z"/><path class="cls-5" d="M107.08,39.34l7.78-1.15a.33.33,0,0,1,.39.26h0a.33.33,0,0,1-.26.38h0L107.21,40a.33.33,0,0,1-.39-.26h0a.32.32,0,0,1,.26-.39Z"/><path class="cls-5" d="M106.93,38.24l7.78-1.16a.32.32,0,0,1,.4.31h0a.32.32,0,0,1-.3.4h0L107,38.94a.31.31,0,0,1-.39-.31h0a.42.42,0,0,1,.3-.39Z"/><path class="cls-5" d="M106.8,37.18,114.58,36a.33.33,0,0,1,.38.26h0c.06.19-.11.34-.3.4h0l-7.79,1.15a.32.32,0,0,1-.38-.26h0a.32.32,0,0,1,.31-.39Z"/><path class="cls-6" d="M111.19,59l-.09,0a8.29,8.29,0,0,1-6.21-5.24.49.49,0,0,1,.29-.66h0a.51.51,0,0,1,.66.29A7.29,7.29,0,0,0,111.19,58a.5.5,0,0,1,.42.56.35.35,0,0,1-.42.38Z"/><circle class="cls-6" cx="105.02" cy="52.51" r="0.4"/><path class="cls-7" d="M141.62,50.91a8.9,8.9,0,0,0,17.44-3.53,8.72,8.72,0,0,0-4.64-6.06,4.83,4.83,0,0,1-2.57-3.44l-.44-2.19a1.84,1.84,0,0,0-2.2-1.44l-3.8.78A1.88,1.88,0,0,0,144,37.22l.45,2.24a4.92,4.92,0,0,1-1,4.13A8.56,8.56,0,0,0,141.62,50.91Z"/><ellipse class="cls-8" cx="150.4" cy="49.52" rx="6.24" ry="6.36" transform="translate(-6.4 27.47) rotate(-10.22)"/><path class="cls-3" d="M145.84,52a.15.15,0,0,1-.14,0,.55.55,0,0,1-.37-.47L145,34.92a.48.48,0,1,1,1,0l.27,14.9.39-.74a.64.64,0,0,1,.33-.26.49.49,0,0,1,.41.17l.66.75.6-.88a.5.5,0,0,1,.29-.2.44.44,0,0,1,.35.09l.61.51.53-1a.42.42,0,0,1,.38-.26.49.49,0,0,1,.41.17l.35.37.57-.73a.44.44,0,0,1,.65-.07l.68.6.21-.42a.57.57,0,0,1,.33-.26.53.53,0,0,1,.39.08l.11.07L148,34.51a.46.46,0,1,1,.83-.39l7.27,15.14a.49.49,0,0,1-.22.62.44.44,0,0,1-.48-.06l-1.22-1-.21.43a.59.59,0,0,1-.33.25.43.43,0,0,1-.4-.12l-.78-.63-.61.78a.37.37,0,0,1-.35.16c-.14,0-.25-.05-.37-.17l-.24-.3-.46.86a.58.58,0,0,1-.33.25.55.55,0,0,1-.4-.07l-.66-.56-.68,1a.45.45,0,0,1-.64.12.18.18,0,0,1-.06-.09l-.64-.66-.93,1.67A.25.25,0,0,1,145.84,52Z"/><path class="cls-4" d="M146.11,34l2-.41a2.9,2.9,0,0,1,3.33,2.33h0l.39,1.93-7.47,1.55-.4-1.93A2.89,2.89,0,0,1,146.11,34Z"/><path class="cls-5" d="M144.15,37.91l7.53-1.55a.36.36,0,0,1,.42.27h0a.4.4,0,0,1-.25.43l-7.53,1.55a.4.4,0,0,1-.42-.26h0a.3.3,0,0,1,.25-.44Z"/><path class="cls-5" d="M143.9,36.8l7.53-1.55a.39.39,0,0,1,.42.26h0a.38.38,0,0,1-.25.43l-7.53,1.55a.38.38,0,0,1-.42-.26h0a.36.36,0,0,1,.25-.43Z"/><path class="cls-5" d="M143.59,35.73l7.53-1.55a.41.41,0,0,1,.42.26h0a.39.39,0,0,1-.25.44l-7.53,1.55a.4.4,0,0,1-.42-.27h0a.37.37,0,0,1,.25-.43Z"/><path class="cls-6" d="M149.23,57.2h0c-.15,0-4.07-.28-6.32-4.89a.47.47,0,0,1,.26-.62.52.52,0,0,1,.6.18,7.15,7.15,0,0,0,5.57,4.35.45.45,0,0,1,.42.5A.61.61,0,0,1,149.23,57.2Z"/><ellipse class="cls-6" cx="142.84" cy="51.12" rx="0.37" ry="0.38" transform="translate(-6.8 26.15) rotate(-10.22)"/><path d="M99.29,37.78c-19.3,0-39.1-.8-59.2-2.4-125.4-10.1-223.5-48.4-224.5-48.8l1.5-3.7c1,.4,98.6,38.6,223.5,48.5,73.3,5.8,141.4,1,202.6-14.5,76.3-19.3,142-55.3,195-106.9l2.8,2.9C387.39-35,321.09,1.28,244,20.78,199.29,32.08,150.79,37.78,99.29,37.78Z"/><path d="M298.52,60.07a716.55,716.55,0,0,1-88-.32C138.31,55.06,72.44,39,14.7,12.11-83.64-33.81-124.7-96.37-125-97l3.39-2.18c.11.19,10.27,15.66,32.24,36.7,20.28,19.23,55.15,47.27,106.12,71C73.94,35.23,139.3,51.1,211,55.82c89.65,5.84,189.45-6,296.73-35.07l1,3.85C434.88,44.64,364.52,56.48,298.52,60.07Z"/><path d="M117.65,71.36a486.28,486.28,0,0,1-100.6-10.7c-113.6-24.1-190.3-81.2-191-81.8l2.4-3.2c.8.6,76.8,57.2,189.6,81.1,66.2,14,131.8,14.1,195.2.4,79.2-17.1,155-56.1,225.3-115.9l2.6,3c-70.9,60.3-147.3,99.5-227.2,116.8A458.66,458.66,0,0,1,117.65,71.36Z"/><path class="cls-7" d="M79.16,85.1a8.9,8.9,0,0,0,17.73-1.47A8.73,8.73,0,0,0,93,77.07a4.81,4.81,0,0,1-2.15-3.72l-.18-2.22a1.85,1.85,0,0,0-2-1.69l-3.85.34a1.85,1.85,0,0,0-1.7,2l.19,2.27a5,5,0,0,1-1.48,4A8.56,8.56,0,0,0,79.16,85.1Z"/><ellipse class="cls-8" cx="88.05" cy="84.75" rx="6.24" ry="6.36" transform="translate(-5.06 5.6) rotate(-3.54)"/><path class="cls-3" d="M83.22,86.71a.2.2,0,0,1-.14,0,.56.56,0,0,1-.31-.5l1.59-16.56a.45.45,0,0,1,.53-.41.46.46,0,0,1,.41.55L83.84,84.58l.47-.7a.58.58,0,0,1,.36-.21.5.5,0,0,1,.39.21l.56.83.7-.81a.45.45,0,0,1,.31-.16.42.42,0,0,1,.34.12l.55.59.64-1a.43.43,0,0,1,.4-.21.46.46,0,0,1,.39.21l.31.41.66-.66a.44.44,0,0,1,.65,0l.6.67.26-.39a.52.52,0,0,1,.36-.21.55.55,0,0,1,.38.11l.1.09-4.83-14a.48.48,0,0,1,.29-.59.47.47,0,0,1,.57.3l5.46,15.87a.48.48,0,0,1-.29.59.44.44,0,0,1-.47-.11l-1.09-1.12-.26.39a.6.6,0,0,1-.36.22.43.43,0,0,1-.38-.17l-.7-.72-.7.71a.37.37,0,0,1-.37.12c-.14,0-.24-.08-.34-.22l-.21-.32-.55.8a.58.58,0,0,1-.36.21.5.5,0,0,1-.38-.12l-.6-.63-.79.91a.45.45,0,0,1-.65,0,.17.17,0,0,1-.05-.1l-.56-.72-1.11,1.54A.26.26,0,0,1,83.22,86.71Z"/><path class="cls-4" d="M85.59,68.81l2-.18a2.89,2.89,0,0,1,3,2.7h0l.17,2-7.6.67-.17-2a2.87,2.87,0,0,1,2.52-3.19Z"/><path class="cls-5" d="M83.19,72.49l7.65-.66a.36.36,0,0,1,.39.31h0a.39.39,0,0,1-.3.4l-7.65.66a.4.4,0,0,1-.4-.31h0c-.06-.23.07-.38.31-.4Z"/><path class="cls-5" d="M83.07,71.36l7.65-.67a.41.41,0,0,1,.4.31h0a.41.41,0,0,1-.3.4l-7.66.67a.39.39,0,0,1-.39-.31h0a.35.35,0,0,1,.3-.4Z"/><path class="cls-5" d="M82.89,70.26l7.65-.66a.39.39,0,0,1,.39.31h0a.38.38,0,0,1-.3.4L83,71a.4.4,0,0,1-.4-.31h0a.37.37,0,0,1,.31-.4Z"/><path class="cls-6" d="M86,92.24h0c-.15,0-4-.75-5.71-5.59a.48.48,0,0,1,.33-.6.55.55,0,0,1,.58.25,7.13,7.13,0,0,0,5,5,.45.45,0,0,1,.36.55A.61.61,0,0,1,86,92.24Z"/><ellipse class="cls-6" cx="80.35" cy="85.46" rx="0.37" ry="0.38" transform="translate(-5.12 5.12) rotate(-3.54)"/><path class="cls-7" d="M183.52,81.63A8.9,8.9,0,0,0,201,78.1,8.7,8.7,0,0,0,196.32,72a4.83,4.83,0,0,1-2.57-3.45l-.44-2.18a1.83,1.83,0,0,0-2.2-1.44l-3.8.78a1.88,1.88,0,0,0-1.45,2.19l.45,2.24a4.92,4.92,0,0,1-1,4.13A8.56,8.56,0,0,0,183.52,81.63Z"/><ellipse class="cls-8" cx="192.31" cy="80.24" rx="6.24" ry="6.36" transform="translate(-11.18 35.39) rotate(-10.22)"/><path class="cls-3" d="M187.74,82.75a.19.19,0,0,1-.14,0,.55.55,0,0,1-.37-.46l-.35-16.62a.46.46,0,0,1,.49-.48.46.46,0,0,1,.46.5l.28,14.9.38-.75a.61.61,0,0,1,.34-.25.48.48,0,0,1,.4.17l.66.75.6-.88a.5.5,0,0,1,.29-.2.47.47,0,0,1,.35.08l.61.52.53-1a.47.47,0,0,1,.79-.09l.35.37.58-.74a.44.44,0,0,1,.65-.06l.67.6.21-.43a.59.59,0,0,1,.33-.25.52.52,0,0,1,.39.08l.11.07-6.42-13.31a.46.46,0,1,1,.83-.39L198,80a.48.48,0,0,1-.22.61.44.44,0,0,1-.48,0l-1.22-1-.21.42a.57.57,0,0,1-.33.26.44.44,0,0,1-.4-.12l-.78-.64-.61.79a.37.37,0,0,1-.35.16.42.42,0,0,1-.37-.18l-.24-.29-.46.86a.56.56,0,0,1-.33.25.52.52,0,0,1-.39-.08l-.67-.55-.67,1a.45.45,0,0,1-.65.11.14.14,0,0,1-.06-.08l-.64-.66L188,82.46A.25.25,0,0,1,187.74,82.75Z"/><path class="cls-4" d="M188,64.69l2-.41a2.89,2.89,0,0,1,3.33,2.32h0l.39,1.93-7.47,1.56-.39-1.93A2.87,2.87,0,0,1,188,64.69Z"/><path class="cls-5" d="M186.05,68.63l7.53-1.55a.36.36,0,0,1,.42.26h0a.39.39,0,0,1-.25.43l-7.53,1.55a.38.38,0,0,1-.42-.26h0a.29.29,0,0,1,.25-.43Z"/><path class="cls-5" d="M185.8,67.52,193.33,66a.41.41,0,0,1,.43.26h0a.4.4,0,0,1-.26.43L186,68.21a.39.39,0,0,1-.42-.26h0a.36.36,0,0,1,.25-.43Z"/><path class="cls-5" d="M185.49,66.45,193,64.9a.41.41,0,0,1,.43.26h0a.4.4,0,0,1-.26.43l-7.52,1.55a.39.39,0,0,1-.43-.26h0a.37.37,0,0,1,.25-.43Z"/><path class="cls-6" d="M191.14,87.92h0c-.15,0-4.07-.28-6.32-4.89a.47.47,0,0,1,.26-.62.52.52,0,0,1,.6.18A7.18,7.18,0,0,0,191.2,87a.45.45,0,0,1,.42.5A.6.6,0,0,1,191.14,87.92Z"/><ellipse class="cls-6" cx="184.74" cy="81.84" rx="0.37" ry="0.38" transform="translate(-11.59 34.07) rotate(-10.22)"/><path class="cls-7" d="M250.28,76a8.9,8.9,0,0,0,17.79.52,8.71,8.71,0,0,0-3.15-7,4.8,4.8,0,0,1-1.71-3.94l.06-2.23a1.83,1.83,0,0,0-1.82-1.9l-3.87-.1a1.86,1.86,0,0,0-1.91,1.81l-.07,2.27a4.91,4.91,0,0,1-1.91,3.8A8.57,8.57,0,0,0,250.28,76Z"/><ellipse class="cls-8" cx="259.16" cy="76.59" rx="6.36" ry="6.24" transform="translate(169.58 331.55) rotate(-87.11)"/><path class="cls-3" d="M254.14,78a.15.15,0,0,1-.13,0,.55.55,0,0,1-.26-.54l3.44-16.27a.45.45,0,0,1,.57-.35.46.46,0,0,1,.35.59L255,76l.55-.63a.59.59,0,0,1,.38-.18.49.49,0,0,1,.36.26l.47.88.78-.72a.53.53,0,0,1,.33-.13.43.43,0,0,1,.32.16l.48.64.74-.86a.45.45,0,0,1,.43-.17.47.47,0,0,1,.36.26l.26.44.73-.58a.45.45,0,0,1,.65.08l.52.74.3-.37a.54.54,0,0,1,.38-.17.52.52,0,0,1,.36.16l.09.1-3.23-14.42a.48.48,0,0,1,.35-.55.47.47,0,0,1,.54.36l3.65,16.39a.49.49,0,0,1-.35.55A.44.44,0,0,1,264,78l-1-1.23-.29.36a.58.58,0,0,1-.38.17.42.42,0,0,1-.37-.21l-.61-.79-.78.63a.34.34,0,0,1-.37.07c-.14,0-.23-.1-.32-.25l-.17-.34-.64.73a.56.56,0,0,1-.38.17.55.55,0,0,1-.37-.16l-.52-.69-.88.81a.44.44,0,0,1-.65,0s0,0,0-.09l-.48-.79-1.28,1.41A.25.25,0,0,1,254.14,78Z"/><path class="cls-4" d="M258.5,60.48l2.05.05a2.88,2.88,0,0,1,2.71,3h0l-.05,2-7.63-.18,0-2a2.88,2.88,0,0,1,2.87-2.89Z"/><path class="cls-5" d="M255.7,63.87l7.68.2a.36.36,0,0,1,.35.35h0a.39.39,0,0,1-.34.36l-7.68-.2a.39.39,0,0,1-.36-.35h0c0-.24.11-.37.35-.36Z"/><path class="cls-5" d="M255.71,62.73l7.68.2a.39.39,0,0,1,.35.35h0a.39.39,0,0,1-.34.36l-7.68-.2a.39.39,0,0,1-.36-.35h0a.36.36,0,0,1,.35-.36Z"/><path class="cls-5" d="M255.65,61.62l7.68.2a.4.4,0,0,1,.36.35h0a.4.4,0,0,1-.35.36l-7.68-.2a.4.4,0,0,1-.36-.35h0a.36.36,0,0,1,.35-.36Z"/><path class="cls-6" d="M256.27,83.81h0a8.11,8.11,0,0,1-5.05-6.2.48.48,0,0,1,.4-.55.53.53,0,0,1,.54.32,7.18,7.18,0,0,0,4.43,5.5.44.44,0,0,1,.3.58A.6.6,0,0,1,256.27,83.81Z"/><ellipse class="cls-6" cx="251.42" cy="76.44" rx="0.38" ry="0.37" transform="translate(162.39 323.68) rotate(-87.11)"/><path class="cls-7" d="M207.12,42.59a8.9,8.9,0,0,0,17.44-3.53A8.7,8.7,0,0,0,219.92,33a4.82,4.82,0,0,1-2.56-3.45l-.45-2.18a1.83,1.83,0,0,0-2.2-1.44l-3.79.78a1.85,1.85,0,0,0-1.45,2.19l.45,2.23a5,5,0,0,1-1,4.14A8.59,8.59,0,0,0,207.12,42.59Z"/><ellipse class="cls-8" cx="215.91" cy="41.19" rx="6.24" ry="6.36" transform="translate(-3.88 38.96) rotate(-10.22)"/><path class="cls-3" d="M211.35,43.7a.16.16,0,0,1-.15,0,.55.55,0,0,1-.37-.46l-.35-16.62a.46.46,0,0,1,.49-.48.46.46,0,0,1,.46.5l.28,14.9.38-.75a.57.57,0,0,1,.34-.25.49.49,0,0,1,.41.17l.65.75.6-.88a.49.49,0,0,1,.3-.2.46.46,0,0,1,.34.08l.62.52.52-1a.45.45,0,0,1,.38-.26.47.47,0,0,1,.41.16l.35.37.58-.73a.45.45,0,0,1,.65-.07l.67.61.21-.43a.57.57,0,0,1,.34-.25.53.53,0,0,1,.39.07l.11.08-6.43-13.31a.5.5,0,0,1,.22-.62.47.47,0,0,1,.61.23l7.27,15.13a.49.49,0,0,1-.22.62.43.43,0,0,1-.48-.06l-1.22-1-.21.42a.57.57,0,0,1-.33.26.42.42,0,0,1-.4-.13l-.78-.63-.61.79a.36.36,0,0,1-.35.16.39.39,0,0,1-.36-.18l-.25-.29-.46.85a.57.57,0,0,1-.33.26.53.53,0,0,1-.39-.08l-.67-.55-.67,1a.44.44,0,0,1-.64.11s-.06,0-.07-.08l-.64-.66-.93,1.66A.24.24,0,0,1,211.35,43.7Z"/><path class="cls-4" d="M211.62,25.65l2-.41A2.88,2.88,0,0,1,217,27.56h0l.4,1.93-7.47,1.56-.4-1.93a2.88,2.88,0,0,1,2.14-3.47Z"/><path class="cls-5" d="M209.65,29.59,217.18,28a.37.37,0,0,1,.43.26h0a.4.4,0,0,1-.26.43l-7.53,1.55a.38.38,0,0,1-.42-.26h0a.29.29,0,0,1,.25-.43Z"/><path class="cls-5" d="M209.4,28.48l7.53-1.55a.39.39,0,0,1,.43.26h0a.4.4,0,0,1-.26.43l-7.52,1.55a.4.4,0,0,1-.43-.26h0a.36.36,0,0,1,.25-.43Z"/><path class="cls-5" d="M209.1,27.41l7.52-1.55a.4.4,0,0,1,.43.26h0a.4.4,0,0,1-.26.43l-7.52,1.55a.4.4,0,0,1-.43-.26h0a.36.36,0,0,1,.26-.43Z"/><path class="cls-6" d="M214.74,48.88h-.05c-.14,0-4.07-.28-6.32-4.89a.48.48,0,0,1,.27-.63.54.54,0,0,1,.6.18,7.16,7.16,0,0,0,5.56,4.36.44.44,0,0,1,.42.5A.6.6,0,0,1,214.74,48.88Z"/><ellipse class="cls-6" cx="208.34" cy="42.8" rx="0.37" ry="0.38" transform="translate(-4.29 37.64) rotate(-10.22)"/><path class="cls-7" d="M62,52.26a8.9,8.9,0,0,0,17.79.1,8.71,8.71,0,0,0-3.31-6.88,4.84,4.84,0,0,1-1.81-3.9V39.35a1.83,1.83,0,0,0-1.86-1.85H69a1.86,1.86,0,0,0-1.87,1.85v2.28a4.94,4.94,0,0,1-1.83,3.84A8.56,8.56,0,0,0,62,52.26Z"/><ellipse class="cls-8" cx="70.9" cy="52.69" rx="6.36" ry="6.24" transform="translate(16.33 122.15) rotate(-88.46)"/><path class="cls-3" d="M65.92,54.22a.19.19,0,0,1-.13-.06.53.53,0,0,1-.27-.53l3-16.34a.47.47,0,1,1,.92.21L66.72,52.15l.53-.65a.53.53,0,0,1,.38-.18.47.47,0,0,1,.37.24l.49.87.76-.74a.53.53,0,0,1,.33-.13.39.39,0,0,1,.32.15l.5.63.72-.88a.47.47,0,0,1,.43-.18.45.45,0,0,1,.36.25l.27.43.71-.6a.45.45,0,0,1,.65.07l.54.73.29-.38a.62.62,0,0,1,.38-.18.55.55,0,0,1,.37.16l.09.09L71.64,37.51a.46.46,0,1,1,.89-.21l4,16.3a.49.49,0,0,1-.34.56.43.43,0,0,1-.46-.16l-1-1.21-.29.37a.53.53,0,0,1-.38.18.41.41,0,0,1-.37-.2l-.63-.77-.76.64a.38.38,0,0,1-.38.09c-.14,0-.23-.11-.32-.25l-.17-.34-.63.75a.54.54,0,0,1-.38.17.51.51,0,0,1-.37-.15l-.54-.68-.86.83a.44.44,0,0,1-.65,0,.19.19,0,0,1,0-.1l-.49-.77L66.26,54A.26.26,0,0,1,65.92,54.22Z"/><path class="cls-4" d="M69.87,36.59h2a2.88,2.88,0,0,1,2.78,2.95h0v2H67.06v-2a2.87,2.87,0,0,1,2.8-3Z"/><path class="cls-5" d="M67.14,40.05l7.69,0a.35.35,0,0,1,.36.34h0a.39.39,0,0,1-.33.37l-7.69,0a.38.38,0,0,1-.36-.34h0c0-.24.1-.37.33-.37Z"/><path class="cls-5" d="M67.13,38.91l7.68,0a.4.4,0,0,1,.37.34h0a.4.4,0,0,1-.34.37l-7.69,0a.39.39,0,0,1-.36-.34h0a.37.37,0,0,1,.34-.37Z"/><path class="cls-5" d="M67,37.8l7.69,0a.39.39,0,0,1,.36.34h0a.4.4,0,0,1-.34.37H67.07a.4.4,0,0,1-.36-.35h0A.36.36,0,0,1,67,37.8Z"/><path class="cls-6" d="M68.19,60h0c-.14,0-3.93-1.1-5.2-6.07a.48.48,0,0,1,.39-.56.54.54,0,0,1,.55.3A7.12,7.12,0,0,0,68.45,59a.45.45,0,0,1,.31.58A.61.61,0,0,1,68.19,60Z"/><ellipse class="cls-6" cx="63.17" cy="52.72" rx="0.38" ry="0.37" transform="translate(8.78 114.45) rotate(-88.46)"/><path class="cls-7" d="M10.06,74.26a8.89,8.89,0,0,0,17.41,3.65,8.7,8.7,0,0,0-1.87-7.4,4.84,4.84,0,0,1-1-4.18l.46-2.18A1.83,1.83,0,0,0,23.61,62l-3.79-.79a1.87,1.87,0,0,0-2.2,1.44l-.47,2.23a4.9,4.9,0,0,1-2.55,3.4A8.56,8.56,0,0,0,10.06,74.26Z"/><ellipse class="cls-8" cx="18.68" cy="76.45" rx="6.36" ry="6.24" transform="matrix(0.23, -0.97, 0.97, 0.23, -60.02, 77.35)"/><path class="cls-3" d="M13.49,77a.17.17,0,0,1-.12-.07.57.57,0,0,1-.16-.58l6.26-15.4a.47.47,0,1,1,.86.39l-5.64,13.8.65-.53a.54.54,0,0,1,.41-.1.48.48,0,0,1,.31.31l.3,1,.9-.57a.52.52,0,0,1,.35-.07.37.37,0,0,1,.28.22l.36.71.89-.72a.45.45,0,0,1,.45-.09.47.47,0,0,1,.31.32l.17.48.82-.45a.45.45,0,0,1,.63.2l.38.82.36-.31a.58.58,0,0,1,.4-.1.54.54,0,0,1,.34.22l.06.12-.63-14.77a.49.49,0,0,1,.45-.48.49.49,0,0,1,.47.45L24,78.48a.5.5,0,0,1-.45.48.46.46,0,0,1-.42-.25l-.73-1.38-.36.3a.53.53,0,0,1-.4.1.41.41,0,0,1-.32-.27l-.47-.88-.87.48a.37.37,0,0,1-.39,0c-.13,0-.2-.14-.26-.3l-.11-.37L18.5,77a.58.58,0,0,1-.4.1.49.49,0,0,1-.33-.23l-.4-.77-1,.64a.44.44,0,0,1-.63-.14.18.18,0,0,1,0-.11l-.32-.85L13.87,76.8A.26.26,0,0,1,13.49,77Z"/><path class="cls-4" d="M20.88,60.48l2,.41A2.9,2.9,0,0,1,25,64.34h0l-.4,1.93-7.48-1.53.4-1.93a2.87,2.87,0,0,1,3.33-2.33Z"/><path class="cls-5" d="M17.52,63.32l7.53,1.55a.38.38,0,0,1,.29.41h0a.42.42,0,0,1-.41.3L17.41,64a.38.38,0,0,1-.29-.4h0a.29.29,0,0,1,.4-.3Z"/><path class="cls-5" d="M17.73,62.2l7.53,1.55a.42.42,0,0,1,.29.41h0a.41.41,0,0,1-.41.3L17.62,62.9a.39.39,0,0,1-.29-.4h0a.36.36,0,0,1,.4-.3Z"/><path class="cls-5" d="M17.94,61.15l7.53,1.55a.41.41,0,0,1,.29.41h0a.41.41,0,0,1-.41.29l-7.52-1.55a.39.39,0,0,1-.29-.41h0a.35.35,0,0,1,.4-.29Z"/><path class="cls-6" d="M14.56,83.05h0c-.13-.08-3.63-1.87-3.87-7a.47.47,0,0,1,.49-.47.53.53,0,0,1,.48.4A7.14,7.14,0,0,0,15,82.18a.45.45,0,0,1,.18.63A.6.6,0,0,1,14.56,83.05Z"/><ellipse class="cls-6" cx="11.09" cy="74.93" rx="0.38" ry="0.37" transform="translate(-64.41 68.79) rotate(-76.92)"/><path class="cls-1" d="M42.12,80a8.88,8.88,0,1,0,15.22-5.09A5.08,5.08,0,0,1,56,70.78l.31-2.22a1.87,1.87,0,0,0-1.61-2.06l-3.83-.45a1.86,1.86,0,0,0-2.07,1.61l-.25,2.26a5.11,5.11,0,0,1-2.27,3.63A8.48,8.48,0,0,0,42.12,80Z"/><circle class="cls-2" cx="50.84" cy="81.41" r="6.4"/><path class="cls-3" d="M45.6,82.37c-.05,0-.1-.05-.15-.05a.48.48,0,0,1-.21-.56l5.09-15.87a.59.59,0,0,1,.66-.35.51.51,0,0,1,.3.66h0L46.76,80.3l.55-.5a.48.48,0,0,1,.45-.1.55.55,0,0,1,.36.3l.4.86.86-.66a.54.54,0,0,1,.7.1h0l.4.66.81-.76a.48.48,0,0,1,.45-.1.55.55,0,0,1,.36.3l.2.46.75-.51a.55.55,0,0,1,.41,0c.15,0,.25.1.3.25l.45.76.3-.3a.59.59,0,0,1,.41-.15.42.42,0,0,1,.35.2h0L53.41,66.45a.46.46,0,0,1,.45-.56c.3,0,.55.16.55.46l2.12,16.72a.5.5,0,0,1-.45.56.49.49,0,0,1-.46-.2l-.85-1.31-.31.3a.57.57,0,0,1-.4.15.38.38,0,0,1-.35-.25l-.51-.86-.85.51a.41.41,0,0,1-.41,0,.47.47,0,0,1-.3-.31l-.15-.35-.7.66a.41.41,0,0,1-.41.1.37.37,0,0,1-.35-.26l-.45-.7-1,.7a.62.62,0,0,1-.45.11.88.88,0,0,1-.36-.26l-.35-.8-1.41,1.26A.4.4,0,0,1,45.6,82.37Z"/><path class="cls-4" d="M51.64,65.44l2.37.31a2.66,2.66,0,0,1,2.27,3L56,70.83l-7.56-.93.25-2.07A2.61,2.61,0,0,1,51.64,65.44Z"/><path class="cls-5" d="M48.52,68.36l7.81,1a.33.33,0,0,1,.3.35h0a.34.34,0,0,1-.35.31h0l-7.81-1a.33.33,0,0,1-.3-.35h0c0-.21.15-.31.35-.31Z"/><path class="cls-5" d="M48.67,67.25l7.81,1a.32.32,0,0,1,.3.4h0a.32.32,0,0,1-.4.31h0l-7.81-1a.32.32,0,0,1-.3-.4h0a.44.44,0,0,1,.4-.31Z"/><path class="cls-5" d="M48.82,66.2l7.81,1c.2,0,.3.21.3.36h0c0,.2-.2.3-.4.3h0l-7.81-1a.33.33,0,0,1-.3-.35h0a.32.32,0,0,1,.4-.3Z"/><path class="cls-6" d="M47.26,88.36h-.1a8.26,8.26,0,0,1-4.59-6.7.48.48,0,0,1,.46-.55h0a.5.5,0,0,1,.55.45,7.3,7.3,0,0,0,3.93,5.9.5.5,0,0,1,.25.65.35.35,0,0,1-.5.25Z"/><circle class="cls-6" cx="43.03" cy="80.5" r="0.4"/><path class="cls-1" d="M150.43,85.66a8.88,8.88,0,1,0,13.31-9,5.08,5.08,0,0,1-2.4-3.57l-.29-2.21a1.88,1.88,0,0,0-2.11-1.57l-3.81.59a1.86,1.86,0,0,0-1.56,2.1l.36,2.25a5.15,5.15,0,0,1-1.22,4.1A8.51,8.51,0,0,0,150.43,85.66Z"/><circle class="cls-2" cx="159.22" cy="84.75" r="6.4"/><path class="cls-3" d="M154.43,87.06c-.05,0-.11,0-.16,0a.48.48,0,0,1-.34-.48l.68-16.66a.57.57,0,0,1,.53-.51.51.51,0,0,1,.47.55h0L155,84.77l.4-.64a.51.51,0,0,1,.41-.22.53.53,0,0,1,.42.2l.62.72.65-.86a.55.55,0,0,1,.71-.09h0l.56.52.58-.94a.49.49,0,0,1,.41-.22.55.55,0,0,1,.42.2l.31.38.6-.68a.49.49,0,0,1,.37-.16.4.4,0,0,1,.36.16l.64.61.21-.37a.57.57,0,0,1,.35-.25.4.4,0,0,1,.39.1h0l-5.69-13.59A.46.46,0,0,1,158,69c.3-.09.58,0,.66.28l6.49,15.56a.5.5,0,0,1-.29.66.52.52,0,0,1-.49-.07l-1.17-1-.21.37a.58.58,0,0,1-.35.26.39.39,0,0,1-.41-.15l-.71-.69-.69.71a.39.39,0,0,1-.38.15.42.42,0,0,1-.37-.21l-.24-.3-.51.82a.38.38,0,0,1-.36.21.37.37,0,0,1-.4-.15l-.63-.56-.73.93c-.07.13-.27.18-.41.22a.92.92,0,0,1-.41-.15l-.56-.68-1,1.59A.41.41,0,0,1,154.43,87.06Z"/><path class="cls-4" d="M155.75,69.14l2.36-.33a2.65,2.65,0,0,1,3,2.29l.31,2.07-7.54,1.11-.3-2.06A2.6,2.6,0,0,1,155.75,69.14Z"/><path class="cls-5" d="M153.51,72.79l7.79-1.16a.33.33,0,0,1,.38.26h0a.35.35,0,0,1-.26.39h0l-7.78,1.15a.33.33,0,0,1-.39-.26h0a.31.31,0,0,1,.26-.38Z"/><path class="cls-5" d="M153.36,71.68l7.79-1.16a.33.33,0,0,1,.4.31h0a.33.33,0,0,1-.31.4h0l-7.78,1.15a.32.32,0,0,1-.4-.3h0a.44.44,0,0,1,.3-.4Z"/><path class="cls-5" d="M153.23,70.62,161,69.46a.35.35,0,0,1,.39.26h0c0,.2-.12.35-.31.4h0l-7.78,1.16a.34.34,0,0,1-.39-.26h0a.32.32,0,0,1,.31-.4Z"/><path class="cls-6" d="M157.63,92.4l-.1,0a8.27,8.27,0,0,1-6.21-5.24.49.49,0,0,1,.29-.66h0a.52.52,0,0,1,.66.29,7.3,7.3,0,0,0,5.36,4.64A.49.49,0,0,1,158,92a.34.34,0,0,1-.41.38Z"/><circle class="cls-6" cx="151.45" cy="85.95" r="0.4"/><path class="cls-1" d="M180.87,45.85a8.88,8.88,0,1,0,13.31-9,5.05,5.05,0,0,1-2.4-3.57l-.3-2.21a1.87,1.87,0,0,0-2.1-1.57l-3.82.59a1.87,1.87,0,0,0-1.56,2.1l.36,2.25a5.11,5.11,0,0,1-1.22,4.1A8.5,8.5,0,0,0,180.87,45.85Z"/><circle class="cls-2" cx="189.66" cy="44.94" r="6.4"/><path class="cls-3" d="M184.86,47.26c-.05,0-.11,0-.16,0a.48.48,0,0,1-.34-.48L185,30.12a.58.58,0,0,1,.54-.52.5.5,0,0,1,.46.55h0L185.43,45l.4-.64a.51.51,0,0,1,.41-.22.55.55,0,0,1,.42.2l.61.72.66-.86a.54.54,0,0,1,.7-.09h0l.56.52.58-.94a.51.51,0,0,1,.41-.22.55.55,0,0,1,.42.2l.32.38.59-.68a.52.52,0,0,1,.38-.16.38.38,0,0,1,.35.16l.64.61.21-.37a.6.6,0,0,1,.35-.25.42.42,0,0,1,.4.1h0l-5.69-13.59a.45.45,0,0,1,.29-.65c.29-.08.57,0,.65.29L195.59,45a.51.51,0,0,1-.78.59l-1.18-1-.21.37a.55.55,0,0,1-.35.26.39.39,0,0,1-.41-.15l-.71-.69-.69.71a.41.41,0,0,1-.38.16.46.46,0,0,1-.37-.22l-.24-.3-.5.82a.38.38,0,0,1-.36.21.39.39,0,0,1-.41-.15l-.63-.56-.73.94c-.07.12-.26.17-.41.21a1,1,0,0,1-.41-.15l-.55-.68-1,1.59A.41.41,0,0,1,184.86,47.26Z"/><path class="cls-4" d="M186.18,29.33l2.37-.33a2.64,2.64,0,0,1,3,2.29l.31,2.07-7.53,1.11L184,32.41A2.61,2.61,0,0,1,186.18,29.33Z"/><path class="cls-5" d="M184,33l7.78-1.16a.33.33,0,0,1,.38.26h0a.33.33,0,0,1-.25.39h0l-7.79,1.15a.32.32,0,0,1-.38-.26h0c-.06-.19.06-.33.26-.38Z"/><path class="cls-5" d="M183.8,31.87l7.78-1.16a.33.33,0,0,1,.4.31h0a.33.33,0,0,1-.31.4h0l-7.78,1.16a.33.33,0,0,1-.4-.31h0a.43.43,0,0,1,.31-.4Z"/><path class="cls-5" d="M183.66,30.81l7.78-1.16a.34.34,0,0,1,.39.26h0c0,.2-.11.35-.31.4h0l-7.78,1.16a.35.35,0,0,1-.39-.26h0a.32.32,0,0,1,.31-.4Z"/><path class="cls-6" d="M188.06,52.59l-.1,0a8.24,8.24,0,0,1-6.2-5.24.47.47,0,0,1,.29-.65h0a.49.49,0,0,1,.65.28,7.3,7.3,0,0,0,5.36,4.64.5.5,0,0,1,.42.56.35.35,0,0,1-.42.38Z"/><circle class="cls-6" cx="181.89" cy="46.14" r="0.4"/><path class="cls-9" d="M34.5,50.74a8.88,8.88,0,1,0,14.59-6.69,5.07,5.07,0,0,1-1.79-3.91l.06-2.24A1.87,1.87,0,0,0,45.54,36l-3.86,0A1.87,1.87,0,0,0,39.8,37.8v2.29a5.11,5.11,0,0,1-1.86,3.84A8.53,8.53,0,0,0,34.5,50.74Z"/><circle class="cls-10" cx="43.33" cy="51.26" r="6.4"/><path class="cls-3" d="M38.22,52.77s-.11,0-.16,0a.5.5,0,0,1-.26-.53l3.37-16.33a.58.58,0,0,1,.61-.42.51.51,0,0,1,.37.62h0l-3,14.51.5-.56a.49.49,0,0,1,.44-.15.56.56,0,0,1,.38.27L41,51l.78-.75a.55.55,0,0,1,.72,0h0l.47.61.72-.84a.49.49,0,0,1,.44-.15.53.53,0,0,1,.38.26l.25.43.7-.58a.5.5,0,0,1,.39-.09.39.39,0,0,1,.33.21l.53.71.27-.34a.58.58,0,0,1,.38-.19.43.43,0,0,1,.38.16h0L44.28,36.11a.45.45,0,0,1,.39-.6c.3,0,.57.09.6.39l3.89,16.4a.5.5,0,0,1-.86.45l-1-1.21-.27.33a.59.59,0,0,1-.38.2.39.39,0,0,1-.38-.22l-.59-.79-.8.59a.4.4,0,0,1-.4.09.45.45,0,0,1-.33-.27L44,51.14l-.63.72A.38.38,0,0,1,43,52a.4.4,0,0,1-.38-.21l-.52-.66-.88.81a.71.71,0,0,1-.44.15,1,1,0,0,1-.38-.22l-.43-.76-1.27,1.4A.4.4,0,0,1,38.22,52.77Z"/><path class="cls-4" d="M42.42,35.3l2.39.05a2.64,2.64,0,0,1,2.57,2.75l0,2.08-7.61-.11,0-2.09A2.61,2.61,0,0,1,42.42,35.3Z"/><path class="cls-5" d="M39.63,38.53l7.86.12a.33.33,0,0,1,.34.32h0a.34.34,0,0,1-.32.34h0l-7.86-.12a.33.33,0,0,1-.34-.32h0c0-.2.12-.32.32-.34Z"/><path class="cls-5" d="M39.66,37.41l7.87.12a.32.32,0,0,1,.34.37h0a.32.32,0,0,1-.37.34h0l-7.87-.11a.32.32,0,0,1-.34-.37h0a.45.45,0,0,1,.37-.35Z"/><path class="cls-5" d="M39.7,36.35l7.86.11a.34.34,0,0,1,.34.32h0c0,.2-.17.32-.37.35h0L39.67,37a.33.33,0,0,1-.34-.32h0a.32.32,0,0,1,.37-.34Z"/><path class="cls-6" d="M40.51,58.55h-.1a8.22,8.22,0,0,1-5.27-6.17.48.48,0,0,1,.39-.6h0a.51.51,0,0,1,.6.39,7.3,7.3,0,0,0,4.54,5.45.5.5,0,0,1,.32.62.35.35,0,0,1-.48.3Z"/><circle class="cls-6" cx="35.47" cy="51.19" r="0.4"/><path class="cls-9" d="M222.74,73.11a8.88,8.88,0,1,0,15.65-3.53,5.1,5.1,0,0,1-.94-4.2l.52-2.17A1.86,1.86,0,0,0,236.58,61l-3.77-.84a1.87,1.87,0,0,0-2.21,1.4l-.48,2.23a5.17,5.17,0,0,1-2.62,3.38A8.48,8.48,0,0,0,222.74,73.11Z"/><circle class="cls-10" cx="231.26" cy="75.44" r="6.4"/><path class="cls-3" d="M226,75.86s-.09-.06-.14-.06a.48.48,0,0,1-.15-.57L232.33,60a.57.57,0,0,1,.69-.28.5.5,0,0,1,.23.68h0l-5.93,13.58.6-.45a.47.47,0,0,1,.46,0,.55.55,0,0,1,.32.33l.31.89.92-.56a.54.54,0,0,1,.69.17h0L231,75l.88-.67a.47.47,0,0,1,.46,0,.54.54,0,0,1,.32.34l.15.47.81-.43a.55.55,0,0,1,.4,0c.15.07.24.13.28.28l.37.8.33-.27a.61.61,0,0,1,.42-.11.43.43,0,0,1,.33.24h0l-.38-14.73a.46.46,0,0,1,.51-.5c.3,0,.53.2.5.51l.42,16.85a.51.51,0,0,1-.94.26l-.72-1.39-.33.27a.61.61,0,0,1-.42.11.37.37,0,0,1-.32-.29l-.42-.9-.9.41a.4.4,0,0,1-.41,0,.46.46,0,0,1-.27-.33l-.11-.36-.77.58a.4.4,0,0,1-.41.06.37.37,0,0,1-.32-.29l-.38-.75-1,.61a.65.65,0,0,1-.46,0,.87.87,0,0,1-.32-.28L228,74.6l-1.53,1.11A.42.42,0,0,1,226,75.86Z"/><path class="cls-4" d="M233.68,59.64l2.32.54A2.64,2.64,0,0,1,238,63.4l-.46,2-7.42-1.69.46-2A2.6,2.6,0,0,1,233.68,59.64Z"/><path class="cls-5" d="M230.28,62.22,238,64a.32.32,0,0,1,.26.38h0a.32.32,0,0,1-.38.26h0l-7.67-1.74a.34.34,0,0,1-.27-.38h0c0-.2.18-.29.39-.27Z"/><path class="cls-5" d="M230.54,61.14l7.67,1.74a.32.32,0,0,1,.26.43h0a.32.32,0,0,1-.43.26h0l-7.67-1.74a.32.32,0,0,1-.26-.43h0a.43.43,0,0,1,.43-.26Z"/><path class="cls-5" d="M230.79,60.1l7.68,1.74a.32.32,0,0,1,.26.38h0c0,.2-.23.28-.43.26h0l-7.67-1.74a.34.34,0,0,1-.27-.38h0a.32.32,0,0,1,.43-.26Z"/><path class="cls-6" d="M227,82h-.1A8.29,8.29,0,0,1,223,74.86a.47.47,0,0,1,.5-.51h0a.5.5,0,0,1,.51.51,7.28,7.28,0,0,0,3.31,6.26.51.51,0,0,1,.19.68.36.36,0,0,1-.53.2Z"/><circle class="cls-6" cx="223.59" cy="73.75" r="0.4"/><path class="cls-5" d="M124.79,69.14l.13,0a1.55,1.55,0,0,1,1.47,1.64h0l-3.25-.15h0A1.62,1.62,0,0,1,124.79,69.14Z"/><path class="cls-11" d="M115.62,84.19a8.45,8.45,0,1,0,14.11-5.84,4.64,4.64,0,0,1-1.54-3.78l.09-2.14a1.77,1.77,0,0,0-1.69-1.85l-3.66-.18a1.78,1.78,0,0,0-1.85,1.69l-.1,2.15a4.72,4.72,0,0,1-1.9,3.6A8.39,8.39,0,0,0,115.62,84.19Z"/><circle class="cls-12" cx="124.07" cy="84.99" r="6.07"/><path class="cls-3" d="M119.15,86.21a.4.4,0,0,1-.35-.48v0l3.72-15.44A.37.37,0,0,1,123,70a.38.38,0,0,1,.3.52L120,84.39l.62-.66a.37.37,0,0,1,.36-.11.38.38,0,0,1,.3.21l.5.89.83-.71a.69.69,0,0,1,.32-.12.41.41,0,0,1,.27.17l.49.64.77-.81a.38.38,0,0,1,.36-.11.37.37,0,0,1,.3.22l.26.46.77-.55a.4.4,0,0,1,.58.1l.52.72.31-.33a.41.41,0,0,1,.6,0s0,0,.07,0l.18.2-2.83-14a.43.43,0,0,1,.33-.5.43.43,0,0,1,.5.33l3.19,15.77a.44.44,0,0,1-.25.47.38.38,0,0,1-.49-.13l-1-1.21-.31.37a.41.41,0,0,1-.6,0s0,0-.08-.06l-.59-.81-.81.58a.41.41,0,0,1-.58-.09l0-.05-.19-.37-.71.73a.44.44,0,0,1-.32.12.45.45,0,0,1-.31-.18l-.53-.68-.88.75a.42.42,0,0,1-.59-.06s0,0,0,0l-.46-.83L119.5,86.1A.49.49,0,0,1,119.15,86.21Z"/><path class="cls-4" d="M123.77,69.9l2.07.09a2.54,2.54,0,0,1,2.45,2.69l-.09,1.81L121,74.15l.09-1.81a2.65,2.65,0,0,1,2.73-2.44Z"/><path class="cls-5" d="M120.93,72.75l7.49.38c.18,0,.32.14.33.35h0a.32.32,0,0,1-.35.32h0l-7.5-.38a.39.39,0,0,1-.32-.35h0a.4.4,0,0,1,.35-.32Z"/><path class="cls-5" d="M121,71.7l7.49.38c.17,0,.31.18.33.35h0a.41.41,0,0,1-.35.33l-7.5-.38a.32.32,0,0,1-.32-.35h0c0-.18.13-.32.35-.33Z"/><path class="cls-5" d="M121.06,70.65l7.5.38a.39.39,0,0,1,.32.35h0c0,.17-.18.31-.35.32L121,71.32c-.18,0-.31-.18-.33-.35h0a.32.32,0,0,1,.35-.32Z"/><path class="cls-6" d="M121.12,91.8l-.09,0a7.76,7.76,0,0,1-4.74-6,.43.43,0,1,1,.84-.16,7,7,0,0,0,4.21,5.4.38.38,0,0,1,.29.52.42.42,0,0,1-.51.3Z"/><circle class="cls-6" cx="116.51" cy="84.67" r="0.38"/><path class="cls-5" d="M236.93,20.85h.13A1.55,1.55,0,0,1,238.93,22h0l-3.16.76h0A1.63,1.63,0,0,1,236.93,20.85Z"/><path class="cls-11" d="M232.31,37.86a8.45,8.45,0,1,0,11.93-9.53,4.65,4.65,0,0,1-2.53-3.2L241.2,23a1.78,1.78,0,0,0-2.14-1.3l-3.56.85a1.77,1.77,0,0,0-1.31,2.14l.51,2.09a4.74,4.74,0,0,1-.83,4A8.41,8.41,0,0,0,232.31,37.86Z"/><circle class="cls-12" cx="240.66" cy="36.28" r="6.07"/><path class="cls-3" d="M236.27,38.82a.39.39,0,0,1-.47-.36v-.05l-.72-15.86a.42.42,0,1,1,.84,0l.62,14.31.41-.81a.42.42,0,0,1,.67-.08l.72.72.61-.92a.62.62,0,0,1,.27-.2.33.33,0,0,1,.3.09l.65.47.51-1a.39.39,0,0,1,.32-.21.38.38,0,0,1,.35.13l.38.37.59-.74a.4.4,0,0,1,.58-.07l.7.55.2-.41a.42.42,0,0,1,.57-.19s0,0,.09,0l.23.14-6.63-12.66a.44.44,0,0,1,.18-.57.43.43,0,0,1,.57.18l7.46,14.25a.42.42,0,0,1-.11.52.38.38,0,0,1-.51,0l-1.24-.9-.2.44a.41.41,0,0,1-.57.2s0,0-.09,0l-.79-.63-.62.8a.41.41,0,0,1-.58.07l-.05,0-.29-.3-.48.9a.48.48,0,0,1-.27.2.47.47,0,0,1-.35-.09l-.7-.5-.64,1a.4.4,0,0,1-.58.11,0,0,0,0,1,0,0l-.68-.68-.89,1.67A.53.53,0,0,1,236.27,38.82Z"/><path class="cls-4" d="M236.17,21.87l2-.49a2.53,2.53,0,0,1,3.1,1.9l.42,1.77-7.06,1.69L234.22,25a2.65,2.65,0,0,1,1.95-3.11Z"/><path class="cls-5" d="M234.23,25.4l7.3-1.73a.33.33,0,0,1,.41.25h0a.33.33,0,0,1-.24.41h0l-7.31,1.72a.41.41,0,0,1-.41-.24h0a.4.4,0,0,1,.25-.41Z"/><path class="cls-5" d="M234,24.37l7.31-1.72c.16-.07.34.08.4.24h0a.4.4,0,0,1-.24.41L234.19,25a.32.32,0,0,1-.41-.24h0a.31.31,0,0,1,.24-.41Z"/><path class="cls-5" d="M233.77,23.34l7.31-1.72a.42.42,0,0,1,.41.25h0c.06.16-.09.34-.25.41L233.94,24a.36.36,0,0,1-.41-.25h0a.32.32,0,0,1,.24-.41Z"/><path class="cls-6" d="M239.71,43.64h-.08a7.73,7.73,0,0,1-6.23-4.48.42.42,0,1,1,.75-.39,7,7,0,0,0,5.55,4,.38.38,0,0,1,.43.41.44.44,0,0,1-.42.43Z"/><circle class="cls-6" cx="233.31" cy="38.08" r="0.38"/></svg>
