<?xml version="1.0" encoding="utf-8"?>
<!-- Generator: Adobe Illustrator 24.0.3, SVG Export Plug-In . SVG Version: 6.00 Build 0)  -->
<svg version="1.1" id="Layer_1" xmlns="http://www.w3.org/2000/svg" xmlns:xlink="http://www.w3.org/1999/xlink" x="0px" y="0px"
	 viewBox="0 0 1413 670" style="enable-background:new 0 0 1413 670;" xml:space="preserve">
<style type="text/css">
	.st0{fill:#333333;}
	.st1{fill:#D8F2E1;}
	.st2{fill:#E8F7ED;}
	.st3{fill:none;stroke:#EAD13F;stroke-width:10;stroke-linecap:round;stroke-linejoin:round;stroke-miterlimit:10;}
	.st4{fill:#010200;}
	.st5{fill:none;stroke:#FFFFFF;stroke-width:15;stroke-linecap:round;stroke-miterlimit:10;}
	.st6{fill:#FFFFFF;}
	.st7{fill:#F2C2C2;}
	.st8{fill:#F5CECE;}
	.st9{fill:#6564A5;}
	.st10{fill:#8483B7;}
	.st11{fill:#BF665E;}
	.st12{fill:#CC857E;}
</style>
<g>
	<path class="st0" d="M260.8,80l23,2.5c9.6,1,16.5,9.7,15.4,19.2l-1.1,10.5l-57.7-6.3l1.1-10.5C242.7,85.9,251.3,79,260.8,80z"/>
	<path class="st1" d="M91.8,340.2c-9,82.2,49.9,156.3,131.8,166.3c83.8,10.2,160.3-51,168.6-135.1c4.6-46.3-12.3-89.9-42.7-120.7
		c-17.9-18.3-26.4-43.8-23.6-69.3l4.1-37.9c1.9-17.3-10.7-32.9-28-34.8l-65.5-7.1c-17.3-1.9-32.9,10.7-34.8,28l-4.2,38.5
		c-2.8,25.3-16.6,48.1-37.9,61.9C123,253.8,96.9,293.3,91.8,340.2z"/>
	<circle class="st2" cx="240.9" cy="363.6" r="109"/>
	<polyline class="st3" points="290.7,107.5 330.9,392 310,361.5 297.6,374.3 283.8,352.7 262.2,366.4 255,349.5 233.7,369.3
		220.8,349.8 197.7,367.4 186.3,343 153.9,372.7 236.9,101.1 	"/>
	<path class="st4" d="M244.7,92.9l52.2,5.7c21.1,2.3,36.4,21.3,34.1,42.4l-4.4,40.3l-128.7-14l4.4-40.3
		C204.5,105.8,223.5,90.6,244.7,92.9z"/>
	<g>
		<path class="st0" d="M198.7,141.7l133.2,14.5c3.3,0.4,5.7,3.3,5.3,6.6l0,0c-0.4,3.3-3.3,5.7-6.6,5.3l-133.2-14.5
			c-3.3-0.4-5.7-3.3-5.3-6.6v0C192.5,143.7,195.4,141.3,198.7,141.7z"/>
		<path class="st0" d="M200.8,122.8L334,137.3c3.3,0.4,5.7,3.3,5.3,6.6v0c-0.4,3.3-3.3,5.7-6.6,5.3l-133.2-14.5
			c-3.3-0.4-5.7-3.3-5.3-6.6v0C194.5,124.8,197.5,122.4,200.8,122.8z"/>
		<path class="st0" d="M202.8,103.9l133.2,14.5c3.3,0.4,5.7,3.3,5.3,6.6v0c-0.4,3.3-3.3,5.7-6.6,5.3l-133.2-14.5
			c-3.3-0.4-5.7-3.3-5.3-6.6v0C196.6,105.9,199.6,103.5,202.8,103.9z"/>
	</g>
	<path class="st5" d="M183,474.4c0,0-61.8-23.8-73.9-106.6"/>
	<circle class="st6" cx="107.1" cy="349.5" r="6.5"/>
</g>
<g>
	<path class="st0" d="M557.6,111.5l23.1-0.8c9.6-0.3,17.7,7.2,18,16.9l0.3,10.6l-58,1.9l-0.3-10.6
		C540.4,119.8,548,111.8,557.6,111.5z"/>
	<path class="st7" d="M426.9,392.9c2.7,82.7,71.4,147.7,153.9,146c84.4-1.7,151.5-73.1,147.9-157.5c-2-46.5-24.9-87.2-59.2-113.5
		c-20.3-15.5-32.3-39.7-33.1-65.3l-1.2-38.1c-0.6-17.4-15.2-31.1-32.6-30.5l-65.8,2.1c-17.4,0.6-31.1,15.2-30.5,32.6l1.3,38.7
		c0.8,25.4-9.6,50-28.8,66.7C445.6,302.9,425.3,345.7,426.9,392.9z"/>
	<circle class="st8" cx="577.8" cy="395" r="109"/>
	<polyline class="st3" points="591,134.4 670.8,410.4 645.9,383.2 635.4,397.6 618.8,378.1 599.3,394.8 589.8,379.1 571.5,401.7
		555.9,384.2 535.6,404.9 520.8,382.3 492.9,416.2 536.8,135.7 	"/>
	<path class="st4" d="M543.4,126.4l52.5-1.7c21.3-0.7,39,16,39.7,37.2l1.3,40.5l-129.4,4.2l-1.3-40.5
		C505.5,144.9,522.1,127.1,543.4,126.4z"/>
	<g>
		<path class="st0" d="M504.8,181.2l133.9-4.4c3.3-0.1,6.1,2.5,6.2,5.8v0c0.1,3.3-2.5,6.1-5.8,6.2l-133.9,4.4
			c-3.3,0.1-6.1-2.5-6.2-5.8l0,0C498.9,184.1,501.5,181.3,504.8,181.2z"/>
		<path class="st0" d="M504.2,162.2l133.9-4.4c3.3-0.1,6.1,2.5,6.2,5.8v0c0.1,3.3-2.5,6.1-5.8,6.2l-133.9,4.4
			c-3.3,0.1-6.1-2.5-6.2-5.8l0,0C498.2,165.1,500.9,162.4,504.2,162.2z"/>
		<path class="st0" d="M503.5,143.3l133.9-4.4c3.3-0.1,6.1,2.5,6.2,5.8v0c0.1,3.3-2.5,6.1-5.8,6.2l-133.9,4.4
			c-3.3,0.1-6.1-2.5-6.2-5.8l0,0C497.6,146.2,500.2,143.4,503.5,143.3z"/>
	</g>
	<path class="st5" d="M536.1,512.9c0,0-64.5-14.9-88.1-95.2"/>
	<circle class="st6" cx="443.4" cy="399.9" r="6.5"/>
</g>
<g>
	<path class="st0" d="M922.8,141l23,2.5c9.6,1,16.5,9.7,15.4,19.2l-1.1,10.5l-57.7-6.3l1.1-10.5C904.7,146.9,913.3,140,922.8,141z"
		/>
	<path class="st9" d="M753.8,401.2c-9,82.2,49.9,156.3,131.8,166.3c83.8,10.2,160.3-51,168.6-135.1c4.6-46.3-12.3-89.9-42.7-120.7
		c-17.9-18.3-26.4-43.8-23.6-69.3l4.1-37.9c1.9-17.3-10.7-32.9-28-34.8l-65.5-7.1c-17.3-1.9-32.9,10.7-34.8,28l-4.2,38.5
		c-2.8,25.3-16.6,48.1-37.9,61.9C785,314.8,758.9,354.3,753.8,401.2z"/>
	<circle class="st10" cx="902.9" cy="424.6" r="109"/>
	<polyline class="st3" points="952.7,168.5 992.9,453 972,422.5 959.6,435.3 945.8,413.7 924.2,427.4 917,410.5 895.7,430.3
		882.8,410.8 859.7,428.4 848.3,404 815.9,433.7 898.9,162.1 	"/>
	<path class="st4" d="M906.7,153.9l52.2,5.7c21.1,2.3,36.4,21.3,34.1,42.4l-4.4,40.3l-128.7-14l4.4-40.3
		C866.5,166.8,885.5,151.6,906.7,153.9z"/>
	<g>
		<path class="st0" d="M860.7,202.7l133.2,14.5c3.3,0.4,5.7,3.3,5.3,6.6l0,0c-0.4,3.3-3.3,5.7-6.6,5.3l-133.2-14.5
			c-3.3-0.4-5.7-3.3-5.3-6.6v0C854.5,204.7,857.4,202.3,860.7,202.7z"/>
		<path class="st0" d="M862.8,183.8L996,198.3c3.3,0.4,5.7,3.3,5.3,6.6v0c-0.4,3.3-3.3,5.7-6.6,5.3l-133.2-14.5
			c-3.3-0.4-5.7-3.3-5.3-6.6v0C856.5,185.8,859.5,183.4,862.8,183.8z"/>
		<path class="st0" d="M864.8,164.9l133.2,14.5c3.3,0.4,5.7,3.3,5.3,6.6l0,0c-0.4,3.3-3.3,5.7-6.6,5.3l-133.2-14.5
			c-3.3-0.4-5.7-3.3-5.3-6.6v0C858.6,166.9,861.6,164.5,864.8,164.9z"/>
	</g>
	<path class="st5" d="M845,535.4c0,0-61.8-23.8-73.9-106.6"/>
	<circle class="st6" cx="769.1" cy="410.5" r="6.5"/>
</g>
<g>
	<path class="st0" d="M1219.3,95.2l23.1-1.5c9.6-0.6,17.9,6.6,18.6,16.2l0.7,10.5l-57.9,3.9l-0.7-10.5
		C1202.4,104.2,1209.7,95.9,1219.3,95.2z"/>
	<path class="st11" d="M1098.3,380.9c5.5,82.5,76.4,145.2,158.7,140.7c84.3-4.5,149-78.2,142.5-162.4
		c-3.6-46.4-27.8-86.3-63.1-111.4c-20.9-14.8-33.6-38.5-35.3-64.1l-2.5-38.1c-1.2-17.3-16.3-30.6-33.6-29.4l-65.7,4.4
		c-17.3,1.2-30.6,16.3-29.4,33.6l2.6,38.6c1.7,25.4-7.9,50.3-26.5,67.6C1113.9,290.3,1095.1,333.8,1098.3,380.9z"/>
	<circle class="st12" cx="1249.2" cy="377.9" r="109"/>
	<polyline class="st3" points="1253.5,117 1342.7,390.2 1316.9,363.8 1306.8,378.5 1289.5,359.6 1270.7,376.9 1260.6,361.6
		1243.1,384.8 1226.9,367.8 1207.3,389.2 1191.8,367.2 1165.1,402 1199.4,120.1 	"/>
	<path class="st4" d="M1205.6,110.7l52.4-3.5c21.2-1.4,39.6,14.6,41,35.8l2.7,40.4l-129.2,8.6l-2.7-40.4
		C1168.4,130.4,1184.4,112.1,1205.6,110.7z"/>
	<g>
		<path class="st0" d="M1168.9,166.7l133.7-8.9c3.3-0.2,6.2,2.3,6.4,5.6v0c0.2,3.3-2.3,6.2-5.6,6.4l-133.7,8.9
			c-3.3,0.2-6.2-2.3-6.4-5.6v0C1163.1,169.8,1165.6,167,1168.9,166.7z"/>
		<path class="st0" d="M1167.7,147.8l133.7-8.9c3.3-0.2,6.2,2.3,6.4,5.6v0c0.2,3.3-2.3,6.2-5.6,6.4l-133.7,8.9
			c-3.3,0.2-6.2-2.3-6.4-5.6l0,0C1161.8,150.9,1164.4,148,1167.7,147.8z"/>
		<path class="st0" d="M1166.4,128.8l133.7-8.9c3.3-0.2,6.2,2.3,6.4,5.6v0c0.2,3.3-2.3,6.2-5.6,6.4l-133.7,8.9
			c-3.3,0.2-6.2-2.3-6.4-5.6v0C1160.6,131.9,1163.1,129,1166.4,128.8z"/>
	</g>
	<path class="st5" d="M1211.5,497.1c0,0-65-12.7-91.3-92.1"/>
	<circle class="st6" cx="1115" cy="387.3" r="6.5"/>
</g>
<g>
	<g>
		<path d="M34.2,53.7c15.5,35.1,55.8,47.9,91.4,48.5c50.2,0.8,97.4-24.3,147.8-20.4c44.6,3.5,82.1,31.7,122.2,48.6
			c19.4,8.1,39.9,13.9,61.1,13.3c21.8-0.7,42.8-7.4,63.3-14.6c20.5-7.2,41.1-15.6,62.7-18.6c22-3.1,41.6,1.7,60,13.9
			c16.2,10.8,31.8,25.4,51.8,28.5c11,1.7,21.4-1,31.4-5.2c12.4-5.2,24.4-11,37.1-15.4c24.2-8.6,49.9-14.1,75.7-13.1
			c26.9,1.1,50.6,11.7,75.3,21.4c43.4,17.1,90.6,20.1,135.6,7.4c21.9-6.2,42.8-15.9,61.4-29c9.7-6.8,19.1-14.8,30.2-19.3
			c12.9-5.2,25.6-2,38.7,0.4c41.4,7.5,84.8-4.2,117.6-30.5c8.2-6.6,15.6-14.1,22.1-22.4c3.5-4.5-2.8-10.9-6.4-6.4
			c-26.6,33.8-68.9,53.7-111.9,52.5c-11.7-0.3-22.7-3.1-34.2-4.8c-11.3-1.7-21.7-0.6-32.1,4.1c-10.4,4.7-19.2,12-28.5,18.5
			c-9,6.3-18.6,11.9-28.5,16.6c-41.8,19.8-90.7,24.5-135.5,12.8c-24-6.3-45.9-18.4-69.8-25.1c-23.8-6.7-48.7-6.7-72.9-2.5
			c-24.5,4.3-47.8,13-70.4,23.3c-11.2,5.1-22.7,10-35.2,7.5c-9.9-2-18.7-7.3-27-13c-16.9-11.5-32.6-24.7-53.3-28.7
			c-19.4-3.8-39.3-0.3-58,5.2c-41.1,12.1-81.4,34.3-125.5,25c-41.7-8.8-76.7-35.7-116.3-50.2c-21.9-8.1-44.6-11.1-67.9-8.9
			c-25.5,2.4-50.1,9.5-75.1,14.7c-37.2,7.8-83.9,10.3-114.2-17.4c-6.6-6-11.5-13.2-15.1-21.3C39.6,43.8,31.9,48.4,34.2,53.7
			L34.2,53.7z"/>
	</g>
</g>
</svg>
